<mxfile host="app.diagrams.net" modified="2023-04-21T19:41:24.166Z" agent="Mozilla/5.0 (Macintosh; Intel Mac OS X 10_15_7) AppleWebKit/537.36 (KHTML, like Gecko) Chrome/112.0.0.0 Safari/537.36" etag="HbtBP1xU4v2ZmYyXwhha" version="21.2.1" type="github">
  <diagram name="Page-1" id="bg6d0bENWZC91Mdxq8Fm">
    <mxGraphModel dx="934" dy="501" grid="0" gridSize="10" guides="1" tooltips="1" connect="1" arrows="1" fold="1" page="1" pageScale="1" pageWidth="850" pageHeight="1100" math="0" shadow="0">
      <root>
        <mxCell id="0" />
        <mxCell id="1" parent="0" />
        <mxCell id="YfHYK15kVr6HZqa1mmcm-1" value="" style="shape=image;verticalLabelPosition=bottom;labelBackgroundColor=default;verticalAlign=top;aspect=fixed;imageAspect=0;image=data:image/png,iVBORw0KGgoAAAANSUhEUgAAA6YAAAJECAYAAAAFeTnWAAAMPmlDQ1BJQ0MgUHJvZmlsZQAASImVVwdYU8kWnluSkEBooUsJvQkiNYCUEFrovdkISYBQYgwEFTu6qODaxQI2dFVEwUqzI4qFRbH3xYKKsi4W7MqbFNB1X/nefN/c+e8/Z/5z5tyZe+8AoHaCIxLloeoA5AsLxXEhAfSU1DQ66SnAAQ1QAQq0OdwCETMmJgLAMtT+vby7DhBpe8VBqvXP/v9aNHj8Ai4ASAzEGbwCbj7EBwHAq7gicSEARClvPqVQJMWwAi0xDBDihVKcJcdVUpwhx3tlNglxLIjbAFBS4XDEWQCoXoI8vYibBTVU+yF2EvIEQgDU6BD75udP4kGcDrENtBFBLNVnZPygk/U3zYxhTQ4naxjL5yIrSoGCAlEeZ9r/mY7/XfLzJEM+rGBVyRaHxknnDPN2M3dSuBSrQNwnzIiKhlgT4g8CnsweYpSSLQlNlNujhtwCFswZ0IHYiccJDIfYEOJgYV5UhILPyBQEsyGGKwSdKihkJ0CsB/FCfkFQvMJms3hSnMIX2pApZjEV/FmOWOZX6uu+JDeRqdB/nc1nK/Qx1eLshGSIKRBbFAmSoiBWhdixIDc+XGEzpjibFTVkI5bESeO3gDiOLwwJkOtjRZni4DiFfVl+wdB8sc3ZAnaUAu8vzE4IlecHa+NyZPHDuWCX+EJm4pAOvyAlYmguPH5gkHzu2DO+MDFeofNBVBgQJx+LU0R5MQp73IyfFyLlzSB2LSiKV4zFkwrhgpTr45miwpgEeZx4cQ4nLEYeD74MRAAWCAR0IIE1A0wCOUDQ2dfYB+/kPcGAA8QgC/CBg4IZGpEs6xHCazwoBn9CxAcFw+MCZL18UAT5r8Os/OoAMmW9RbIRueAJxPkgHOTBe4lslHDYWxJ4DBnBP7xzYOXCePNglfb/e36I/c4wIROhYCRDHulqQ5bEIGIgMZQYTLTFDXBf3BuPgFd/WJ1xBu45NI/v9oQnhC7CQ8I1Qjfh1kRBifinKCNBN9QPVuQi48dc4FZQ0w0PwH2gOlTGdXAD4IC7Qj9M3A96doMsSxG3NCv0n7T/NoMfnobCjuxERsm6ZH+yzc8jVe1U3YZVpLn+MT/yWDOG880a7vnZP+uH7PNgG/6zJbYQO4C1Yyexc9gRrBHQseNYE9aBHZXi4dX1WLa6hrzFyeLJhTqCf/gberLSTBY41Tr1On2R9xXyp0rf0YA1STRNLMjKLqQz4ReBT2cLuY4j6c5Ozi4ASL8v8tfXm1jZdwPR6fjOzfsDAJ/jg4ODh79zYccB2OcBt3/zd86GAT8dygCcbeZKxEVyDpdeCPAtoQZ3mj4wBubABs7HGbgDb+APgkAYiAYJIBVMgNFnw3UuBlPADDAXlIJysAysBuvBJrAV7AR7wH7QCI6Ak+AMuAAugWvgDlw9PeAF6AfvwGcEQUgIFaEh+ogJYonYI84IA/FFgpAIJA5JRdKRLESISJAZyDykHFmBrEe2IDXIPqQZOYmcQ7qQW8gDpBd5jXxCMVQF1UKNUCt0FMpAmWg4moCOR7PQyWgxOh9dgq5Fq9HdaAN6Er2AXkO70RfoAAYwZUwHM8UcMAbGwqKxNCwTE2OzsDKsAqvG6rAW+JyvYN1YH/YRJ+I0nI47wBUciifiXHwyPgtfjK/Hd+INeBt+BX+A9+PfCFSCIcGe4EVgE1IIWYQphFJCBWE74RDhNNxLPYR3RCJRh2hN9IB7MZWYQ5xOXEzcQKwnniB2ER8RB0gkkj7JnuRDiiZxSIWkUtI60m7ScdJlUg/pg5KykomSs1KwUpqSUKlEqUJpl9IxpctKT5U+k9XJlmQvcjSZR55GXkreRm4hXyT3kD9TNCjWFB9KAiWHMpeyllJHOU25S3mjrKxspuypHKssUJ6jvFZ5r/JZ5QfKH1U0VexUWCrjVCQqS1R2qJxQuaXyhkqlWlH9qWnUQuoSag31FPU+9YMqTdVRla3KU52tWqnaoHpZ9aUaWc1Sjak2Qa1YrULtgNpFtT51srqVOkudoz5LvVK9Wf2G+oAGTWO0RrRGvsZijV0a5zSeaZI0rTSDNHma8zW3ap7SfETDaOY0Fo1Lm0fbRjtN69EiallrsbVytMq19mh1avVra2q7aidpT9Wu1D6q3a2D6VjpsHXydJbq7Ne5rvNJ10iXqcvXXaRbp3tZ973eCD1/Pb5emV693jW9T/p0/SD9XP3l+o369wxwAzuDWIMpBhsNThv0jdAa4T2CO6JsxP4Rtw1RQzvDOMPphlsNOwwHjIyNQoxERuuMThn1GesY+xvnGK8yPmbca0Iz8TURmKwyOW7ynK5NZ9Lz6GvpbfR+U0PTUFOJ6RbTTtPPZtZmiWYlZvVm98wp5gzzTPNV5q3m/RYmFpEWMyxqLW5bki0ZltmWayzbLd9bWVslWy2warR6Zq1nzbYutq61vmtDtfGzmWxTbXPVlmjLsM213WB7yQ61c7PLtqu0u2iP2rvbC+w32HeNJIz0HCkcWT3yhoOKA9OhyKHW4YGjjmOEY4ljo+PLURaj0kYtH9U+6puTm1Oe0zanO6M1R4eNLhndMvq1s50z17nS+aoL1SXYZbZLk8srV3tXvutG15tuNLdItwVurW5f3T3cxe517r0eFh7pHlUeNxhajBjGYsZZT4JngOdszyOeH73cvQq99nv95e3gneu9y/vZGOsx/DHbxjzyMfPh+Gzx6fal+6b7bvbt9jP14/hV+z30N/fn+W/3f8q0ZeYwdzNfBjgFiAMOBbxnebFmsk4EYoEhgWWBnUGaQYlB64PuB5sFZwXXBveHuIVMDzkRSggND10eeoNtxOaya9j9YR5hM8PawlXC48PXhz+MsIsQR7REopFhkSsj70ZZRgmjGqNBNDt6ZfS9GOuYyTGHY4mxMbGVsU/iRsfNiGuPp8VPjN8V/y4hIGFpwp1Em0RJYmuSWtK4pJqk98mBySuSu1NGpcxMuZBqkCpIbUojpSWlbU8bGBs0dvXYnnFu40rHXR9vPX7q+HMTDCbkTTg6UW0iZ+KBdEJ6cvqu9C+caE41ZyCDnVGV0c9lcddwX/D8eat4vXwf/gr+00yfzBWZz7J8slZm9Wb7ZVdk9wlYgvWCVzmhOZty3udG5+7IHcxLzqvPV8pPz28WagpzhW2TjCdNndQlsheVirone01ePblfHC7eXoAUjC9oKtSCP/IdEhvJL5IHRb5FlUUfpiRNOTBVY6pwasc0u2mLpj0tDi7+bTo+nTu9dYbpjLkzHsxkztwyC5mVMat1tvns+bN75oTM2TmXMjd37u8lTiUrSt7OS57XMt9o/pz5j34J+aW2VLVUXHpjgfeCTQvxhYKFnYtcFq1b9K2MV3a+3Km8ovzLYu7i87+O/nXtr4NLMpd0LnVfunEZcZlw2fXlfst3rtBYUbzi0crIlQ2r6KvKVr1dPXH1uQrXik1rKGska7rXRqxtWmexbtm6L+uz11+rDKisrzKsWlT1fgNvw+WN/hvrNhltKt/0abNg880tIVsaqq2qK7YStxZtfbItaVv7b4zfarYbbC/f/nWHcEf3zridbTUeNTW7DHctrUVrJbW9u8ftvrQncE9TnUPdlnqd+vK9YK9k7/N96fuu7w/f33qAcaDuoOXBqkO0Q2UNSMO0hv7G7MbuptSmruaw5tYW75ZDhx0P7zhieqTyqPbRpccox+YfGzxefHzghOhE38msk49aJ7beOZVy6mpbbFvn6fDTZ88EnznVzmw/ftbn7JFzXueazzPON15wv9DQ4dZx6He33w91unc2XPS42HTJ81JL15iuY5f9Lp+8EnjlzFX21QvXoq51XU+8fvPGuBvdN3k3n93Ku/XqdtHtz3fm3CXcLbunfq/ivuH96j9s/6jvdu8++iDwQcfD+Id3HnEfvXhc8PhLz/wn1CcVT02e1jxzfnakN7j30vOxz3teiF587iv9U+PPqpc2Lw/+5f9XR39Kf88r8avB14vf6L/Z8db1betAzMD9d/nvPr8v+6D/YedHxsf2T8mfnn6e8oX0Ze1X268t38K/3R3MHxwUccQc2a8ABiuamQnA6x0AUFMBoMHzGWWs/PwnK4j8zCpD4D9h+RlRVtwBqIP/77F98O/mBgB7t8HjF9RXGwdADBWABE+AurgM16GzmuxcKS1EeA7YHPo1Iz8D/JsiP3P+EPfPLZCquoKf238BC1t8PVNZSkMAAAA4ZVhJZk1NACoAAAAIAAGHaQAEAAAAAQAAABoAAAAAAAKgAgAEAAAAAQAAA6agAwAEAAAAAQAAAkQAAAAAWQqRzQAAQABJREFUeAHs3WvzbcV1HfwtYRRLMWAkgQwYbMBCARJikGJLMlWWVFScN6m81NfJ1+ElVam4qFJKWEJBKglQwBwiMGDjGMxBB2ywUQwBHn5LzzhabP0v+34dXbX2WntdumePnt1rjp7dvT7x4Udh0lAEikARKAJFoAgUgSJQBIpAESgCRWBLCHxyS+k22SJQBIpAESgCRaAIFIEiUASKQBEoAgMCJaZVhCJQBIpAESgCRaAIFIEiUASKQBHYKgIlpluFv4kXgSJQBIpAESgCRaAIFIEiUASKQIlpdaAIFIEiUASKQBEoAkWgCBSBIlAEtopAielW4W/iRaAIFIEiUASKQBEoAkWgCBSBIlBiWh0oAkWgCBSBIlAEikARKAJFoAgUga0iUGK6VfibeBEoAkWgCBSBIlAEikARKAJFoAiUmFYHikARKAJFoAgUgSJQBIpAESgCRWCrCJSYbhX+Jl4EikARKAJFoAgUgSJQBIpAESgCJabVgSJQBIpAESgCRaAIFIEiUASKQBHYKgIlpluFv4kXgSJQBIpAESgCRaAIFIEiUASKQIlpdaAIFIEiUASKQBEoAkWgCBSBIlAEtopAielW4W/iRaAIFIEiUASKQBEoAkWgCBSBIlBiWh0oAkWgCBSBIlAEikARKAJFoAgUga0iUGK6VfibeBEoAkWgCBSBIlAEikARKAJFoAiUmFYHikARKAJFoAgUgSJQBIpAESgCRWCrCJSYbhX+Jl4EikARKAJFoAgUgSJQBIpAESgCJabVgSJQBIpAESgCRaAIFIEiUASKQBHYKgIlpluFv4kXgSJQBIpAESgCRaAIFIEiUASKQIlpdaAIFIEiUASKQBEoAkWgCBSBIlAEtopAielW4W/iRaAIFIEiUASKQBEoAkWgCBSBIlBiWh0oAkWgCBSBIlAEikARKAJFoAgUga0iUGK6VfibeBEoAutG4MMPP5zYGopAESgCRaAIFIEiUAR2F4Hf2F3RKlkRKAJFYDkEpknpJz7xieUi7NNFoAgUgSJQBIpAESgCa0GgxHQtsDbSIlAENoHA//t//2/yL//yL5Nf/OIXk3/+538e9v/3//7fybvvvjt57733Ju+///7kgw8+GET55Cc/ObniiismV1555eRTn/rU5Dd/8zcnn/70pyf/+l//62H/r/7Vv5r8xm+0SdxEuTWNIlAEikARKAJFoAhMI1ArbBqR/i8CRWBvEEBKL168OPm7v/u7yV//9V8P+7//+7+fXLp0afLWW28NRBU5FZBSRPTqq6+efO5zn5v8zu/8zuSmm26a/P7v//6wv/7660tM96bkK2gRKAJFoAgUgSJwaAiUmB5aiTY/ReCAEUAyeUN5R998883J66+/PpDR1157bfLzn/988sYbb0z+8R//cbjuvnhLQeI4zxrSKy6e1n/4h3+YvPrqqwM5ve666ybXXnvt4EXlVUVmG4pAESgCRaAIFIEiUATWj8AnPpqD1VVB1o9zUygCRWAFCCCSyOeLL744efLJJycvvPDCQE4N0/3CF74wQSw/+9nPTq655prJb/3Wb00Mzw25RER5WP/pn/5pIK/iQWyRWqTVs7fffvvk3nvvndx2221DPDysDUWgCBSBIlAEikARKALrR6Ae0/Vj3BSKQBFYEgGeToTSMN3nnntuIKSG7vKOmheKjP7e7/3e5JZbbpnceOONA8n87d/+7cHzmXmj5qPytPKQIqSvvPLK5DOf+czgOUVSeWCff/75YW6qocB33HHHMNwXweU9bSgCRaAIFIEiUASKQBFYHwL1mK4P28ZcBIrAihBAHHlHn3jiicl3v/vdgZB+8YtfnPzBH/zBZQJpESNEk5eTp9QiR0hpVuI1OAQ5tShSFkx65513BrIawvtXf/VXAznlcf3mN785ue+++wYvKuLbUASKQBEoAkWgCBSBIrA+BOoxXR+2jbkIFIElEYin9G/+5m8mP/3pTyfPPPPM4PFEQm+99dbJH/7hH07uvPPOwUN6XlIIKs+nzfPjwIMa76mFlHhVpWWIcDyu9ZyOEetxESgCRaAIFIEiUARWi0CJ6WrxbGxFoAisEAHDd3lKkdLvfe97E5+C+drXvja56667Bk+pYbtW2V02iAPB5Sn93d/93cmFCxcmf/mXfzkM7xU3T6v5p/WcLot0ny8CRaAIFIEiUASKwMkIlJiejEvPFoEisEUEsvquIbaG7/JeIqUWODK89p577hm8pLycqwiG/lr8iCfV3FTfOM3CSE8//fSwOJJrhgl3td5VIN44ikARKAJFoAgUgSLwcQRKTD+OR/8VgSKwAwgYwmteqYWOzCk1tJanFCnlLUUikclVhxBUaQhI8WOPPTZ8KxUp5lHlNe1qvatGvvEVgSJQBIpAESgCx45Aiemxa0DzXwR2EAGr5/okjGG8Vt7lrUQWV+0pnc66T8vwwt5www3D3FJe2qeeemqQgSyf+9znBkJcYjqNXP8XgSJQBIpAESgCRWA5BEpMl8OvTxeBIrAGBHy6xXdK//qjT8JYfddCRz7fsi5P6XQW4jmV5v333z956aWXBlms9Ps7v/M7k89//vPTj/R/ESgCRaAIFIEiUASKwBIIfHKJZ/toESgCRWClCORbo+Z3xlvqkzBf/vKXh++T8mbyaq47xHNqcSVpk4Hnlkxk49Ela0MRKAJFoAgUgSJQBIrAahAoMV0Njo2lCBSBFSDg+6IXL16c+GQLAijwWloxdxWr784rYlbrJYNAJrKRkawNRaAIFIEiUASKQBEoAqtBoMR0NTg2liJQBFaAwC9+8YuB+L322mvDN0QtNGTo7KaG8E5nIUN6yUAW3zUlG3JK1oYiUASKQBEoAkWgCBSB1SBQYroaHBtLESgCK0DAEFnzSn/+858Pn4a57bbbhoWPVhD1UlFYfIksVuYlGxnJ2lAEikARKAJFoAgUgSKwGgRKTFeDY2MpAkVgBQjEY+pTMbykt9xyy7BK7gqiXioKc1vJQiay1WO6FJx9uAgUgSJQBIpAESgCv4ZAiemvQdITRaAIbAsBn2f5+7//+2GhIUNnLT60C59mIQNZyGQRJDKStaEIFIEiUASKQBEoAkVgNQj0czGrwbGxFIEisAIE3n333cmlS5eGYbLXXHPN1uaWTmclc03J9E//9E+TDz/8cELWhiJQBIpAESgCRaAIFIHVIFBiuhocG0sRKAIrQOC9996bvPXWWwPp+63f+q3Jb//2b098O3TbgQxkIZPhxu+///6ErA1FoAgUgSJQBIpAESgCq0GgxHQ1ODaWIlAElkDAN0ENjTVM9u233x5Wv+WltOjQb/zG9pspMpCFTAgpOX/2s59dXpjJ9d/8zd/8tW0XZF+iWPpoESgCRaAIFIEiUAQ2hsD2Lb6NZbUJFYEisKsIIKWvvvrq5JVXXhmGyvJMXnHFFQMp/cQnPrF1scmAZJLpgw8+mPyf//N/Jn/+538+eeqppyaukdcnZWxW7s2x8w1FoAgUgSJQBIpAESgC5yNQYno+Rr2jCBSBFSGAgP7DP/zD5J133pnES2rOppVuEdP/9b/+13Cdd3JXg/mlb7755uSnP/3p5KWXXhoWZ/r85z8/EGp5ef311wfiaugvL6pwnkc11+th3dVSr1xFoAgUgSJQBIrAuhEoMV03wo2/CBSBywggpcjnyy+/PBA5q9v+1V/91eTixYvD3E3zSx3fdNNNA3FFXpG1bXtNkVGy2AQLH7322mvD8GPe0QT5841Te1tW7h17VONN5VmNRzXX8z/xdV8EikARKAJFoAgUgWNBoMT0WEq6+SwCG0DgNI9oVrBFOp955pmBmCJuhu4ipjymgqGy5nHai+uf//mfh3mcn/rUpzYg/elJIKRk+Zd/+ZdhMSaLIVkECWHlFUUo5SdeUv95TxM87//Pf/7zgdzGsxqPqn0WV3Icz2k8qc6Nt1xP/N0XgSJQBIpAESgCRWDfESgx3fcSrPxFYIcQQM5O8oiGeJqfiaQZyuteHtIxgUO4kDrk1CJI7kFKt01MLXhElhDla6+9dvisDfLM6xtP6h/+4R9O/vRP/3Tyu7/7uwOxzvkQdnFYOMmeZ9V5Idfln0c1nlP7sYc1x7m+Q0VfUYpAESgCRaAIFIEisBQCJaZLwdeHi0ARgAByiaD97//9vyc/+tGPJi+++OLlc2OPKIIZUuWZeFKDIk+kb4Uipsib+Zr+b3vOKU8pWZDKq666aiCeZCKjjSc0pBLJlEfk1J6n0zn42AwBtnd/SLm9LZ7VMaHNuc5djZZ0XwSKQBEoAkWgCBwiAiWmh1iqzVMR2DACiNbDDz88+eEPfziQU0N2ESqELOSLSCFZOZ4WE3Hljfz0pz89kD1Dfc033XYwbJcsPL+I8pe+9KVBJPm2CBJimmMX/uZv/mby7//9v5/8wR/8weDxRE55Ow3X/f3f//0BF9iEgI6xQnRdE+zHHtYQ4VxHfONFzb5zVwfo+lMEikARKAJFoAjsGQIlpntWYBW3COwyAiFg8RIiUryi8YwaypvjcT4sbvTJT35y8pnPfGZy/fXXDx5SnkWLJN19993jW7dybOgxWXgtP/vZz05+7/d+b/CcWpXXkFykFAFHUH1KRv6RWfk3vJf31Ll4i0/LhDgSl3v8H3tYx8Te9fzv3FVoNBSBIlAEikARKAL7jECJ6T6XXmUvAjuCAG/dn/3Zn03++I//ePDyIWTxIPKkGs57VkBKeUuvvvrqyQ033DAQOMOBDe01r3PbgQzkQQBvvfXWyb/5N/9m8FSS95FHHrksXoi5E3/xF38x+dnPfjZcyzDf84hpnh97UsceVp5SW647jhd17FmNRzXXp9Mfe1r73dXLxdeDIlAEikARKAJFYIsIlJhuEfwmXQQOBQFEx7DVECFeQ4Rp3mDeJiLGc4oIGjqL4PJUIoHmnm4ymFtqgSYykIXHF5G7/fbbB88ujyZ5eU1Pyq9zhvoiksgsz2lW7j0pHwjkeeR1/Fw8rOQbe1adF+xt8ayOCW3Ode7qGNEeF4EiUASKQBEoAttCoMR0W8g33SJwgAggYlbl/clPfnJ5vinSdF7IEF/E0/xN5I2XFSl87rnnBqJ65513Tq677rrzolrpdek/++yzgwwilr45r4Ybk5WchuqGgCLm8oukW53Xf3j4RM5Xv/rVyVe+8pVh7ikP8ypCPKydu7oKNBtHESgCRaAIFIEisE0ESky3iX7TLgIHhkC8cJlribAhTZ///OeHnMajaj8Ovgf6/vvvDyvVfu5znxvI3x133DF5/vnnB4LqWlbnRQh953SdQXq8pRY8evzxxyfmkkqfpxQ5zSrBY2LKayrfQgijfBrOCwdE2/nxs/4vE+JhPc/LGs/q2JM69rCm3CJL/nfuahDpvggUgSJQBIpAEVg3AiWm60a48ReBI0IA0TLU1eJAhrhmLmOIE2+ioa3neVGtzHvvvfdOfD/0O9/5zuTv/u7vLg+DRQwN9V1nyOdheGsfffTR4burDzzwwCAT2RIQU6vvvvnmm8NcU8SPN9R5cz7hwXOKmFqp1+d0BHNWPbcqz2nkOW1PDmkhnIK98kGcx1uuO0dmW+eunoZqzxeBIlAEikARKAKrRKDEdJVoNq4icKQIIDTIzEmeUnMrETXXEbPxQkgWPeL1E0KKHPMq3nbbbZNLly5NfvzjHw8E6cKFCwPRu+uuu4YFktbhOY2n9NVXX51Iz4ZEkp+3lEzxeJIzhA/JswnxDvOgIuQZmmzlYUTP/Ft55SXO52RC3IcI1vATz+qsUcfDqgNh7Fkde1wdy0f24lbGOde5q7Oi3fuKQBEoAkWgCBQBCJSYVg+KQBFYGgGEJN7Qhx56aDhG1JBSK/Uidq7zLCJzCWPCFNLjmhV6fZbFcN5vfvObwxzNv/zLvxwWQXLdc+vwnMZTipBaTRgpI4NP1tiTiWzTQf7MNbW3IaA8wyHd//bf/tvLnlOr9bqGuDpvNWMEdZdCCLe8KEflG9JJTuTTf2Umr44F+7GH1bXx9XjQeW+z9burA3T9KQJFoAgUgSJw9AiUmB69ChSAIrA4AogI4sELyBuKcDlGyBAaxCuky/l410JQ4in0zU/zRj/96U8P+xwjL/fdd9/wjVOkFlF84oknBgKEKN54440rWa03q++aU2r4LmIqLQTt3/27fzeQTrKQ76QQYup+hJPnOKTUf15UBN2qvIYlBzfeY4spIXrigIc48uxJaW3inPTJkvI5LU3lqcMhnQr2Yw9rvKd5Pv87dzWIdF8EikARKAJFoAgEgRLTINF9ESgCcyOAlI5X4fUfgYuHMMN4kTP32XIPTyHCZu4lsoaQTXskESNDaEPUnn766cljjz02eeqppyb333//5Mtf/vJkFav1ZvVdCx2ZU2r4LuKLlFpJ15zZs0gaUmnOKIL9yEffNUW8EFHhRz/60UDYzTWNh1SeYIHU5Xunnt/U0N65C/qUB5SZ8kY4BfuxhxUBt+V6CDkdGHtWnRdyXXmLN5jb+2/rd1cHqPpTBIpAESgCReDgECgxPbgibYaKwPoRCIHgJf3hD384McwW2YjnEJkLKXUeMbXxqPEaImCIpc+uvPDCC8PKtbyUCEhIqFxkSK9j5MZnZS5evDiQGivl8qy+8847A2Ex99OiSLya5p9eeeWVQ1zmdgrmdIrDgko8pEikZ5FQBJGnVJzOyYfhu4bnIqUI81khBA1xcpz/nnEML2kgbfIvn+SCGwxt5EFo4Xbe907PkmWT1+JZnTXNeFhhMfasjj2ujpVT9uKGX8517uqsaPe+kxDQDghpF066p+eKQBEoAkVgOwiUmG4H96ZaBPYaAWSTxw8p5SFEGngIEbkxscp9Y0+pxYB4Dt2L8CFrCKp7EVELIk0HRI6XEfnkMUNmEV3fS7WJx8JEt9xyyzC81/xT5NL9IbpkREKlg9wYtvvyyy9PXnzxxckbb7wxJOmTMFbflRaP6dhrNy3TSf9DzA1bRn4FeJCBZxhp5hl1n30WUkJQeU55bNfxvdOTZN3GuRB2+VfuCGdIJ3mUkf9IqXJyLNiPPayuja+PPapjz6rzQq7n/3CyP0eHAFIaYirzJadHpwLNcBEoAjuOQInpjhdQxSsCu4QAgoAQmBuJTCGHAg8fL6ktXkP3ImiIY77h6T4EFlkL6UNK33333cFrKK6T5nHGc+oa8uhbpzyiCCqSydMY7ymPqnuQkPHKvVlxF+lBcpDRPMsTi8wipD5Tg+QiuyfJQsbTQogpAhZseIf9h5tzZEPK3OsasgwreSBbsAppdZ/nDyHEw3oeQYQDr6q9YD/2sMZ7GkzyH4Y5VrbBzR6O0nWczgp7/6e3XE/83e8HAso+oyHUK6MQ1C3ti5ES2gB1XdABps3Qjmhf6ID6rt7ZazuqB/tR7pWyCBSBw0GgxPRwyrI5KQJrRwC54v3MEFQJmjuJaPKAjkkpYpGhvoiF+zLEN/dFYKSBB1FwfFoIQWU0igP5MD8VaUFKeEGfffbZgcgwShmj8ZDwjjBCGZ0ICoKIfN56662DF9YiRMip75QyTqU1b0g+pP3IR55kQb7JGq+xPWI89pwi2oYMI6Xb/N7pIPAO/CAJMEM0BHtkHskYb7nuHN20jT2rzgu5jmiIN8TY3n9b564OUO31D1KqY0qboBPIXjvks1PmkauXyKmQBdauvvrqoaOLDmgD6Jm9DrMS071WhwpfBIrAHiJQYrqHhVaRi8CmEYhhH08pT2iMegRretEeRNS9Nsfudc/YUzrOQ6475/i0EGMSubRwklV5b7jhho8Zou5BRhmg2cTHQ4JsIp0I6UmGaLyUp6V/3vkQKnE7DjHKef+RdcYycg2PePLs5UneXIcx4iUv0/ieJ8e+X0cIztKD6fzRMZjZxp5V5wV7Gzyzd1555JxODpgrB+UlkMPx9BbCkuv5PzzUn40hoH7zhvKOWrV7uqPKqAgdFa67L95SAjrOszqtxIW46tzwHeOTOqq0LQ1FoAgUgSKwPgRKTNeHbWMuAgeDwLSnFGmIpzTEKsa8TOd+3j8eiDEpHd8XgJxD5oSTrue+6T1yx7Nx1VVXTW6++ealh+5Nx7/of5jwICNKMGD48ogimTyp8BF4eBB7hFT+4Qov5HUfvne6KD6rfi76A3f4IZwhndJCPv1HSmHvWLAfe1hdG19XHsplvPW7qwN0O/GDWCKf5ok/+eSTl4f264RSTjquzGefZ2i/zrRVDe3fCZAqRBEoAkVgjxAoMd2jwqqoRWDTCDDcGeqGxdkcx/hn8CGc4xACYFgt75PnETRbVqMd359jHqd5PGTj5zzL04ncTQdE0CYgh7ZNhBBTBBNucLDoE4KDRMHRN18dI6whpSFC8mQYYvBnLPPgwFfc7vNsPXW/LM3oz3k6hJjqLLAX7Mce1nhPfxnrLwmtezp3NYjsxh4hTVlaTTuLoelkoAtGRKhX8y6GZlVvnlNklwf2+eefH6YDGAo8XgxtkWH+u4FcpSgCRaAI7DYCJaa7XT6VrghsFQEEypzIkFIECsHilXI8HRCpDKl0jETxCGY+5fT96/4/JqLj43Wnm3xnrilMeJhDWGEDU+TS+ekAW995PZTvnU7nb1v/4Q1bBFSwp8vKY7zlunPqgG3sWXVeyHVkSLwhxulgcK5zVweoVvqDlCKjTzzxxOS73/3uUDZf/OIXhznsIZA6q876fJQycw+SyaOq48cnogz7VV8RXh1C3/nOdyY//vGPJ9/85jcn991331AnEd+GIlAEikARWD0CJaarx7QxFoG9RyDeCOQp80SRKkY8TymD+6TgOfeP56B65rT7T4pj1ec2SUgjewiQfDtGYBi7js0rDaHJedfg67qA2PBG25M/i03xwGYeXLzQnmFkN5yPAJxCHs+/+5ceVWVjG3tW6blgb4undUxoc65zV2dBerZ74ik1PN6Ig2eeeWboNEAwLWKmTtx5553DImbnxaheIaWZdz6+X5nFe2rkgo4JaRkinLpGj+o5HaPW4yJQBIrA8gjUmlkew8ZQBA4OAYb4ww8/fNmrZxguryeSiUCdFuJh9byhdFnc57T7D/18PKTwGM815aER4OW8BY/gO03gPe88w1vI905/9rOfDf8ZyZ6Zh2wND/ZnJgSQfvgqB7qvI8EWAmrvP3KqLB0L9mMPq2vj68pLvOOtc1fPLxI485Qipd/73vcGnL/2ta9N7rrrrmGorTmlVtldNogDwVVPtX0XLlwY6p7hvYJyN5qhntNlke7zRaAIFIGPI1Bi+nE8+q8IHCUC0wY2z1w8pcglo9zGkD4pMMQZ3jysNvEx6OL1O+mZYzgXYjo91xSmFj6CMdKKcIZ8eiae0xAjWBliCGfzHWHNOIezuGA9fu4YsN1EHuNhPY/4I0zK0V6wH3tYlVOuuZ7/nbsKjfNDVt+FseG7vJfqAjJveO0999wzeEl5OVcRLKrm01HqZOoVL6oyffrpp4fFkVzTocRr2tV6V4F64ygCRaAIfLQafkEoAkWgCDDyGH2IkjmljgWk54//+I8HgslAOy0gSp6zOc4qs4hsSNZpzx7yeZjxeE7PNUXynWfQIvKIq4B8nuU5zfdOEVlYM9C/+tWvDnPrTnrukLHdpbylAwHhFOyVsXo13nLdOfXENvasOi/k+rRHfOxpPaa5q1l917xPc0rhxlOKlPKWIpHI5KpDCKo0BKT4scceG76VCn8eVV5TBLWhCBSBIlAElkegxHR5DBtDEdhbBBjKjGBzQnngECRDSxnESGlW3j3NUzp+/ic/+clAbBnpPHjI6Xmepr0FbkbBQ1hC0GGN9DOskVbkxQZ3m+vIJ9w8qxyExOO855xXTulMcP0kj+uMYva2JRFQHvPoejysym/sWY1X1d6mfmVPRPqRc/swd5W8dF0eHI/1eB7Iddj4JIxhvIg8XUcWV+0pnZZJxxEvrG8lK2N5eOqppwYZyKKuIq8lptPI9X8RKAJFYDEESkwXw61PFYGDQIChxThGSh966KHhGFGa1VOa55GqH/7wh4MBapVZ3ruzPKwHAd4cmYCFhVlgPT2n1Oq7PC8PPvjgcN3cXPcjs9NkJ4a9uIR0JNgLp3lch4v92RkEUo7KWX1Tj2xIp5AOH4QOsXNNsB97WF0bX6cv9Ga8bXPuKtl49jNknVz0ffozU0Pmzvgxt9N3So0usPquhY6svrsuT+m0KPGcSvP++++fvPTSS4MsV1555YD1SZ+qmo6j/4tAESgCReB8BEpMz8eodxSBg0OAgcto5ClFahBTx7wCDOXzPKUBhOHM6LQ5ZhgzOo99bmnwyT7EFNaMa/jn+6WwMtcQdvFcIy6G6E4T03jmeKQdi5e3BuH1LELju63iPInYRp7ut4tAynG6fKelUqeUrb1gP/awxnua5/J/1+auamu0MfQayfOfftJf5+BxUpAfc7F5h+Mt/cpXvjJ08ljoaFVzSk9Ke3wunlNpfvnLXx6G4BshQiayOS9fp+VjHFePi0ARKAJF4HQETn4bnH5/rxSBInAACMSTwbji6YyhiJDyePKYMhrPC4mHFxChRYg8y+hkcDb8EgFY8iJPzzUNPq7zgjLEf/SjHw1eMXgioCcF2IZ4ug/h/Yu/+IvB+Ed8leMinqmT0uq57SGQcqYXgr3y1rEx3nI9HU7q5diz6ryQ6whU9Md5BNl/2yrnrkbv33777ckjjzxyWT/pOv20H8tBlnFASi9evDjxyRYEkNy8llbMXcXqu+O0ZjnOar3vvPPORNtJJrIZ6nv99deXmM4CYu8pAkWgCJyBQInpGeD0UhE4NARimCIyCKlFdBixIUa8ESGWZ+WdISwunhmeOseMTBsydZ4n6Ky4D/FaCAYj3DG8eMJssA/+wTS4wtI1z4wDAx3GIRT+M5A9rzx5sG+66aaByHjefeJwX8P+IJBynlXieFjp1dizOva4OlZ/sxc3vck5ZEudHusdOejP9BZ9yvX8j7zuD9k17PXSpUuTV199ddBRHkbpam9O03MdOfRaXnxD1EJD4jOEdxshQ3rJQBb1lGxkvOqqqy7P896GbE2zCBSBInAICNRKOYRSbB6KwIwIxMOJlPJgMEatuotQjg3E86JjUIZYOWbE8gh2bunZyMEJ1rAbzzUNfgxfQTmNrzOEzwqu80D5tqI5feLnQfW9U2XSob1noXc410IE6dPYs6qeC/bqK1JKxxwL9mMPq2vj6+kAoWfZ5pm76pMqiJztjTfeGPTTd5Lp+FmrSpszbQQAAig9w9+zyNcg+JZ+yHDbbbcNQ3rJRsabb755WPBtSyI12SJQBIrAQSBQYnoQxdhMFIGzEWB4MjR50nhJGVICTwUvqY3ByQCdJTBsxcWzEqOVISyOhtMRCDE9aa5psJvl+6bTKSgD5NP+E5/4xFDG0rDxOjGexx0PCEzD4SHAY0kHbGcF9Vfnhb1gP/awxnuaOPKfHuWYZzV6ZE+3pes4ntN4Uj0X2d56662Job3aD8TTnGifg6H3X/rSl4b5mryPQjymyKx5nLfccsvG5pUm7yftzW0liyG9r7zyyuAxJWtDESgCRaAILIdAiely+PXpIrAXCCClPGlIKbIiZC4pDx5SFCNzlgwlPsYtLwbSwzBtOBsBGJ0319T1Wb9vOp1a4o9XSXnznD7++ONneqam4+n/w0ZAXVfnkUzBfuxh1ZFly/V0bKn3Y8+q80KuI5/iDTG29x8RReJ4Tg3JTUBSL1y4MLHqrnbpP/yH/zD5z//5Pw8ENfFqY6Rp3jRyugufZiEDWcx/ffbZZ4f6GiySt+6LQBEoAkVgfgRKTOfHrE8Ugb1BIAZjPKVjD+ciQzwTH4+rjeHK6xpv3d4AsyVBQwjSEQBPhrcNqcx1HixEIV5P9530fdPpbOR553mjPMdbJT464HpIa9KbjqP/Dx+BeC9nzSn9iZ6OPavOC/a26LNzjqVDz7QTnudVfP/9910eQu5HPLVNdJa3FJFVR3hKpceb6pNKm/o8TOQ7bZ+5pmSS73h9T7u/54tAESgCRWA2BEpMZ8OpdxWBvUQgns14Snkw4illMGbo3ayZS3y8r459v48BGaI1azzHfh/sT5prCkfB3pzRWb9vOo2n+HU8ILM82kip+XzxliMArie96ef7vwiMEUiHB70ae1bjUbUPyTSvWacVIqpTxHFIq3tsCR988MEwjBdZdf6JJ54YnrPiLf2np7ySPK3aKulbRGnbgQxkIVPI9nvvvbdtsZp+ESgCRWDvESgx3fsibAaKwK8jwMhDHBmFNscxKvON0l9/6vQzMTx5NRiN8b7xliKnDLSG2RFQFogpopjyycJHMXh5oRn2sGXkwzxYn4d3iIT7xOe5fu909vLpnR9HIB7W8/SOnvJ40j9Bu0OHbScFnkakFEFNGyMOHlT1wbBfq/jmO6G8/WTZdiADWciIkJIXIdcRlPoLg12QddtYNf0iUASKwDwIXPFfPwrzPNB7i0AR2H0EGIK8mowlxqHVMK2+m0WOeCDmCeaHMRh/+tOfTqymyYvB4yY+HpTzDNZ50jqGexmsDFieJHNAEVSLFo09MXBwndHLaLdnxMMb0ZwlMOwZyMrfc8qJ5zQe1AyZdL2hCCyLQPTa4kCG32p7tBvmkp4V6Kl51fbIqmcN4X3hhReG530n9Bvf+MawEq56Ytt2IOvLL7881F91ShuZfGpf1bt529lt56npF4EiUAS2jcD2ux63jUDTLwIHhAAiwxDkhUM+/EeAkBKe0kWHbopHfIkTweHR69zSxZSH0aosbI55uJWbzcqkCcqOZ5XBj7zqcOC1dt7m2bOC55SVTVr+93unZyHWa8sgEL0Wh2G49NU0gnlD2puQUGR1VwPZLN6k005HT8i4NledU0/VP9iofw1FoAgUgSJwOgL1mJ6OTa8Ugb1DQA8+j6ZVWJGd66+/fvBsZtXcRQ0jZIhnjweDoXXPPfcMq7wyvhhcvAcN8yPAAOcJhSFceUJh6lhQXo7jgeI55U0yfNB5Bu88gQeHsUwvGP3S5+1BVoV6euZBs/eehkD0Vhtk5Ib247yA4GXLvXRU22Ke9J/8yZ8Mn2jxf9seU3Kqiy+99NLk0UcfHToC5dViTeqTdtL+0qVLQ1Zar1Ki3ReBIlAEzkag3Xdn49OrRWCnEci8LARDTz2vWryayCiSY0NGFgmJP546xhcPns380nmJ0SIyHPIzyCUsEVNebhsjPETVPmXHA6VseVWVwyKr6yqveLkZ91kUi95YxIUOpWylvWhHxiGXWfN2PgLaDW2SzfF5YZqQ5n4k1PB2uko/1QF6v+0hsvJEFp1E5BvPq9VWqp+C+mOIMhzUYx1P6VBq/Uopd18EikAR+BUCJaa/wqJHRWDvEGAAISoIC8+EYwEpNacUCWEILRoSf8iQuMwttS0T76LyHNpzwZPR/cgjjwzEUB4ZvONVc3Pfot83ncYt8YXc5nun5iQLDGqGdDseppHr/1kQ0F4YuUGn0ybN8tz0PYhpFkEyf1PHCVK6bWJqxAJZQpRvvfXWyc033zx4d+VX/dEhiHyqUzbHOvPUa+1y69d0afd/ESgCReAj+6MgFIEisH8IxJNpiJy5TTxeho4xiJDSrLwbb9uiOdTTj/RKB0kRH4Nr2XgXlefQnmOswtLmeNwRMJ5rmvsYw7wumbvn/lm+bzqNW+JznnEtHnGKnz7RL3rEkEZi3d9QBM5DgB7RIe3RD3/4w0GX/F806IgxjB1BNUz29ddfHz6hlA6VReNd9jkdR2QxDJ+3FNFEOLW/8g4H9TR12n8b0opo14O6bAn0+SJQBA4Vgc4xPdSSbb4OGoGskuu7fw899NDkmWeeGQjEXXfdNXhK7REKhtIyIXNLzUE0xBThRUzrSVsG1V9/lqF61lzTPJFhke7nIbc6MlIb8jivJ4l+eNacU/EgAOJ99tlnB68tYuB6yzsl0P1ZCOjcoD+PPfbYQEwNTUfIfA5mkYDYWTEaybv66qsHEkhXHW8zIMm8oH/7t387zPfmLc0cWKRVSOePkSuGx6d+6UBUvzzvUziCeuv+eevv8HB/ikARKAIHhMByVusBAdGsFIF9QICRxwOBMOqZ591yjGAgjKvylCYdhqUNIeI9y/zEfcBqn2RE/s6bayo/CKIyQAAscBWPNsPdtXkJZIxnz5GBHjGceXZ4yl2Pd8p1/xuKQNoHeyH/6Q39oZ90iV6Or+f+4eQMP+ZvIqHiQuIs7nb33XfP8OR6b9ExSBZeU8T59ttvnxjOyxtqBIJ6Agv5TR1LBw/iqs12rR7U9ZZTYy8CRWD/EKjHdP/KrBIfMQLxSHz/+98f5nBZ/VFP/B/90R9N/vRP/3QgpiEYy8CUdHg/EFPG4Ve/+tWBFDG0eNYaVocAw1u5IZpnfdcU7iGHDFyeqEW+bzoteeI1bDIGtHh5hqRjcZqcn362/48PgbQPRmogojpJjNywF9LRoTMrIyx0qNHveYJ255ZbbhmG84bsIqbavG0GntLvfve7AzG94447hmHvN95449BOqifqJY8oAqr+WLyJzPICj9tuu60e1G0WYNMuAkVgZxGox3Rni6aCFYFfIRCPROZuWayGoccI4mn7yle+MhhHyxps47mrP/nJTy57zRiY8cr9SqoerQqBeFWUn+N4U3hUxnNNEVhGv/JQ5u6lE4x2RjB9sIW8zirfON6Q5E9/+tODR0e89AI57aItsyJ6GPelPaCPNsQyIzYQL8d0zXnXHdNhbYX/nhd4323zBvHdcMMNg85b/EhHiTrBU4m08lBuMiCZ5CADWRDQL3zhC5Obbrppor4k//BAQDM/n4zXXHPNUH+cV3/FoS6Lsx7UTZZi0yoCRWCXESgx3eXSqWxF4P9HgAHIe2lBEStdMvgyd2m8SM2ygDEmGUwhwAwsntiuwrsssrM9n46GEMzTnnJdmWSYLf1AFN5///3h/KIdFDGsGcwMaHrAg2vIOM+5oeJ/9md/NhjYp8nW84eDQNoDbcJrr702EC26oCOErtBDukZXtBOOndM+eUb7Ibz99tvD/fMiQw8NkxWnIbLCc889N3hQ77zzzsl11103b5RL3Y+Umh9KBkH6SKl5r2OSDAf1xLWMgHC/PKi3iLt7Us/gCS8ElQeaJxq+CKz72yEEvYYiUASOAYES02Mo5eZxbxFgGCIdet55SZEDIR4zXrMYOMOFJX8YkvFuOGY4MYpsjhvWiwADfJa5piGQpGHsIpDKjYEbA1lc7psnxHOqrOmV/xa+GushYxvxEL/7pOG+hv1HIOWszbGFMDnm2fPfPdE/OmLTPiBQjgVth3s85356QkcsppUFft59992hI+Us1Nx77bXXDgQPueUppec6YHggdczQd/GuM0hP/l955ZVhuPJLL700pI80I6fpIIoM8gsT9USHkfqp/YYLeXUmqj/Bz3nE1HMneVDh6P7pbd76Hfm6LwJFoAjsKgK1Jna1ZCpXEfgIAQYJTymjhnEj8EwwbLLS4yqNk6Sn154XhHElLQbUKtMZMtKfX0OA4cnAP++7pnlw3vvz3Kx75c7zwwCnh4xnHiDGdj05s6K4P/el/vOKZmE1xJKeaQe0B9ofHj/tQTaEyj0JzqfNoDMJiKbFggRDYen5LAE5vffeewdP5Xe+852hs0TnnDQRQ3Oj1xmQRaSYp/TRRx+dWPzogQceGGQi22lhXD/Vm3Qsim9M5IMXHLW76RCIB/VHP/rR8C4Qn3bfNn7+tPR7vggUgSKwbwiUmO5biVXeo0Agnot4ShkojBbG3joIgZ59aTKIMt8pBhADUNoN60cgBmqMemXCsLeN55pGktyvjJAF5acTw3mf9xHPMkG5IyP2FnBJB4lOEqRCeghLSIJ0G3YfgbQv9kL+0zOdUtoAZeu8MqVbylhZz0KI4nnnCRRPPH50ySJB2psXX3xxIHvS8P+swCNprinP5Y9//OMhvgsXLgyy+TSWa+vwnMZTakVg6dmMUEAQddZYxGjaWzrOR+oPDCwMBVeEHz7T3x92r02dnfagwg9OykfdgxcPctoJz5HJXnl1BMO4FHpcBIrAPiHQVXn3qbQq69EgwJDhoXryyScHQ4Sngafi/vvvH3rUeR0YIKtaHTffRUWEecN4IKSHnDJ4auhsVvUYprN81zRSWYQlpFD5KU9lh0ysIih/ekAveHt8P5V+Pv/888P/fu90FShvLo60L6etqmvOpI4Q7c1/+k//afKtb31r0CfevHnaA0SMp9Dq4Z4zL5TnE5F87733Bt1BuAzrPSkgXvQYASQTEqjNo++ILaJmSO9VV101EFOfl1llIBtPqQ6Zhx9+eGIILwysgn7fffcNJFvbfFo7nNWuyaTeqJe8puaqyhtM1FtxjEOe085LD6G3d792geeWF9WmvpNREM9J8Y3j7nERKAJFYJcRKDHd5dKpbEeHAEOI0ch4YXAgAEgBw+zrX//6xKcJ9IqfZQwtApphdbwBjD2eMITG52EYQyWliyC63DM8IjyUAn2gFzFilcd0mTBk6YXnkACGPs8UIklXpg3feaWTXvTO6rzkoZsINJIgJK2T5Js3vd6/GgTSntAhXjdETucTrxs98d95121IDRKUT6BY7Mqm/eE1pQPTujeWlP4hX3QDeXrqqaeGxYLoCM8mLz79cQ9iSk+lbx/9cW90akxMM5eTjOIw9zmfSvK8+qKDZBX6h0S++eabg/dYHmxIqbSRUuTap1+sDHwaKYWLa2mryQYfmJPXs/KMfMJ1HPKc83C3uc/9vLjw02bb4IfoOqc+2it3aQniOkvGcbo9LgJFoAhsG4ES022XQNMvAiMEGIc8UUgpg4MxYvXdLHK0LMEYJfWxw3g2GHuMR8YoUjptMH3sof5ZGwKMa0SUoZlVPRnePELOT5cLw5PRLDCqGaVWUWW4M+7p0SpC5OK9Ei/jWhoMZOkiDCfJt4q0G8f8CKQ9Oc0zGp1RlkZImDcZD6Vz6QyZldggRYiXT009+OCDg0dPGoYAa8foD8/j008/PcStPXM/fZUevUaqEDfBOfJoi8jCY+oee3VBetpLJBhhc45OnjW8dhYUkVKr7/7P//k/J//9v//3ocOODEiptvjWW28d5Jh10aXUG7KnwymkWryI51kh9Vs9dn88qP6rdzD0ziCzodiXLl0aooMv/Nf13jhL5l4rAkWgCCyCQOeYLoJanykCK0YAAWFc8JTyaPjPEGOEIIkMtHUERiACLF0bA5G3lOEzTX7WkX7jPBkBxqQytzlWTvTDdtJcU4av8lJ24++bplxdC8k4OcXZzkauxMeg7vdOZ8NunXept3Qkm/ZDvdbhlE4uZee8e1KOaVfsZ5k7eloekn7mUCKmvLL0kk5qxwQy2cjhmegtfUJAnfNJLHv6Gv0fHv7oB8FKJ4t7eFZ5Z5E8Hk1EEVn1HHLKw0g/zT9FWqUXYqgTRRwZUmykiGfNIVXPkF1xOkeWu+++e5BRx11kiFzn7YO3+xBJ+YWPdIITmZ0/KYxxch9MbY4NY/bOEJey1RkhTvlxDvbukwfxk0V8DUWgCBSBXUSgrdMulkplOjoEGBA8CYgEw4HRwVBkVDAo1hUYiTwONseIBiPGRo6G7SKg7Bns9rPogXvoTTxGyhQx4U1ahnhMoxBDm6FLRxnCPLsWdqHDOlP6vdNp1Nb3HyHRhtjm+d5o6rj9LPp1Wg6SvvJ/6KGHBkKsDaEHPLGIkPmQdCMkyTPjDrj/8l/+y/DfPQgjvY/uT6dL7yw+RM+/8IUvDMOSPYcQ2xBHw48NtzWk3TBg+XN/SJk0kFB1xBxNn4J5+eWXB++oEQCC+au8yNIyvJnsp5HHaRlP+j9dP8cjVeapL9P1Lx0Oyl99R1TVR5v6mUWrdDgum4eT8tVzRaAIFIFVIVBiuiokG08RmAMBRlEMM4YRwz6eUkYEY8LGiFhHSPoMI4actBk7CDFyuozxtQ55jzVOhizjXNkwvG08NiES9uPgf3Rmld83HafheNqD43+/dzqN0vr+azu0G9l4yZAS/3nk/HdP9IFO2BCTVXZQRA7tiDYsn5ihD0hpiCXZtDHk0r4J7h/fx9NPfs+Q1Rx38iKH0yGeU95Q161wyyNq3iySKZ14T3lU3aNNG6/cmxV3kboMR8+zPLHILEJqPimSi+xKb5mQ8hCH+inAIXWbjOr8dL0ebhz9TNe/XIIzD6rrKRt75+VdXmGrjZeO9KTl/oYiUASKwC4g0NZoF0qhMhwdAjEWGGu8lQwHIXOxGGQMh3WFpM8oMnSOwcKzwWhdZ7rrys+hxqsslIlheY888shguMsr8nEWwVj0uUVxZOz2e6eLojf/cwicdgMRDBlUp5W7NkT7oT4jIIhHthCf+VM8+YnIoXNLO+I/XYinlDzmPGpnXCMHD6eAjLlOb0JGXfdfXuSDvJ47LYSgIl3SRSx1kPAaI6e8oOZdat/UIcN2DeEVMmcb2ZQO8op8mj9Kxptuumkgp75TytO6ynmaqZ+rHtmQeHVeKX/Y2bxflIO5xjDOiBx6Ajf5bygCRaAI7AICJaa7UAqV4WgQGHsqGZQMNgaDHmuGGIMuxsI6QWGoIcU2xwwT6dpqpKwT+fniZkQyHG2O06HA0Dxprmlin36OcUrfnGe0im+VIfpjz+Cf/t6p9JEPBjEZ6qGZDX3lDTt7If9DNHgqx95RRBTG2pKzOi5mS/30uyJHOraUNzkRI+WcsnbONSQ0Xjqxagf9p4dp85KaZ4XoaHQl+9xnzyuKWNrEZ9iuT9Egp9K0dw8yykOazbMWFEI2kUOEVHrIqJEq9vk8jXtXHVI/xctzqh1WpnANWYWl++YJiTfYadvFK36dWfRFGs7VgzoPsr23CBSBTSFQYroppJtOEfgIgRgFSIK5WAwEhhBD0qqViCGDZN2BwcjjghRLX7pkYNDMawytW9bGP7ls8NONefTDvQx9esdQV7Y8KesK0kOIYlwjJea5mfcmIBd0rJ0fs5VA6ql2QrDXdihP9RaWOhrg7jjkz3/bukLk4iXlyUc0tV90TTsibTKGuJLj29/+9nDeXFOEidy5N3KGWPmfdki+xv+HP6f8IFsIpeGsN9988+AlJYdVfnlLEdN8igYxRVoNAUZQpYfg0l17ca07wEl9IYf6CS8BWV1Fx0LwVN/oi04MOoSg1oO67tJt/EWgCCyCQInpIqj1mSIwJwKMI8bcSXOxGAzxGsQImzP6mW+Px5aBkt5zxqSNp6WEYWYoN3ojA1YZMTQZsDaGvf+u2Z8U8lz0z55hajvruZPimuVcDGH3Mq6lR9foPkJF/5ARuraO9GeRcRfvGZcP+fJfOSEQ8BPsXQvOOpQMO9Vu2NZdfyNXCKeOB2WqPM0RtZEj5Z3rzrlHx0Ty4P/0CA3Xp/Mw/X8A4pQfz9uQSyR9OvCcjofyZoXe6fs29T/liKh7D8DV5n+I8TL1JHjCUBnEg+p/PaibKuWmUwSKwDwIlJjOg1bvLQILIsAY46E8bS7WtOdgwWTOfYxhGWLimNGjZ97muGE3EUg5LTrXNEYuPUR0eIRW4ZE5Da3Ia1EaBBpBof/muFnUBoFZZ/qnybWr59M+qJuC/dgzmrqJvPB4IxnOIRjITbZ15y9yTntKlaeOE3KRhfxWGdf5pZy1b8nXmFjn/nXLnfjHRHR8nOvb2sPB3FrzXH3/1dBb4by55PPKGyJMb+hSPajzItj7i0ARWDcCJabrRrjxHzUCJ3kYGHeMSoYcg47RxjDZRNBjzuhhMKYXnYGyqfQ3kcdDTCMGZQz5cQfDLHNNYcLI5Wmlf/aMYIEuin+VIfLSMfHz3CDECAv9cz3DfdeR/irzssq4MmJB+dnUR+WhPm7ie6OL5iXtmLLTyTBuP3Q0hJSKn27x+ilr5W40CO+o855T9v7zaNKPTYddIqTJOxx4j+mCOg4/OMNP547rcPN/meB5cdmkM6sHNXXUczleRo4+WwSKQBE4DYHlWrnTYu35IlAEBgQYGjxF0x4Ghtx4SOOm4Io8jMaT5nhtSo6msxgCjEK6Y2+bNbiX5woZpY/RA5/JWKfnMgSVzAKDG0G1F1Y1l26IbA9+xh0K2/je6KIQRV+QJWWnXM0ZTaca/XIO+eQpdQ/io9PLPQiQucY8dOai0rl59HdRufftOZjFc2ourveGdhpWriGGqwypn+JVVqd5UJM+8rzO9mKVeWtcRaAI7CcCJab7WW6VescRmPYwMNgEngJeUts6DI0hkRN+Ig85bJkXNj3H64RHe2qHEGAgInkhAcpylrmmMUBlBRlFHGw6KDLMV9zuW2WIh4beO5aGYcTS5T2jh+b80cNN1odV5vGsuFLvEDtbDH/HPNj+uyflAwPbrhCAyD/tKSVfvjMq/+6Tl9wnf+l8U+6upbzpQtudk7Um9Rue8aAb0k0/4L1qYpr6KV56d5YHNTr89ttvD+8xsmZbdbtxMjo9WwSKwDEgUGJ6DKXcPG4cAS9xnql4GAhgbhjvAYONEbDJl3nkibfMMLoYwZuUY+MFcWAJMgR5LOadaxoYln0+8cy7p2P0LZ4ZpJgHjdGNXBvuyVOEsBxSSL2TTxtyhnQoB22B/GoX1EcYZYOTe7YdIn/aMXKRV3kpz4Tcl/YleuYeHnIkS97kk2fOef8bPo4ATGBDNxBROsNzqjMJbkj9OkPSTz1NR4o6qgwz8kc5eo/Z6kFdZ4k07iJwfAiUmB5fmTfHa0TgNA8DY8MLnCHq2It/EyFz2hjEFl7K/D4GDuNiU3JsIq/HkEYMxxj29I330XbWXNNgM/08QsH4dZ7nVbzrCNOeGf99Y3JcX3w7kr4iNfSSTO7bh5B82Av5r1wQM/Vv7B1V99RBBGQXDfvIj5DY6IlyQY6ygrh8nta+uM8m6ITQ7siz/G6y/RsE2KOf1BO6YVQNfEMO4agM1olf0lf/pDP2oPrUDnnoA70mj/88qO5VXz23j/V3j1SkohaBg0dgP976B18MzeChIBDPwbSHgUE2fmFvKr8MzBgRersZGjwejGHyNOwnAsqOt8J+kXLM8/SDocmopBebCgxZHtLbb799GFlAR/O902104Cyb79R7+RDsEX74ImjyO54riKSl7BYpv2XlPe/55IduOCa/jo/kJc+f1754Hg7waLsT1M7f0wn1IMPsdWzEc7rJkQXaBWWPcCp784OVqU2HSzyouU/H6z7W3/NLpHcUgSKwKQRKTDeFdNM5aAQYaAy4vLQdMy68zMcehk2DgIjyVtgcMzAYDzbHDfuJAN1CTBmE0blZ5pomt3k+ehuCgUC4Jt51huihvVVS05HDC2OYMi+Rzhyeo03IM2tex3h5Jv/hxlBX7wV718YG+ya/NzoIscBPPGR0Km0G/NOOISnjkPbF/YLrKTfX4il2TRxtdyBxfojeuNNc5NSP1HX1ZhP1YtqDqj7alLO54nSE7qf94EFVf51T3u4jJ3nlaV9GQJxfQr2jCBSBdSFwxX/9KKwr8sZbBI4FAYa0+VVZsOKzn/3s0LucRY4+9alPbQUKhiFP1AsvvDAYCPfcc88wd4nRwFD45Cc/uRW5muhyCDDwGHyMf+WL0CF4V1555WVD8KwU8nyIIV3wvOF6MSTPen5V1yLHZz7zmcEAv3jx4lCPnn/++eH/FVdcsVF5zstX6rnvsSKijz/++OShhx4a9p6Fo8Ag5yF84IEHhg6E22677bKRvsv17uWXXx5W1ZUvZOP6668fPGAZ8TFNLNK+vPrqq4NH9etf//qQX+2dthBOSMqNN944+cY3vjG544472u4MGjLbz3T9QPwQ1ffee28r9cL7gv56v3mH5H1CPxDVN954Y6i/3oXqx6VLl4aM0gfPbes9OBvavasIFIFdQKAe010ohcqwtwjM62HYVEYZMAxLhjTj0XEWq9DjjZA07C8CjDzkx+Y4HgskYJ65phBg6MbzwTOzye+LJh/k8B3DvhsAAEAASURBVOmY6Gw8ca5vUh5yCKk/5LGRhxdUXUrnE9mcdz35UB6CvSGN+T+c3OGftGPKP55SZAP5sE3nI/frEKFzCJSRISGwcDKEl4fP88633ZlfAaJXnlQ/Uk/p3DbqhXL27rCNdYIOXHXVVYMekM17x0ZenUv0xf0Zwu55eZvu6JgfoT5RBIrAoSFQYnpoJdr8bBQBL2Tf7WOAedEyvhikjDGep20FxgHZbI7JQi7bNuXaFh6Hmq6yXHauKZ1gPNJhREPY9PdFo5+f+9znhrmYDFoel23JM64/+/S90UX1PO0Y3AVE0nxCQ29Pai+m79fepc1D4JWb+YeC751aYXZMZIYL/ZkZgdSPbdfT0wSOfKYTGCmQDhx6oiPHNn4/0iv60A7S0xDt+SJwvAiUmB5v2TfnCyAQT4oe4BhgjDn/z/IwLJDUUo+Qh1wMhPRuMxxrHC4F6849zCAMMc28RsYgI9A1+7OC63SCvtAPhMKGmCGJm/JsRA7pkZtnZZPfO5Vf+GXj7YGj//vwvdGzyvika2nH5E8+x+WuHcu8+On2IjhpW3hXPU//PJN7dXCkTXQOCbE1LI5A6kfqadp2MW7Dczqdk8gXHaBTPKjkTD1KZ48FneTDvfWgTiPZ/0WgCHSOaXWgCMyBwDvvvDO8aC9cuDDM7TOHSjCHjIfhrrvuGgzrbQ9RQkjNPfRJDr3YDE3Eoz3UcxT2HtxKz0JAfesQUbBHppyftbzN/YpRafVP+uN/4t7U3LDpOWzk5zll4Nrn0xTmuK0yIKLmxakz5oz++Z//+bAKqvrD6Fa/eYL+43/8j4P3L2Tslltu2Yn6Pi8Wacd8QurBBx8c8iqf8ZSe1o4FJ1ghoPQDLukcQULGc9q1O64hIA3LI5B6ak62+vDKK68Mdf3DDz+cq74vL8nZMaRdUj/oVDyk6je5n3322cGLam6yIF/0b1PtzNnS92oRKALbRKAe022i37T3BoF4GBjs5k7xMHjBegGf5WHYdAbj0WA02shteDHDYFaSsmmZm97iCMRTodwz91G5I6g6JEI2z0uBbtARxMNx9Fz8hmFuSnfUJ2nZyO7/Kr93mvphL+Q/QqU+yzcMnJd3hEr9UccNeZ4Vz/Pw3tb16XYMMdWWwVk+T/OUjp8bfw9ZZ5cNTjCDo/hgSG9CWLeV30NLV71QT5WH+g5rnmseyHxaJp1J28x72qXIQD66QX6dZupZ9KUe1KDUfREoAhAoMa0eFIEZEMhLFCnlUfGSZZDFw8BYYBBsOyAkvBk2xwxGxrSNsdBw2Agoczpqz5M1b6DDyATDN99NpOdIyzYCvV3l905TP9RfwR5e6rd8Sg+hh4Nj9cdxtm1gsMo0p9sxBEE+EVL6oj2T1+mQ5xChk76HnOvpEEN0LcLVOe3TSK7mvzKCrU+z8FDDXUD6drEDJUQVMVXPdFyoe/RPh5CRR+7RzpDf+5Reur+hCBSB40KgxPS4yru5nRMBBhdj1guUUcaIdczw8oI9zcMwZzJL336aR8OLnnHdF/zSEO90BDH8GHOOQxQYf4xY52YJ7kVMPc94tNF3ejRPPLOkNcs99JaRan/S907VTfKSTx7VSyH11n78Hx4MYc8J9u4JftLah++NDsLP8RM8TmrHtGG8m0gp/Tkp8HgZTm1znHJJ2eR6CJI2R5mcFt9JafTc7AgEf/XTp32Uq3cT/d/k3PBZJSYXmW10oh7UWZHrfUXg+BAoMT2+Mm+O50CA4cr7aPgaT4H/XqzneRjmSGIltzI8Gd2neTRWkkgj2VkE4kHJcD56ioBZQGgeD8qq4lk1UJErC70YvshTZDijwPBVLxm+QuqtOiHYjz2j4hN0LvEUetY5zyOp2YabDuAneCzajuV5OgUzhDREFlaIkXYy10/zvB4AlDuRhXSkwFmngnLVKaCDcuzxT33YCaFHQkR+8tGnelBH4PSwCBw5AiWmR64Azf7JCMTDEKKXFSgZrzw0X/nKVy4bZifHsNmz8Vic5tHYrDRNbdMIxNCjt8gBvbX5P89c08RDfsMC6RNSR/9DCtUB920yjOUaf+8UYRoTToauPDN04eC6YO984kFEBft5iPvw0B79yLO8L9qO5XnEE6Y6AJAhHXPxUgdv9zjWPtpC/vcIrr0RNR5IZeBdhJAq57wHMkpmV4lp5CefOnieB1Xe6NP0tul2aG8UpIIWgT1GoMR0jwuvoq8PAS9CHgBe0kceeWR48Vt1l8HFMGMQ7JLhFXnjsZj2aKwPqca8iwjQB4TNftG5pgjbrn03UZ0jV753ijCrp+bD8rwweBFpe/9TRx2PPaMxaO1zzy6W47IypV1YtB3L8zooYKXtG3/fFBGFt81xykcZHTKuy5bLqp4P3hkpwWvqHWCkBJ1PB8yq0ltXPHSLrKd5UNVvuii/6fg45A6ldeHceIvAPiBQYroPpVQZN4YA48oLkCHG6PWiF9IzrXc6L9DhwpZ/MreUN2PaY0HmXe0x3zJsB5t8DDw66nhMHBh1zs0SEo+6wPtCv9QH8e3SHLZ4iMhHVnLby7/8Ms4F/4/JkE07NvaUaitmbcfyfNrBYKrDywZPASF1j7Yn3q99IkRDJvb4J/VUFoxwUAbKXLnY66BRVrv+HjjPg0r/0pbJF13Op6NgIH/qu73/4msoAkVgPxHod0z3s9wq9ZoQYODywDz55JPDi/2DDz4YDNr7779/6Km98cYbhxef77HtQsj3CBmH5tv5vh3PUIbS9QW9C6W0ORmUdww0iwUx0uzff//9y+fnkYYBKCCA6sXFixcvkz5xb/q7g6mf3//+9ycPP/zw4CllhKuP8o1EI0Y6kFIP/M8Ih2OpD8HpBz/4wTDi46233ho8nd/61rdmasfyfNpBuPGU3nPPPQPOwREhNde330uep1at/t7Ue+0/gqq8eU7ffPPNob6u+ru/q8/Bx2Oc/p6xzhD1WB33nebnnntuqPs8qd57r7/++hBBv4f6cRz7rwjsIwLtVtrHUqvMK0dg2kMw9gDwtMRLsGs9z/EYjeX1Ao9HY+VANcKdRgBZVPb0mWHKu2Dzf565pskkfaf7iIrVP6Nv657DlvpoL+Q/Eipf9s4xVOU3+9RPOLiOWO+Dxyh4L7sPTvF0jtuFfFf0LDzgJQ7P5XulZFLeyL1nhdxHL9zrGdfpSspguLE/G0Eg9V5i5mAL6r0RPzZloo64bx8Cok1mG52jW9E/w5STN+0Ab6qNB9X/vP/k1/PynI6Ufch7ZSwCx45Aiemxa0DzPyDgxcYjZLiil54XGo+LOVXjF9yuwRW5vZARj8i7a3JWnu0gQD+WmWsag5deITYIzybmsI31GnL0e7zIEWN1vPpojG4kiQfPvQxyi/T4DirCdAwhuKUdU37f/va3h3YBZsHpNCwQTFhrA0/6Xmmey33udRw9kYbjhu0goHx1pGahMvrAo2jExD4PZY9+eS8jnrz36ndGCtFD/40QcF17tcsdytvRjqZaBPYDgRLT/SinSrkmBBhVXt5eajbHXu5ebozaXTVop+XmwajHYk1KsofRxpALURgTifPIyTi78VzQLcNjxYu0xFMmrnniG8ftOHpsP/7P0ESA1UfB3j3Jl3p50vdGyWJYaeJluN50002Dh8+1Q/WgjPOLlMZTCicdCrO2Y/GIw80xvDxrc5yQ+5IOPYsXPfd0v3kEUj+kzHOqHNN5ELK6TH3dfI5+mWLaITpI18Ye1Kuuuupj+dQ2aaN+8Ytf1IO6rQJrukVgCQQ6x3QJ8Pro/iPgJcZTqleZ8Wsujt7YLHK06Tl0syIaucmOUF999dWXDVDGya7MgZ01P71vtQgw5ELEVjHXNPFlDpuOEHPZ3nvvvcvpLJKD6PEzzzwzEFHDhR966KFh2LD46LLAGDWC4YEHHhjmSN52223DuRjZ0Xf11b3XX3/9MLcWgUJwkVXhUOegBcfMCZVPeH39618f8Ji1HYvH+YUXXhjK1ZxSxFZH3bhdyX2dWzqo1c79pL5aI8G7TXmprx9++OFS9XVXMjo9BzV6ylNqqO8bb7wxvNe9H9X/S5cuDaIfav3flXKpHEVgFQjUY7oKFBvH3iHAYM3wn3gHGLnxlDJudzFkbhdDI3PAGIx6kOux2MUS245MdIIO86QxzHgQbP4vMtc08cnNIp6Y6K30beqfjqDzPKOph/azDEWMh88eIc+Q1nhQEDjGq/oSUrudElpNqrCEo84pm+NxOzarp3Q6Hv/zWQ5YxVuacoSjNsh9rk97VFeTu8ayKAKpr+qZd1rqv//5tMw+6/+0BzU4aU94UF2PTts7L9/yry3xrpR/eg0r9zcUgSKwGwi0Nu5GOVSKDSPgRWVVT8acFxPjiuHrJe6FtashL1mGxllzwHZV/sq1HQQQlmXmmkZqdUM9mff7ptFb9e61114bht6N54ymzql/PH2MR+fUTcE+90SWs/aRM8MXEVRzT3lkeQCNiJiF6J6Vxi5cU64ZNeEYbl/60peGdszxrCHxiMtx8IPRGPdxOTpWLtKxpaxmTbP3rR8B5WKO9TXXXDN58MEHh3onVd7TQ9D/aQSjtzrftCN02abd0UFnZAY9zftehwqM0vEyHV//F4EisHkESkw3j3lT3AIC6emPpwaxi6eUB4VBbPOS2uVAfnJHdi9UL9d6LHa51LYn2zRxGBMLRty8ZCLxMfZ4HXjOkD71a+yJlU6MQnv3MQ4dM4r9nyY2UFL/VmEwR05x8vBKS5qpP66HtC6Cg3i3GeQDnjrW0hbIhzbM3PhZ27G0i+LSJtp7Nm3KdDzBj7dU2+N6R2psUxPOTjvvB/VOWSlj9ZWHcJe+R3x2Lma/mnofvU09UUe0O/Hy0/N6UGfHtXcWgU0iUGK6SbSb1tYQiEHuBcUr4MUkIKXmlDLEGHa7HhgYmTfDCCW3PHgReyk3FIExAnQa0cvwPfrDc2Ae1jIEMPFaYIQnUv3ioUiInvKK2mIQeo6+0ttVeEaT3mn7yMkIR5zV/wxt9gzSugwOp6W77vPar1WM+Ei7iODaBOVyGrlNuUofnsoSxg27jYD3Qzynvv1ptI3yU3auHarHMERV/rwv00GmPaoHdbd1ttIdLwIlpsdb9keR83gEvIgYyHqMvZD0GDOqsvJuelh3FZTkw4s1Rv5Jc8B2Vf7KtR0EYpghICFk6oD/Yw/nvNLFE4OgIKb24s3cLnoqPbrqWHpk4V0zjE7d2wQhTP7JywiXPlJOXrKpVxaEQZT3wUCPB4jXK55SWDK6bbO2Y2lP0i6Ky7mUDTzGIfeP2x/3uu9QSc04//t+TPe9L9TDLPTnfah+GNp+qGWoPZI3m7qR+uN/Paj7rtWV/1ARKDE91JJtvgYEvIgZoV7CVvt0zIBjzO2TpzT5IL9jhgbD3ua4oQjMggCPl7pgP/ZwzvLs+J4QPnXJxtuGoPqOIB1lEDrPGBx7ZhBD+pptHOc6jyMvg5RcSDR5YUF2HVT78L1T2PKUIpLCou1Y2pO0iwx27eFp7UnuT/sTPJWv44bdRiDlRV8QUeXOc/qP//iPQ33QyXAMITikHdDRQqd10NSDegwa0DzuAwIlpvtQSpVxbgQYUoxvLxxGqBex4xjM++IpTcYZjoxReUjvbwz/3NN9ETgNgRhkIRJjooEknkcuUp/shfyPPtJJx/RUvZOOeBnCJ31v9DQ513V+2nPi/z587zSeSpgyoLVlNvjDdtF2LO2JuMQbQ/00D2juT3kr384tXZe2rj7e6D8CauEvehVSRgfUVWVKDw45BIe8Q+l19P8sD2raSM/l+JBxat6KwDYR6HdMt4l+014bAl665mJ+//vfHzwMvsvnxftHf/RHl+dQecF4Ue1DYBDy8PS7gftQWrsnIz2n7wyrRb5rmvo0/b1R381EasWLLPlOoA4Txi+PrO8LhqS6L98b3TZC5CTXrn/v9J133hkMZ5+GsqoqLxcc4ym96667hnKdtx1Le3Le90pTTrm/7U8Q2c/9dDvgO6dWyeY5VR98x/uYwvT3UPN9ZOd5UJ999tlh6LN6Aqdlv9t8TNg2r0VgUQT2wypfNHd97ugQiCdHL7AFHszF4m1glJtjw2Bm1HkJ70NIfgw3tGUe2GmejX3I06ZlNIdQQMiONSAzdJ4+nTXXNB4699niAeVV8Jy6JNi7jpBGF92T88GZIewe6e9SGMt90vdO5UN7wcNE9nmJ37J5TTkghEZ7IKbaNHKQaVFPqTKTt7Qn/p81V336/rY/y5bsdp9PO0AKHkLvR3oVfVAvjskjmPZJvrWPZ3lQ1Rvb22+/PdRBOGXbtfZtu1rW1IvAcgiUmC6HX5/eMQS8OHhKkdJHHnlkIHLmTjG+EFJGnZfJvoTkR54cGz7nBWrry/D8UkRKQ0zdfczkdIwWXUJ47MdzTRERBNM2z/dGGXieFec+fS9RW2BeZT4dw1A3MsECMYJ8qWsM102GlAM8zY1HUMmBkCovbdki7dh0e5L8nza3dPr+tj+b1IL1pZVyj94rZzr//vvvD/WBrh1jCHFX3438yHBnxB0+sSvUg3ToqDvHitcx6kjzvH4ESkzXj3FT2AAC6dk3D5Nx6UUiZE4NT+k2DMxBiAV+xh4T3hL58tKUn87t+hWgcNLz77MlPv1hTxfefffdYdgVQ8twNcHwrCuuuGJy5ZVXDkNO4WmFVsaZvU+qICKHHGJ4qQuOM3cwxJKBGs8nXBlm8Bw/Bx/Pn2SQudc1Xhj10HPLrP677rJIvqQz/t4pHJBC+jXu0HL/OkPaMUQUhmRwrHyQUgvXLDLiY7o90T5qR8TF463MTgrBgSzy3vbnJJT279y03nu/qPf0L2QVeV23vu8acuoZUnqSB9W7RD1Sd2ClTvjPg5r21HNws4fdob9Pdq38Ks9hIHDYVthhlFFzMQMCDChexQxN8kg8C3o28+KYIaqduIWBkJefXloEQn5O82zshNBbEAJ5unjx4jD3lsFgDhzcLl26NHnrrbcGosqgEJBSBPTqq68ePi5PJ2666aahZ9zefMNDNyTiKcl3TZEe8xZ5CeGmHtE994W00DtYjQ1VRpf/08F94+8lIlae3/UQXPK9U+2I9sScWmRQx9ZJRHzV+Uo7pjNKvfcfpst6SqfbE3J/+9vfHvIm/tOC9JUh3Wj7cxpK+3s+eq9t1H4iW8K+ft931SURAo9o8qAafQUnm6kN8aDmPp082ol09niuoQgUgfkQKDGdD6/evWMIMLgYT/GUMrS9DBhb+/yCiCdLvhzLk5ed7ZhfdkgmbyjD6c0335y8/vrrAxk17JR374033hgW8nDdffGWUlvHedaQXnHxsNKfV199dSCp11133eTaa68dvAYWyGGwHUJIPbEfB3lHOuiYgJgzsnjTeMeQ03kIGUNXR5B0DH2zF7/NNXHvYohhqW6REw4MT3JntMI6PUkpH8SAsYsYK5vguezceHEhmOLl5UnZak9OCpFHe6peCQzzY29/TsJqn89F79V/5UvXlbmwTn3fF8y0A9oEG5tCvbE51skJL21E2jl1yzvFOXi6Tx32PKwPveNzX8q1cu42AiWmu10+le4cBBhcY0+pF4CefQb1+IVwTjQ7dzn5Yhx7wTEI5cmLbleN+02AiFginy+++OLEirBWS0RODdP1WZIbb7xx8C5dc801gzHAMxhyiYjysDLCrEIpHs8yLpBWpPT222+f3HvvvROrM1qhkvFxCCH6xGAS9Pibgy3vjCrGlnrDM0fHEFP1J9usGMTQpas8jUgNHYbjPAR31vRWfV/kR64FRJH86/YkpXzigWHgrnJuvHL3/VOkQzlkasNp+EUenQswoQ/aoWNvf07Da9/PK1cjHYwcMXpi3fq+r3ilfWBnqA/eJSGl6or2FH4219Ox5/0NY881FIEicDYCJaZn49OrO4pAevQZ2DaGFCPay4BxfZonYEezc1ksBqm8MegZkY6zyALycKwvNoSUEcDAfu655wZCqtwRTL3QSKS5jLfccstATpFM+qDXP73UsOVJpSsI6SuvvDL5zGc+M3hOkVQe2Oeff36Ym2oo8B133HHZmOA93YeQemEv5D/cECx5F1Jf6JTjsYeUMeX/IiEeBvEiP6mb9joLBOXCwNvFMJbfMVmRavipj3TIYlqrMjRTPmNPqTSCXwjkovU+dUb88iBP2kdtirydFugEDytDmy6kU2xROU5Lp+d3AwHlSqfpHoJFX3jX6U+G/e9yvd0Uimkf4IVoJqhbV1111VC/1Gnvb5v6o2MUju5Xl+DoeW2g+BqKQBH4OAL9junH8ei/PUFAo89T6iXKiEJMeBhiyO0LkZiGO98t9EKTN8SJJyuG5LG+yBBQ3lHzIf/bf/tvw/flzAdkZH/jG9+Y3H///RPfdNQxwXOKBOXFb9iujVcVfoiG6+aUuv/uu++e3HrrrYMBhpxmsSn3i4MRsS+e09SL6e+NPv7444OqhRAykuiV+mLosnm38mhzzf9lApxjyCo7ddSexzqG2TLxr/vZlL12hY7QAcRevbTPgieuLxNSXj/4wQ8GD7Z50dqxb33rW0OdNwJAmZFnkfDyyy8PnlJtpXjUF55seTorXvnMasDxsAaHReToM/uBAGIqIFJ0RoeSttOCcftQb7eFcto7dcS7WqemthRJNc3Eu8v73JQRgX2i/u2rnbItnJvucSDQ7prjKOeDyWU8AF6YjCf/vTC9EBhd417Mfcy0/MgX70x6ZeVt3/O1aFnEU4oM8OAgXEgOTygyyQi48847h2G456XBwGII2DJ/Ks/woMZ7agElaUgrZNZ9ymNXDAkGJKMnG70h80meUfcwguhQ9Mge4XANWeQhoXMMLER92ZD0xIOQij9eu33wwMBBeacO+k8v4AVnddSwR+UQg12e3TdLGMfDMzWu74gjvVZG0l8kTMdPZnHazhp5kefokWPp86TZFpVlEfn7zHYQSHnrMNGZRS+1u/RaR6Dr8+j5dnKx+VTT3qV9jQdVO+FY/VOfHGv/tNfurQd182XVFHcfgdneorufj0p4JAho2M2VQky9DBhZDGzkjYG478ELTE+1fBqaagjdIeRr0XLxAtfbzDj63ve+N7zcv/a1rw3eUb3SPErLevfIJg4ElyeVTl24cGEYysaDKiAg5p8u6yEbIlvBT4wcejLP90bVGcGeXnleoHcwtudJXVWQhvppQZBHPprTKn4BGXY+htyq0ltXPOQ0B48OpH6aR8YLIh/zDu1NPUdKEXblYZXcDJmFW8pqkTwlfrI6TjmQ1fFpIc/pCNKmjofxLiPPaen1/G4hoIzpOj3UQWL0iHet9s/7iO643k6Ks8st9U17Me7sQfTVLZ2esI79Mm/7cXbqvVoE9huBEtP9Lr+Dlz6eoXiEGHHxlHp5Mp5s+2LgnlZgeXkxAmIIeGkdq6ciq+8iTk888cTwIoeRYbr33Xff5J577hm8pLycqwh6sc1L5UllVDAaeFGRvqeffnpYHMk1w7N4TbOg0irSniWO6AfiYOPRgI1jJM9/98SwTH2wP4sAju93LA7x2oLDLPKdds90/ORFgJ3f5e+bTucnniR7nvcQSu0R0g1/7ZE6exZuKUdt2NhTqp4jAvbLhLSXDOCQipDLGL8nxT/9nPxoV5OnEpGTUDu8cxkpQI8N86cX6qz3L52lS3Sh+nB22afdy13w06bCTXutfqatrQc1KHVfBH6JQIlpNWGnEUjj7aUYTwWBGUzmYjG2GIL7Hrz85S8eDgYAUmHzkju2kNV3LXT03e9+dzCOeEqRUnNJkcgMCV0lNiGo0hCQ4scee2z4VmrmrvKaIqibDNEPpM4Ww4buqwvqAU8nfRkTI7pzVv1wDXENltLRoy9/ZxHaefMuHcNI1WcdL+RapWd2XnkWvT94ZSg4cslzatgjYsmYPwu3lGOILUMVDquahpD2EmG2wq8wy/dKp59DUMglL2fpz6I49rndRiB6nnZBnU27cAgdwZtGP0RVfYdfOhbrQd10STS9fUCgxHQfSukIZRz34DPEGVpejAwmhjhD7iwPwL5ANs5nFt3xEtNjnd7pfcnLKuW0eq5PwhjGa44iIoAsrtpTOi0zTygv7A033DDoGoP9qaeeGmQgi3lWjLV1EVPpIS/2Qv7rbaf/DJmxd5SO0BV14ixCNJ3P/I/BJB3xq2c2/1fp0RwT0+RvlZ7Z5Gfd++AlHToKJ+URj5LrIa3y7L+QcmTg22DgOiM1bdlw45I/kUMago6KdFwMJ075yXMZjZJOMfuG40NgrOc8fAiVdkGdtfcephvON5yPQDzR8IJbPajnY9Y7jheBEtPjLfudzjlDzksQKbU6pGNGHCPrkDylyaeXPQ+HF1Y9FZPh0y2+U8rA/uIXvzgsdGRO6bo8pdOVIZ5TaVrx96WXXhpksTolwwIhXEeIR42+C6kD9IT+S3s814scCE62ZWWSvjpnv0qPJvkQ53hgxB8PzCKEetl8Lvt88qOjQnkgdCH24kZax/lKudJnx8rxS1/60uUyXVaePJ90DEHXTmovpXVeyHPyQM88J48Nx41A9DydLTrGjBCwEJg51zqHG+ZHIMS/HtT5sesTh49Aienhl/Fe5TCeBS9AZC3DFvU4MpjiXZjF2NqHjE97KryovOxtx9gbzYOsh978znhLDY80DNRCR6uaU3qebsRzKs0vf/nLw5xSHm0ykc15JIteLhKi5/ZC/iOiyAGiINi7FkOGXhhSTP9tq9KRxC9Ox9Iki41x6twyIfGLQ/mGoNnvw/dNp/Oe/MAfPjoIeNHhpe2ix753mnaKVzXeSPenLcv16fjn/R8PTLxa9FJbaZPeaSEjNsjtWXJmVeCznjstvp4/LASi53Kls0WgJ+qtLfq/bPswRHxEP/N6UL0H1MfprbgfkdIcUVYXs6qOCKBmdbMIpOceCeBB9J/xxsDiwTm0nvzkN54KxCNejmN86SAtFy9eHHrkEUAvcF5LK+auYvXdebU5q/X6viydJBNvgaG+voO6KDFNuSMEgr1OGIQQaQkpcEzv1QHnGIL0Itu8+TntfnFvwqOZdJDRzKe2N1x77GE8Tc5dO68clI1yUVaMdh4lZclwTx2mJ44Nu5ZP96aMV5En+mO1cuRXEL+NbJHhpHTSAUFWGzl5csm4SvlOSrvn9geB1Nt4TrVfVqS2SN0+1ttdQ366HdFBpE7r5GIb+H43zJVDPvtU3HetFCvPqhAoMV0Vko1nKQQYSBpehh1CanGQcUPMaxbCtlRCO/JwPBVeQF4+8p8XDuOVoXuMwQqniJ+hiL4haqEhxrUhvNsIGdJLBrIoL7KR8aqrrro8n/A02VLOytfGs0WvGR1neUalJ9hvwgCJYUTeS5cuDfUQySHzKueaJh15G3/fFK77+J1ERE5dtSkr/+mGclavlTUMeVTVb3v1O+ULh2WCuKWhrNJmSidt5XntSEZsIKXCquUbIu3P3iMwrrc8p/RNG0b/QlaRJvc1zI/AdDuSERDqr87atCMwZyNpp99+++2hHYG5++Bv77/4GorAviJQ7d3XkjswuTW8PCdIqe8danjNkYqRxZjT8B5K8EL3ksnLXd4QENsh5XPe8mL0MJIRFUNWkaIYPvPGtcr7yXDbbbcNQ3rJRsabb755MOTPSmdczggtg24Wz2gMPPtN6oP04G5OLQNIXlc51zRYRd/zfVO4jOfOnkeoEs+u7RFOc+9gyIOZOs5Q5CV2PmW7CtnTbsb7HFxnbUfyfEZsHNqIlFVg3Dh+hUD0y1QHbaA2QpieU/2rJ3q0CALaCG2JdtDIB7YQvG3qauyk3GeklTpvn+cWSbfPFIFdQKDEdBdK4YhlmO7x1/AKiCgvqe0QG9p4KnhVvHzkMUPvBgD25CceQflh5PrvZTm9zdqDG4/pG2+8MczjvOWWWzY2r/QsyM1tJYshva+88srgFSPrdIg+w8KG2CEnjvV8+++eGBTKXbBnWOT/dLyb+j+Wy/GYWDNKnVtFmE5HPUDYnTfHcd+IaepByj1lDDPH9F/ZyyevpHzaZq0X05gnPfGNV/PWhszSjuT5yETGjNggc0MROAmB1FvtPT1DTG3+Z2GzVbYTJ8lwDOe0C9rA2AbsoYy0MJcd5mylvFu0Ozyo/qf+KwfPL9POHAPWzePuIVBiuntlclQSaVD19ue7fjKfuaQMJYa6hvXQQvLtRcJTtK+eihAXHi/lyEBRZjbeoRzPSjQSn2Ge5hVbZGhdn2aZR6fIQBbzX5999tnBc0rW6ZByRbJsiIP7GAnKWI/2eM5odNt+FwgBOZQZWRFExEUPvfyvgzjLs3qOKJlHpdwZVoywfQrRW2UeT2lwlB96IX+G+QoMT9dnrRfTWCQ9BirviXpHr2b1lOZ57U/007OzPj8tT/8fFwJ018gAowAefPDBy3Obdb6to504LnR/Pbdpl7UX2pN4UL13zfVVjxHVH/zgB8N17bdyqAf117Hsmd1HoMR098voICVkDDHWNKxIKQNeo+uFd8gNavLtJWJjkDPCvUAWNVJ3QUFi6CpH+br22muHBYKUp0WCLCL0qU99auhk4H1EdLxss8Vz9O677w5zHA0NY/Rs6vMw52GYuaZkQgJ4S19++eXLZDLlykBA5OAw9o5m7l4MBrjsYkhPPZ00WiE98/K3yrmmyXuIqfjhFQ+e9F2jH7sc4nlU3kgp7yXM4CgPjEjBdQRSm+c+z9GFRfNJB7Wd6ppAn8Q3azuS58mVdpesu6qXQyb7szMI0Bm6Rp/pDJ33Hqf3+zhXfGeAPUWQtMupq9oNG+ytdaAtSCeTNlR5eEc5l3qtPfW8NlV8DUVgVxGodu5qyRy4XF5oY0+pBjOe0nEDemgwJN+ZE4aweLnYdt0IP6ksyEx2hi5ClpeiYUXIqOsWMUJGs5CRIbE33XTTiR7V9957b/LWW29NEFQ6QRd8O3TbgQzRSy98Q42RkDfffHMQjQGAcCBYMQTGcyaVs+ezbTs/56VPTh1E8mrOt/ypn6sOSSfDANWPdXpoVy2/8k7Z+94yoqc+ZBVxuiCoF/SB8a7uP/PMM4NHGvlfxMOUdiTfK0US5hlhkufJvs8jNgZw+7M1BOh6PKdGBOh8Gbd72vCG1SOQ9y58tTHev2mLeFARVauD21xPh6h2Qpm1XFZfJo1xdQiUmK4Oy8Y0AwIaT0aRnn6bY8apxpMxp+E8xDD2rIznhOn1RFr29UWRnlwvOy8/5ck4Z/Ba3VV52xC7MTGVb59c8RyPKk+kl62Xqk+yILLIikWHdqF3lwxkIRPy/Oqrr04ef/zxYU9uhoE8K0flCYtFhjLviu7H8FE+jmP0yKP66twqQtIRl2GA6flH4LLo1SrTW4XM4kg7Rtd5J3RKOKYn2jHDoOkA/IR0TLiOeMNRXuV/nnxGz6QpjqQnTWmd146kHYpnWj7URe3uec8OGelPERghoG7qEKFH2m7tv7pAr/dxrvgoazt9qN6rr7a0MQTWJvCgup42yt557y7th/vTHnleWbm/oQjsCgLVxl0piSORw4uLx+Cv/39SqpH03TzEdNzAHhoceTkwKBeZE7breDBQeH7i+fLCi/FMdh5QXkaLB3lJXrhw4WMeVS9TRM4cQ/PwGMpWfvTC/MQnPrH17JOBLGT64IMPBg/Yk08+OQznpbeMex5FcoeQeOFn23oGFhQghqcyW6cnM/qzL6t9ph3TyZQhuvQgnlI6IE8J9MB1RrygbsDTXph1VVPlsMj3SodEPvpJOyQex5GLbI4bisA8CER/6DsiipTu81zxefK+i/emHeW19j7STtnSfhupocy8rw55ytQulk1lmh2BEtPZseqdSyCQnn6ElKfAf40oQpre/iWi3/lH5Ve+k3fEDYk5FE9FDBQeGZ5Sw3EtFISMIqU2w0Jthr8iIOacCq6Zc4qYGvbrRfrhhx/ubJmSjVEvL4Ysx8C//fbbB/LKG5Vzypmex+hHbh3vSw812ZEpBErdlS9GDyKzyhD9UU+0CdKzSW+X5qyRh36SDSHl2fU/OBmam46JMT7Kmy4wCB27n84zGHla1Rt6pT2ArXvHIelqP5Kmckla0/ePnx0fpx2Spmektc8jNsZ56/HmERjrNd2nx9o/eq2O0POT9Hnzkh5HimlH0z6r78pCu2FEinqvLXGuHtTj0Il9zOUV//WjsI+CV+b9QsBCMXr6DX/UMBq+qccunoV9MdQXRd0LwXyPF154YXhZ33PPPUMPMyPcywQhO4SAZCpfhM38N0a7/4a/Tgeex/fff3/wQDr24uRRda95qH/yJ38yfCsUNtv2miINjC7f93z00UcHT6lz5JY/G/ldV86PPfbY5WHJ8u1ZWMBHeYeUT2Oya/9Dohg48sXoRIgQrHUEuMSo4nlRb/xn4O4CbvJvxIfVL8291QFjhcwHHnhgqM933HHHIOtp7Rldlg/D2tV95JDnlOFor97Ir+vjkHQz2gQePCLKwvFp6Y3jcJx2yKgEHQw6BSPH9L39XwRmRSDtBH3WVmsXtf9GwJykz7PG2/uWQ2C6vfEtbuXhvPbGCvOGYJuaImSBwn15Py2HTp/eVQTqMd3VktlzuRjijHUGbTwM8RYio4whm0bykENwYFimt5IxGeN+Vk/HrmCkTEM2yZT8hZylvHkTzSvlFeIdnQ5IHVKawJBB2jyjJ9denIY4moO37RelfJIF+SSbVYcRDOfhkS3/GWqup2c6Za+86T0yIbjHsfOOZyUYwW3dezKpozbHykSebOR2bpUBDryG6otjuO3CnLXo/dhTqqwRdJ4iG4zIfFZQvu6xud9/JDHxayMtDCbuMb5wGM9Np0M2ccwSxCeNcTtE9kMZsTELBr1nfQiknZCCNpJXX10xysJG38f6vD5JGvMYgen2Jh5U5aGc8l7Ke8p1bUrnoI5R7PGmESgx3TTiR5JeDFiGll5+DZ+AlPIwMIi8qA49BAf5dyzPPMW2fcw/AjYuz7zo5M8Wgxrx5P1EKPXOnhfyAs2iR/aIoPTEsW1iyotLlhDlW2+9dfDmyiPiRH4vdHptIScvfsYafPRMMwDg4z6EImXvmX2Y60NenSnyID86HMg9KzE6r/ynryc9+rQLc9ai94bv8pSSSzuGkMIFDouQdM9Z1dQw8NQrnmlejDG+IcT0iad03vZjuh0KkVhU7uny6v8iAAH1lm5mQS/1hi7rhBzrc9HaDgKp995P3kM6qrTp3k/a9c5B3U65NNWPI1Bi+nE8+m9JBNIzr6FjsDOoNHgMcqTU0DHG+7oM2iXFX/njDEnkHB5eBvLthbBr+U+5MWBt/guOGRf2gmPlaS/kejwxPKU+E6O8eUD9H3tGh4dO+IFNOivc779hYFboRfRi6Jzw6EZO6V0mC5ks1ERWhhYceASUsyDfZE+Ps/PIrH1wDWYRnIdYPIw6zzIe7P0P2RGvY/tthBDFeEHkYR1zTZO3pCcduhX94uUb45L717VPWanDvEDjemyxl5BS5bVI8BxdsjcEMp4mOKs78ipINzri/jwza5ontUOdWzorer1vVgRCfNyv3VNvEB/1KG34JuvvrHIfy315P2lv2CDaBeXj/1ke1JSZ+3J8LJg1n5tHYDtWzubz2RQ3hIAXkIYOKfVdP8eI2LF5SgM3YzKeEIY8HGJs5p5d2KfclJe5QV5YQsrSXiC78kwe7OUrKysblmjRI0TCwkdZHGh4+IwfRrI5pV6W4uBx9fwrr7wyDG0849GNXEISyEImRNmCPDxmcOFBk99ghKgiUIirPbwEGMOVTjgWHCP6vIKOGQ4wCPFNB0YMCfttBOUsP3CQX3nluVtXSHpZ5Tk4rdtTO50f6aq/IYwM729/+9tDPVY25EznwfSz8/xPfmO8S4/nVPpCyh8R1oZIe550kw/ltsvt0DyY9d7dRSD6vC+rbO8ukuuVLB0J2hfvqbzHdISNPajK86T30nqla+zHikCJ6bGW/IrzzdBm/GjQ9PYjpo4Z2hq8Y/OUBg8kxcYDuc05XZEnhGjaQxrCpAx5BXOf/zmmMnmRjQmT1XSFm2++eXiZPffcc4MOIKghuMMNJ/wY5ktHvPjoCaPZMF4vyHzP9O677z7hyc2eMmTXAl5ksjCNoZeG88KD3HCCqb1z8hRShUwoe+dhiRwEF8d6qv23icPeec/bC56FEQPCsb3/jgXpObZfRxC3Mg8hSj7IN5ZjVWknPfHBJ54XhC3kbR3pRn75U5bTnlIdBjyl9qsM4/xmCLu8ajsE+oOQ2s/j6Uw9V5+0x/K1zXZoyEx/Dh6B6LO2TPuoHtE/YRP19+ABXlEGvS+8S2za9rx7/J/2oGoPbTqbtSHa32zKu6EIrAqB9Vgxq5Ku8ewNAhosnoVZv+u3NxlbUNDgARPHjMmxYb9gtAs/FnlCdPIC8t/GgM1LZmzwMyp4xpwTvIDG10OIXHOvVf+QS8NdxYvInRXGL0bHjBbxCIwZw3oZ6tsOZHjxxRcHwoyQkpGssEA8BRjLg3KGZ+YKupbzMdhcF9wrLuWBNNiLB3Z6rOmPEKKUeLblUU1+I9+6PZjS46ndtOcl9SWeUoaaerDuT1slv+Y0I6XRE+3HIsYfvVFWNsfRP3q3SHyDMvanCMyIAD0zh9qCXtpDndaC9lS9dr1hdxBI+6C9816KB1VbZK5w5thrj7z3bC3H3Sm/Q5GkxPRQSnJL+YjB7IUzz3f9tiTu2pNlSMJE7/B4Fc15PR2zCpr0pGmLIZtysRcY2ifNDUWEPIPweBmFQDsWGA7zvHg8Z67c3/7t3w4L5Ig3BjBZrL7rnCBdHlMLG/GSmpt63XXXDecMGXWvobOMagTX9Xghhwg28KPX2CdByEAWMvEQM7SQshA1eVIH5NE5e+fgbvSAvMbj5XrwlYWxcZYOA6Rc2gniEad44EkeWMQLJj6GhLgF9yQdx8E88S26FydjRF4ZK2TSETHOw6Jxn/Qc2cUt/3SToYQsSncd3zcVr7TkzeZYnmGbUR8nybnqc8pLmWo35D/6otxhTw/G509Lnz7FWyUOz8Ax8Z32XM8XgVUgQM90otFXxIbuqr/0Mm25+qWeN2wfgbQ7aSvyPvJfJ7Fy1C6O26F84koZum8V7x3paIuFVb6/to9wJZgFgRLTWVDqPaciwHDj1UlPmgbF3DvG69gQPzWCA7ugMU2jDRMN+yKraM4KS9KT5iJzQ71Exi8SL4Hxi8Cx64sGzzOGBTJaEMnLS4BNQu5DchBbLzsk9c0335wYGoy43nnnncO5PLOJPVLqW29kEMiElPoOL8OKJw9xz/A0eQxm8oJIqR9WOzQE1CquZxH94AAjZCgv55AlmLnHXkcDYipNBoX7U1Ywlw6jcBYCMyuW4hfvpuaaRq5xujwvcIWv86vMX9qzkFJxZ/6043WHpJ+RFtLkcVK+8q2Tg2xIsvPnDSlOfHQEXtrk6Mi689L4i0AQmK6/dFjQ+XZWezjc1J+tITD9PmLbKTub90/svtyXkTzLvndi18j4Ktv3rQHZhOdCoMR0Lrh6cxDQcDB69MZPz4Wa57t+ie9Q9ggDTGyOEQyNtC2EbJ68BucQlPQk+m+ThnKwLTI3VKO/joY/LyryOWZYwwAxdc4mIJy33HLLMAQY2YvRjACax/n8888PWOqtzeq8IYTz4DjvvdJjNFnw6PHHH5+89NJLQ/pkIluIqHzBTzA8zX8vbWWD0PjPU5C6Aos8K6/+j4P76Ykt8boOL96z4IZokM9/aUUvpJMAJ/+lIz5p2Y/TlV7KJ8+dtXdvdMaxtMliG8d7VhyLXCM3/UFIlYd8q2Px/rm+TBCfPCi71F35QfbXPXyX3Cm/6ZEW8ix95XTW905Tvu4TlIuylx+b+OnPou3QEGl/isCCCEzXX3quk4W+rmPkw4Ji9rEpBJSPsrNp97UhGcVhxJC2UruZ94B2Rqelc9pOz4zfP2mfppL5tb/aLvoh6NCVfsPxIFBiejxlvdKcajj06mcOlsh5BvXI85ZqkBiuxxaCi95EDTNDECaL4pH4NPRCDGj/bV4EGv5swVzas8wNdX+eWWVZkYceeBEZvuXFQh5DYf/H//gfl2VHLKzGa3OccO21107uvffeibl23/nOdwaj3AtRvIghQrvOgPQZPsxT+uijjw7fZH3ggQcGmcg2Hcg19iQiUAKZ5Vs50glYCPPOsVJGdEh5C46VcYipvTQYCELSW9dqvylfOihf655rmvyrSwwVBlHShQM8lgny8fDDDw8kTlrKTXmKW17XHWLY0Y+TRlqoP2d971Q7A4MYcGk34nlVt1y3raO+rxufxr/fCEzXX9Nc0mGyjpEP+43W7kqfctTOaBvz/tF+6oDVLhvZYXNde60dnW6fzsth2mP3iUd73HA8CJSYHk9ZrySn6YnXACGlej41UgyeRRqglQi1A5EgDLBBSGDiGDGzaVRjMEbU3O8+WwiH45MIhnNCrnsheCY9mjE8k07Kw36bIS8yGCAUPKZeYF488hCPKa/pmGzyKlpI6dKlS5Mf//jHAyYXLlwYjOq77rprcsMNN1weSrvK/MVT+uqrr06kZ0MikRPeUjLF4zlON/mM4S9v6ojzhj8pJ+RNvumHsvNJnFlf2CnncZrjspVeMHWP43hUoyu5hyfVdYF88kZvHNv771iQruP/j727e72muu4A/oOSXhSakEBamqBEJYEoCs8TGtDYoMWGkpvSKy960X+lf0pveuFlKPQF0ipJrVCJgg9VUHwsliZgSYQUvDCQ9PlM8n2yHWfOmZkzM2fmnL1hn3nbs/faa6/13WvtNTPHtkzKkG2OFAOTXDIwS5rK8qfup//kyBMZaNJ29A09Jd1D2wtPYJnxcsyYYgzJS/WnTZ92tR8ajAPZkO3n2Lbr/07hQ7AGbxyLOOCRY3yDEe6vqXJgbQ609Rf+kdHIfWSzyufaIzOuvYyjcSqx0Xzig4eumwvgsgzPvO5inJU3znDa/V3zSqiJXPgavjnY01TuLW2ElK3by+PAJ62Ny+tf7dHMHDCZlJFSAJNIaQk4Mze7+eqAMXCW7eMFR122305l+S2+G9qmd+xxDGMTDMeMM8Fw9gEhjya6btLqSz6I5G9Zvva1r908++yzzTuanId85dcEuETkNJFSk6EImrFBg7+ssUUT2vqSsdZP48thQyf90GeODkdhyruCfe3lvEnexJ8FDvvaw3+02OI5+RRppMOSa86j0z0cITJrX4oBYlumyPe53jXN4gDaLXRYUCjpLmk9tI8fxjmyyCklr/jQpbeH6jrlmn4YE2Nj3LSPFuNgbJPC9/SfTpAnPJAyjurjmOof+evDodRbt5UDa3Ag8mtxTIKRcz75sEYfahuf5kDG1eIkvLH4mgVoWzkLZLAIvsG29rzSrplz+/LLL9985jOfaZ6qsoBd0+VzoDqmlz/Gs/QwBqyJRGb4ACNGFKMb0FxzygpfIsh4A4jxjXHIYbCfHEcBH7f0bujUMUz/9DVRNHUlwsUxNRH5Cq9zPiAkGmqV1bujJihGdZJVVhFG99y+fbu5z4eQOIqvvfZaw0eO4pe+9KVZvtbLIfWhI++UenyXY6otY/j44483ziZa0HQoGfc4psYWX4y1RFf0ccy7gofaKq+ptz3JozcJDcaGA6avSWgkk+jUV2UYjYn6qxPd+iUpY995K9jaKOXc/ZH9tDHnVlvpl0g2WdMnBkyM3UPtR071O7KqDjzgCAbL0sactHfVpV20wFTZMfmR6Ul7TNv9V17f1cERdWy81KV/kmP43K6ri556rnJgSQ6U8guHyCT9iy5mYaXK6pKjMH/dGdfgpvE0t8Nm+5ln7MNp85GyxyKo5mRzcb7Yb1H4EL7P37Na4zk48FtL8Byt1zZ3wwHAYkWfwWMfqKz5tcqtMyr8Abx5Z8ZKsCzFMXBdZiAD2GTALjEirTg6LzlfArGJ27nkptAGfhjE+sU4/t73vtfIiJXRGNnkBc1xoEQePZ7DsbQKmuvtrjBQPELrPunOnTs3r7zyys0bb7xx8/TTT9984xvfmOVrvfn6rg/reKeU08Px5ZRyqo3pEGPJWOl3nCRykYiA8/o55l3BNj+mHuO9tvWBjBkvCX10mnwqY4tejqnxxHflI4/qKFe8nTfGyrb7OZXWIfeFz4nY6ofE2A2fu+op5VSkFN36dO5IKWzVh/RLH8Lzrn6knA/HkE2RU3V4p9h4JdmX9dH41lQ5sAUORH4T+Yc3Iv8W7YZ8bXoLfag09HMg42vuhrmwDdYaZ/OEr9TDI4tv5XzSnmOD1xYv1Dn1yZh+SuuVLXKgOqZnGBXvlkneFdp6ikPFeLX65RhAMHZEFxg815QScQGYsmMJbxiHidw4z0jO9YAz/jkXBy1RpwByDP+98FVf9M2EwymVY2BzWBIpTf/yTqm/g8ED/ZRzvS1LeaTXeW35eNIHH3zQRJl9KVdk1Xso6mDkqF9Uk2Po8R9tRM/onTp8UMnYcGrcywk1aYqUqtM5Mu7xXX1g+HOkh6Q4gMpqIyvGZAN9IleJhA15VxD9c6TIGz6XskUe0WMr4QO6HUe+I7uhA28zxpFnfNVHx2t8ZTN8Rjsdonfad954lX1Ed1tOfXyFsYMv6lg7Uhp68DsRIzSTD7lNf3ifbfpvPMmqfjD41EUHXXc+/OnTr9RXt5UDa3Ig8qtN+CuRXXaGHLlWrqb9caAcX9SbF2CdcTW/sBfMK851RVAzr/gmhdd/7t692zw1BTez6Avf5pCPPdnj+5OEaRTPY/VMa/sq76IEUQQMiNG8VWYAjnN+rXJrfAmY4kv5bigHxMQKcE2sDEJRGEazBEQZzLYygAaqyXFAHLu+lxR+HIuUpj/6ZoVUtBQ/9HeI04dfVl85d3/4h3948+677zZ85mDI6vBhItFXUVjvn2pL+fDWpMYI4lR5V9Vju++//34z6Zn8JI8V+/qutkRMOQjaHpvST44zeSAbkvYTDbNFn8Sp6npXcErbTYUDf/BfH/FGsm/RiWFgbG3xy75knwOUr/26Tx2RA3oROZ/Ku6ahgT/aEGExbmgih544aKfQFzmlp+7lkCpPV9fUu9BDNmQJHWMX+zJ+FlAkukGOjJNx1Edlaqoc2CIHgpPBQXLrfcQaGdviaE2nKThlPoNLFhLNFXC4K4LqGow0v5iDlCMbnmySOLfmT/h2StqbPX5KX/d0b3VMZx4tikRpRGMYobYUzMqPSA3AFfWRvG/HcBXZERmivKI9QDpRnxjVM5PZWx360RuDlEGdSCnjDajIpwJCLwFnvqDvANBWCj8cl3wBrBzTlLU1fhxSWw6p/fAJIDMaHctLOxxLszF8MWEw9mU8YGh0RUpDTzlBeQdFyjZluraJnNILToioHL3hoHIyjUeipyKqeW/V6qrzEt1LNNB7vZzR3EsnObMcUn9Tw8nl7GpvSko/8aSM6OFbInqRDThBtvRBebxUjr6RITxV3xIJvrRlMXRpDw4wEmwl++FhzuV+fSAPFgrsqye0K5N99WhXn07Ft8ib9hi0aIJXeK599eMpumAZ3tp3nhPoS9H4XPYZfUultt6g1bksZImWjkn6Ed7iRTI+uBZ+qFMfM1Zj2qhlKweW4kBwUv1wkD7EKYmzWuLGUnTUepflQHAK/sAhuGScjb9vTWTug+Pma8fKmJfZzjKn1HHmjSFP5sDWPdvjy47KdmuvjunMY0MJGMbelbASbksBKR/F4qgykCUKyPD1Yjclo7A+CsPxsxVVotBrJsCAXhOEd5bsS4y3c3ytcs2+a4sRW/Y7AIoPMqAzURoXvFLeeefwJ0Yuw7icUJUHqMlr92vu9iInDP1D75T2tYsPcQbsD01xUDmc7udY0jGLBCYzUdC33nqrmdTomsWgPKHg6QTOLJ0zQXJeOZ8PPfRQs2hA5zin/qeUUaStUxMZsLKLFpEsfCsjerlO/zmsIqfkzzs4nCaPQs+xMjy1Hxknci/hOXyiF/piSwdkakmCAABAAElEQVTghcTp009fUnSv/rmHw1X2IwbKqY5S6KN3+AVzRU4tPIikqh8/Ocv+HxSt6Dl3pDR6g39wA2/wamoKbok+GB/jZXy0gyf6W9/dm8rdet/SHAgOsonIa/sJEzpb0+VwILidHlm0z0K/BUbzCExrJ+dgGntqyJM5e7fH2/2/luN1vZ4L5Con02qO1T5fDW0byqIyjCTXlUu0FCuyGuQao1ldDFjK538UuwzlRH/mZmUMGYBA8U0MjBwAwOhj2Ax592luuuaqL/1jrMkxtO3jt61kX79tpVxnQLoHP2JMK5PzJlaRQsaxSTRlmkou6Cd8jJyQFXxI/9vvlPZ1veRjX5mu81nM4Vxy/j226z9Ny4UgZTij9ClZXZ5Q4GxyOjmkxqm9EJRV+q62p5wjB/SG0+zDSuQpixx4lglauRxbxFKGgeZ6aMr1KXRMvadrnEojkfxnYYbT33YAtasPylhMIDd4oL8cKH1KGfvOK6/dISn0iTiSPffmKQ9j6zpH1bm2nGYRaUg7c5XBL048evAkfCAj9sem6KO61EnOYBBeOudYv7WJH8pP4fNYumr5yoExHKC3cIV+wAWyLDue+53CMXTVsstwILgNi2TjX86NsMvYt1PKvPPOO82CYxaRg52XYo+3+31tx8Nm/2vjyoj+cjbzcvbrr79+/9FCRrBVIIYzp27Mo4WMCE7rnI8WHutSFJ6jIQIGGEwQjLdLiJSmf/pVvhvqWJ9tJSCp37Y5zsqcczGcOQ3evWXoKW+MY+gC2UtN4WPkhNEr2sMplxkXa/af0eLJAo8DP/DAAyc/Oj/3uMXgIhscBo6ChQ+OdRlBTDllyBOjLA4VmixeleXnpnNqfaE7DpbIL91wXoROv+0zMvSbY0rXGCb6GT0jN/qXxa8YGkPpUo/748RrR+QWv/ESDXCMjKIpj0gPrX+ucvRFBBcv9F9/T8GN6COey/jqa+n66Ro+5AkQ/BCNOIXPc/Gh1lM50MUBOJB3xl944YX7T2KIfG0R/7r6UM8N5wCMYo/BJU+0wDDnkvtqYnO/+uqrDd7DUYvT0qXY4339vpbz1TGdONIUgLHFyPI1z3yMRXSUcSAiw6EZ+zEWXxW16kPxRGCtDHkcURSl/BjLHI8Z6joAYCwxYBhwHA77MRz3EilNP2ylRBICcMZKP2VjlHKOs+++GNomSImBXL4b6nrqtM8gjlPG2B1rUDeN7OAn/CQbZETGu/R/aKR07q6SU5lDIoLaTuXHDTyVsPbHxtBGJhLRs+gEMzyyGycKD8mScinrHDk1UeOz+0SCyTHZ3IqcpX/oQRdaEyGO46UvzjMu0U9/Ik/OJ1lkcKy8+sKT8Ec57TlvWybntK/uYDE8w2vnOH/09FxPNKBB34yn7HgO3MBPsqFOiQ6QNWOQYzJP3vBD9lQOh7100PGvpsqBc3OA3pNdukKfySvZpe9D3ik8N/21/XEcMA/AMHjEtpCHpOAeO9vX880dMMzrcnu2x4f0/RrKfHJ2v4Yez9RHisEAeu21125efPHFxoj86le/2jxOFgeS4Xno7yuArTKcTBFVj1pRMtGROLyMju9///vN6tCzzz57c/v27eYDLRRyjmQC2NI7WFP7lH7gm2R87CcDQAZucgwxxrN3/pyXnO8yhJ2XGZSp076yVnLl1NFUdGE/6fdWIqVD2Vs6ouX+0PvnKhc54VxyIhhcUl8klFEmcqCs1WQyZ5+8bvldQf3kcDEwOKKcazQn00uyZEtn7Uv2RRFFie3DRjxgpJaRkjjAtodS5NWWA8YhPSUyeaitIdeCT7DWfuThVNxIvYnA6mOJQ2kniyCMfJFTj5XjybnfYR7Cu1rm+jgQ/GMXwQTRtDy55Nox/b8+jl1XjxMZ5YSyv33XhVxwcPdsj1/XKPb3tjqm/bzpvJJIKUOAke4jJYwDE7+PqDDKvv71rzeP4XZWUJxkKHNK895bcal5VzXRU+/PaUNbHhFOtAA4T42cMtjUyUAG+gwWxzEsGSwx5Eq61t5PZAW9smMp9NtKaDcmtlKuM4Ddg2f4JaJQTmz2S8O3ufnAj/osFjC81ed+RrftJabwX3+3FCkdw+tzOqSh06IGGSE/5IXeyeS0KxJAtjhltp6gUC73MNbIufroq7qDCWnvXNvgB5o40uiKfpU6gg+cbVvJfiKqzpG7lLEa7rqkXm3gi31bx9rBI3LKOHE/XbcNf5SV10yl/nj/Fk/QBVuNb8mTMXSlXnwhF/rM0TT/4EeSvqcNiyB4pCzewjHX47S6z3FNlQPn5gBZJMvk1cIcvDP/kE9yvrYen5sfl9Z+8AsWwWw4ZqyHJnOiJz98i8UimycKBXY8XUhW9maPD+33tZSrjunIkTahi5QCyR/84AeNMj355JM3jz76aPOorXdKfWX31KQODi4j1KNZb775ZuM8erxXotj+2mJq5JTyWr3nlL700ktNfVt4B6vNN2AFtOQ53g01sckx5O2Xhly7/fZx+IYeK7jtCEW7/N6Pw3/yPuXru3vv/9z0cxLKd6giR2TQtbbB5TzHLs4DJ8S7V6mH8dZ139x0D60v9DIa4Ir+lV8hTj30Dt1wTLLPYYevZM6WrrnfghOsklxznv66JxFVfIMPHD88krSrHhEX8ttFR1NwwZ/oD5pgrfT88883xjX6p6bUq78yfni3tC8Cm3HJ1585pfgaXvVF7qfSV++rHDiFA8EH8ytHlP7S4zyBwSaqab8cCH4FF40vXB+b4DssEzGFceYQ8uLJQ08u7sUeH9vvSy9fHdOBI5yvfTGUPL4rekm5vH/o8donnniiiZKKcs6RRAl8/IhBSuEAtS/+Mr7u3LnTfBzJNR9RETX1iOCQhGYAQJlFSRk1Ut6BW/tdwdBjK2UlzbEcAxXNp7wb2jb4m8ZG/IRO/JLRmXe5Tq17BBmrFc047DlSuhqzRjREVjhTVortwxO6KIrmuC1LMdA0kYiXe4xL/i+U8UYWgxMjyJm9aOjldNmnN+iVS/o4Uu2+lo4avQ9vRFKT4IA6yaf68cEquQQb8VWZtBU5Llfmcy11LrlFC6ML1gYzEi09pd0YZMFv8kMGSh6W9Wdc8Fz/lTd3RJbQ5n3sRHHbY1PWVfcrB5bmQPAhdgn5pMPklTNDhsl6ldOlR2Ke+oPDsDtzQpxSW+M6JeWRXtjlC72xxy3QsZ+3bo9P6fM13FMd04GjHAXIM+0MDpFSTqloKSXgTM6d4qBqQ+IUv/LKK80KESUUURU1ZWQMSegWfWAoAQRJJIGxlOgLI2atFHoCTDFIHcsAzSSUHNqsjKHbecl5+7luYrOffGp/QmfeEWPYmRjltHlqG1u6P5MHo7pGSucfGbJK3+igyBX9JdN9joXyJttEvOgvWdzK/522OZT+0eH0D/19/WvfT6eUZXjiC3mU6CFnDE4oo36RFOeUoffalvAHfgQDPBLo681j6GgqOuEHfb7ezYHWbhb+TqiyuTV4hLf4A7/T70N1t/lK/rxzSs/x0MfutvwO86G+1WuXx4HgXmwrepTIaZXT/Yx37Al4aAER7niCxNa5U5JXdXyZ/7nnnrt5+umnm2jpXuzxU/p9yfdWx3Tg6IpW3L17t3mMV+ROtJKzOHektE2OSKhVH5/DZnRR8DfeeKOJHnqkmKEKtI85pu5jzCRSCuAZfYw/BtPcK+XtFTLHUuiwldDEuLKVcp3h6Z6snMYRzApp6B5q6DaVT/hJP/BLhAr/GHdWctEUeiZUvclbyv4yVmVjE0cjhvWl9XvtwQg/ybfJORE952UyVqbSoXDdffTGpB6ZzOO+XfeXda2xj4Y43nEaPfo+VF+j98Go0AwX6F4io2QTZpBb+qjdsv+uqcN1zrxjEVZ4V5bTHh7bzpGywBbDS72cPjzR7tQU/Yy86I86h9bb5qtj3zBQD16Spfp/p1NHp943NweCe+r15EQW1GGKTLdLPZ67/VrfJzkQ/IEXsuMy9V0PvsAY9nPGz/zl2tTE9vXam9faBInYsnNGStt0zWWPt+utx5/kwDyz8CfrvMgj73b6n1IK5eu7PnTkGfalVmbaTEzkVJtWhd57772GFn9qz9hjlB1KAKGMlAL0REoBu+O2MXyovmPXgA3Qka2QMdQkx5wdW0nbVvxjrNnm63slXWgrDUf7uaepaKGf9CMrfPqBbwBwjfYX6lZvtemvMaqR0l42nXyB7JChOJP0U0TPKwPO9zlw5N41johELjmottJW3hVM/469a9oQPeIn/WcA6TdjVbTQgkl0Ei9j7MAZuAe3ZY6XLSex5DP8w1fbOZJ2RUqNi3phHDrt68PUFP1Uv/3wOX0fWy96RJ4Ydvik3vp/p2O5WMsvzYHI+Vi8XJqua6u/xJ/SrgsfsiAHR+TYfbHXjKMcHE99KZd6hm49AQNX4d/DDz+8G3t8aP+utdzFOqYEvjRQohhjjQIGEOPH+50ilFZ7GEEMQy9Wz/UM+zEBzEqNNr/xjW8075SK4KEJbc5zXtsr/uEDY0zGE8DAUMp/lB5ru+t66rWV2itlgEZb8jnfDe2ifcw5/WDMyvYZrqIt8lxG7Bh6liqb8RMZrpHSpbj823ozMTvDmeTAkDH60vWV3tyZiJeooX26vMV3BdO/OGJwIsZKDJP0acw29ZBTUUM8gGPwjHFCJ0uDyL5HvXIef/HavRYb8RGtrqPLtjy2L2nHvu2hFFw0lqI72ktEU1vqPyUFj8onXvQdn6ck9ATL8CkRKTyyqBD6w6dj/Z9CQ72ncuAYB+heZBxe0i+6Td/irJ6CK8fav7Trme9tpb5j/JVTLvgGF0q7LvzJdTiVe1yDG7AmT745Z7xgV+YFW/WW7Sl3KKkDvrKJ92CPH+rLmtcyTrYS/dqS/hyeZdfk1MxtEfCsAKsaqJUr5EOb45T64pfHnTiAFEzU0hdz5/j67lA6Ui5f6/3oo4+aR0vRhDaP+nrOvm04hA9xSvHB1xsBQoA+dY/Zpl5gIgGiEmCAEkFPjoGn3TXfDR3Tp66y6afoDNoZcXNEPrraOuc5AGX8aqR03VGgH3ApkUUGV54YoJ99jkwMNdfJJUdii+8K6h/DgWzRIU70FBzOqKhHJBKe4QGHSX14oC34h28xiuy7Bp/IOPn2VWNbdcRQch9dz/30vKQTnw+NR+gLXph77Gd81WX/1JT68WHOr4KHzhj5HNRETtEcvvTJ46n9qvdXDgzhQOTUQj39hXvSVp4UGdKHLZTJfA8XJdsyAtq251IuDoxxkGPXpU/OZf4qr8MPZZOVR0OycYTrcBm2pb3U27e1iOvfJGT7a6ex9vja9PW1V84jypjbyvmu7761zl+sYxoGGgAARiGskMeA6VOs3Jctg5HjR2n9h6gPDRlEj/CeI+WRXjSgxco/2tDosYYYFgEWfWfsOtZn/RdhcH9XYtAFLGxj4NnHS1vJPkPTVsp17bgHEDFiYvjFoNmaAjTEd/yED13vcs0R+eho8iyn0s8aKT0L+xtcohMyjMo42D/0f33RrzhMjmFA9JDOb+FdQZjDMWV4wCL0MVz68KdvFIJnHKbgmQUieCaX9QVrUld5DZ9efvnlpg70qDe8Rxt9wHvGEaw1Hs6rUzv6Iylj33n7knLKz/l/pU3F936ipyUewaFEO1Nu6lYfwidGvr5oC74zFrWP39rU7/R5anv1vsqBKRyInNJb+ggL6JwU2+ca5TP4QG9lx1LOt4/xr7Tn3FNGQB27rlzuVV/mnbZd55oED32UE5bIbSz+danf/pb0weWhCR1kgR1uPoFL50hD7fFz0DakTWNsHsTLKf7RkDamlLlYxxQ4WQFIJIJh5H/1gFkerRqyQmCSNnAmaQpHCQKAUxg+1z1o8Ey9lUO0ofGBBx64/67pschCHx0Ayb1yuYLmOKtZ7sVfvLTNcblSFoONwMuARLKfe5oTG/0p+WA/8jRX5GMr3U4/jW19p/R8o0K+4JKJOl+dpF9DJ1xGwBbfFYzeBIfhiCcmxib3WVFniEqcJKvkHLMxeBI+x+EK39QDQxliMMrWwhujV9vwq8Q798EC99mXlDPPzPl/pU3F936ip9qwj0btyvbnShkv0Qd4biFA9HerX3+eq9+1nn1xgNzDO4tvIvv0TrrWyGmJD6XdBsdghq2UY/MMXQ922JbH9kt7LuXiEDqWY9c1ld/7aV/P+b5t6Ia9cvCtr3zOa9tTgvKxD3/mniW3x+zxJdueUndwPvPyVP9oSttD7rlYx5TglhN3VgYIv315yApBIqY/+9nPmmfYH3zwwdXeKz00gN5tRYtHen/84x83RhRjzQqOvhG0rsgCgXQdIEhZsXIsA67wp1xBK+9xX8lfx2NXytyz5YQPWY3VN7LEMLW9hJRxZ3hzSmVjTD44SPXru+uOcvhOBy00ycZmaISKjCZ6tqV3BUucsK9/jA9Zn53rSpFPMqksPJPdD+fyfvxYfSz5rC7HVv/x2Va7kja9xgEHlCvpCb3BWnW4HjrRnLnHtq+PqWfItguP0Gvc50wZL/XqF0OTg65v8ND1LMy6Pkff5qS/1nUdHAje0TsfjYMNFlHoCb2U9iifwRmYE9wpR7TvurJwRy7ttpy3lVInvcbD4IctrCqPx0Q+SxrH7KOX7eEpE/Od8ZPi4NoPzfaTPB3olTofIg3NuXaObdse9/QS32GrKTif+ck48I3kyNEQ/2ip/l2sYxqGASeGdhQgWwMwJIJKKUzKlJ0x5AXrLazQoAEt3n996623GiXQJwZt+W5tO7Kg/+V1QKB/yYAPz5JjeHDK9vRuaMZ/6rbkk5VDfMSTS0mR6xop3caIki0RuBhV5G/KO5mpJ87DVt4VRBcchjND+lXKp0ip+0yibTwbO3rhT5vPvm7u3XvOnqQtmAcf0WJrTOxLGR/RbfsplwkfnelDafA1N0/40UZwew08Sj+MmcTwN2620rVGpprO15/NcCD6zAkQOWUDSRaVhjwR1xTe0E8wA96Vkc+Q2LbXHEv0FS+SY7c5hhc5TjnOnH0OoBRHsH2sTO5tCs78o5/wnS1uP0mbcFNyPv3M9c9//vPN38P46JH9c6e2Pe5JxswV56btUPvk4xT/6FDdp1y7KscUaBHyZIxzzqQvd60QfPzxxzc//elPm4n4c5/73Gqfoz42qAwrz9ejidKi/T/+4z+a92AZMBxMxhGg4aw6lvSTgWErUR776lBGeaDFQCsNKvt7BPqmkyN+wg9yIeOJaEqiUSOq2mRR/dHHGind1vCUEzGjigNA/uhmnCiTyDEjoaxnS+8KZgJMv8gggynGR0ajLZ9W0t0Dl+jh1Ehp6i/5g8+igOYD7cJS2IdWuaQNPpYGkn332xonGJu6M0bOu09dMQRTf8rol33brhR+JIKOb2vgUeYBbdnXB8aX/sIOdP3qV7+6/yizfu0loVvyZEFN++YAuTM3048f/ehH9+c1Mnvo6+Zr9Tr6S29lx1LfeWVgvlxGPkNvrsdey/noa9tuwx+Rz+inbWnX5f61t8HTPK0FhyVYCGvgThb3vBqhfFK+su5VNn/bmEXYXD/Htm2Pwxi+w9YTXscxNV/B92S0Oxd57PKPMo/N3c/u2XDuVs5YH8ZzqDDVqkw7YTrlMACuWyU3ULL7/Bn7z3/+80bIKLX6rK6fO6EBLZTS47weZ/nJT37SkKVPAEpf0i/nJPc4b5tjBqJjWR8JWzLAkwIYzcEF/+ATx14OHwG5vJQSrslOExvgqZHSNbk+vC06CHfy7kf0dmwEIPVs5V3B0JN+kcGud03b8skJonscUuUZK+o6NYWeoV/3pPvoiGFpH47CTil0KqcPccCVN4Zw1D2M6HKB75ihGH7gl/3Qoa418CjtoVN/9WuLX38eKg8Mxjim7qnO6VDObbNc5BMu+FhcPjxG72LX0BXye45U6m8ZAY1jFicgjpf+wKbkto47n37Zz3X4Yj85dlvOt4/PwYuyTf3uipTqE9vbq0S+IaAcGxa+SvTVR0g5giKlym/JHidn5jj/R8532HrCv1P8I7q1RBrtmFI0E22y4z2kTOxtWkvgcI0SpG+cWY/Kcvh8FpoycASj5O261jxGA1oAkZUZfxujj5TWuTyS1qbJNcIUgaJIa7xL0KZja8dZwQSAJre8T2XlDi/PNbHNxaeyf1mlJOflRHDOCXyufu69nlI/7Rsj42WfQRK9PdbP1ENujTG88KQEjIhsZ6XZdeWXTKEH/fZL3NW+pK/0j/Ojz/bRzSlldDI+h/b/WF9CD4MwDpd20dUVaUFHiQGZ99Ae+hlUyuBxDE19Upb+adM184i+Oa+89lOHMvadt68e46W8c/q/Jh6l32nb8Ra//pzxxmeLOIxDTwzY4rM5kqHIYPzlL3/ZFDdXWphg2P7u7/5uw29RYXpha5z0t6btciDyaZ7mzBh/Ohe9ia6Q31NS5k+yFH0u6+u7rix65DICmvPodG9S+oNuut6m2/Ge7bX0G9aKhMJ5vAm+ZIHBWHKY/uuePW4xD/4pR7clfPJe59bscZgBZzxlKYK/B+cUP81LxqadnHNNloxH5Jl/ZGzIqTnLfDUXXo5GXUSJJsW4DcHtDm3tGN2Yeiwpp2/KiqBShPfff79REpMYxm9hlRUNaEGTFWATri3hICiyfUbPNb0bemx8+65HAQOYJgx8A44xGvvu3cP59I9s16/vbn/EyBxHx7jBIrrcFWE81pPggbok8n3OdwXTL/MGOjgAdEwyr1gUYrDAYRg2d6S0aaj40Yave3qM1/+boisRCdfahmFuzTyYJyv0Sz9M1MYsxmbmHXhiLGz1m6GlLRgOo4Mx2kw99tNO6JorYpx+jN2GX4888kgzXujK/52WdPfxbWx7Y8ubr/O/4/SGE41GhqInnxLNUK+5k/xZdLYYoW++8mo8bLv+F3wsPbX8OhyI/nEMJGMffDGexvaUlPmTLJWRz9RJr11LdizRebQlO5YcB2fs5zw8sJ/suEzt6+W1PewHz7ybby7CL7w1RnA4C5AWGsIzc5f72C54L8X+xY+t2eMWvt59992bv/3bv23mlb2MC505ljIOyvKPzM/GzRjRsblw/5NSf4yqHV/PJGTisnrKkbvkxDAKOFJ6BhOwawPdJfNgTN/wSmRCtk/B8EyeS9nG0DNX2azkMoSzmARcgD4wqV/fnYvT89aT8TFpG6/SMCoNmWOt0nfya6K3717GOIOATJAPC1rkfM6JpY+u9ItRYnLTtxiTHFIfa2rL55yR0jZd0XPvqNmPnsDKrv+RLfWpfLICxgZnyzZgCd4Hi/HdHOTYmKY+fU7Cj/AAPdpRjiGLLve5/xx4Hn7ZMgiNl7GUOX34aLxiWKLxUEr/lZnSH/O4+Vx01Aq+J4c4owxYtPiavkiV68olWqo9+7lXX9SlD3jvKSnOqe84eGRQZEZUlR1R0/Y4QHbifNIv8hnHxxb2ua4c/Ukmf2WKPLavOyYXchn5zL25Ti/LOoO/7Qgo+vYc+Uy/h27D1+AZ3HAuOMHBeeaZZz7l4GRcYSve09P/+7//24QzOrTveyi3Nf9otGPKsLAyapK0gk8h95C8g/n3f//3jXFusjIBdaUYTox2/bT6+nd/93fNI7ImLsoEbM69SsOYRIssocc548H4yXn9MVaAcA3Ds4unezgH9EQ/rLJ+5TeOfAxi4LjXFHmokdJ9jWBwNk4b+UwEAC7FCBvaq0zwcIB8M9bO8a5g+gV/rbjqV5JjuOXdIvhbOjgps9Q2uK/9Q/8jG33Cv3yU49CTFeF78Ni44X8cU1s8yDyacc7XfjlX8Jxh6758gVJ958TzjGMeB8/Xnz2+xqHPo3jH5DT8NK5T+sOxNJ/fvXv35vXXX28iFZxTj+ky/H25ntGbD1vRpziX5vMsEnA21ONei5OcVk6pyPCtW7ea/wz/whe+0CzqLCWDtd7TOdCWS44QnLNYIbJDxuiTPEfkMxRrd0wElA0JG5JTz6Vuo+fBTeMCz2B8+aQFPuJJOzlvTqCDsCYLSXBwS/Y4TIE9cOOv/uqvbp544ol2VzZ5PNU/yoJ237hN7exoxzQT7bEJZypBc99HcCmFicbkZFIqnUr9wdRkykIB4pgKyf/rv/5rs7JqErPymtXTuWkdU59+oQVN3pERBdFP5xk7DNAouMiE88aMgaOvuU6przlFPhiAwBIPM/5W8/Bpjyn90qcaKd3fCAZnUU7HGcuMKZNynIExkwE9J8syHHB8jncF0y84REbJp4ig847pHKdm7Ug+XtJ7+g8LggdZ0Q+WwlZjAVMlvGRc9T1ZEb43hX/zU86d6jOutpJ9440vxhodaFOPfW2LGChX4rhxLeVBeTTbLpEyjuo2D4Vv4Y/rQ+SUIw6fpK4IdXOh44dDGt69/fbbjUNqTDiY+syA5Sj4r2/OKScTf9AUnpA3tKOBQ+r/wL23xrjkpIrAvvPOO/ffGfO/icYOr0VPazo/BzLPkT/ZcZmMLbmgTxYl6LNzdIlj6p5STxy7TrbKusiMcW9HPtOWa9cUAU2/j23DT/znlNJ1/KWL8JbOH1poLXFGW/TYY/ls3i3b43/0R390469svvWtbx1j0VmvR3+m+kflXDZnR5aZteak8MS6KIZJnGIAozbgREHiiHJMnUumAN5BMYG5l1KZlM49MXmpGi3oMtlaSaewAVP0R+FFWv7zP/+zAWDAXK5QAdRrTpEPMmI/fMMj+3tN6VeNlO51BH9Nd+TRghoDy+Qu0fvo969Ljvs1oYggnOtdwRgc6RN6REo5pLDYsTJrpfD5WIQa5nqyglGLXg7pKfSGD8Ft/TYHeecRb5xXP4OYThv/nEcLg9k96CjlAa47vzS+h2/5+jPH2XwzVE7hrq9zSvptfhqSzMUWjV977bWbF198sXFIv/rVrzbyEwfSvMjRtGhrXM3l+JWFafvKmMstWnt097HHHmt0C10cXv35/ve/f/Pqq6/ePPvss81/J9IZjm9N5+dA5jnjVUZA2XrRFfqSxaQszBt790b/oifkeUzkMxxQn7qSc/7at8HLqd8OCL74j2mJnWtcLR5t0R5HE7yBK/Bm6yn6M9U/Wqp/F++YWl0Wpn7zzTebx3I97mrV5fd///cbx8NkaOKXy4k9DDdpmXRNZlZjrayaxAjeOZPVIrSgSV9M6GgCBHISwAS6WRkB4CZpZSh9OwPWa0qAxKRFMWPMkQlG3R5Txll/aqR0jyP4SZpjONFXRhWDSyTNODOgpsopWU+UD7ap04Qv5z07mAhX0ABH5kgmQn3RD3XK9uGQyOPakdL0KXx23BWhRreUCRzdHhGVT3EA1ROjWP1pJ7jsXHgCu+GVhIfKkgO0B9fR57w64Zh6JGXsOz/neIZv6lU/GR3yDnNwCt1kzjEcJm/qUW9XSqSU8wvfLLjihbnvoXv/aUhmv/71rzdzfNf95Tlyn0Xm9nxubk301JMF2tCWx/SMmaTP516gLvuz5/3IA9mNXJf96buurLGR2UKOJVvjRB7dC2Oiu/SCzroml/prTGvks+T8tP2MC93O13fxn27DTJFSeH9s/gq+hArjbAHJEw1btcfJkIWrPWDDqf5RxmXu7TzWxtxUzVgfAbba6Z0dk6DJxnPfnFA5kzeFkdspipHHezzuQzHOnRiPaNE/jnJWlPQxj0tY2bdqY2Vf31wDDib1vMPk/CHH/Nz9XLp9QIdPeMPQB5ZdcrA0HXPVb0KIDNSv787F1fPXQybhFb33zpRxnvKV3nZPUm8Mcw5qvrKqLOOuNNza9489jr7ROftJwVlt9TklKbvkNvxoR6hF5ySOIfoYtDFw56Q3/LGYql54BL9tjTkjW1JOJCj02MJ1+E7/jVvmNuXxlfxYjJhzPNUtoTX1apdBeugd5uAUWu2jn0yIiKBTXV1JOWNhjvvBD37Q3Pvkk0/ePProozcipR7b9YTTqUkdHFxzK2fZwjbd8HivZBxq5PRULv/2/lIeyshnShh3spLsWCJ3dDY5uujYfE4P1E0vyJd98kmfyFl74U15dSSn/bodx4HgGKf0pd98SwDf2Zrmral2lnGBDVu3x9EYWRzHuXVLn+ofLUXtxTqmWWGjIDJDw0RjNWyMI2b1lyPKIMwqqsd9zp0++uij5m9s0JT3aUROfU0wQJwVKvQC4ERIRATwJJNBVqytnkShsgJuS8EA9iUlfccDxp1MXkoe7a2vkXdjXiOlexu94/TSQ/pr5d8HZqK7DDVG2NRJMBM9CjwerF5t0A1yRK4YEXTjlHaib6JiDHx0wxq4IieyweDMueNcmb9E+IEOhhRslCXX8ADdSzl44Ts+4Qnea0suE/qMSQx0/ITrjvE6eKC+pPJJmeC6PnXlsXivvDrljOuhd5jRGCfaflbuvZv18MMPN3WEbluGqGipfnp8V/TSfebz27dvN4vNnoSy8DxHwiv1WbCJ3JtrOU137txpvlnhGvtAZIR9UdOvHfbIH35EDm3LY2XKcvbJqlxGPpub7v3kOvlOXa5F7voin+RRIjcWPchc2ib37sv4NgXrz0kcyDjBTE6pR3hjh46JlPYRsRd7nM+A1q2m6GV0bqp/tFT/LsvbKLhEQYCR/y7zf2Tf/va3G8f0gQceaIAIGMnHksmHgWIAGQsmSAbcuRMafImQEekRJgYMg8CxBBCAA+NSMqFaqeKU649VeA6ZbKU9K1vAOobXkivsDVFn/DGeVlATucnEpu94sLcUeTfeNVK6t9E7Tm/0kp57DIqe01uT36EI0/Gaf10CFqon7wpyHukGB0B7Hic9pZ3om3rhEoMRHjEsPb3B4JyzP0P73VcODngHV8TM/5vCSefgp6dTGFlD5o+++vvO4xMdNnfhD553tRN5iJGONrgex9RWXXBBso+/eVIG391T5jkfYVTvoXeY0Y8e8xIas9DqP8Ptt1O+vuu9T++U6o9IKadUtJQTyZmcO8VB1YbEKX7llVea14Lwi3xYGN6yETo3Tw7Vl3mI/Em2ZQTUMdlOTjnyQM6THZfJ+THvfpJvddhK0Q92EX1my0kWc07BtaaS+nOfA/TSvBF7klNqHMxbbM4+PLtfwZGdvdjjsBitW03R01P9o6X6d7GOaRgmisiQYAhNAaCs0IhE+nKV0DdQtXrqcZ8lJsPQ3rUFpIQJDWhBkwnSY0UccA6WMgQP+DJggYNsPwBttV12rI/KqjMCy+ARJXaOkilncsDHEvC7aNzyuawU4YdJSr/1By/wLiusW+5DSVvZHwatbHIwVozovJ+2t36Vfaz7v40MkFNjylEyzraMY8mYk+UpyX10nJykHh9To//acD0Tba4PaQeehE71RDZhCudOe1434Ky6rvwp784OoWlImfBDX9EMLxi59C2LWEPqGVomfApOuw+PREq7dBct7fPGLykOQAx/45iIqnP6kTL657p5RN/0Wd14YFuOd9vgT3vtrftCu3c5/ZULp44zav5y3WOxoqrmmcw7ZEBGS9luFmI9xiuiRhY5i17LmTNS2u6HSIIorEiuvqPzjTfeaGhAi4UcNsClOqaZX/RbdizlfPs4sqQs+XG9jIA6r0xkMPyOPEe3yEeZHJMJMh6cKq8P2Xefdm3hjUUy7RpD9aPXcU3DORA5wFfjSnc5pnjLtnIdDsB6W7w/Je3FHt96xDRjcKp/lHrm3l6sFpaGhQke4JjoxiaTDoePoJkATaZWbU1WQz+yMLbNQ+VN6m+99VZDg3JoQhsa0Woi5YCj07P9AWL88N6SiK/r5QSAP8qZNBgoygEV7wjJrlvxcl/ApT1xHKJ5S9fSRxOTVT39PhSZ2BLtXbSkPzVS2sWdyzsHw+ghZzTRflvGn/OnTvzBTVFSek9PRNlsJQ7CmHYYK+hjsNhHn4VCdduHy+rjnMAr+EMfz52iV+ixv3QKn/JuKXwOj4zJ2JRxjOOA1+oLzttqkyOsTeNrjJR33ri4B96X4w33nR+K/5FX9WqDwaod9ZtD0SFCmoiop4B8EwL9ZbvmM86te31911NC3ildKlLa5re5VVvafPrpp2/ee++9hhaLKvhhvC4xlXrQFfk0fpItXSE77on84Uu5wGB/TOQzPCUv6kzO+bFbY5UnIeAaGyD0jJHrse1eavnIB3uxxPngpvGnx7KxPzXtzR4/tb9L3R/9NCbmBfo1x/jMRe/FOqYYbfIcOoH2MVQ9sklJVNL/mlFCDh7j0MptHMK+OuY4rz0r3j545B0zE6P20YS2RDPQCmAJmyxl0jSpA5KUJYjKykkAxSqKepTNROO8fpqAlM+Eg7+EXPk9JPQbP9k++hlf8qmysmb/GXrGh2FZI6Vrcv68bWVCQQVnlLEvexpijpV/ekwPZNFZGKEd2AEL6I3Fr+BAn864DjPcF13LJGj1vMScYJC+xdBxr/LOnSMFJ+hXeAHz8Aev56Kv1OM8waGdvJrRx99jPMk4luVKnmd88Njcoj9S8B5deO883McHY4Me84r7JGXsO2+/PQ84p918lIgD6nFd2/zlinrRYHFClN7cxlnggKLDvOcJpURLPTHgaRB1zvVOadOZAz+JnGrT/xM6Nl5oQpvz+NTu/4EqV70UOcNr2XGZ+q4rSybkMvIZ+XHdGLtfjtyRB3JBlo1/5Nj21MhnSffYfTSRHXRbkNEv86c+WIwLnWPrvbbykQu4YP6B8Z6GgI2uSXCCXYXfc9lX5Eveiz2+Vbko9XSLNO7Dm9gA57w4f+vWrebPtv2vmUeQYrhRkqUnyEzOorX/9m//1qwyP/fccw1NaGunALCtDCwYGYBY6ot8KGt1i2EgcpFJyb2AxztnQFzflQM45cTTpmNrx/pjZU9fApwxAvVrLynjWSOlexmxeemMnibSyDBYYuWfbosw/Nc9B5MhBwfs0x3n6X9XUs7/Uypb4oX70N5OzjFggjMe2YIv2j9H6sIJ/ZDxgSM1B33RY8bdmk9w6Edw25jEmNRvY8bxUMYWVjJAjQ2DphxDdQyZB3wgiCMqq0e9XkWROKlJnBvXZPvmvQ8++KCZbzmA2he19LTSHF/fTbtDt/larygvxxRNbAGP+npqCX1bTJEzvC8jn6EVv11LdiyRAbqZ7Djnjb3j8hHwXMcH+8nhS/t8U9mKP+hBtzmfI2r+FDnldJNrdk1NxzkQfKQDwS38w1syRF7yLj5cj6wcr3lYib3Z48N6VUuFA9tE0VC3oa0oo68FWtH1qBHF9Al5QOddFxPTEpHTREq946o9mVNJ8UVL0ZQIaMku1wGCFUBAgd5M+oxYKfcpqx9SgBuQSJmw3MNIyMq5OvVXve5v59TXVLKBH303OVvRSx/wRzYZ7WWlNP3Qhxop3YBgnYmEUk/t00c6KkJBlueSZ/VktRsW0aFEaT2xQf9hRTAkBnDeMYIfjEBGSwyXLpa5ny6qm2OkHo52cKjrniXOaVef6BesYEijH1+l4KFyXfg5lib1GTfZfvgdno+tb2h5/YqclDxGAzy0lcgV3Hesz8EfPEoq5wF1ksdk//vpHlFQc6eFFHIk228nbWhTtq8Mx48zpS6OLXotBp8j6au20YAWMoI2NHrSKDKxNG0ZBzzKuGiz77wyxkwuI5+hM9eNszqSIiftyGeuG+9zRkBDx9Bt+kPGRd711RiSN9gDh4ytftX0aQ5ETuBVifEpGf7iIf7m6Zi5+UnP9mSPhz91O4wD1TEdxqfmk/AmIqu1zz77bBM5pJhWTCUKuUTkNJFSDqkIhEkQDf4CxhZNXX/kC2CtZHvkiKFnQnJOsg+Epb7IaXPx3k8MYMDCsAyIM9yspOcrjzEsGZdzRBLS/lxbgFoaPOEPWsOXudpasp70o0ZKl+TyfuqO3tFn+ijSeMgBnNqz6EsMb+35uiUDROSU3tunY3CK4SJx6nyNkaN1SM9SfyLA6jnHu6aw0RMV6Id9oT+RFOfh6VD8PMbvtLeVJziC93FOjCl5imNqi2Y4JNkv5wHzoHuSzU3u8e6oyIqt477kGh7HOTY/4bd5hwNksSIy2FfHGudjGJtf0YZGX/zPAsbSNGQeoCdlBBT/Ms/ZhtfGlY4lOy6T83niwn6uG0/7yY7L1L5eXtvyvj6a+y00SOyZRE4PPQmy5T6tQVvwiu0bDAxOwwHX8RZmyHAgsjQnfXkCYy/2+Jx9v4a6Poky19DjiX00ATH6KJpP1Fu99UEGk4KvDZooKEnepQngTWyuWaX2oSPvlHp8l2OqLUr++OOP3zcE0dSVlEOrSdM+Q8MkZT+TJ2BxLrSWE1LqNPFwSmX1ZeJzzGmOkWISVJ92tvh/qOhm8JiA0pcAZ/q65S2+kjH010jplkdqXdroLKeQntI/+k5GnO/S56nUBU/cz1mIYawtj3PBAfhgiw7XOXVDv8aY+tVhP/XDlTn70df/6FdwDB/RwqGW7Uvogp+uM84cT3m3t6u9/C0PpwxGnSMF78u203fngv+2En4loupcxo0ccNZ8NT73cErz+G5zc8dPPoJk3su7qN7jdJ+59cEHH1z8tZkOsj51yqs7aPFIL1pFTLsiwJ+6sXUicoBvsuMy9V1XFo/lMgKa83he1pVxvZTIZ8mjKfvBG/eS3zhaZFamf2vgzhTaz3FPdBhv2FHkDn/wyYKG6/RUYlfBfrixFI7tzR4/x5jtuc3qmI4cPYrmEVpAL/mzbf9r5hPyvtbnwwhzfK03X9/1oSPvlDIGOb6cUo9IAIMhSh8ABigMRmDx/PPPN7RP+T+v1KdtALSX/0MFpCIhDCm8A5yAdS+JwYH2Gindy4itQycZtvKfKBI5n/MdyHYv0h5njB4x6OjVv/zLvzQOpeswJpHGY5HSrvo52mQ9EeA1nsCIfsFJGb7nHakSJ9J/TogvlnNQ8SH9HoLJ+tzX3taf4Aj+x+kx1uYBhmn6RP7MNbL3Q+NcKTM0Ba/JgPp8/dYiB+e0bzF2aN1zlEMDWvTPV/IZyvo/NoVn5L2MfKaeOASuy+GhcSBzyY4lx5FH+zlPnu0nx35JO+3rOX/pWzxaEz/3yk+yV34zgN7DR3JDR8kuWbbwgZ9r4dje7PG9jv/adFfHdCTH8wiB20y4VoRNTlYtvUdjgrKKSnEZi1ZWTWKikiZXiux/3aRf/epXTR2/+MUvmlU7xo57OaGAQKRUnc4BUI/vMtpMPB7hHZIoLuMwkRTtO2erTgYA41I6FDlNW7lfHfpodV+2r59W09CeCReP9Ms5Boxy2nW/SVJ9SyZ06CNjU0YPevEEDVtPMepqpHTrI3Ue+ugQnZLgBmcgK9pTInnHepH2ortwhcECQ5yLjjNQggvH6iyvwwYYpx/0lf7Cu/SxLDvHflu/8M457XXRDzOCpxYNOQru0V/XhmJK7tNHaSq/mptX/An+l02WYwPnvWsp8pnHdvW1/MBReW/fPsy2CGf+/O///u/mMVnvNHtdJvNU371rnEcDWtCkf+ZwUV10S5Er2/KYPMs5n/nJfWXks7np3k+uayP3uJZxIDf4H7mz3dM7n+nnubbBM+3Dz9J+yWIfTFLumlLkjlzK+AKTnbfoCOdl19gmMtnL+RITluTb3uzxJXlxSXUv6xVcEqdafaGEIqfAy0TgMQZGhsfaZI6jl7M97mNl1SQG4JSPM2aiAYaU27uqeXypfOTJxOfru9oSMS0noRZJnYfatHqVyVxbVrjQL9qJdu9WMDAlj7UoPxRYAuwBJRMo8GKgWOkGaOf8P1T9FdGR7Wci1789TDbhZY2Udop3PfkbDkTPLQL5P1B6l8jJWMyYwtTgwKl61e4HHMk7TFPoOnZPW7/gF1zsW/FPPxlnHr3F50R2GWVDcTO45F737e0Jjj6+ZvwsvuqjOQ6Pjj3C267PvTDPYi6nNo6/+p07d0IDWsx7dI5TyYHOgjE5KiOgjslysmOJPKknuT0nOR89tp/rbAj7ybEp2ufPzae9tI+3dF5ggR3HCZPYZ2Psob309xidwSc6KJNX2JYnYezDTnzKV3nhdB9uHmvv1Ot7scdP7ee13F8d04kjnZUaUULOo+iEySr/a8bRS/RURFUZysNBdF7KF3cpvYnN5M1Bda9ILGeWQ+pvaji5Jj3tjUkmrhhLnM5EIpwHIraMIxOmqIeJbUykRXn9ktMO+tR3zv9DZRABzrwDxzjSV1GQGDlj+Lh22ZL+TA4mCxOoiJLHufEb32uqHIiekwn7ibDbn/P/+egUOVQ/LMlKOYNFplsS/XedHI+R03Y/4jiqrzTM5xpx2Asb0KoN+sRR7HuiIngHR+gget0Ls/ECjYfojF6HP+4zPnTafXtPGT/OpK/wGj99HOuYZtx9ywHPRSTNneXC7jl5hSa0oAltvpovgu77CnhgnMsIaPSGvLmWFHnKgmkbzx3XCGi4tdw2cmt86D9MoM+ScZYO6XVT4AJ+IqcwjcPJJgz24ku+GaCreCTjGTmFmX24uTRr9mKPL82HS6m/OqYnjmQUwgTFAMv/mlktNSGLgnoHhfJaWTWJeYRXsqrMmeVsUmzOK+fzoYceaiajL3/5y41z6j+bgKO2piagyhFNRAUAWYllYPkKHSASOQVGWaEdY1C26Up76rKSxpiVgRxHeOn/Q41hE4DF/3Ou6LX5c+w49HNKv/e97zW8M34MWDkOyLF66vXr4gC9Ix+M33xlkkFBz+dIdNjTB/n/OsdkMSvp2vWEBLn9r3uRB4bMlK9cph/BCxhJ/rU1Z0p/ErlkWOnLMf0KvsVoVc+Qd3uj13gjc0y8q6Vv6ryUxNH61re+1cx3ZMFTQFOSudICroVaC7r4lVdhptQ31z1oQAua0MaJ+ad/+qeb119/vZEd/TeeHB7JfubV8rw6lEl2XKb29fJa3Z+fA/QeXrG94Bj7QbqWyGnwkB3oyRt47gkScwpcNI+QX9hlHhiLm/OP2Cdr3Is9/kmq61GbA59EwfbVenyUAyYmRpNsMvLYrv809ZU+ymurTCbY/Iebiq0GUyTGDYcUKAJEhqStP+yO4XOUkCMFsiIYg4ujJpv4GI+uM6wAE0PCeWAEiFxrT5hHmmvu0ZYsaYuRaYVN5NZEHiONU69dgNfO2p6StLelFb2hfTAR4Av+GAc5vDEeNVI6lJPXWY7+kBMyZGFMJksxKKbqk/rIYRZ6rKS35ZJzRe9gXsrTQVhGrtFmAW4InqQf2oOj6mPYB09OHd3Qp+7Uj2/BPHQeSvoQWhit6NRX/IZnkj60+R1cMibaUAe8T12H2tzTtcxt5jf7l5zM7eTJ/CZiSgboG0OeDMhsgxr53L4U0EmLU/CKPUSvYR29PaTX2+/ZYQrbeBhsJ7d5ogNGsQNdg1/k3DE5Z0OS+WO4eZiK06/uxR4/vaeXXUN1TGceX+DFofQYq/81E6Gk9B5tEi3N6q9mTdgUSdTUBM6I4eByRm0DhHOSGIMPsHAQPW7EMAIuAIgjJNLCuJQAD0A6FXBiyKlHe0DNRI4Oq27aDBjGQDwlQqKuLa7oHRvLGDjGoUZKj3GrXm9zgH7Tm2AHPaBf8GQOfTq2kk6/RRy8gkD/6LjIAyNP+4y+IXiSfuQJD/XM+a5p8AGNwR30ydoemtp0qkvqe1c/7XqiRiQC7l6aU6r/6Wf469yUJDJpnrQ1d3IYzEnnjppyRtGCJrSYs716g1Z9R+NX7s1zkY8s8JoH24sVU/hS71mWAxk3+AO/LF5JfXrdXNzxT/RVP+2TXXhLbuETfpBbdhudtgjnGH7BMbiuzNbS1u3xrfFrK/RUx3TmkTAhySYqq03tZEKTJRPa2hMs8OD42QKgZCBj1ctkC3w4jB7X05c53lFTD6NVBnRWIBmbjoE9OuKUWaVEx5T/Q3WfetIH+3F0t7Ci15aHHIdufK+R0nClbsdygB7H0aFXiTjSrzirMTKG1E1/3KuevHNEVumS6H1XBJ+RQq9hm2iDe2VGnroSlUQrXOhK6Ye+2A82wIwx9Lfrjp6pB0222kBznOb2PYeOQyd+wHu4o8/OlxHetFviEqMuWHyojT1da8tLnviY2odEQCzeqlt02txqIfecyXiiBU1o8ZTUE0880Yx7nBhlyLtMZvtk/Zz9qG13cwB+wQP66t3hzMvGcMw3OLprP//Z4BHZhIEJEJBnssoxLRcynccLDmmeljkFN9figPGSt2qPr8WHvbXzO39zL+2N6D3TG0f0HE4pvlHSGHaipYDJ1spvDCm0+YsaUQ7XGFAeUZ4zWVlmvHmEGQiaBGzRpk1/lSOKKqPDu7tSIst9hgm6AS0AdZ+/G7DyFwNQ/7eYQvdrr73WREpFuUwMzzzzTEM7/uMXvtVUOXCMA9FzC0B5V4peM/DpGMNrSGKMWCF/+eWXb166986R/1e2Qv6nf/qnB+Uy7dM/DrIPwKnHkxja/+xnP9vIc58ehzb0wwP1oR9OjaE/9WQbPYMv6JHgw1NPPdU4qMfoST3trfcM6acEd7QTB9y5tBtcUtaCH9y7JL1uy0uMWIbwlIQ3vrFgbvBVek6B6P/UcZpCQ9c9DHUfd+KEkiV0/eVf/uXNn/zJnzS0Zh6LwS9CLqFbn85Nf1ef6rnfciD2iTPwi/4aa/jHITO+ex7H4JHgg/+zf+WVV5rOW2Bjd7D59DH2UvTaO9QW9Jw3D1iMKcv9loP72DOnSLbZ3wfll01ldUzPML7nVAKAEqP0ww8/bAxGH6bwqHHeE2C8On7//febLSBmYJpM55pQAb+60CLSIHNStcP41L7JPxmQMlJNDPadj7Gjrjhsvv745ptvNh/bEKEBtAzAr9wzbAKyZxjy3ib1QX8YMJxSEQZOKbB/5p5TKiLFKcWn9LG3snqhcuA3HIieW3jKij+dcZ4udD3NUTJP2ayQM0aCEe4ll7dv3z4ol2mfjucdPM4pWZfot0SmlZW7Ev2Al7YMQxgwhP6uupxDA2MMRngig249/fTTjdNzCrbpBx1Fpy+z65+6g5voLnHJtfBwT3odvILDsBY/y78508c7d+40zprzHHavtliIwJOMe9/45LxIKcMfDopG5psL6vGRQM7pOZPxLJ1ONP7Zn/1ZM4eW8xh+pd/hnXvpgWPJ+O9JBs7J97XaNh7wwJYsGisL3saSDNJr4xxbai26Tm0nuA7P2Rqw0AKdfnFG2YC2bD6YHJlV/oc//GHjlNJpf4P4zW9+s8HiPuw+lda17j+nPb5WH/fWTnVM9zZiM9ELiIAUsBWVZGhY4Wf0MQYALoUFQlZ7RS2AFTBeIpkAGCLqR4OVOA4lkGSEMIIAqMxxs1otmTzKlUvGggiRyIwIMKBV31YnEAaKMaiR0iWkqtbJCKa7thw7hkYZyevjUHuFnI55d/TP//zPG53k2Dp3zKBmtMATzgn8UJ4O+1K5SASjL3jTRUvuRz+9RtcQ+rvqck50S4RAVNPXcDmHc+BD8Esb+oXPJW7S8z3hkn50peAVWcJDY2n+0Ld//ud/bvbhmWS84a/Iin38GPq3MZkLOHyMYPJDFvLOGOfgnEk/9N9/l/p2hIUGfUVnaCdX/uYtcm/eIvfu8/cyUnv+Omefatuf5kDwJ/aQEvDU4rnxPbbA9+kaz3smuM7JpK8W0cgnJ9OTI2QYHuu3FH3nxCpvIUpE1YK5/m/Vrjovl2vrp3Kge5n61Frr/ZvngMkTIMn246TmfRgOIQMr74h5BM2qteSeuQEJEKpTVn8SI2fI/6ECU/1gMMkMQ9FSj8rNTWtoO2WLPjznSAN9ObxneHe9u3dKe/Xe6+QAvSBPZI18Rc/pVXSm5EzK5V0i8kl/6FEePS3LH9sPzqgjBg8DXfvacN37P1IXPbm/jVN99PfRw7F1T94rVY5hNRc+BL9gDt1Ft7aCm/TdvrRlXGoIvPcTObCVcsywxUeyZH6wzbEyGa+Mpa2v0UquDU15t9RCpQVGUVKvc4hUPfbYY0OrWawcg90TRWhCo7nRAmrkIPNY5M4xftEnfMIzTrbrZJuDg1fK4VMcg8U6UCsexIHINe/tGQAAQABJREFUs8LGz/gEQ/JI6xL20CDiRhSK/gbX2UgSLDI/yImUNhd+80M+3SPb13+YORdulm3V/cqBcKBGTMOJK9u2V/it3IqQ5h0uk6TMEADIIqoMSo//AuKlIqftYTBBo4MRGQC173y5Am3lz4q8FWyga0U9hrTJ5Vhkp93u0sdZiayR0qU5fd31R38YFPSbLpR67nyZsqKed4ngwhzvYAZv4EkMcJEHkSf44nHfnC/pyT6jSHn9OUR/yre3nAgr/iJ8eCAykEf858SH8LuNmyJlnBEOyJZxKXyLHPi/aTjrcXBfCf/Hf/zHJirqiRR8Iz+2DNVE1PWPwWtcjZut8gz5oRFTcqdu9YjQ2BdpVBfH1Bx0zmSeefHFFxvH1LuvjPo8ul3SFbnPk0A1glpyZz/7fXq9tj00lWPR5+A6naWv3/3udxu7ik0Ff/WzTHkCjX3lep5kU35O3CzbrPuVA5+UwsqPq+EAAMrEb4Wf0cChY0jkq3N5TMXXB6WUUc69gAo4LZnUzwiJIYI+Bp4VPEYKWrKKbz+r0fpnNV95+23AXZLmQ3XXSOkh7tRrc3Mg+qNe+kJv6I8nIcpIpev0hQ7J9uk3A4QTx/E4JZV4Y1/dIkxoYfzQC86pdug6fCmT8hamgkH0PB9rK8u199uRAv3KAhenp91O+/6xxyW/89VWXzOGUfqQPHe7Y+kMX2yl4JJjGb0cUvySbJ3POJob8C+4bMuBzLFxtcgZeXOctpoKj/z4zoEoqfrIoMdlvVbCsVWXSKXFx3xp+kh1s12mQxZp0YAWNIkIJ2Labij8Mt76kvnLcTl/Oe+bCOrVX2XJinJkSj01nY8Dbb1GSbAIXhon46XcFlL0mVzRXRhLF+2jk4xlgayLXrqqrL7JjpfEzS4a6rnr5UCNmF7v2Dc9j5EIwLwnJLKQSRHIJsKRCADAM6EyFDJxrsnC9go0WkVQGAkmCtnkjk6GL8PlHHT28aRGSvs4U88vyYHoOUNa5ImhQo8TqWR4iCa6xiAR4fFuYB4pF8GaI7X1l0HHAWI02eYvotpPZIT+4BTHiaHEOTqUlNMvmYEFC9b4Snfope/ewfRuFmPw0UcfbaJr7f4d6sMS18KXRERFdMt3RX3ASIqhDWfxzTvGz9z7+JUPRuG/hQT9Mg54q99S+h95Cy7jx5BkcRSvbt261WRY/t577zUGMkxXP8c0iytD6pyjjAgZXuGbjzuh88knn2z+txdd5PtQast/5q+MBzmlB33fUDhUd722PAci11uxh/p6HDvDx8jYdfQZxpO3IbheyuOauNnXn3r+ujhQl+Gua7w/1dusBAIs+5w6RqIVcUaj87IkApAVcCAXo4BBEgPmUw3MfMLEgK7Q5thjJknoiCPK+PbVuRi7rrkv1x27f42UFUw01XdK1+B4baPkAFmnx5xOus3wyF95WGRynW5z/OgHZ0OkNLpf1nXKfpf+eswTnqANDaJP9KXU09CPHvvKwypZOefKVOobDGBc6bdHLhOVLcvPvZ9+hlZ9k/EXbUun9B+fujK+ZRECjcqX9AVfM/62ZUR0KP0ZJ3UbJ2NgS+Y4ds77EJ/oqmSRkfOmfc6uqLh7RBMfeeSRm3feeaeREeVFVM1BHELvpC6ZtGchB80ea+Ykax9NX/ziF+/PhcdoiFyEv3ihzxJe0UuZI6/P9slsHP+2nB9rr16flwP4H53Ygj3U7h0ZolPsDDIETy10kLtg3yFcD27Ahywm6S/MXAM32/2px9fJgRoxvc5x/1SvGUze4QJMXV+dA2wm0ayAtyMuJtpzJIaClX5ACkCBrhVBX3LUj6n/hzp3X7KCWd8pnZuztb4xHKDfEn0XnbGi7t1smVHjq6IcEEYMfaf3SyaRWHqrXQY6uhhSnFXJdcZgIrbBKXQpz2FAZxt/om/5mqT7vFMl2qe91LdU39I+5x8+eRKFwagvQyK9p9KV9jnkHFBjXUZEg5nkAU0iuJxAtOGRfCgieow+DpU2/T+iR5nxn0x9+9vfvvmLv/iL5j1RC4YwmmMaueRgGpsHHnjg5o//+I+bqKnxyoeFOAMWGnzV1hd7/ccpx9Sjv0smuuHx4TfeeOPmH/7hHxp98UVnTxSgVQRtSsq8+pV7C0H47X1VffUEEP5xxDnEx75ePaXtes90DmTctmYPRe/y1V3yAx89fcAusj2E68GNuf/neTqn653XyIFlrY5r5OhO+wysTIwA10oZgON8Oi9npZCBYRK1Eue6dI7IKUMmq4MMPnTnXTjv/KDTBI9OTquytu5b812e0IlXNVK6U+W4ILI5cFa+6YJHvGwlckr/6bbMGVgjhR5bjma+Ap6IEd1Gl4gRDApOuc7pcp1jIgWn7DtP39Snb+5PxMD1pRP8CfbgJfxJxnO5pHcqPcFAWynH8Fsb+MCxsc2xMsFztCXDzey3Hf2h9KV9YyPjA96TOeNoDDjAFh5EQj2O6x4LDMYpqaTPPsfMh4M84vrqq682/bGo4hpjm5O6ROQ0kVKOsPZkzrGxEy1FU+a/0D5mW/bTfcbIV+glYxg5csyRT+RU+3PIj3prGs+BjJvxgZfwSHbchUfjWxh3R/QO5sA8W7QEX2Mb0e+u1LZT3H8O3OyirZ67Pg7UiOn1jXlnj7MCeOzdCavZwE05kQ0Ry/JdtakGTSdRB05mZQ+AigigxztQVrHRJwJjwshX5BhE5Uq01eg13uUJnTVSemAw66XVOJB33Mgl+bdlZHnCYI13L/s62sYf72TSUQ4MA5wDg0567pjRxbFmDHJoRcycD/7k/0pFDESARepggHrWSBai0Meh8X+pDEPOk8jkoUjvWNoSIcm7omO/nhtnEVbCzTg7x96V7KMz9OQxYc4nuXruuecax9T4kDv0iiIbR1En7zozhDmCjjmv3/nOdxq+GXfyYe7hoKJNmbt37zaOnEdqOXNLRE4Z/CKljH1fdfYIL17530dzjS/xomsqv9p8jB6Yv4wHeS2f/PGuoGMyVMp7u556vA4HYg9pzVMIcKcLj5amJnqXr+7Sj+CejxyJxJMX8tWV2nYKOZ/zf5672qznKgf6ONAtpX2l6/mL5UBWAHXQijCDL6tujASTpJQVOPuMxnOtFDJo0McARBP6GAxWlJNCs+OsRAPmrC7aOs+gUZ/yeQdKnTGIUt+YbXsFUvRG1MLkwBjMR2W0U1PlwNIciDwmcha9ib6Qwz6jZWna1N/GH7rJ2EIv3UE/xzIRI7rqnugwPWZI0WP7cMlWnziFdI7uLZ2CLYkYhm70elw6fXKdQyWhS1+6UuqzlTKOjmX1cfTwSbJ1Xr+NKTzDs2Ch7ZR3RZvKO360pc1kPEeP8/oFk7VnXxmYLSvDyfQ+cZ5w0RdOFyPZAgSnrMRHC4vo5xByBH2ICE8t+mmP8c1RdF+iVh0kDzplsdXXdy28cjbyyLtxevzxxxt5Qgua5kzRA/3GM+OnDfJMZiLb2uTM469yyrv3nDo8Jx/2Uhe+exqAbJMH42QRwzjk3w2WHJfgHdmgV+iI3NC7vBda6lEXb2NPBTeVJ1vuP3ZvV331XOXAKRyoEdNTuHeB9wJUwAaorPgzFhh1MWDT5XOvFCYiwTnmODM+AWkfiKZfyuiPbN95RpIvLVrlF+GQ9M+EYjsltVcgtWGiyLtbDCj1z7XSPoXGes/1cCDy6P28F154oVndJ38iM/SdI8AYP9fXtjMS0dNEjOiHyCn9RF/etVOeE6MPMcToM2dijf8rDb3tLbxEr8xY5CSJWHCqGa74jG4GpK0+ob8Pt1JfIqJzfz23Tf/Y49BnrvA/pyK2kvkC3um3/ukvniSiY5ych93+l5QB7CNCIp/G3HubTz311KfmHeOPVx6fFSUn1+rlPIq2Oofnpzxei/58ffff//3fm3dKRWfJl0ipRcWHHnqooQM9SyQ8INsi7NrFH1s8IzfmP3MKx1w6db5aog/XVKcIpfGS2BH0gr4bL+en2hHHeJj/Z6Z3Fme06V1SckpeyI/2j9kZsafq/5Ue43i9vgYHasR0DS7vqA0gBtxk+8DOKq0ckNUdxoHJsr1S6FpWq8vyzs+R0KNNRp8sgsAIOrayV/YLHVlptMrIOATM6Sv6tYH+dlbPoZSIhvrqO6WHOFWvrcGBtjxyTK2KcwDpDeNFIu9ZcV9jpb9ptOMnegpfgh/eK4Q/9N11TofrnB7HzqMd3XSY3tHvLEDpp/JrJHzUPh6jTduiXrKE7xwL1xOdgDfoljJejoNHeSxWfa5rQ//s61fw2v32OYS2Sya0oUMffNxIlChzhL6SK9m+svAwX0fWj9BsK2IqcbL0lZGvX3jVTgx8xrak/8p67BtPPX7IUeSsqpecWAgQccRjTqs6PWop5fFhizHmAN8ecK8nhvSFs6tO58giB5pMcaZDQ1PRAj/oxIOMLzmS9Ut/2vMVeXANv9HqPnzu4uEC5F59lXhONsh69BUOGAMLU8ZjjhS9o3sy3KODzsNDdpBFerIwJKU+GCo7PgduDqG1lrkeDnwa+a+n77WnBzgQoDVBW5k1GXYZPADQ1y49luYdCyuFkom+q/yBJgddAsaJSNg3EaNBNgkMTTGOTBgMKHTrqwlff/VF/eEDsB7SH8CuHpOSCII63BewH0vn0P7UcpUDXRxoyyP5JoOMF+/+kX2JvL700kuNocPwJvfKzWVQNY2M+Il+MurQyPiik7YSAwydnAt06xfDyn30jxFP72R9WSvRd7xEA/6220eLc5wgdCsvwRwpC2bul42fPmU84F3Gx7lkZaSUbQ4W/EE3HOaU6gcnUaQGzjGQ8R9tkb84sEh6/vnnm3JoTXbeOHMkjSMH9FCUh1z6+BDnk2Mr0uM+zq/McfRhIu9OezpFNBY9ysdZQzMnVF+8R+qxXREo0VFfxZXMa96P1ZZHhc+lE/iUtvGpPV+JqCsTuacfKd90pP4syoGMD9mHWTAAXlkwMV7GZY4UvVO/nAUJ7dI/407Oh6bUR5ftu/ccuDmU3lruOjhQHdPrGOfRvQRQjAwGhQkfaHVFQlPOJO+xWgbiEu9YqJ+Ro36Gh5XCTMSMtbEGdHtFOgahejjV+lsaVdo/9H+oGBz6MmkE6PGxvlM6WgTrDSdwgCySP/pCh8mkfXLPKS0fL9UMJ4g+2dKt6NRYvTqB5E/cWupnnBxGXrBIXzgZ9JZu6qs+wiMGOWNQtr9GKvmdxTntMxTxMNdtJVu81p/wHe364nzwJwavfiTP8fXcsTwJ/uJ35Iqc2Ec3eSFTsA6d6NZH42RczAnqMJaMaDLYldzDMJbyddqucomcWjDlPIqWi4hyUDmZxiDRUxFVZYyDOSyP3+aLu/pEtjijuVckljPLIb1161bj5HJ2tXeOVOoD/rbnK3yOTOmj68oZF+Oj78ZEPTXNz4GMD/k215P1LB7A3+DSVDw1tnQtCzx0CnaoV5v0KYsRQ3oXfSY3eZKBrNDNMfUMaauWqRwYy4GKUmM5diXlAV7Xyn47EhrDiUEiATkrhVbSs7JvgpwKyGF3Jt0As4m3KyKR8mO36Qc6GZRWHwG/LJqRyEDKAW/8KUGcQWnCqJHSsdyv5efmACPGKjh9JLuO6WEipQwQOp5kPwtReUJiTccudPRt0e7JDProUbk4dXDBNQk2OPYRJLpZ9q+v3rnOh99ogxGMvPDPMSPVeKBbQqt7ZJhhi//u0x/jox/23d+X56L/WD3BX86ofugPmvQRDjOO0Yrnzqd8Gw+zQNfXnjqMs2T/WIqDyhlTnmNpgTQfmhIF9V6u+UKU2mO7ouxSvp7K2YT7nFfOp/dHOf8+zMQ59V+pFkG0tZWEx/qb+SpOEEeD/tYI6nlGivzDniziG49ETsk1e2FKCr7EDnFM92AG/Wvj+bE2op+xp5T3JIPFpSF6d6z+er1y4BQOVMf0FO5d8L2Z+ICUfRN7IilWkZPKlUL7VuLKdyycA54MF/U4npLSPhrsm5CBvGz/1JR+qEuf0Rtji+GiXUZlAF0/y/9D1T6jOQZnDP0YYnPQeGof6/2XzwHyyWiJwSFS5biUR0ZM2/jIdXrgXoYuo8p5me6eM0XfbUW69DO6hjb6CBfsy8pNxZop/cRjTlgig9rGQzSi1T6HQTnJuRiTOec8uuEOo5OB2x4nZdZMkSeyoC9wUD/0D/1yF53Ba/fATf2yKGIuIE99SbkxxrvoJ3yWOfUe2/W3PJxTeGyrDGeU3CRr36PCnE1OJ4cUrzmjeG/rA1yubTHhP17J6Mbv8Nnisb6TOefLeUpZ/HcfPVlTR7bIx7lpwtPorHGAB3TAeMj4PgZPo3+5P1iuDbokd+H5sX618QrmqGeM7h1ro16vHJjKgWlewtTW6n274wAQBX4mMCAZ56zdkQAycCvfsWAYSO4HpoB5SgKkVuoZRQwHABpA1vbcKf1Br/ZM8Ok/x5uB5kuUsuuSycN9DLVMGvq8BH1Ng/WncqDFgehJVtY5bF3v/rVua4wlchtDXD3knCHf5Xi071/rGB6VdHIGGX4cJzTTV9EyOXq5Bm3aRouMRnjn68ASzHSMHtck+yIdMAWuud+19K8s29xwph90oS+RdziINth76J223LcWXoc9IlUcSo8B+7IvpwyPP/744yZaSp49pitxTDmtHgHmoMJpDi4dsE3UK3Vveduer8xFxo1ulPOUcaM/5s9T5uMt82ILtEWPT8XT6JHxtE/34IaxC17Yjk0wCT7BTfKQBfSx9dTylQNLcKA6pktw9YLqBHpxTE1ycc6sTrsWp4vhxSi08la+YwH4GDWuc1jHOqYMa20mgmM/Tp+2xtY3dGjSH/WbBJIAet59Ck2MUXSZONCUe21rqhxYgwORPzrKKU3kLvoYw6NPX2LYorX8H2MyHgO91Pc1+tTVRujkIAV7ynKJnLpuf64UHMLnrgzj8B6/YCPalHOfHBwJltgyCCWPiuaJjLnpntr/yBO6yJIt2vSDU9P3Tlvug/t4AQM5Q8ovidfpp/ZkDoFxaCeR0/JR3nyht11ub8f6bGwiZ3Q1fTMmxkImo5x1+8bFmGxBr/fG72P0BqeUg6fRb2MRZ7WL78EZtgRbgx5Z3HGf8hxTuBEcOUZH+zodVi85sCU3Q55kaNdTjysHluRAtZyX5O4F1A0MAWHAFGAeiqSkfIxZRk3esQCqJsIxCSADUDngjB5ZW2un9M/HNrxDyyC1Io0vrpmQ8CdGAfpMIgyGmioHluIA+RMhaUdKOaQWcshglyPXpifyzXh9qfhqbPvd8vZ9ax8HF2wZ2JwQC0RLpbQHh0Rjg0nZMiBFNeIYoMl7ilnAw9fgAxqNhWMJloncuZ/BKDFmnZ9qgDaVnPATecqjiKoSqcmTKnFo2k3kPoa4PuLDochq+/6lj0tcLveXbnft+qPH5ijjRj7LJ33876WFYvhwTjlbmy9rt5dxGKrfwRlYJqJpAYHdRI+Mk/3gxpS+wCv1whnYkrqHzg9T2qz3VA6M5UB1TMdy7MrKMy5iHJWRFCtvJr1cC1vK8oxZCbgCRGAIVN0z1FHTDiPHxBqjD5i22037S2/LlWn76a9+oQuNJpfQbetaO7uvpsqBUzlA1jgDdIQTUeoJwzNO6VB9izzTL/vqZiTZ79L3U+kfe3/6q59wJSv+Ig320UvnOHnoRTfdsx2SUr+tlGP1JvuCKzzTRrKy9J8BieccuKFfz8VrNLsfRsraXfP/ZBOpQYd+4i+Zso9/HGyGcd8joOFT5NB9+qV87sGjLaRLdkjDX/KO/7JEXssnfYyzsZJ8bT4LDZmnhupLU0H96eVAxiH6jed0S8piP55L0Tv6D3NtYZrrsEHOeDY3jPjp0s81njwbQWItWjlwnwPVMb3PirpziAPAkWGSSIqJzkpsX0r5RE6BcSKnY75OB6xFgrTH0GT4Bcj72l7yPIBHi4mj/PouukwcJhLX9dcjOPoc4y4TQV2hXnKErqvu6EciWwwhX1ckj4wYujLFyHQfeSXvnC91HNL3tbie/sKE6BV94jjBB3pJ5zit0thIb+qnw1J0PW3hSxf+0P2//uu/bqJQrlsIwLPkprIDP8YKLvoy7AsvvHAf79Tl2tCFhQNNHLwUXGM44y3+oV3bvg4cxyX9alcWvkUO0e0+jwl28at9fz1elgPGgJ7kSR/jbH7KExb0p85Py41B9NtHtTxhxemU8mSEfXqXd7npk3voD9w91e6JfrZxk0xU/cT9mrbEgeqYbmk0NkxLjBRgaT+GDMMNsDlXppR3rvw6nQkROEvq6jO41A9ME5Gwos84svred09T6UI/iShwOBm/Mvr03YSed/g0jydo1G9lwiuTkXoO/R8qx7amyoFjHIh+0KcyUko/REptT0mR67QTGe7T91PaGnJvqX+MN/2GMRxCOY6TujyyGD11n78IiaOeqKr+SKnXscwhY7DTWyn66z46zYCHWyIgeBGcUz++y1OSuo2Z9u2HfvWr07klkj7ro/bgUxwW/dUnNDGO9bkrhX/uz7goh0/GpO++rrrqueU4EDklR3Tb+PjAkzE3x5LlOEvewaVTyinv3jovnTY2+EiX6At8wmu4TffgE/5yGo2FRHeyUBDsai6M/Gnrp/qNfXS76udIhtbiq3Dgd/7mXlqlpdrIRXCAQeZRNkDqkShfOcwE1tVB5Vz/vd/7vcZR+/nPf94Yfh9++GFjtPhMf1dioAHqgPVnP/vZ+wa3idIXFddMH330UTN5v/baa02klPFqtfGZZ55pJhB/U5AJ3Fa/TO4mI1s8wLe33367ieiI6pig/O+elK9Cbum/8tbkb21rHAeiH6+//npj5JAbK+tPPfVUo1enylH0lkFFz8n0EH0f14vhpaN/FoS8I/XBBx80+mdBiH7BBzRKFoSUZ4TdvXu3eSfUOUaYL7LCFP/zSIf9xyVdFMVQ7507d5o6Upd78PU73/lOgz+MRUYd/rqfY6f9GJGMvlNS8BVOwgeYoT34skSKHP3whz9s+v/OO+80WPXoo48274bawi7y0JWOjQv5qWk7HDBvHpqfLDCQa+9RS+Rc+VPxZDscOC8lHEWJnsOhN998s+H1e++91+AVHPPkxHe/+90GU2DLIf071pu2fmpX/ewW2FbH9RgH6/VzcKB7tjkHJbXNXXAASDLCstJqxS+P67oWgy6dcZxVOY+tSLmX4chwKe9rr/AlMmIFkdG3tqFT0nMoUlrSZV/Wb3QncmCFWn+sTjNobdXv8Wj7JiH34If78a7PIAx/6/a6OJAIF92R6R95ITsiWxZC5kil3nLqorPH9H2OtrvqYFDRHdk+/dBX2T49ic5x5OiTiIQtmvENTinDIAzftGVfnXQxdQSzbC1A5bjEA3VqF99honE4NalDXermNMqcBRjiWhtfp7YXOcJPfCJLkn7iX2Qp/W4udvzgHVxUB97k/oxLxy311Bk5ED2JnLfnJ7JGNugNfaEXxtTcS/7cV+el6QMYXMVP+oLfeOwYn42HxTY6OEdSNx1v6/dc88QcNNY6KgfaHKiOaZsj9fggB0xODLW8a8owkRivpQHXriT35YV/94kItP8nMZMiQ9j7L4BVxELd6lg7hR7GV/lOaSIkJpNDxmImIhM650F/Uqf+mzTq/8ytPar7bY/e5CkC++TPu3xky/7cKXo7Vt/npiP9Fs3RV4YV462tf/TNR4dk+9E1WMI4Y5irS7/osLq8m+q4zNFpW+eTUp+6Uh/+z4VP2lJXFvvQqs8WtQ7ha+gbug0/OZSwVj+9m4yvJR+O1ceBEWlmYKNvKC4eq7deX4cDxp0OZX6yEGJMjSe582SBMhwm40s+Un4dCi+zlfAdv+ki/s+JI+Fa9FwE3Nexg5m5XreVA1vkQHVMtzgqG6YpgBqDEPBx2pxn4DnflXKfayKnHDITIEMvziqDKCt8rtsH2CZD2f5aqYyMDI2UdtHWXqFOGX33lUTX8QAfY/TWlepwqW7DAbpAZjhD0Q36wrE69A5g7p+6jd6O1fep7bXvi24wlBlx9IVxBQ/sOyelHD2KLqE9mBHdoteuM7Tdr19wy7H9lG/TkePgk3GQRDpyb3PixJ/wWzUW+4KTHMgSJ5Ubk9r8IUscD7yIHI15NznyyKlVF16Sw7xrf4yPY2ivZZfjgHEzVjL5z7g6Jn/0LrpT56Xp4xD9w086Y4vHwSH7xmKulHFs6ycdpe81VQ5smQPzacKWe1lpm50DwC2PnDHSGEoim8eS+6y89v2vF0NJROhYZORYO6dez2Q8NVJ6rP3wgVGMb/otx2CsK9XHOHhd18mFyFR0jUFDjzimaxgaU/X91FEKHnDQYAyn1Mo/Qw5GwAoJf+iq8mjlgCqPP5LyMbyzkCaqSv+U4WAOcfZCT/AJPUvwX52HcFJfxqTQnUU2+KbfHPwpEffII8MXLepKNGYIH8fQXsuuxwFjZzzpizGtEdR5eB/9y1d3OY7RGVt4BVM8GeF4rH63qYx+wk1Jnam36mebW/V4axyojunWRmQn9JSGKtCNIwcQXesDv0x8AWbAafUQMPsaoPPOqS+PhTHCTZRrJHRoG00x4vQv/Z0rIhA+ZALKCqe+d61UhwZ0lLmPz2vwqraxPAciFyJmZMMxB6A0NJan4ua+/NONMfo+lba0w/HxGC59JOsyjBFdYMihRQpNZQQIbjjPmXc+ukbHHeNlIhfqdU7uSsEFhrp7Snyij3Mn9KAX/Zxm7ZIB7Y75f9M2H2EafgRDOKZjIu6pjyyiB33nwOm5+V3r+zUHyL+5tlzIoW+OzUtkhyzSnfpthONSE30JjkVn6B/dg1ESnia6aWsc6P9YuyfttfUzi0Zj6zvew1qicmB+DtSv8s7P06uoEXACV0A35audvgYHeH2tl4EJSG19FdJE+Ad/8AdNJJHRo50+g3FuZucrdse+vjv3V4HbX0t8+OGHG/44jy8/+tGPmndRRYh8qRPPw/+5eVDr2w4H3n///SZS6uu7ErkQMTz2tdS5e3Cqvo+lh6FG1l9++eWbl156qfmaNaMLNviKrq/pShw4CZaUX8+9fft24zC5rh5f8VWGIShC6OuXzquHwe0JjkP6FFyAU94Nh1vaWxqfOMQSR6DsB1r17dhXNdt8xD+LGh7bRX8e7RuKr6kPLXFw1+BDw4T6szoH2vMSHTL3lHJgfvrpT3/a0EYeh8jl6h05U4PhU3DM17bh93PPPdfoIBynj/AIDg3914K+7qS9qp99HKrn98CB7uXhPVBeaTwrB0w+JikJoFrlY6gwHg+9axqiObRWDKX/+Z//aVbe1eF+Rtfc726l3b5tIiJLR0r72mcY4omMrwzRcqU6ESHn8Am99f9Q+7i53/ORQ+OdsY5eWPXmSNCb6N5aPW3rOwcNfSIAU959TD/pe1emh4wrfceL6Ac63Bt6wgdbj77mOHxRt3O2ca45pgw4BrU+6Iv6DvWDPiqXCKs6GZTt9tLuXNvgJHotToUO+Bi86GpLf/ENJsv24Sp6E+FMFKXr/va51IcHxhzf1EUWzyGPbfrq8TIciN5lXiJDHFOJTJBLmZ6KoNonVxaAsniyDGXbrjXzN92jM9E/emtRiA7SH3yV4M+Qfy3o63XwFD7l/4TVCaPkpXGqj656vnJgCgeqYzqFa/We+xww+TAI89VOBosV9KEJYPpfLUZhDKgAKWBdK5lk0e5Rtylf352bTn3PxIUfVlnxR2ZQe7xRJCnlGIfGIUZiJry56ar1LcuBUg69UxoHgLFHBowvnTtXir73vSM+1ABKP/XPFyNty8zAZcyVxlUWvNCQHIyw7eKLc4lq2o++5BE6BjV9spUYh10OLlo4ymhEh/Hoam/ucQm92mPQMnLRe+xdtNALL+zDELhsfNCdPJTe1McpxSv4kojr0DEf2lYtt10OkBv6QQeMP0eo/Lq8xRNy6pWXLj3abs/mpQxOlN8EiP7BnehgsEvL4WsWx+hb178W9FEZPKWbW/g3gz466/nKgSEcqI7pEC7VMr0ciOEEbO0HIAEzsC3Bt6uSckXWvpU/q40M00QnhtTTVfeQc+VK45LvlA6hpSxT8gVvTWiZ1Or/oZacOr7v3WUpK/3H71i/RFsOrXozMsiBcT9XpLTNieg7w6l89xH9cRzLe+CBsrZSjp1L9mg6fYcZdJ4zBQPSFsdS/32siC7IQxdeYIf71aVe9T/yyCP3eeo6fUrb+kFessDjPjQHj+wbD9eH0lDyY+x+cECbjH30kIvQg35ZCj9t9YcDi17XGcZTHIVSLhOJ0ZYx4CzjQ03Xw4HopPGXyJmvy0tkMhF9x57oIbeRUVv3X2Jq45oFJHrqPD2RD+lf+Io3h/61oI9/4TuMk0r9XAOnmkbrT+XATByo75jOxMhrrwYwMjAZUhwA/09qIjoGiiYzkYg7d+40k5x6THY/+9nPmno+85nPDKpnKv/z7tja75SOpbf9rs8TTzzRrEyb8BjW+IWPMoO0vvPzaw5zMuKYOrNV57Qth959ZFx885vfvB+Zok/0awuJwyLRVzJnywFkiJYp+u0r0+RSRMUTCf671zHMkNrvpn3hC19ojLn0n7zjR4xb+jAk4Zd70KdNxiIZ8NcX6nvwwQcbpw1OoScRyfIxeXjkvAgGw1BEiENmfygdQ2g9VCb98G6rVyfw3/YXv/hF0z8GsHHQR/zFZ8l4MIjhxBT5iVxatBMB8q6u+jjJX7nn7B7D90N9qtf2z4HIpW9C0CfvStLpt99+u3kX3LzumM6Rv0uVl+Bc9M83AeADvRvzTYDw85e//GWDNxbS6Lk57BD/lNP2T37yk+Yd+qeeeqrB4y996Uur4tT+Jbr2YAsc2IaVswVOVBpO4gDQZJgy/KzaWbXPn8S71l7p61qJF4FRjiHousfGAPWYr1AO7UTZ/pYipX3044NJXWYAJGXF2vWs2to6fw3/OxcD3aPkVppt9f/jjz9ujHYLJCZ5iRPhEVSLHXGEOPUen7LFL3xcM2XMGBZ0hyzaR4coISeIcVOO+Zr09bVFDjln5IxBZIv+6Hn0i8HG4YMHkq0+R57pvL45ds19wQt4Ip/Sf/SoX7Yf3UDXY489dv+a9r3rnvHgiH75y19u+qVvxiS6h2b7a6b0Q5tlRIXDzWjFNx+FMgboxUN0ch7lqfKjfryQ7Wfc14oYr8nj2tZ4DkQuyUVkDpbGDgguqJmckkXllHcvvdtzCl7or0do4Tf7Rx8tCo190iX8pGt4pV7ZcZc95Xx4bIuf2pTp/No4teexrLRvhwP7RoXt8PHqKQHEVtLzrmkMUat9XY+wxEAMoANY76wAc9eAO0ML2HtEUP1zAm3aN5Fs4Z3SqQIUvuedH3yXTVIcgkv/P1TyJYrDqSAztvouYuwLh+SRcypxShlNVvUtdpAnzgcDwNaq/9qGkrES6cr/2zlGF8OCPiTSNVU+lrovBhTeyXjPQdUXKQYTfrpOTiX7+pVFKPXIiTgYOylyDTtyb3Nh4o86OLm2XfXhuXfdPearD+jQnzjYDDw6du7xQDue5B1fDiPe4zcsxUsRmjj08LSrv0PZGPmEJcaOQ5qFAm3VVDmAA2Qh8zM5aX8TIQ6ba+SXHKX8njkY/cg3HxzrI/07Bb+DR5/73OduXnjhhWZhCJ/a9hSc8iQDHJC0Lbu/6mfDkvqzQw5Ux3SHg7ZFkjMxBRABtMnI+a53zxhSXSvxDHKJMeXRudTDwAX2DC11TnUgYmiKgKBP1ob21D/X/5SuNUYl37UZhwBvTWL6GSfcimv6qr9lVs8eEidTNFTU6MMPP7z53//938YZ9QEdzo1Hmj065rpyiZbqm/3cm8fNOa544hEozukXv/jFm89//vNNFFVUlQOwRDIm2s3CjKcDMjaRwzgAS7Q/tM7oC3q7MqcoqdzPOXiQ7Jz9cqEq9ZNb9UsMK4ZrjNfm5Ik/0W9yjk4ZLjl2jeOpPVuykY/80B/jAncSYT2nrmgbDxmkeIe+GKWukRlRdjKk3NSISXCEfGoL3qobPuPF1HpPHMZ6+0Y5QD7IhEzuyIhs32Jgex4iX65ZoIr+kd+p8/rabAl+0z1YoX/pO92TT8FvdcEj2INP9LB8ggyf0JD2lSvbdH9NlQN75UB1TPc6chulOwYg0GT8mWysHLYTIBWZaK/EM0olRhcDi+MocioSJgFkQD0VeNHF0FLvniOlDTM6fmK44g9ectb018SJ13iJ9xknk1npKHRUualTHEvO5927d2+8x/Puu+82zqnHdH0cxzs1jGcrzXjAGY9zyanlrDOKOK/q4dia3DmtnFIRs1u3bjX/F+o9R0bVEinyn5V28j5npGsumqMvZKjr67l42ZXIXhkxIJeSLdlLSv2wQpbcZwzp+VxJm+T82BMdKZevY+ofumIIzkXPXPWEf/j9/PPPN5iJb/oRnk9py3iXkRhGNvlkLJfjN6Xues/lc+DYPLT3J3mC31nA0l/6F/2gI3PoCV32JIf5rHyCjN7DY3NX5nP4Js/R7uVLaO3hljlQHdMtj84OaQOKnB3ACTBjODF0XIuBx2HKKqryshXWgKp90UsGe8p63NH9HNaxjql60KLNS4iU9okG/uCNbFJjWOO9Y05ZOSZWYfGl/NCLcsbA1mSrvi0kDmn64sMaHFIOAwcTjZxIETAfs+GccjL1g4ORPuirSCoecEh//OMf3/iYDIeVkyoC+8477zTvpnoU+Gtf+9r9RRDR0zlS9KKMlKIr8n6uiH3ospVyjFfJeJ2FjshR5MxWct64SJwlDmaXHLX1kYEVPnCCGHhzphjKdMK+/tEL2f+aJqUcWQvd6Zt+kanQaV+ZNVJ7PMIvNLhmW+bQPJa2tKN+RrfxhM3G0ZjgX02VA8c4cGweytxP/ywe0jeytdUIavCKPqA5C72O6R2sY5fMjVvqjj1VPkEGizimwSnty1U/j0lmvb4HDmzD6twDpyqNgzgASK3a5UV9wC1SJ/LkPIMpBmEMqq6VvnY9jCQrhoxjAMyQH5O0pd1LjZT28SKGNr7jW/vdn0TsUs7EajxihE41cP+fvftpveU47gb+g2etBCUkRhgZ/UE20sUXJGGBFely5WgRAiFLL7LIW3leSjZZaBnsTUDkClsXgYUtkIgENpYfLJCIgpOFIYtkked+xvpe923PnDMzZ+acOed0wZz5311VXVVd1dU9Zwifudd1wIJRX0++d+9eJwfPPfdcN3iRAFIQKtAka+TPR444SKZmAseeEWQagTZ11/RMwSrZEPByyN9+++2b999//+aNN964eemll7osqsB3CaAPZgqE7xwebSIg5YAkcFqirillBC98ANGVOF700RY5ETwK6IJvgn/6xWnKRk89U8tRrY/aFx/InnrWAmXjc+gZqif42aPVnv3hHHJAtRdcj+UIpn0yqBZHHm70GsQ+yrDMdZBTDxlN2/fZ567C9tM4MJIDsRvphzLAlQBv6xnU2AP6ZyYB/OkdPWMHHa9hC8I3el7OIKObcGJfzTBZ226ObOb2WOPAIhxogekibGyFhAMxpM5l6GSGOKmMqIwW4PzrkHRSjHmfUa/L8V46M2VyLPscXs+VkJFO9cWpi8PFQT1VhqrEcc3jeuRaR5ZgQQCnLQQh6Xjxy3RH19IueK2ttEkCkLE4Kxe/gXKUMQWSKTW4of04MMoTYD799NNdkPH88893GdJ95QpQBaU275cgg5rsqWnj6lCXKcKhGQ/mZk7Dh2SiSvnncCQoVccakPrtQfTCuY1u4XHayt71yI9MRqlvjvsCM++4R37ofd6p6RJY4QVd9qz75I2jVz+7JD/IIF6TQ/jZyrWm6EUD+m3OZQsB+YO3d7wfGZoj12NpCi6Rm5pfdBlov9ha+OHhFLwiD9oidWg77WFz3KBxYC4HYkfIJVmiR9F7fgKZJcOuL9n/zMU370X/2Gt6wQbYo4d+0Y2llx2kbvvwjZ7zVeCDVzbHcHBvbbtZ4tSOGwfW5kALTNfm8JWWz2ByXLOmSyeUtab56iWH0EigZ4cg5SQDq4OYkhlgvNWtQ7nENaVDfBu6zqFOsCAQ4AiER7JBHGBfI7W5r320Y5zTqUED5157g75AZgjPXIefTKn2+9GPftTh+t3vfvfmhRde6KbamrbrK7uHgjIEuDKpOvqPP/64m8poei/guFt/OjdzGj7Ua5LwV3uQ86lB+xSaUz9dAHEMnds4QNo7uuiYvtZfz/UcgGue7S589eOawI/zlpkSyqoDm+DjGffJV3ixJh/gV9oleADOsevkOzyJ4+c6HPGDfrA/6AOy7XPkunt5xE/4FLnxCjzCL+0D2EXgeXpsevoUvGID4vQqSz1rOt3qaHCdHKj7IXKnn6BXS/Y/h3I3+nfqr6bHbvnfYryCFzsVPrKva9rNQ/nY3m8cmMKBFphO4VZ7djQHaoPJEebUuW4Pxoz0pRzPcx7joCnDVEyQQKs7+eonGQAOm6DGxpjHcb70TGnJi/I4I7AZuc49ndxjjz3WBSicVLyKs3rIGiDl4L2yMrigDfZ1ovn6LrxM35W9VIYPHJlee/v27S5LKsu5BMDNulRZsOAni2odjz+J93Ek92SZZU3zQaV9dYeX5JXskke8F1gsuSYp8q6+vg0fs0YJ7z2vbeil48hDAkj7KYFN+BD9ImecTFkQNLtuA+rlXNngKpC1sQfwWBNiT+LIqR9vbFlrqq3STp4TlAqagUDQcgK4o8OzZAEfPXso/mlH5SkfHupwjH/q1y71QBG6BMl47nl8H6NvqU899NS7rmkLNKunQePA0hyo+yGynSUXdJL82sizwW3H5JFcenZf/3EovnCIfrPb9IJOqput4j9kIO3Quqa8H/vFJjlmD+gr3PDU1qBx4Nw58H/+7wM4dyIa/tvlAIPJkTMlk5PPOeYEMqhxzBlYUyZ3AYOrUxCICFD9R6Vsi4wWh7DOZP3Xf/1XV4+gRqbUsxy6u3fvdh2LTNuYenfhdEn3wl8dXgIFx67j3SeffNK1nb9VAYIz/Ns3tVWHjv86d46HdZ/acZ8Dr419kEhQ+MMf/rD7KvPLL7988/rrr3fZUgEqx3uf3ExtI+UpVwAqeypATob/iSee6OQMzegYAxwq7/uCMCfLuzJRr776aie3+/g3pg7PRN4FTHRMnTJ7sg/WRDmmd5wY7ZaPRWlrOmFzLBDR7nEApzo6kaPoqfq0pZF+7c7hg5sNrq7hh7odT61vLH/q52KX8EK97BG6Xccz07nN6JAxdD3yqr3YG8+jC0/x28ey+uxQXe++87SjjD08yD+eKdsa3FdeeaXDR/uV9it8D/5kbYy+pb7YyV/96lddgG7wp6R7H97tfuPAIRyI/JI5tsB3A9hgfQBb4aN09M0gEH2NPh5S5653a7ttYJL/cOfOnc5vgd8x7VXwwQf2AP1sgv/epuf6qWPwZRfP2r3GgaU40IZXluJkK6eXAwwoZ9foY5m1ZESnGFJOGEMMZAYA54tza1NPOgqGOxmAsk4d3rVmSjuG7fgJf8NjDi6nW2DJIcBPfHVN4JYMTtoxe+WUkHc47zKOHIs8450cl+841sb+EsY0XgMb3jV9d+lMaV0v/ARVglDOEvw//PDDDge4/Omf/unDwLV+tzz3Hh6RTVv4xfES7MzNRKVce5Bz5WfDL46MtnLNM2X7amOb4D7HSzl6qQduZQYPLoJTkCBZcJesXOSue+AIP2QvwTAekXey7tgeCM61U8mb2DN7ziDeskM2AxneR0tke2ygnXakZ8qCgwEh74dHu6bVhu9wxlftbzDIdQH2EH9Dtzq1EbrIaE33EZqkVXHFHIj8Rk7Johk8gCxHTp37inwGzob6Hc/NgfR7bHbsgTroVN9MhTl1THkndgEu9Dn2Jf1H8HVPHwlie6bU055tHNgSB1pguqXWuEBcdDgc4DhtDCvHRwfk3lRgdHUQMcLKE/RwEl3nWOnUBKRtTelU7v7++TgKcVQT6HCcOcyCC7zXHhx8G/7Hsfh9Sb87kuGWBTLyDHS4u56XCZdl5CD4+q4PHRmlNt02UxR/V/I6v+pQlzpfe+21G5kkuMiUopGjsgvwJllBx95Z4uuNKZeMg8h62kJ7xDFRp6Cm/Hqudu3bdtEy5170NGvMyQ3+AUEQ3Mr/3exuHPEn+LFL2in44SOexkbBs89O5f3YITS99dZbHV2+iksfvEt/xkDaNWvZOJxw0H4ypRxRde4DdZb/e8gOykgPQeql0+pTjzqH6B4qp11vHFiSA9EvA4EGVjJQk6+Zs79j+p2pONF9M0zYqvSB7GcCYfrcZw+m1jP2+einwJONwRf4JDDFF7i6BwwG7upXx9bbnmscOCUHWmB6Su5fQd1Z/8DRclyfT2VBOgvvMcIMs85E+f/7v//bdRox1Iw6Q64Da5nSaZyWqdEJ2zipGZl1LoOKt4JLvNcpate+/0NNu+dZWJgua/oRpyMdfTJLylG+9Z3Jlmo7bWj69VJrSvdxI5lTdZpC7FzQACe4uS54Dd4pL3wig2TTORnk9O/KeOX9jJDbA/xwnM0AgSAC/0HaIe3FYSsDIsencFSipwlw4ClICr9cTyawI+TIP8EPXw1swY8cO4dbMo/ksw/yvnvskPfoggCXnDhHXxxaz/eB59RNVjif5AaEP8muOx8DsXfKRVfwgpt7wSNyimb3tAt81QfnIbrH4NCeaRw4lAPRL3JIbtk1U3vJKx1Jv6Me/T776rm6P9mHR/SPDkYPYwdin8bY7X31TL0fux97wj4AfKCf6AWec+y+Z0EGy0p97260n8aBM+FAC0zPpKHOFU3GXkaCk6SzsTH8OpBdI/n76GV0OdwCBh0Vw2yvo7FXj/sZVeXYudZgHgfwDg+1m45QFgefbQKljGTnOSO6+M+B0CYypdYZf/nll925wNRIuHZMuTATlHrGGj8BIIdZ1tIXc5f4+u5U6vO1XmvxBBxwgpupvtb3JNBKuegtR9w5EfiAZ2jdB9EX5YAEEM5t6ivLckyPOCx4ny14OR9T7z685t5XNx1ER6n3stBjg625dU95LwEcfslIaLMxfPOMZ5PZEVyydz7WZQ29QRX3h2hNeycjon6Z5GRIlT8Gj9DqfXVxqtWfgQxOfYlH5DQOr+enZGZTX9s3DqzJgcjzUL9jsEsfxA6Sb3pT9if7cIv+KcfGTkV/TqkPsUdspr4VXuw8Gkt7AFczJHwI0pp0z4OWOd3X8u3+ljnQAtMtt84Z45YRP46RkTyGlvNjz3jG8HKQGFod0BRIh6Vj4ZTrnDh3zlOXkc6WKZ3C1eFnBTqcA5vOUMBlc8zp5eBqy7Sr9s/XFLWJUW3TrXWYtnS42pEDrVzgHYGfD2XJrPrIizpMqz0FZEovHOBCnuEGR2ugMjqdAJIM4oVz8s5hsnkfRC/wqW/Dw2Tw8Mbz+Kc8x+F/yrMvA45T8GhXnaXcOI7ewtvxVgBv8RjAC58T3O/CMfR4nh3zjoEa7UgO3I+M5L5216aeYRuTAXefrOSjcLvqHboXftNNto9dVJe9acvqBnCLvTRwMDUzO1R/u944sCQHIs+xe3W/E9+CLrHVdJht4RPQJ+/RwVqXo4Pph+iCMqKDp9YHdNDR9CXoEHTbHAdynf3Sb6AHLd7HD4AmPGjQOHAuHGiB6bm01JnhyfAz9DbHOgsjewyk9YkMJ4esHsmfSiajyzE3jZTzpa5kC+y35gBPpW+rz2tHvNUxcqa1Z9pcB6lDNYLLcSADNbgmsyhD6n0OBxC0akcBoLXJsqpx7OsyjnkOh2eeeabL0MMNjk8++WTnAMEj9KAbkL2+EffwyPMCXPtycx9vyXUcrGSWXcsWRyPPdpVu8Cf0Co6Cu48zoV27bw3gC7ep+EUfBHmAg8i+2YNkMOiL9padIf9kCR84nDK1jrX7oYDX7GLW0OJ/Zq4oGw5pE8/ZvNOgcWDLHIiepd+hP2Q5AzxmKnhGf0KmhzKo0YfM9BHYsdf0l+32/in1IfixIWwCOnb5M9F3A7v6Xf0T0L/iwxI2pSuw/TQOHIEDLTA9ApOvsYqM+OkwdCIMo1FIBtQHZDhsjKfn+tYa7uOZjoQTyYDbnJfTGZ0r22a0tB4x3Vd+u7+bA/VIdp7mJMgkmrb785//vGsb9/zNhjbJx48iHxznn/70p9071m0mY+pvApx/4xvfONq60tDQt7e2FS6m9H7++edd0MFRMJUczeTZRiZdz8h2ArNSViOzp/x6bh+NS14LvfSf80he6D+n0blRfXrvOpvg+ikg7RMc4cAuGWC4devWaJSiDxza0GTQLU4z2S/XwKOfvORZ8oI/SzmQceARQM4in2QPqJe9jKwuVW9XePtpHFiJA9Gz+BT6ETrmXBDG3kSn+zKo3nffc/ScPrA/dMFMBYEpXVDeKSB2E24253CysS1DeLnOhrBj+lP0GfxC7xz/6hS0tzobB8KBFpiGE22/KAcYfCP0Og0ZHw6QDsBmBE8A8s4773QOYDJCUzqEdD6Mb/n1XQ6gjCwDDdqI4aLNurewtK81pGTAdFwyINDkRAhYSxDk/eAHP+gy3n/zN3/z0KngTHPUBacc/FMDHOBi/av/dCW/cR5kvtBIfsm5kXeOgtFuOgDcJ6txhKILCSC8J2OmDNeGtlPzYWz90X/0O0aXGRP01tdrk1k+tX7CTbsI3PAcONZ+c9bApz29L9OhLBkMdcTRtGen8ISMqyf2cSx/xz4XfYy9hQdQ7ym/ijwW//Zc48AuDtT6pt9nawVm7G+dQaWXZkN4ju7TUfon6KOP9CV2YFe9a92r7Wb0d9+MhvCBHRFg+x5C7Mwc/2ot+lq5jQNjONAC0zFcas+M5kA94scBY/STQYoBjQOejkRnwgjrOHaB8tSREcHS2TeqCKz/c19WArS1Fh0bVvlJews6HWfTno73QQIDGVUdqID2s88+67JLsqnH+nuYfXiSIbjACa3+zuYnP/lJl0E1wIJWDoE92o1Uc4zQB+zdy4i/EXo6EHl3fAlTrkr9jHOUzBz9pO9ojv6yB9od/ccEbaFNIqdsD6cOCCbTjrFLY53VtC8a0YQfMhhkJs6wMvGEXRQgso1r0R987NXPWQUc8tjl7kL7aRw4Qw5EvqNv9Ix+OTfoRd7JvesGZzwvMAV0jg5Yi21/SojdhDv7Yw8/tmGMfQgfQo/y2Dd0GwRkb/DE1qBxYOscaIHp1lvozPBjDGVJkimJA87Ils4dR5CjykHVgYxd0xWHUUBaZkqVlcAUyzjFLXO6vvCkvXV+OtNsMoscAv9fqs1kSnWWNbgum2ra771797oM66efftp1yjpRcmLq96kBDnCx1tR0Xutov/jii44mNJNt+6xZgjvn3zvAsZF5+uDZbBwK4DzPdhfO9Cf6ybnCC1Bm5sgAPfUcpxHdczKTh7Incps1XAJEmW6w5Bp49LF9tsiJYw6kgNw6as+sBWkPdTtu0DhwyRyIvsX+sjF8kcxc0CfRA/b4GPo3ltfRU/jaALvILrEXY0EfYoAzg/HKYuPM+EHzlLLG1tmeaxxYmgMtMF2ao1daXkb8BJqCQoGKToIDltG6kjUMKAfVnpOow/AuR9212lkryxeU1pnSfH1XHXH2y8ypa22tRdkCyxynQ9Xx23SEnGAjtUAGtNxM7bXWzgZ8qddItiBPZsl9x9pK5yoQTHt2L5zoBw5wIZeCaX8bg074usYRKvF0jRMQR8D+EjKi+9ifEXpyANAtE2nUH0TvyQ29j/zgZZ/edy8t+FPaEXaK3eGwwVH7wOc3v/lNJ8vk2fmUjG7oQpsNXerEB/Thj+vkw57NKwcrShlaguy0h3rirCsXLsHvGHxfgpZWRuPAPg7Qn9IW07NSJ9MvuUY32SnP0NFT6EFpj/g0/CbX+E2l3dxHd+6n33FuwB8v2DG02uMPW+R6g8aBrXKgBaZbbZkzwyuGnvHb9b9bIUsnwBGsvxppbWGfA5/yhzKljF0mU4YAAEAASURBVC2jDBwne5rMKZw4mOpthjmtsNw+7aMDdBwQlMo2CuCAjx/9z//8z8PANM/Fgfa8jKTnfFhIR+raqQEOcIFT/vomH7MhTxyJpx4EOAIwa0Wdl44O2XR+6SDYkaEwA0IGknOFP4HofUb0PZ8R/T69z3tL7SOnsVPaVGZC3XAjvwBeGfyaktEN/d61qa+UC05nmcGReQdrOYzBJ5lhuAC0HpPvXaXtp3HgSByI3GcGi3OyHxusvzEzgv5ZgmFg+xj2pyY/9ih+DbzYzdij+vmx57GzBlOBgSlr3Q3WW+ufgcKx5bXnGgeOyYEWmB6T2xdcVwILI36Ojcgxfra+0bmM7HHUGEuZC2tCdSBlhqIeUYyzyPAKPpMpLetwLDDg7Hlf56Nc77rmPffh4LzBfA6kHbVz2h2vs9UfO6prEvAJWgWvCVbKwLZ+fuvn5In84UvoIKuuXbKsafuMytuj1TQ0W5xBbRd5cWxEP1PA6X6cKM97bg2o7ZSgOZv6gp9raUP02Hbhpa3JfAJetkY2xjs2+oEXgMyzS2xe7JJzQXw9oNG9MOMn+HBI1aM9lC87C3IfjgYHwS76ugfaT+PAxjkQuWZX2JTMFKDP+n174HoG0D0L/OVc9C96u5Yd6ip88BN7xG6wMfoJAfSQ35T39u1jxzznr6qAOui7TT1N3zu2tJ8NcuD//N8HsEG8GkpnxoGMyP3yl7/sDN7t27e7kUhGlpFMxqwmS+CiM2GUjWBak5jA0bOyZ+797Gc/69aUGuU3mnj37t3uOV9K7Ss/UyyVwQHWAWRdIIP8R3/0R917PrrTYD4HOLz4qZ21G+f38ccf7wrkdOO77KfNtF1bpvF6SAZSG1hrR2Y4Dt7hQL/66qvdf4Vqy1NnTeEseNCpv/vuuw8/0IQe8psAHO5k1NcgZcYMugA0ktNLlbdf//rX3f9yfvDBBx29kQd/sdOnn5EbckEv2Q96is/kieO0BtR2SrBIbhOwBS/1kzm422vnXXgJ/rT3/fv3b9558DEsNgsPZGOyVsz7yrP/8z//807Wybb3fOkZ/fRhVz1jeRJ8fvGLX3TyyeGWiaFj8EKf2Sl01F7dS9Q7Fr/2XOPAGhyI3LNDAjH6JkP413/9152eC/jIP79BX8MPIP++ccD/+Oijj7pzOn8Mfajt0Vi/aSzvYs/83Rkd14fZm7V0DPrG4tmeaxwoOdDSRSU32vFkDjB0HHMdAiPrmKOX4HKfg6nj0EHYHCdIVZZz5co+jMmUlsgzyOrmkMmqwjM4mt7rPqdxH35lme34DzlQtp+72lHHF14L1LQp/peg4+eUy5IJCkx/1R4CPGv8ZFCVY7TXM6cO6OAPF7TAxRd6OTWuC0LQ6dgWmkOvTLAAII4AnpE7544BeXRsf06AH2hLhsJxBijIwpB+RW48r/3JiwwH/pUzJpbihXJjWzis6iNvcNUOgeDlWQMMnrU578NLW2t/AxZ4kHZGe+xgPZ05fFGv9laPMryv/kMyx33toT4Ouc0xUA+HPPThR1uDHylo+3PhQPSaHtI9fkOph4JQek72S2Bz6J+9DwPRAzpMDx0Dg2Te9xw7RmeWss/RU3XanMde8FmG7GZJw5jj2DPP6r/wBo3qO8TOjKm7PdM4MJcD5+UFzaWyvbcaBxg4hi7GjhGX0Ry7RiKGk/OmA+EgcdRkKGTRdDR9X9/lYHl3HwSfTBPl/BoZ5ZTpdHQCDZbnQNo18sFxKEFQKsDjGMhafec737l5/fXXHzrL2j/OhudOHZgaYeb46NyNPgukDXjI6PsfU3SSSXJMbuNYeIc8kznHHJsECnQkgYLnHee9kldbPkaTjJ/NcfRtrP7neR/AsgYKH6es6RzLm8hhHEHtoA334YmmDIr14cXuaX/lknk2xXPaEm3ZajyjH5xRwBlOIOycnJXy4doYSHuwc8pUPzrrKdUl32V4OaxtDf4YDrdntsSB6DX5ZYP4D9Etck8fY2NLvPMMe+sZswliG+hhpuK7Rw8zqLOUfY6ezrWbJS1jjqPvZmSgM8H3XDszps72TOPAXA60wHQu59p7HQcEDzoFAWSc66HOoI9lHETvJbPJYDKcyuTgJzhhWDlxfWtK+8rNtXRAzmXggM6LQxnH7RwDgo6QE/5wCHSu9iDn+Op62vWxxx7r/vNT4GHaJqgzpYJSG0fC+1//+te7v5AxeODrt9bAZXS3K+AEP2QHLnAir3/yJ39y88orr3SYuAdvMhq6E5jghfvk2JaMqucNltAbvFMmvVEGILeOXXes3C1BMhXwL7/CjQZbnzPYhz/6OH100leZ8QJvwk+0LwGxU2wLMCDC5gzhGbvhvuPglfcj7+wUO+LcoIRtTEAZOYGDY20tc4NuPMVfGZuxDnFfe+yis6ZPnZxx1w0QapcGjQNb5UD0j9zSP3oooKRLdJDeGIwZ0u/oHzn3DD2MPaCHyo3Os9Psh+eSaZ1rl2s9ZU+UGZyH8D20HaLv6GCf8czmPIP2bJDnGjQOnJoD2/J2Ts2NVv9kDmTkj0NlxJ2BjXM9pTDvcOgEMEbwjfgzkjoL1zPNheGeYzxTfoywjieZ0/aVuikt9btny3Z3RftzbHXmOr5AMqMynlmH2ZcpFZRqI+VqYxlT/2/6+eefd4FqyjvVnlzCBU4CZYMm6ISrvU6ePCVwyf/GuWfjAOCNPRrxiyNFDh1zlDwX3VHuGiP1S/EvThu68xERmUI4h4YxdcVhYjfKGRP4pyx8WAIir3iOz/vsVG0vvO9dAxMg8q494ag8WRcO8Rz6Obrwwk+Z42RsONdj7NPc9oAr28phjj2EB7vboHFgqxyIPhsUi/2JXi+hhxm8Zp/pvW8GlP7I2AGjmn+1nrpf/s9z/fzS52wVe6IPe+utt7qAXh0GT5e0t0vj3cq7Lg60wPS62nsxahlYnQNH3Max4cww2HNG2zOCaa9TUKaOIKOJUzOlNaFxgF1nhDPVzUirDB1gtOfg3r18oT9pZ3uQ8wRWZADYuxc+2wNywZnnwMuYGhjQpgLRMlOaAERAoj0EgjKUps3eunWrK+uUP6bs+sAPnGRLDcJYZ0rmbRx8dJInvODQoMN1DlP4gQ9457lkUvEtI+nued9exsyxMjJCb1+e05dTADrQQE9BgrOp+h+9x0M6rjw02y/xtdjwlU3RJnidQS58HILIsec5pgJGm3OQdkz7CiDjrA6V2Xc99GtXPHTug1nqwYfYJ3TsanfPCmbZNc+ObQ9l4of68Ch8ikxHbvtwb9caB47NgVIvyDr9oIv0h/4tpYfRb+Wy07Ed7PIhGdRaT+mZQS24HwPCJ3iwEWwaPrI7bY35MVqg1TGGA+2rvGO41J75Aw5wYLK2jBPpQzD5yABnRqZsCuTru4xk1uMxnL5Sd/fBF3i/+c1vds791HJrHBhgzli+UucrwBzP//zP/+wMtaCjwe85kHY2YoxPplta82sP4rhqKxmzN998s3N049gKRjna+KvtBHOcB7JiTamgU3toF8CptmkXX2vlFHhG+aeEzz777ObevXtdYEoWORO+7EiOgCwwHJ3jk+wq3OuvzOIBnpEzAWu+wvjSSy89DGAFuBwHezyQQXvvvfe6Y4Fx6lPOqdbectTg9cUXX3SDDL6gLMAZ+kp2h/SOn+glmkr68TAB2Y7XB2/FrnBg8VL7kFO4lnI3VIB20J7eT+DH3mlHmRnyTpbJxJjyhurJ9ciRr/b6QBgHWf37vu7sq6IyIL7CK/Nxd89Xy1Nf+M5hVR/+2+/7CnHeb/vGgWNyIP1RvrqrfyHvd+7cWVQPazv9zDPPdPbddfroK9rsCfsH6O0Ye1zrKbz1JfynYwK+wRegA1/1X2zYGDqOiWur6/o4cJrh9uvj88VQLGgwaskxLdeWCURkwjg4U6Asj+PHAVSO4IWRdOwZDhonKgHMlDrKZxndBDkW/gOjhpxNG/xjnMv3Lv04I9H2IOdGiHXEHHRg7174GF7al1OBdHTazNpQjq6v7OLrc88915sp7Qp/8JOMqQ5f52nqLBwEZDrvTMXO82vvBUaCZDjABU6m8cqGwjWQkWjngghyTEdA1sdGrjxrC+88kxF6z+CX+kD4TQfw3HU8cN2zynHdPuV7j564fqi+KKuE4Eln4KJ8umpDDzzmQOTJuwJT5dvI0SEj+fBNW4TnTz0YECh534dv7BI+l5vy4IrXgltB6SF013XDMVlncmCgLrwwiwA/OLIZ+IGndqjbY+wMk5LvZB2vlKfeWm5rXNt548CxOBC7o48mo7F//AP9TmYrzLU/NR3smrJiM1K/c3oCj/Rx9JLOxK6Udjn2N+/XepoBsrr+tc9jv/TlAlP85H+xB2zaUnxcm45W/mVyoGVML7NdV6MqGQhGzNcov/zyy65j4AgxzFMNWsqr/6eUwfZ/mEYidQRL/++WDoNxTuaUg7dGPas1xMIF62RlwKdmRjkE2j2OcjpiQZwOj4P78ccfd5lDwct3v/vd3kxpyMlINbn41a9+1QXBAjHlCkzjLOf5tfcyvUbH8UUWVJCEhmeffbYLEOFbQjJe+zKn5TuOQ3cyqXhFBwQh+JssbcqVse7LpJJjTob1vJwM+CwJU/+vdGrd0UuOHPrUJ/Cjq3PoSWbXYIHp1/iKn/vsVOySDAe9yCCDTKY2Ye84cMqCVy0HU+munw8fYp/YWXjIiLJT+b9TesYOuwcP9M3BK/UZeKG36FVPnfGv8WznjQPH4EDsTj6QxiaYseADdHSQ3VxDD0NbbZ/Vb+Ao/Sb9M4Drr85AnUEN/ofqafA5dB96lEPP2Vt6b1CQfTPzpUHjwKk40DKmp+L8mdbLgBmxtDnm4AlOMso/lqxkJDhAglxbRkE55AKdf/u3f+scpNTFsdQhLAE6sZQlc6oOo55GEBP8xBleor6tlJFMqD3IOdrnZEaH6FKuMgV2vsz7xBNPdM58vr4b3tfvc5BtpvwK/jji2sbUwnydV6DKMV8T1KfDFoxyhgTJ6ocT3CIjNQ7RB9cFQ0bWyTUa4Exn0F4HRmh2zVbyxvN0wR7gaRwJ1+iRvev4Yg9STuoh7+TZuWP1TYHICToMNqApgXMfPVPKLp+NXirTMXrUmdkYoad8p+849oXjyMbAHx/32anQ6R3ZDXWjNXjhW/gHl7H49OG461rq8wz7BC+0wIWtdG6wzt45GdAesZ1T8Up9yuHoJ0ur/EMy1rtobPcaB4Y4QO7IejZ6SCZdFzjRY4Mwpa0cKmuJ67V9ZksFpgBOdNMGx3JmA7sFars5V0+7whb4CT1sokE29hL+7C0a0LekXV8A5VbEFXFgmndyRYxppPZzQEeR0UEOjA5CRxFHsv+tP7zKmDOCnKq+/yll0JXPmX/nwVd6PWtt2NLAAJsKpB5BBKMMLvX/vdJ++AnSBtoDv/EDOMZv7eoaxxXY55nuwsBP2tc+joTyHI95X7b8xRdf7Jzvt99+uwvydKLeFRjKJK0Jgj/Th2XM3n333e7/Sq0nhBPc9gG++fohmTISjc+O8XXMV1ZTfgIGjgNQrjIEEHhrr02Vb2CBboIygHLuvUOmvEVulO9YOyjPNqY94TAFlMl5o4/oMm0a3egYA5E/fHEcPno/stxXTuisv/apbhDnU3usYY+6Soqf8FlwaGCOvczXn8kTWtBIN5ZoD/wpv9qpbPXCw72pAW9BSjtsHBjNgeghec/AC/nTf8z56u7oikc+GL2kG+yAgSx2XgBqpofBTDMX6CWgR8ewmyPRf/hY6DCoCdCRr3NP6aceFtgOGgcW4EALTBdg4jUU0ZeBmDNCn3IYwHQ6MdjKq9dGeY7zVTqajOku53JKeyhHh5dMgY5FnSBZsSXrm4LbIc/iF77ag5zrIJfMjA7hWI7Icuo5FDa8HgN474MTpka9//77HS2mBGuvF154ocvArpE5TabUGlf12QxSkAHZUjhFLnbRwYFPdk6Z+C/IIl9TvgIdPpZ1lTwkt9pUuYLpQPTMPoBf0TX44aV9Kd91QJty6ES5plyb2kpcUs8SezixB/DBNwEhHFwv8R2qC1+iy2iEZ7Kufe9EP7wjI2yvjLRjHEzBIDw8j++2Mfj01TnmWuxT2sk7HGA8YT9zHW1wPLQ9Qi9+O0areuDR1p6NabH2zCEciB6Sb38DQxejY+yNLCm7eqicH4Kjd6OXwQOOZgYBuhP74zqabGzpUnraVbTAT+hQlP4Dv/GenbPFvniuQePAsTjQ1pgei9NnXk/WXHHYOEYyVkYKOY8cMw7kGEg59ZrSoa9IMvDWPSjf1BlOvvoYzCVh7trAJXFYsiydo+zWUmtGp+KWgIizTEY4E1PkxBoYbSKT7djat08//bRzUkyp5QQItHxUaUngQMiU6qCt3TOFl0NkLZMv51p7Ay84jQFyi+6sFVz6K9BZK1SvTbUmldMEX/hzLAxITF2bGn0VnCyxpnwMzzxT8408cZzGrjUXUMlcjF1bGn0Z+tqnwRB81JbsEH6uaY9qPqWdXccHcsrptZYYXvAz8EMOloDY3Xwdu609W4KrrYx9HIge3r9/v5spRf7W+Pr1Pjym3o+9sgad3fU9BDqjzxLoGRB0PQO0S+npVDyHng/+6aem2tuhctv1xoE5HBgXTcwpub1zURzICCCHT1DIyHKI7McAQ8eZygg8RzfZm75MacrkCLqfUTzvZNqJe0uN5KFJ8AQ4s+qzoXuN+kLfoXs8xRN7kHNO6zEyo0P4l/wkI1MHEgSkpm96V0DIMbde1bpjgxroFHwJvJb4Wi9nnxNkTanpuzKl6iJf3/72tzsZhEv5Jd4h2svr3o+OyLwCcmWAR+aUXpBj/PEsB2EKeN67ttTjfXJLBuyBYzQ6t6k3z5Bv90HKsQd5ps4gJhvcPbTCT8238IzjuksfY2c8x9aQE4MjNb55ju6g3bPRF+0hszE09dlzsQ/KX3Lt+1hWhj/2cAUyHIfKU+qP3UUfXoafeLmk3U19bX/dHCBndJEM2xxHD2Xq+QDsW+zS1rgVfYRf9IMfEVsbfJ2zpUvpaco9dB/8laOfgiO7qF0yQyh0HVpXe79xYB8HpnlB+0pr9y+WAzoKGTjGiiNm5I+hGgsMnHcFpH1rSnU6jGMN6uAg+qDAOw/WmsIDcLJdL53x+t0558or11gx0GCt+ubgWL5Ttovr4TF+GzhIGzmW4UZf2cHgeZ4pyz30uOzo+tp1bPk6elNoE7B99NFH3X96fvjhhzevvfbazcsvv3zz/PPPd+tOx5bZ95yg1Nd3ZRStKdU5C3wFpaaXk/lDnKLIcTp5gZCMntkHQwFQH55jr4X/HCCg3ckAx4hs2JMd8iLQGlqbmgDO3vsCvEzJPqRdx9IRvo3V/9gZdDkOH9Bf4pvnkgkWeIW+b33rW10wq25tXr4XvPEug2vHWGsafAXEpjiqXyYJXWwTejn0uwLq4D5mH75nEEB95MTAzBp2dwxO7ZnL5QD5YoMSlNJFepXp6eSxTw+3xpHa3sAbLfovOsxmoNG1Nez+ofyI3l/LNzcO5Vd7fx0OtMB0Hb5eTKmMqU6DMbVxUPsyEEMEx7GdmilNebWhhwvj7voamQqOKOdbPZw+jqBpnSBO2ik6ybSDPch5Agv4Anv3Sr65jpZjOpTJ5Kn7EDBtNtOeyJIpvf46wzQp02x1oKabok/QZyoS51lbmeYLj3w90V9fKMN0UM68YMe7glB8lClVpmva+NatW91IPTkLDnNpSXt4v8ycki94aDdZAbrl2QTic+vr4z8eBQSmaDbwgheB6GsC18gbnPDEuffoSakH6lsC7+CRffgGd8f4tEv/4Y0m9gaO3hOsOQbRG/fxXln28EcP3d/1tc8an/ADT0p+BP+l9qGLDQbkxICJvcy+6+gQYC8hT6FTXeQjGRS2MIMra9Kr3gaXy4HYGfpMd+ijgQ/6RK4SuJU26xy4EXtAD9kU+mkgjz6hM/2zY30UvY6NQjc75VnvngKi9/DSBrGlcGl6f4oWuc462xrT62z30VQzsEYyM5pp2qSpNRw4RmzfWrusURu7pnQIMYZSMGLPCdOxxZEfeueQ6wIg9AFZLf9DJsAR7KQDOaT8qe+mHU61ZnQqvks/LwDVafs6qb+e8WVcnbxAUhZVG/lQkqBP4Am8o4OPjJIZ9z3HEfKODOm9e/dufvKTn3TTeDkLpg7fuXOn23/jG9/o6lXWEpAAKGt58v+Upn2RK/pF7gTka0LWLAq4OSCCMfqUtanqj77BI3pHDwRCplUDPNUOa/1valfJg5+x+q9dd60tjR79+Mc/7tbM/vKXv+wcQ2uIZWjwQTsMOYZpP7J4zLWmoctHuWR0X3311a69yCfHFj4CyKXlKfS2/zeNJLb9EhyIX+CDam+99VY3C0a5AjkDqJmRNaSHS+CwRhn5v1Jr1YGP5ZnZwLaiid9EX9lfgbhZOvoheg3Y3WPY/66yHT/wgKd+Cp6WuLAv7X+NdzCt3VqMA6cZllkM/VbQWhzIiCaHqPwap46jzEAM1V++Lyth48By+hjp+uu7Q+Xket5LxiMjk2tlKlIfOgQN+CBboKNc83/9SvrQnnN06iDwENi7pxPTgdiA/TEzo12lR/jRUQqiZEN9/EgbGCQQWPhYkYAj2VPOuWc46wLNBJX54m6CnP/4j/94+C7HO/+d6i9hOBSpb0ny0l7KFCQn4IueuZ4BF8+u5ZgpF39skR114yMgb3km912jDzbHeAtvcqgcAS69AXB37PoSdEQfow/2cLC5B1fX4B+c2CqOIBzynkEtm+e84xn8juMYWjsien7Sfsqjj7KUNudrzOAgH2hUhz2cBc/J6qINuE6ewgP2gc3VVhxidOIT/KdA6FUeu49v7KB61rSDU3Bsz54PB8gNWaKjZLqescCG2Pbp4dYoDl0yjPQDjWwKPU0wCufoM70V6MVW0e0tZVDhB2/2Q+CsrdAFf3iCOfake7H9NA7s4UALTPcw6FpvM7RxiKxpYpBkFAQ9DNI+yPs6nilrSofKVae6YxQZfo7hWmue4pDpXIDg3P974QUHFD46zziGQ3hPvY4u2Wm8B/Z4iJ867PDesfaAg2txOO3zzNS6z+H5BKjkAO2CUgMHsnicZiO7RqHJqymNsqdGeUEy3mRGuwleBZ9PP/30zde+9rXuY0SCU9lY05bUtRZoo1KedfrkCy1AoLGGfO2jh5zhpc0xHKy5Jm/O8ZWMkkv6x7FyDF/PRPa8h744ZYfqSc2vWv+VDw8bPKO/8HBMNjLrw7twLfVH+cF9H4/K+8qin/bKWxrQ42vIHF4Ab1voSn3hj2CRfSJP6DXDwgwXA4Haw3tzIOXTKRlp/FzTDs7Bsb2zfQ7QE3KpP81aaTIpgKM/yZRun5JHMQxdaHMcfaFzpV2JXWKv6DE9ouPsKHtKXz1jIGlJ+/kotuPPQkf03qAeEFQfYk+6QtpP48AAB9pU3gHGXPtl2SRfJvWRmV/84hedI2964+3btztnfshpN8Jmmg5Da/oup43BZeDu3r3bOUi+pMowZ4rlGF5zfL3DaMuUqYeR5Cgz8EbzlwS4oVF9pleqT3ZOpwMXYJqL+56dQot3Oc86JZsydU6cTyOT6nHuep5RDyc/mQ80czZ15GjHXxseBT/1XBrgs/bHe064wFKAKZBMG8iMai+b4wSmMqf46K9mvJu/UsFDm48scZKUrY6UtwYPa3mWsdXWdAeYGgvg4Nm12xSv1E2nBMj25N/U3uh9po3SB3jJ0HnHu8GTPtJ9sgvcl8Emz/Y+MuV54B3bGKj5pQw44hmZV481wqbScaLIBXzxNX/ZQK/gR0/oUqk/U/WG/qIfneiFnzKVvUR7xT6wwaYdo1P5ycCgr+Rd+KNt4IBudpcddwzItTadi5938Vl/gI/qUiZc8K9B48AQByLP+jjTXO3JkL7L0gm6mFkA5PNcIHaTjaGnbBD86aoBIf10SQ+dpUf0Be3RHdfZE/aRzrIr+OOczuHfHLu5BB9LvWfD4QL8NU76gtIWLVFnK+O6OXA+FuC62+no1DOMRv84N4wrQ8t5r0fqa8QYLU7oUpnSunxOl5E6zuc7D77Sq641MhWpVyCDZrTraNC1RGYr/IU/CM/wD7/RCRyXmR34APs801240h+ZUx2kYPPJJ5/s5AIPBXaypQLTOOY6T8GpoFNni4eyp4Ja+2Tjj8nKyPNama6xtERvDYzsmiERfeBYkU3Ok3ftybRgMVkD+xxzzugRO3JIJiD8iv6rE7iubpBMHttFV+ls9Ioeqx/uh+hP8IjMwEN9S83giH0I/1If3HfhnfbJTA/tCS97wPlVhraYAik3dlBgEXrxcmp5U+puz54/ByLPMvlkkTx9//vf7+wBec52bpSOtZtDdEWvYk9jP/HIzAQb/YrdYj/p2rEGgoJf9F6mG46C5NjZY+IzxMd2/bI40ALTy2rPg6lhcBhbI/QyAY45OTbZuiGDmPe8wxG06Yx0ON41IrqEAYuhVJbjdAwCO3W5tiRwqNGMdjSgM7xhpN0XsA7xBX74YA9yDl+OnXsgz5T0uY7OOY6kd68B8N8muOzLmsuWJmNqKq9tS5D2Jj/kFy3kInpE3hL8rCHf4YXAUrCRTAZ8OEG2Urbh59xGNgPejw7isWMQuUYHWl1Hj+voUY7r9iV96nHdvoTwiz5qb7rI2fWcMl2T+VaftVHo4Ugp2/bUAyfPVuJelj/2OHjQ5wR+nEnnHLa55cNbGfikPHtlpS32lZv2wR/HaBYsK4dMKZ8+THVwy3LZQfTDL7Yw/HW9QeNA5DgDVmSPLkbv6aB+kxyeM8RusjGAfgriarvZ3ez5iV7FntKj9FHsAP2y0TWDcY6VT789u7a+Bb/S/9GGoZu9hbutQePAUhxoU3mX4uSFlGPaCCdGJ8KxM1VLxk5wyRAyVH2Q9w79+m5f2X3XGEZfDYUPQy4zBr+1DKR6Ur760Is/cNBRmBbaBzoSWY9r/ZpuH0+OeS2dvH2Oj1n/2LpkczkZ9I2cOSdfx/oaNMfR6Lzpruo3ZT9T0eC1b6pW8Dc17akHTqdpeWwG3XBuSrBj9AnkfA1Zfe+9915Hp7XCgEPL8dn3lV9Z8Dhl+GQqHVC+QMwaWZlfU8/UjxZ2DF7oG7JjXSETfuCKHvYymdkM4k0o5uGjsaOmBLIbAN6+wsvplekfA3V7sIvB0/63v/1tV572mgKxg/hsnZn2sjc7IfZxSnnt2cvkQOTYVHR67svpAi0y7Cu1GageK89b5VLsZv21bP7AGLtZ0xX9YrPYEXaTPTO9lz0wjZ6+mflzTH0LXuxI+lG+D78Lrn2DwjVt7bxxYCwH+qOMsW+35y6OAxkJY3AZIR0Jw2PfBxkZ9fyamdK6bkaZ4TaSaLSSg7hmZkknEx7oGICgM5kN921xeHXCcHKfI+gY2LuX8lKmfcuMdixa/Ccd6eIFL1gguaFvyXQp2oeQyA/5dk9WGJB98rMERE7VYXNOrxJcqXcMBP/YjLzDnqDJHqCH/ji3sR/2rtNfe5ByUj9644jlGI70iePL/ijL867Bh7Ok7tAjMI6+dZUs8FPqsWP8Q4NtSjvVdlSg6xr84T01s1S3h3PylPZW/te//vWujpKvntsFodczpgWzv8piC9e0v7twave2w4HIF32MbOj/yFXkOGtJt4P1dExKOsk++tAV2mK3ppYc/YqdYkcsUwHqYSvpGzC4xD7Q32zeXwOCl7LZb/RpX/jZox/Oc+leA+dW5vlyoGVMz7ftVsFch8LR48SYksbQCkyHDE5GRo+VKQ3RDCFjzFDDl3EUgFg/GEcrzy65T734oT6ZG9kZmSZ7I6c6YhkhXyO2B+kwGG8ZkDfffLNzmDmc+JsORvkNrpcDyXQlc0rOjEwbMecQmIa5pHxzdozE2wSmyh4zQ2JsC4WefJRHsEjek5H14RPn5J7eyH7a+39axzItcMvXirM2mD7Z4J+PNXEWlUPHZBpKPVMH2pbWL+WlPdgDONlPncFR21H0+7/S8GfI/o5tB3zDF+ux4cdu4nPN17EZrNB9bPs7lt723Gk4EHuS/wmW4aMfL7zwQpcptV9DD49NbehEH7sjQ2oAzAfX2AB2bwmIntFb+suO6g/MqGD32EfndDp2aIl6h8oIPpkx4eNM7Ij/tYbf1BkYQ/W069fNgeYFX3f7P6Q+I4CcU1tG64fWStQj/GutKX2IYHXA+DOENseyJHBwfMgar6qawdPUr4MSFOMfXDjeOgjntjznHrBvmdFBtl79DR2/IMRARZyAco0gBi2ROY3+ZsTbnmzSd1vk9dAGCT1lOWXZAht1ywJkJoJng599oG9tqnfpmeeUZXNMBzmKTz0ISNeE6Lc64M8WsJ9wmmKH4I0H3kcTGYD7kP2dSpPyUhYnNh+hUZ+1a+wnfpE7NGm3XRC6Pc/msYPKdH0K3bvqaPfOhwPknQyRJ1PoyYJzekjuDHAvaVdOxZnQSVdDY+ym/aEDSDVd0TPl4iVd0x/EzrAVjoFBSzbDc54fo8d1ffvOg4/nzJgAwYXdC56ea9A4MJcDu3ufuaW2986OAzqRZE4cM4AMra3PyDDQjKJgcIn/KZ3LsDig8GEY4SpTshaET+pyHD7ghWscNQ6eaUvwwD84hof2zhs0DuziADmJo8PZ0PlnZoD35n5dNXVGbsmsDZDXTEXrLhzhp6YTXiABqz2ga0bmZQkcC5zwxzHdOzXQaQNO+VownKbYIXSwv2jU3pz4TD2O7ViCxuCZwQ3ONbmSnQbh61gHWxv4n1t/2ZQvIE+hewmaWhmn50DkV1D6zoOv5RscspY0faF+8RL6vdBJb9hkNJnZwG6uSV9tJ/E2tpvN4Ic5ZzvYoQwCjNXjqRJU2xF8YUPMFGkD71O52Z6vOdAC05ojV3auA+EMmsLrK7NGAhnBjITXhq18njG0MUoMlU4oHzWo31uLrakXDfCIw80xdG+uU1eWB/ecK1dHoC6ATp2Afa65Hrx0FA0aB6ZyIJlGcsX5d27aJf2kqyDBxRQ5r/VXea7R96wBm4rrIc/XdKasOjCldzKSMnM2usYRg7sND4Dy3EeXv+Cht+7hI1vg/hoQx1FbOR5rh0InJxeN8NMOHF1tAu8lIXgq0+AGPMNPthwv1Z9AwvO7IHZOORxT9OB9BjaXxn8XLu3e8TkQ+aWL2p1ekgnt74NjfAI6ce5yQC/IeOkn4TY66Qoa14TaTqoz9cqgwis2x8wS7QIn+K1h/2o7ou3ZLzjM6ZfW5F0r+/w40NaYnl+bLYpx1jZxSv75n/+5+4qlES8BpqCq7lDy/LHXlA4RzWDH8JqixmDaT13jVZfPWZPBGPs1Xfx6/PHHO1zSMeOf4waNA4dyIGsEre0xMPL555/PWnNa6+/SaxkPpTPvD61NtZaLI8ZR5AhZ4xR9s/ee6xw1a76tfQJZmzp2DWXwmLrnEFrzxS6NsUO+uszufvDBB11VzzzzzFHW4sVuZu0avrF3n3zySSdXY7/6mXaCvIED7YLveMAxbmvOpkrQeT0f+fUtBUEJ/ZQx/973vtcNcAiM9Mnk5JwhdnOsn7Q2rdG7fAWd3aBvrusf6LGBIt+8AGvZv9gR39pQH7vLDiz9LYS1+dnK3xYH1hk+3haNDZsdHMgItxEvxwJRGcBkAfNqOWLIONsyOnqKTGnwKkfu5qzx0pmiwx7knHNbZkbzTOrLCKm9QB4ITDNyKLBlpD3PYbZv0DgwlwPRS+/LnMpQkEnyJojICHk9kFTXF31Phs7zBlBqfa/fO/Y5hwdusTt1/blPt2T4OMCA3qEtdHqfkxRbpUy6aF/qpfJctz8ElMkewkEbsSd9ay5jZ7Rf1qp571hr8dDKdoUP6Gbv2D04uT8m85F2kL0xOOe90I7+lO96g/PnQOSWPsX+aG/X6aHtEqdyxp7QDcfkus9POlYLR+/gQY/hRHed84OOlUGNHVG/foQs2Jy3r3QfSxour56WMb28Np1EEQNmjdG+/y/MiOFWMqU1kQw1p5BBRA8HlaPHYdoFUzOjQ1/TZaDV30YOd3G73TuUA8mcCsQ4IJwRI9W/+c1vRmWoxur7oXgu9X7sTv4P8d69e93HVXylmCPk/z2tcbxz506n776KKaOazCiHWfYOj9iFuf+bOpaesXYodkeWUgDHdsg0sVmOlXMMSObl0K9Ah+58rdOAAPls/296jFY8Xh2RW7rk2xIy/fo+Aal1j5fy1d2ao1u3m9HjU2VQ0y/hm7Xmvhpsxsja/5JQt1M7vwwOHKf3uwxeXRQVyUToaDK6xilKMGfkDeQ5z2wpU1o3RkbujB465pBy2m0cPWCE13Vg79z9KZlR5Q9BRi45zEZW8QyMyTwMldmuNw6UHMhIvb3p6uTYCDV587+UgBxGf/Nu5F0QZHPep+95/tT74EuHMgovuEQn/NHIGX7ttdceydC4HmfIe+ybstgxG0h2wYh+bB9+0dvYigw0ue54bKC4zw4pBz7qtaYfLQYZ0CIDA/9jAnzQaAAvwaXAHt+SERuTkQ/dcG//b3rMFjxOXdFHOuUDR3wBsktfyM6xMv3Hofb3tYRu+kon6AhdXWsN+O9rnnYUPabLbEhsnHMDRNoK/q77QBu/h73zrDacaudq7LzPfrEZyiQnZoLAy1r/Q8uv62vnl82BljG97PYdpC6ZCI4eh89Id9+IfZ7baqa0JpDh7VvjpYOZsmZ0KDPK0O6CjBweuhZwVx3tXuMAOeRQJEO17//kOCXk/9QZurEtF3zzf4jwpsP//d//3Tk/nOG//du/7T6wgg/Ry5ovMgnu+1/TZFY5ZJ4zICXjk/8DdM4Wqmvu/3uGviE7BB9OIcfe2lLPwevu3budQ5dMb8o51r7OuFh7OicjH/6jS1aNg9oyJ8dqxfXqiT7ev3+/++puAhsfOOI3CNRKPVwPk+OWHLrzf6Xszjlkhmt9FizSw9DDxrF3ZtoAdsfg0qH2x4wx5QC2VH0Jfpcovyu4/Vw8B1pgevFN3E+gqXCmx3366afdCBqDq5OJ0ya7ICg1Uigo5UgxZDofTpT1RD50YCSMEdwKcIgYWyN3cNeBcmjtTVe2d4/BtDGWRvrQjzb0o82oqEyGazZ0xvndRSvDbjqNZ314RV3qFDiUo4ZjytpVT7t33RwgP+SJvFlDScZ9EIn8C1ZBsoTuGTEX5NF3f9Juyt0rr7zS/SH8lmQRrvTSgJmgUWDz5ZdfdgEpPNkae/r5V3/1V92+xN9xyRc8oIN4Qq8FqPTZczJ7bJxnUi7+sRveAe6rnw7b02PPA+8M2T7PcATt8V55gj30sacffvhh92ESNhQdHPtDncIOqZk/6FA/3rF7+GUaLnrxo5arIfrDf8/7AAue4aHy2VZlNzgfDkQfybBAgyy4JtigTzay67zUw/OhsB9TektufdzJh53IMRrZHbZz6/TW+kyvY4/opjY0yIdG5/bAe9pxblt6X134x99i91Ie3df3NGgc2MeBFpju49CF3tfBGNGWGfBxDp0Lx4FRAQwVZ+xcMqVpJoZQAM2xzdRjo4OMJMhono7FSO/czGjqG9pz8tQB2pqLIS6164dyQKcv0Kozp8n4cRDohEGoLWXohugWlNLXBKVG4H1MxVcnZfAS4GQa8lCgE75wutg5DiZ9NGiEX47Zu9u3b3cDci+99FJ3zj6YcYFnu9am0u9dGYCh+jm41uaxUeiyNpazuzWHLfgPydU++uvMif4ky0SG2r5d3x4Hoo+CUjpB38p+kw5loGd72M/HKP6PtZLsEXmWKWUvzpHe6LP2oocG6EzZl6BAn4ww+zr2a9xDnGWf42Mpj/0lO2wpO2cgrkHjwD4O7J6XuO/tdn8WB2Q4gBGsY4ORMh2MEVAbx1W2UNYwI12eEbgmsPM8Y8ygGSHl1CWAPTb+qS902IOcJyOKLkYRHYJU9DGMDDNAw5pfD8SfvjUX6m5fq8OFBktwgBNAloEMIJBltFlLRG8BvYiu0wOyuQWAU6m79FXQFpsDf39g75yDw8EyiMYWhbY+OsIXvHGMfnaAY+1d18M377MVnlEmu+wYqBd+8Ew59Df40XPX7b3rGMBTXak/9tQ9x54dQ4fnTwHoCH/65ErAQo4y0yR0B1f04TPeaTd7PA2P6+fzXtuflgND+qj9tKn+c81+87TU/+E3NdgMPKELZD06cWo8p9YffQ7+9PCxxx7riqHL7B9awW9/+9uHeq3NbWP1ld1jC/GKr4h3ylefPklZcPDMVuCU/vhWeLA1PFrG9MgtQgmiCKo+dnCaEVCjZAJTI/Wm8HJUGZ84EFvPlIaOof8ZNXKHlnS0vtZpTZqPpehc41AxpGtCnTmQudHm+UDLlgz0mnxoZa/LAXKs00+GS2aOjsvW2wsutpihS2bCh4Deeuut7qu5OEVfZSgEb+ySYA4twJpM05DRu09/OVxG69kBex+Mov91pjUj/fmqZYLGDGbJMDjGX4Gz6X0ysfu+8mu6nHpNiRWgyWRzzDhtWTqBPvVvEYbkal+GJfxEk8yJDCu7d+j/S2+RR5eE05A+6i/ZDzowRu/OlSehP/7PVv/n+VD+Rq/zP8b8QHZKhjhr7p3TWe091U9J+d5TBj9oi/9vfGp//NB2vNT31/XKL5VrO+jiAOmIZSs4g/YCJA6KNTs6ZkoKdN6mTghSMjXK9ApfcbU3Mr/P8dqByiO3EqBx8DiBRsc4RDocTlqC0ozsy5YmK3DKTCneJWuBoJwbgUtmxfU8g46MyDGojo3U2btnc93+GKAu/MN/Tin+tq/VHYPz11VH5B7V7A59IGf0nM4AAZ0BqKlORvfywj/RY/pAP9kb+zg08BQcgtIW0eOnHgSW9mMg+qdc5RvQUqfrpR1wH19sZdkCWzbSHrA7maLmGr22d529tgcpJ++5ZiDQdYNjAlPlOt8y1HKl3fAQXelD+r46Hn6iEa1oJ5P2f/zHf9yRXPJ/yzy4Btz26SOdm6J358qzyDVbQZfpJ7q3YjeX4mv0Gn30kA/I50Q3HUW7YyB4wwPPed679HsXpHzPsJf6opSt/NTruTVhq/74mjRfQtm7pesSKDwyDZRQtkIQQgHtKbkP8hg1F6gKToGglDEwWuWT2hwif/nACNgbzdpnAMaSp+OJsfG5dwbYWhGjoAxO7nMCrYHiRLgnqLLBbW0j0kcLPGR84A7s4QjfGEvXHaMHnujBN89oAyOA6BXI4je6SufT+2tBDDQeAoMC8NEG1vbCFS4MdYPGgUM5QJ7It0Ewsk9/ojuHlr3k+9Fr+kAXnNMDwSg9TmYGDfTfaLsMqutTdDf8SPCkHplLNniMHYj+cnCAutka9oR9sQ+P2Re4AvbHu97Lfc8L1NRrg9u5QPion2K3BKXojfOajHzdNnlPMIo3eGEvGzOG/+fCn3PHM+2yTx/Pnc59+IcPZJueC0hjc07h/+zD99D7sW/8D/SysWyuDQ/4Wo7do6/4QcfH+ivR/7n291D6tuqPH0rXpb/fAtMDW5iDIxuqY/YV1n//93/vglGOlJFli8t1wu57LtlS1TrOu5nmJHBlHL/44osuOP2zP/uzm8cff7zLosqqCmbnAAeKM2FzzLAwMgwOOHWmlNOGbnuQc041A+keyDMxqHGE7PscHSOBMtIZrUP7Mf9Xi4OK1xxSxxxVjjE6GH3XBK3uo8l5g8aBQzkQuaMXnAN6QJeMXJNB8ub6sZ2t6DU7BBdOD4BPBsE4gvD1bDKcjl33DLzHQuyE59lgdkDdyh2z1jt8LOuLzXGNPcFXZXKCAq6jzR7AP/qtbs87ZxvKdlBfnktZW9iHj8E3GRa06zvIlMxK7bjmPTToB/Hf5r0x/N8C7ZeMw1h9LGX+EvkRPtBZm/PYI7aJ3F8ixL6hTxuj1ebYID7dxovoK3vmHv1nt7y3y16V+s/+snvKUmaC1dL+hcfsiWeywbPvuTyf/bn448G37fs50Lzgfr6MviqwFHz6GwZfkvT1V8Gpabpf+9rXuq+QyQIYMabEOuMEl5SIM0PZddrK8S7lFbQKSp999tmbF198sfsqpfVPjMUcEAgZqa5HAil7gqRTZkqDH6MF7MdkRhk+YI+WGlwTsAr433nnnY63p8hUxkBzrq0tQ5vMqYw6YHgZ/EvtAOt2aefrcCB6lOwUmfLxIB29a9Zkkz/TK/sGctbB6velBr9M7aIX3//+97uAhq5mizMUJyb6gx7HU6G2A/AA7O8hfAhe9NYgH7wBG+4ryPYgz7lvLa17aBHIlfUrZ8t2IHSEXkGmtbbJrOjrMmW8I/yrn7X4X9bRjqdzYKw+Ti/5vN4IH2I3I6900/G1QK3fBtHYYAEq31H/4RnBK97UA1FDfAo/+b4Cf3YDCFZL+5f3S/svycPe9D2X57M/F388+LZ9PwdaYNrPl71XKYCAktJaMC4gpXACTEGGIFIA5CMePpEtyKScRoncB5xFiskoCkj9D6GPawhYBakysD4yYVqeqcA+wBGnRfZ0DGTkqcw8GAnkQMBH3ZwKm2PX3Oe4pq4x9Yx9hsFRTxy4nOPjIZnRofpjaNHiOIZWfWhl8I4B2lxdDDreape0ielT7gsYjoXPMWhudRyPA9FzDgR5YouMaseBoHP0y3267vljZKyi3+q3lXpO/wRz5J6DU4LnBHXwpRP0Fz1z9aO2A3DBB9fZaeXPgeh1cEw7KN+xTdloVRe6TF12nZ31nnZwHaSc0Omd2CnH6Tvm4LrEOzW9zg2upZ21mWUo6Cvxhjs+2Bwvxf8laLqmMrSLtuK7aAP6pc0c79LHS+VR+EH/kskno+xRgq5Lpb2Prlq/4+OyRwbxyAv5wS92y3382pdBjf57ns2PbVeWrwDjtetkEFj25i/O9GN8ZD60AdYhOBd/fAj/dv1RDrTA9FF+jD6jYIJRX2+7d+9eF5A+99xzXdCRAFIQKtCU5aTEppRSfNN2gWPPCDJlVHXot27d6hSR4gt4KfDbb7998/7779+88cYbN/5vTxZV4DsGYkSU55jiZ6TLuczFMTOlOkCjkvAB9hxEuJSGyXG5ZpRhA/YxXt2FkT/e4QgyrAysUTh1HBvC/wQF+C9zakADPgKJBo0DUzkQPedcCXyATKRBEDJH74CglbwZFAGHZgy7Qnb8RN/peKnnHBGOBpnn2NSQ99gHgaOZBnP0vi43dgC/OD3sCTuzFKQdlG1zjk62B53ax3X9RzIABgzYRKBPgJM98E7steMErN3NDfzASYZUnxS7LoNquUIf3mvzfwMs2TQKkU9+hfZiB8ibdtylj5sm6gDkwg86aQPsgYF7PLl2iGywO2x1Bvb5UXMyqLEXfF12Ql9lJht+//3f/31nJ/FcPffv3+/ahE+07/9Pz8Ufv3Z5Gkt/C0zHcuqr5zIyQyk5WqY2cKIEmE8//XSnWM8//3yXId1XtABVUGrzfgkyqMmeGpFWh7pMEY7Twljsy5xS2IxOed7Ils1IoaAIDcqOw7BUppTBV649yDlHE+/cA3kmBjCdgX0ct+7BA39CHx7AQSdkqjVeuqf+Y0DoVJegAMTYc1rhgnZ4NmgcGMuB6HmcKzIkmLMB8hS7kQ+yedb12J4l9SD6nkCZnVGfOmwC0z7nLxkMOpHReY6J55fQCXULEoOfPXtgW4J+9gyt6I6uozOBqTZAC/qSZTAoFQj99gGDWMqFHx4o177EV7mup43z7tp7eKRt9GeZoo3+fC8B7doQfnP5H76g5xR0rs3HtcuPvNMpbcMn0A+TFzZiSB/XxuvU5Zf6SsbIafhxaty2UD/5oOM2fYp+hq10zn9h09ky1+m7ewJYz5b2KnYp9gKvDV6RRTbD+z68xCbSb+W45+962BWDk2YO1nBu/niNfzvv50D7H9N+vgxe5UQkU/qjH/2ocxhefvnlLpspqHvmmWe6r+xGEQcL2nPD+77WS1GfeOKJTlmtY+VUyrxyVij5vjWnOiIjU96j3PCj+LKxMqU6JwHg3bt3O+fJyJT7AuBDgLEyIiuYVof//VOfPVAHYMCMUL755ptd/TpIhk0HwbAdyseukgc/ylGetbsMIr4wrD7YEQOaZ4+xDz7akOGFlywu+cKTsRnxY+Da6tg+B6LnPpom82F6LAeLDQH0mc4Z7Iq8kzVLBtbQg+i/UW8j4nFY4JWMRJ9+538EOc70FM6Z6ruEXar1Tpn0z/KJ8OWQ1mZXrSG1BKPPrqIP3w0ost1myngOjQK4zLZhh9lB+MV+suP7/jd130DlIbTtejd8JV/kKf+jq9/BV3KIllL+8H0s/yMXHFjvnIrOXTzY8r3o449//ONufTP51C4vvPBCFxDY9+njlmlaArfoK1vDbpqRRu/0yw3+kAPpR/gn+MRXoceRLz4fe2XpGaCnffqagTcDJp6395FP/phjAam+Q7/GN4qsqq+Ec/PHS9zb8TAHWsZ0mDeP3MnXvjhYpu8KuCiQrBtjdvv27S5LquNdAgSe1qXKZlBKyi2LKnj56KOPOmV1j3ND+fNBpdQNN6OBRrRszjlAysmIaUbhOURzM6Wpxx7kHJ8YHHUAe/fUz7jEwNjDK+fdwyv8pF54CPYZUiN1DOQha8zmohp8vM+RS6aBQ26aC8CT1kF2rGg/AxzICDadpnMCBBk6G7sRcJ0sGfBJEMF2eEfnD5bInEb/Y3diY8gyO2MTMA/pO3rKGR6eo69L6UGtd/gGV3hmen3sbXg3Zj/UDrVdVTYewEO92iJ/g6OelGMPtA/74NzGXuUZ+Go7PMcfjmLaXPmOXXesnjWh5Ks1YXBiY/FVBhne2j0Djo7Rpa3RyP6V8gdfZQBlpxzngvil5EF5lwzRR3Ju2iQ+RyeTJbUf0sdL5U10KHYTnfQHL5psDbc6vcQfG5lhYwSmIDpP7/FVBtVxqfd0GXgfr93nS7Nj3tEufGo2weCWtaa+veI89sD75+aPw7nBeA60jOlIXulEZRcEhT/84Q+7DKRM6euvv96NOlImjsKhmcYaHeUpN6PrFDJreWRSjVwJTGVRS6DwnrP9v68cIIaXovsi5GeffdY7oj8V/9SzlcxoyYO+44zUMYB4Y89R5DCdAhh6xj2ZBu0joPfhK4a/ZU5P0SrnU+evf/3rTp99ERzQcfLso2ucgFqfnbueEW8OAnnT+bNxh84giD2QgeAACyrLGRHwI+9DgRIHpZzhIcD2DjyXhOgd/Vcfp4iDxY4moJtSX9qBTcFfeAug4F62Q10vfpX2J+0jwwgP/FOGgU/lJaOjHO2m3a0Z1i85x3c4yFSCoYzFFNqmPBv6/Ac3+4Ue+HzyySedfBlARVe2oRks3uOMah/804fJRJutxNHdt+ZsCs6X/Gz0MTMX9C8GQsxQIk8y9NpCu10TjNXXa+LJHFqj72wUO0ae+Kp8ZXovM69fid7HjsfOqdN9MyLouA8esWE2+u+e6br861dffbVLIuSdc/LH5/D2mt+5Lmt0QEsbBTaVVsdo+oDRXdNfls6U1ihSaEGLIJQRMGr04YcfdjjAxX9yJnD1rsDLMxw8HzrhcCUYo/ju6ex1RgxJPaJf159z73E07UHOGQ8OkXsgz3AmOCY2YH+MzGhX2Y6fcqTOtGJ0oMGGJ/A+JoRP6iRjQJtpKxt8T4FXh0j72SwHon8yTsmC0GdOO12LA1ATwIa4Z/Occ0FMspSeLzNX+/QheNB7W+yB6+SWwzJG72O3ONLJAhosWiuDEb1TRzmDwvUpMyhCf90OCTbrdki9eO/Y+7X9qd/xbIDt9rz6OG3OlVHyz7nr+g5toh2UqT778lz7LwmhL/UoX/8QnN0nX9o18kFG2DwbvPVn3ncOyHT4633PNNjNgchl+pHIAVkXkJLPXXZid+nnezd8iTzhC14M6ev5UnoczKPvsVH0/LHHHusqZ8vpKl4DX9/NjInYo/RH9rH93cNf/RgsFJiWmVN241z88ZKWdjyRpg+pAABAAElEQVSeAy1jOpJXnDfrMwSngkHOlqDuySefXCVTWqNlhEmHTVFlTZ0zqpSWssMJZC2O6VMyozomRsPzRrDM/Yf73YlrSjPyei6Z0Zp/Oa9H6mQUwtM4bHn2mHuGWf3JnHI0OZ4W/J8Sr2PyoNU1ngPRRzpNx8mIzCQHyzF5GgPkn30gdwKIqZnT4CHrWK4hZ5PYGUHFGHxitzgxRss5PBxoAYxjersGyNgpH6gXHnFSx9QX+qe2A4fNAKd2mmJ/Yr+S8a4zqa7LWLAfWfbRtzZ17Uxq8CRXsV/ordc0wzdOrcyvNX/4YY2Z/kt/ww6a4aNP49Dqu556EMw2GOZA5JJM8xMyc+F73/tep5PO19SrYcxOeyd8maqvp8X6fGqPH5MZE2Z+0Ht6nZkdzk3zNUigv9EW7gtq2d8SDK6xVdbi2/jA7IkyzsEfL2lpx+M5MM57GV/eZp7MyJg9YIQJdJyQsYgmQLC+M9lSASnnxXQiHe8xIJlTdZpC7FxGFE5wc53SZoTKaDNF1ynZ0I0WPID7UKa05lvOlXVOmdGhNmE4OTccZzzAJ449vgnuy5G8oTLWuK594qAZDeSg4zn+T8lgrYFbK3M7HKDDZCIzIsgJ2eGo2yJDYzEm74I/YPCNLrAXymVj6IUyPVdC7AL9ydo18sq+cHqn4hO7hS51qVM5db0lDkscxx6ihxNvj47QMtRfhH58krH2PJzx0ravHVJv7I/yxmRqY7/Co/AA/4K3gDTHyT6TG7S4rp/QxnBQjuv2zkOvehzbz4Hgyc46Vna5phk+po2HV/ZwgK8AFD/sgWcBnMkEWm2H4NcVeEE/kUc8smln/bXreE8fx8xcuCCWPEJKbTfZObJk4Cwy+MgL7WQWB+hk+gtyh8f0no1k6wwMkEl6bnouPXadvLo+BO55xntsisD0HPzxufZziA9LXcdPdiI8126l/V+qnrnlzOt15tZ2xPcw3UgMYQaUZY5hNlprETanTQBI0Myj95cw+eLlEcnq6lS3kSWBKZzgZqqvUarQnawDgaP46Le2JEG1c/dqyPvhm30cBZ0b4QWOZWiUUwp0BLwud2vncCYPRu7eefDVUA4mx9B1NHGSTgHBS1Cg89R2QLA6R35PQUOrcz0OpIMmFwJCHTs9JBtkZy6Qef9HSebYDnrvmJ67znkrIXYi/0PH8WNfDHpx9jgPU/BJeeqlh8m0lnWuccxeoV19MrQcJw49Z2qXvgXfOFzshXawtlR5+yB6HvuDbu/PhdChXG1GTmzo0Y4J5OzRJ3uBBv0ZfLVvSS96XD/UDgYv5cCL3Mrg6lPghV/kC95kB86u4wf8QAJU55F/95fAby6/t/Ze5BGvyv6aXGtXvJ+ij1uj71B8Ijexm8rzP890foy+Hlr/tb1f6/2tW7c6m8Ne0m97z+g3yC67pI1qMKPFrECb4/jj7No5+ONbDUxjL9hRQAdK+1+3w7HPLzYwDSM1AEWgBD4oEwPNSNtc3wUcB4GfUWjTkzL1yBdzTwFGu9VNkOBCQeHG2TAFiqAxvgItQDE4BckQJlPqundjDOzxyvvKcgzs3YuhiRHfmiB3yE74KelxjBdot5GLQx2yCag88mjwYqjJqnY0Sgha5vQRVl3lCbkgE2waoIecz2Scuoszfsh7yrBUgM7HjvhKNAciji2bQCbh4dh1I+Nz1q4lk0H/lKletiq4zCBl0iu1fUQTG8Bx6tO34AtXA4OeB2U7jEEgeu49x+gu7Y9rUyB01HaLvOCnPVAH5865DT32rutb7IFy4Jby4BO76Fh9Y6DES3nO9afoJTtkzBS9yBCbR7aDG/yCk/pqPgW/Mbhc4jMlHw0SJeDHTxt+2vD+moGs4Q29JlN0InbzmvmyFu213rMZlpHRZTaTvQexp/Z9YFZF+iNt6H2Dhgbqt+yPs3HW2qYP6aNtC9fwlL3VPnPio7VouNg1phSDYdbBGaF99913uwyqbIBpAII49/d1bEZlfGyII+KLjU8//XT30aOs6VyrYfaVayE5RafQUVw0+docenX4hA6NRuLzP6Gm/BLCfDXt3NeM7uPTvvvkgzxYx8Dg2XTip8iGl7geuvavLKsdXw4H2CH6nf8r9aXCLCug1zrrQyB2M2ud85VoHS3gGKjfV2A5xewJ+zJ37dqp1pbWPArdQ1+JTT8RfDm51kCaTWOk2YCfACDP1eUPncf+qJ/9ZsvH9EtD5dXXs9Zz7Fd+9Y8GJq3xdKydzTxK+x+6NjV2zewe9OKf7K1peab2ZU0aPpMvmZIS3Dc7KIOzp7bTJW6nOObga598dZd+kkODRMngkyfydc2Q/yvN/wvfuXOnC0yvXX6OJRN8UXaFvtNrdoBc2vfpeY0X+WXL+Ls2397Ysj8OV3YKjVuE9HeHxkdr0Xax1oqTJsCwOc7IgNEBx7YxIwTJmArkOGH+huFY60p3NToc4KIDt4BccEXBdUw2yot2nZRNRsM1ji3aPXMNmdFdPHSP4eDY2+NLMjdRXLJzCuDgyhoBTqGBBhtDIrMB4Hwq/DoE2s/ROEC3ySf9JaPk0zTITB2dGhANIR676b5RaTZDEKZeg2HqZTfsZRwyVZCtmQNoUj7ZVrdMBlu1FD1jcQrd8FE/Hie7Uq79pH9G/PUjAN3JvMzBOfYH/crUzmV9XSUH/GinGq+yrdCjL0CTTGpAu8PFPrDE2lS4sGvwMtNHoCAodZ4PN6l3COADZ1uJ29Dzl3o99kC7kVP6ibfaVn9mI5dlW18qL3bRFfmmX+ScnLGZ6fN3vdvuLceB2FfyGNs5pXTyrv2AwTv9xJb9cT6b2GGrULaHY/2edrE5to2Jj9ai72ID0zAsHT9Gc4Cy1wDvPFhbKGiLIe+bYx2FEPgxaJRBVu3UAAe4GIHyH3EyuxQ3QsUAZG2YkemMhHO48AFdaMcf4NgIq/fKgIfQ5plT07xG/WjT7qaTGXnGP3vt3ScPa+Cwq8y0I/z8jx9HBHAit4DfLtzbveU4ELnU/nRS8ERnyYfzpSF6YSoVW8n5tef8qpfTa02pIOMQ+8BmyTzaK49MH1LeoXwI3ZwKmWF2kl0MpB0EVaFf/zG3Hcr69Ef4UNaXetfakx24p13RC+LQ2wN0G5BYem2qjEmWpNy7d6/LhKhLvcGlQ6D9PMKByCG9zKCONZPRR3J1Sj16BNkTnsS+4BE5j+2aq68nJOWsq46dM7jJzulLQAbAupMdP2ZOSA6Z0cKfNU12y/64b4Scg/3SLvov9mROfLSjyQ66dVWBKWVgqLLhnGsaxdY3QkAhTJmVPRAcmEKUjNVBnD/wZTjABU6UHR2mNmTqE0fD6CDFF8RkdBmdFCYOCQMN7K8x0Akf8McoVzIl+LRk5mJuc2tHzgZ8tJEOljMCIoeMyxrByVyc23vLcYCuavtkRiIHZII8kI9jADzYTXKmztiQ2JmpOIQudstG/4yCo+tYNPXhrG44sAP+51iAlMEAz8MVH5J5OTRjHfujLR2Hz+o4hl6jA802OATqwBQ+S65NLet1rD6O574sgyl8Bg1tjueAwRbAwT0XoB/RGW0hQ5oZT+REwGX6Ltlt8Pv/WS/tZhIQ7Mwpbcw1tw85puv6sehf9HEXX2RJ2QbvsBdmC27VH0cfmuKL76Lr1PfKwDR9G/tiA65pK1tffLSW33kVgamAC1ON1NSA4UYKNID7DHwMmPd0ftZZETLGTEMKAE8NcICLxdWCZmvOAEFxHRjxl1mR3bAH6LvGzGhH/I4ffLPGydoqwR/H9JiZix2odbc4jTLgjLGsBfxAy5x2bLjYH/ZJBj+ZEbr9rW99qxstjp6vQXzqzSwC+kEGOcf0Axi4gYPrUx29lG8mh7LXzgCP5VHoZDM5+voF+iZILYEdtaHdO4cCPup3OAQCDjNiTjlQGD5wJAE60cvpIgNxLoMvOQGcRu/aA++hox5I8Qx7+/jjj3fLUQSlYxw5S1d8R8HmeCpwGEtHOM7x1HKO/XwGLPgqZhiw/9oDX9kDx3jd4HcciH2J/aJf5NC2pt1s/O/nQN0e9K7UvVIn+0v43dUMTNF9vq+23JI/rh8UQAuk5w6c7aJ/6XvRi7nx0Vo2Z3JgmlE7gmZzfg6gA+3DNQZ/aITAVFlBn0XyMlSUIZ3uKemGA1zgRAFkTU1zADr9GF8OnxHCCFAchZyfkoYt1R1HDF8cl3KBl66dEuDAceUoyuwaMReskINT/v/qKXlyyXUnQ6Kdy6+/1vq8FA9SH5vOFiYjIwAp7QeHWGDqOU4y+SOXnqEjY21j3pfRQFPWw00NcJeiP+XAHw7o8UEj5+hM/8A+oHdpfKPfeCsYZn9OOWMjfAhf7Ms+g1zgifYzOBaIHNkH9FHaG414S068j062jFO0L1Oaskq77LgG9cJHeQZs7T0n6NVPchjTT/pAiSl3HFtTiuFlQEC/ag/vsfJc47HUOdzxjj6SDbJoDy/8FJgma79UnedcTuSvtJvaVeBuK2X4nOk8F9zTHvoNbRI74Evv0U36WtqLXbQlc0qXtetW/XGzLA1mnkNwit9seZ89dc299H9stja0sdsZcGSLtMdS9nJyYAoho1AMZNlh7xKmLdyDN6buA8+hy7MyqJTG6KyRNp0YxpcjPfvKW+s+HOASQahHnBhhGT8OVIQGLoTHeYNHOYAvOq1kShjSLWQugmXw4xQDwYpMjr8IOCRzlfLbflscSIfACV3y/0qHqEx9bF9fRkbwCDgX5A5e9gILwA7Rn7GBZeysDo+d2lomg42EE7uqL0jHnOtL45tyOWv6nfClY+4Gf2KPtLe+Jk5NAlZ7oJ371qZyRPGVPIW3Y8gUYMquDmVY9dcGk8ml8u2Vz1E08wl/ObdAfy4ANehscI/8cpjRY+/Lwelfx+C2xjP4x99i79kB5/AUjJb9+xp1n2OZsWPHspvnyKNj4pz2oIOO2Tk+jC/WfvbZZw91c2xgyh4bWLLfoj8OJ/j5oNs//MM/dDPcjsnvuXWxK+zlPvBcGR+xQ2byadMp/f++eiYHpvsK3Or9dEI6Lp1bOqet4jsXLwrOKbA5zrnyGAWOxKk727m0rfkenuBNMiU6NopKEY2cA/zjkJ0CSvwca1fTIGMoXGMcpmauTkFLq3M/B+ivbJTNMdk0OmlzvBRwFsiQAIHM63TsyRN5rzMyOh8ZJnoQR9k7YIz8lfUZ/AECgaXp6gpe8Ie+wd2G9qXtaAI9/HWsHs6c7ZR2Z4iFsUf4AOcAWYWzPXCszyVjaDIFzxb5FmBOgWRMEmA615/LjhrB9xFAwaiPU5Ev5VuP6r7nki1Vp+O8a6A3ZcPVLCnBqe84mG4sMyOryo84BuAVPOi/mTGxA2SBnsnmJ2t/DHzOpY7IVZxssolPW7cvW+Fv7Jw9qM9rPOv79XnsATtAJ2MXlCO4tO0Cemmjd5myG9x2vdfuTePA1uKjyYEpw2i0WJbGiB0Deg7Aif/BD37QOV46Kx1bH8TwM/7oNPr6j//4j91/KOm4KIVOmbKcEig0XOAUxXUch4bTyDgzzDaGGT32zpd0bk/Jh6Xrjnwnc8E5AJwr/MO7U0Ic2GR2BQWHZK5OSUure5gD5E6mRLbpqa8CtziiZGApSD1jMzLRDxkmfQCnOXjCiW3cZV9S39bWltb8DJ5ocxy7ym6yqwaAdtFZlzf2PP0PR25LMzbG4h/7FOcRj8ivLxjjm9lHAkeBFlk5FASW+vNPP/305oMPPugyFYJT03StYfXleqP61uZrO4OMCS71l+w6Z1nwqhzvwk3QKih99tlnb1588cWbZ5555uHf2RyK85j3I39ZW+4d/pb+mx0gf2SlwaMcCN+W+mr2o6Vf/lnsXAJI+zqgLLngfjkQVZ+zA8rMFrtgiqsBKtfp8BDwbQWkZjb4Ei8w84F+b9Ufhxu78Xd/93c3t2/fHiJtU9fnxkeJJ9iiJf2SyT1DOp5TO+hjWzWKoaPROemUyqASPZiaTScqKE1gKiX/L//yL53y6MSMvGb0dCwOazyHLrhQbCO5OtH8WXTpSHkuo9t9a3101mi3x4slnIU16D1WmaV8O2ZoOSqmMjI2p4a0ZTK72jfrNwQX7vtoi/ZscH4coM/0VwZTu2pPjijnWpsv1a6ph2xzfgUNQB2xfwmEuxtf/UQ/YjfgJ4CCs0ES8lg6zp4HrqsTXeQ0OpU6lqLrKzRn7/rwRAO+uAfwKkHp0nizxfifGRt4dsq1plMZGftUvodX+GcTmOpTAT4a+J0DBg5lNf1Vmg/WKcsmwISDv6DBN1/vFJzqH/G2XJOmPfWhZFdA6v/A/T84h1eQKgPrf1Y50aYCf/Ob33zY7vrcNSCOPVroCNzgrf9pA8vDHA/f6I1AiQywmbbo6vDb53cndio2qT6vKarv1+d5Pv2CPbCnUznPc9n3PR+cPBN7wIbm2TKQTTlDe0EeXaPPTz/9dOe70w3B6hb9cTjBzVTll19++eYv/uIvhkjbxPXIwdz4aK04cHJgugluTkCCMlCEOHoMWKk4cQQSiApMXctGyAR8OjDv6igoylod01jSdJZwgZfO1Jf5TO+hyEb54RqHQAcN+tb6tExqP8cjFwxrZMh+KwA/jkqmGQsuZE51ImSYE9jg/DhAp+kvp1RnLnDL/2Vq86Ug9SQjo64p/4PoefaF3QSCUnj/67/+azcwwhaVMwyiQxzHY6yZncunXXjSK3xLJtP50h1z9DozNvRdMmXnDpEXfSm+sVtkRqZzDmiHn/3sZ13gaM8hfO6557o+MAGkIFTfmA8Z6cvZ8wxMO84gs0FrU3dv3brV9an4/vOf/7zTw7fffvvm/fffv3njjTduXnrppW6AkqO8BqjXGm/Od3imb2fPyYaBENcbPMqB8I3dBGTMRj8vkV+xU/w8YH9IZrMr5MEPXpGz8Kw+z3PZe5Z/ue95+GkjOk++004pZ2gvkcRWCPQMuGe2A51WJjuwJX8cTnBjV9ibrUPkaG58tBZ9Fx+Y+lqtNPXHH3/cjc6aAmv01LQASsV4JUNQOlJhOKE3bU1nxuk3sqoTI3inBB0xXOCks9JRvvLKK92xNTGMAECjDXiW4tgE5/aea5nUjj2P/OAZueC8cKajwEau3YshfuSlI56oP04xWQAybNoTvnB0f+mMzhFJvKqqMnKZ9tOW2s/AUabLHMIQ8qsTz6aeZDrJCjs45X8Q6QXZ4jA7BsrTwSVzmkET5bM1nBGbY++Gti3J6BCe+PPkk092AQP9yiwFtNmWsgfR6zjUsTvaa8l6DpGlOe9GXtAnWNRfHTK4qy8zqKIfJ9P6aBkVNvv555/v+vh9eOrT49TW/bm+NdlTU4/VYdDFwG/kndweQgP8ar2kH+lvDErRkWT99tFzjffDP3wjD9qJDGxlJkbsepIh9XndZvX9+jzPh257YE8ncp7nsu97PjjlGfvoaWyy/S4/wn1T5vc9H1/Tc2YfADbN9V0gEKWH6njhhRc6fTOzwfRf9G7ZHz/UNuziy1L3Do2PlsKjLufiA1NTcox2yiZRBEJu3rcg1MbhiHNhX0MchUzvoRRGVk8NRtThgj6BMsVFC0fRXufmf0yNvALXjLwzDIwUg8CIx0HFH+cMUxxi/IlTHMPTFXYFP2QB/XFY8MYABzlwHY+2AMEzQYDAIJlTX0vTfg22zwE6SRfpq40eLvl/peRXRlPQaFMfm0A+DvkfxNhHziAwTZf8CdyAQRP6kvoFr6k3zqMytgJDeMLZxs6Cte0BvcbT2Gej8FuyO3PbK3KOLsdzQf9lmq0s6Z07d26+/e1vd1NtTdvNkpa5ZXtPGQJcfas+1cC2wMf0XsCpt7Tj0Mxp5C16iS59y1ozJTrkL+gn/GPbHKc/pCuOTw2R9wRg9lvObOp32GN7UJ/X/Kzv57x+ru4nDCSNyZwqj+8pIUAP+e/sMB7yfbfqj9PhLfVrdXvk/ND4KOUsvb/YwDQjTYyVzciLjoZjocO3jenoOQQCUYFgRlFN9zk1WDhuvQ6cdI6mU8gEUwgbhc5HJtDPUdSRUm4GG384B0YaOY8Mps11e/euOZMaQ6qdTZcW6Cfbg9d4vAUo8dSOmZoJ1wygwPXaBha20DZjcIidSqZRu7mmzejqoXLGMaL/5NcUWg6wwJcNsB2akYnjAFfHNiPZ7EdoMksFDupmW2RmTfX1zlbkMjYPn+CODsFB1vZyjIDrpT1gVzMohJ9LOSPK0kfBR3tpxy3ZnTGy7ZnIN/zjpKOJLJCJuaAdBI94kmnj+j+O6xKgTZVnYDLtqq/lEH/00Ufdx5Hc4x/IjGSK4di6a71kt8mdujje5C6DwmPLvKbnIldsTNas0z28s021mynPHtTnNW/r+/V5nk872wP7LWc2g/fSe/rK1hvoMcuB3pQ6Y/aC2QjAesd8rZc+Wyfu42P+vsl7dN5Sti3743wvuG4VIq9ssG1ufLQWfRcbmDIADL0veBFoo6oCU9OxGP9s+xir82HoNB6nUcaMY3JqgIP1ORwjU5jgmOwe3BhmGTMKInPKGQDeE5BztDzDWHiXY4Zn9mjFO9mNa8+kkhP82vqar+AZGdBha3eDEy1z2on+Jn9ipzjq//RP/9TpnzWlS43402XZBEHpOw/+H9M5fRf0mEEh+CI7h0IGSASdymdv2I4Ewup1LBiVoV2KvkPxzvvsXTmCP5Sxip7FHqALJDM81SFO/fW+rgd+57jWNPINf0EduSCL9q7NBQPMf/mXf3nz+uuvd+tCBZEZIJhbZt97CVBNIwTWs7733nvdsiA4cLQNDE91Qmu95CjSe3pJ9ujJEnrZR9MlXItcRZ74LfRjrl1JecoB9teY2VxbNpKhM4vRcSAfOXJumi4/G8QOpl0FuPoX+nNO/nhHzIZ+Iu+HxkdrkXSxgWkYZnSGIyQAI9xTHQcdjuDOFwCN5FAmHarRGiO2a3SGwb1vzwEiTHCAC5x0kPUIDXozjVNwYtQ9ymx0hHLjRbbUxSArm9K3TOrvPgYQHnG+o9B4xGgulSEJ/+fuExh4PwMnOm3tbiMPW8J3Lp2X9h59o2tx1DNQRHcdzwVySt/T/o61P1nm/MYBdr4EZEQcznGqZQZkM0IbHJIFWqreQ3EPn7RBuUZtKGMVPYO/YzQJuB0vmdGs69mK3clIO3xszkuo75NvPLKRh8gj++n9sSCjkjWh+nSzf3z1Up++ZKa0xkdfKWvj4ytkHM4ffvhhR4uvC5uSyAcYG5h6Hy/CB8f00kCxQR16SbYO0f2ahks6j3yRH3aFztJdbZPNYH1kK89HTuvz8CbtkvfsrzGzGX4svQ9/Y2cNnJNxAztsnXahC+wFPXeNXugvYos97945+uNL83Op8g6Nj5bCoy7nYgPTdOyE+6kHQRij5Xgq6HRkXCmDDtAaE1/r01mN/cjC1Dp3PS8o9Yl8OAA4wQ2OfUGyTk7GTEdojSSD7hhP+jJp4Rsj4BmGglGJg+H9a8ykkh1OQ+jniMwZ6NjVtkvcgye8kjll7Le4NnYJWi+hDO0jo7n02suUS9cd02UZBfaAjGRbi4exO+QwOKjTdTZmKxA+TV2jhhb2gG1EH5rWyGimnq3YHfTCxdaXUdJP5L49hzOyZp/+JeV4fgxwSAWJPuxnXSkbZ3rfWpnSGid9q7p88fe11157+Bc1vrxJpjPVu36vPo+8RSeilwZzoptb0o8a/1OfR24EpWZkRG/5K+RRX8eW8vdA5DFyVp+HHjyPfLpWn+e57D1rICptNfQ8PNwLPvV5ysu+vp/z3D/XfeReptRMPwkVsxDM9pNYMZhghpfAFeAv+2qwxgyCst84Z398K+1HJmNv2CByhudbgYsNTDGasbIdAsqx6ZSM0vrgAuUx1cBoD8dLp6XTXBPUJ4NpsfdPf/rTrmNUP5zglkCkxgH9yb4og2Fn1NEgoI3j4LkY0PCN4AZi0L13jZnUGEq8i1ORgQD38G4LEIMDF5lT7cVB1O6RkS3huwWenQIH7aGzJks25zpiGyd1qt1Kecq0aXMOmuvaW+dzzIGUyGEcithjvEYvnNybSudSbZXMSdaowUlwwQlKVndXXfBPYIrf+JyAbEn9Sj2xO+pZMjMbGsMP5ducg/p6ZMteP5DnUo533dNfuJd2z9IRz6GJjOM5/uNbAoeU07c33c+02RdffLHLlvrQ0VJrSvvqK68lc6pOmVrnZgPImpo95br+AL0lhH/hG3pPqZclbmseh+7IR31e113fr8/zfPwQsiMIxVfyZPOOAKeEyKM9KGW7fC5yGntkv8s+uS+gGvt8Wdc1HYf/7Jcp/L5sbf0oG/ad73yny4biI7/aNHk+qvuxe33fItBW5+qPb6Xta3nfCl7B41Ermqtt/wccMFKrQ7To2v+amR6bKWuUZO0OkhOgA5Qpfffdd298/OjNN9/scILbPqDoZSZNB2mEinF3Pc5YDG1dXhxN9zm5OghGxz6drg73Utekhn9rry2r+T73PPhyoHTiOgaQNcbloMPcOtp78zlAZ4z2Z8Q/7UUXHU+FlGdaqY1u0lOBljIdzyl3Kh55Xv0CjjiOCVBds5ZTdqNvxkbeX3sf/OIwqc//uBqhH6Mbaa8MTqGT/Vt6JkXqid3BvzUys+GH8stMaAIB123o9Cy8yFadKXSd02lv01/oO7Lhs/cFEOyS4K5c2+v+EHBYBabWYtpMoz025Gu9+l+465P5Aqb6yuTUgWn4SifRie5T6uWx+BW6yQ+wL+WqxiNyVj5P3nKe5xOwOidTZCy2zXENrrXMZs2V452nXxr6xgG/UzuaNm3gyfpS2VTtpt8a6g/P3R8/XgucZ00tMB3ZbrJNpg75DybTESicT8hTKlMSdExrZE6TKbXGVX02wQXFlS2FUzJhu0iBZxyucg0ix4zTg55kazxbd7DlCEvKUV86lEvPpIZ/cbDxa421ZbvacMq94Kt9dNzax2AEiLyQIc81OB4H4lhxuuiePZnSQWdwaAo2HECymACr/LqnoEHb20qdnVL+3GfJXbL16k6Agn74umfGBsj9uXVNeS/8pwv0F79cM8iYbOmY8qJfnjVoGFqVt6R+pR48chyHn9zs0t/Q6XmbczB0PXKkbcq1dbmuPb2bfoBs4VktV9pZBsT1Xe2qHvjb379/v8PNjym7fV/n9OVbM4RkJk3/U/cpQB9vIBptgmSBpoBLcGq9Vto+fCNndJOs2eMfuumkrebfsWmKPNTykfMan7HPh357YF/KVV1u3/MlDrlPDh2Tv9Jmkrs+iDzmvv0uuewro10bz4G0E722sVMG7KLveJ+ZQext5J/e0H0De65lXWnu1xh4/pz98Zqedv4oB1pg+ig/Bs90jDoia0zeeOONbkoCJ8SIKdDhrJE5TaZUQJpMAxz8ZY09nKb8ka9O0ShUOlA0JHMaOhiDGPKOuB0/cZw8r6NNx2FfGqZLyaTiX6bwGfFH/xoZjB0sn3RLW8pMCQK0M+fo/7N3/6+3VNf9+F9JMCUpKjZEiaJ8osQ3USLkJqRJKmKLkP7WH/2h/8z737k/XloKoQm5rYlpmqqgeIV7Ud/ckis1qERpCobEj49Jn9dxcr7MOWdmzpw5a8M+M2dmz95rP/dae9baa+89QnlOd4JxsMRe3F7WeEcU8I8X8bqXcJNozQ8Z43XNiDRlbg67e4YudeWxiBGjX0Cv6/iRQj+l5zT4MxTsgoxO/aEpY/vgn/507JkJ6Xei6G3zzKae0rc9VfB3LdF/QT+mjET/Bf/bHtBcT/r8bxJ//OM96Fpirvc9rtudM4ooozTvrr55jpEu9Gj3eH/t+B8PcvifV5Vs+o+/yDl5p5TD9tghfBI+cGzzS5e+8E87PV7K/6Tv8kf3f9LlGD6TTuimV4Z+IwNA+pO/+7u/a/CUFt+tCuHH3M//VWnr2uEIhO/1ryL+oheK+J4MpI9Zxf/uex88/fTTG/vjpejjhyO+zBxWS/My63pQrbyAMppz6dKlZlTXRkg6cXPjCSBD0YjuELv1MkhtdGRNqem7DFNl6YR9TJxxRIjRtEvwvOcExokXCgXZyK6XqLDJc9okaP3o6BmlGYnMrbzAvEjUxX+R4px7Rp91ZDooz6PNsf0/L5Tke+wj2mKYoj0vdi9O99RhTgGeRpYFRgDDVNQGmYY4R7rnhOGQtOCZeE/IAgVrF09daIkMkV0yFjmiGB9zd091IhOUdX2Kc3VMf4VuI+MGxPAh2qf0nCpfmcoms+SDsYA+crBrSH8Kf9irt7rBgUGXvnbXfLvpI8fyTXuTX/WBcaL7gv9oEtueqlz3XNJKn35cHdCsPMGxjwe0SbzDDzrgDy9lKxP+puvabR59Al4RvVPjIQttOxQ3eFJLd3xf0ZRe72h9q5lHwVcb4QPyKUQG8FnbU9Tc7PGjreSdNuv+72bRvd/9n/Sh11FwbPNL0uW4Kn1oShrH8FPayrHNV+20zsNn3fTkS5nk1Xpe9/EBDINlN6/6Pz0C4Yvwfbt/1adoLwOA6/rD9KPaN++vTf3xUvTx6VvqNEosw3THdiI4ptDGYPKxbd81s4W83fpsjDDEbr3ZfddGR9aUMiIZvoxSo/uUnnTiO1ahSU7odRQxTrxEeTW9YIUoC/uW0e5ojJZFgXKkLFFKTnFNahc3dRljbVnTCAP+eCEYiTQd7vLly41yK3uDBpteGAOSUFl9jAC+N/PBkWcT9ptewOtASz4UX7JGxoxIU4Cj5Ls+daCgoE10nn4ATc71K+ocrxfjdUrPKXnleSGzMIuSG/r2xSv9AuNEfdRdewwVYMdAfPPNNxslPcYApS94O8agkx5Nif4L/q/ygGoXaRLzfuteH6o+aQd7HCiTkYEvvOf++Z//+fan0Bildr61poxy69NvpsweOxgQNgj99ttvN7vkU5SjnOOvDLyom7XL+Cxt4bhriFylfR3n6NlMvcI3XT7K/6TLcV361Juhw/Os3uRq334z5dVxWAQiz+F7uWun9K/eS5v43j19gH4tAzdkZ1tYij6+rZ7ndr8M0x1bPFMIPEaILNT2cjLKSGnwgjKKStGhfBlZ9RJjAHrB6oC9bAWjw/KwoRIDgVLjWS9nSgZPqTxdI7im7xJeioUpvIcEQo9GQdnoypQjHp10EOlQ+nQSbXrkp9MQU477XizqZmTtFD2pXdy8MBkHXqBDekjaWA5xrh28JLxAtAe6vUSEDE7gsV3beQjaziGP8H1GktU5hpG22Rai9Go/kfzIy3Uv8m0j0tvyH+q+eqKNwRnZZzyljvqF9Af6OUE9PLNul/AhaAt+6IqXDma8pfq40LdvWZ4nX/I2mKi8GIyr5Er/Kk2i/8K666E/7Q9nuMHWPf+Th3zS/7oP79TPcQwPqDI3hS794RF0agOywNjQPt5D9lYQTO31vvQu1U54ZNdZQpvo2veePtPSHQN9sP/ggw+aWU3anGGqHgL80R2eh4M0CWnvtF33f9IFP0fBcU6ezfBX6B3qmP4EvziPnJG1scocivYl5xN+TH+Ep9trSfE9edZO7f5nHSYxTN3fpT9eij6+DpdzvV6G6Z4tr1PkOfXC9KI3zYSBYjqsyHC0ONt0HyOrXmKET3ovY8FLiHJGuK1VNSXo5s2bzXeeTGcSvPjsvqssHtM+Qt482PMHTToQOxwyrBgrXqy29TalgnfW/bxYe2a7NlkMO/hRRrxsdHKOcEgHN/c1qcHNYMLVq1cbuof0kKwF8MAb2jGeUxhTpIXynB4I7JbH8TVPKWNCG+D9XUaGyQa5zNod8iIfefC8UgDw5LFD6FRf/Qn6VtEV+dEfChR5nsa+u4TvWs/QRcHVBw2NW/o1+eo3ydWmmRT6PBiJbc+Xds11R/8F+cPMO8O5d4g66Ud5ESlz7rsnuO88Me+c7vUm8QQ/wb/Lv/GUkod2/UKSwVsR3e6LBniPHdCAFvxr4Nh7+x/+4R+aa+12oaDjA3FVSHunnbv/84x2VF7at/s/6XKUlvxtSx9+6PJH/ie/HNelz/2hj+Eb+OER/RwZ0/elbkOXWfltRyDtEnnWn6V92v2R/qlPO+FXeqbgfNewFH1813ovNX0Zpnu2bEZqjN4yHhl2Xlb5rhnFJN5THlVpCI+RVteF7LjrZWT0kzHKQPUsTyxjlkHqMzWMXMbu0KPFOg2dPNp0CF48XgIUxXhOh/SoyV9ZonIT8kKmOJ6CJzW45QXZVjTh2KczTt2nPKItU2ZM29bOBiO0Cx7WLmj3v8LhCOALL3F8DWfn8Bf7jAx3n2fYMli0E0WAtymj0odTu38O8fTou/AUutUPbWjthsiP623PqfoZ7AlO8jiEH7v4yZfMomsM3FIv/Zm6wMOMGPUQgpP7aBHbnq/Q6760Ce1+U16eMxAqnf/ZvGkV1snjGMfUBxY8oWQA/+qH8G8M07wLvCdN1TV112wj70F15Dn1vz2we4z6pEztgRbtrX3tmq+9rIV1TZukrdvtm+dzDD6OgmO73ZOu3f6uaWeYrWtv1w2Y5/629ClnLsfggsdF/3fpN+dSj6XR0W0Xfb0+Ds8bhNGneidFnvvWP/1m3/TddEvRx7v1Otf/pX0e2PIRCMYbYcx3zYyCE1he0Ndee615uVK4vMSMAAtZP8PY9OLwUmZ82nnQS8W0Jcapl7SXoLLGCukYdP4Cr++UHrWUDwcKC2VEJ+hICaPMMJjn5kmNoRf6tOWQHuah2zs4d9uZ0miEXX02KTxD07P0/PAuT6foHL74Q3S+LeR5Cj3lXthl7c62/Ie6T1bJgOg8fIaXnK8LwUP/JqhnPKf+U8gP4ccufsozok956oM/GvqEbv2Vm4E9ijWlTdCfwYjxofzEYOR/5NB5rsPBuaMgb/mGp7bh3Dx0hJ/gr38xs0S9N+0anfepgVi73MLVPg7emQZ01T9LYY5QndtFogEtaEIbrynj1FFbpN7d9r2dwf+epL3Tzo7tdk/6bvt3/yddjt37+Z/7cz8Gv337zbnX71TpS7uk78Hr+itHnmwDMvj3WCH9x6nr48fCby7llmF6YEt4MTFGRMqHabu+acobRXgd8/LiIU1UbLbGp5QxSAk3Y5Rh5uiD3VHYDiRz6+NeXIxCHYtz0UgvJSpetdCy6sW5tYAtCVJ+RnaTPIrcXD2psGDkMRrSWQ/pYQ4OQx2Dc9qZomj6pBcOZdd99XG/rQgPVf655ANXSjXZMciDN/QPXt6bPHV5LgMynsf72gevyYNRmzzIyxwCetGJ3sgwWrfRh8f0ewLPKcwM6IUfXd+HH4Nj8EebgCa8nTKbixt+kg+6RP+F7nX06ivRrt+EhzSph7ZTJvlyPXKIHteDk2OfNaBo8VzoUp48xWMG9KhzIkwMKPof/s2um+16h+bgoo14gdXrP//zP2dhjIbGVUftZtmO93a7Xq63/3efTXs7CtvSd59f2v/IFb7xTnWEn/4ufd7S6jzn+qyTZ9cjz336q6nquBR9fCq85lrOcd9ic0XlALoYJQxK05GM+PKSEuIPP/yw8ZYyTE1PEhimBMkUYCM9lDQGLgPQMQbOAeTs/GgURcoDA9nLgZcy3hrK45QewdDjhY0eigo8HSk7UXyO5UnVOcMja03RJMx9zWZwzZo4RikMh9qVeWfGW9gDeDTKFW+RYHdOckXRWhfyHEOKtyDTpDyzz9qddeUMfR3fo1edjaDjK7LRN0SOumvdGTUCg2WTgt8tJzjqt+Cvv9hnN8/ko16b1oKqv7ToVBf9FQxcR4N7bU+t+2QwMQalY645rgvKYLCn//O+mLJfXkdX+EB/Iqq3fluEfwYF0L+qfhms9Q71WTabCj3//PONYerdGaP+2F5TXlK0oAnNltz8/d//fUOzenXbM/+7uKW9cz//u+nO5X/kzUCeKOCbfaaHNg/Xz0EIrJNnfZv+JgPY6bMOKmyEh09dHx8BkpPIsgzTgZvJi0VkXBoN7wYvNFHwcj32C7ZLH9opTaJOhwLBAxBviPRjek430dNW6CmalDJ0HXNNqg4ZXaJzHTmFzHmmuHTrNIf/aed4JihZjKB4mNxnROGDCrsjED4wNRW2cPYyN+q/KlDIPAN/hgy+ZpRphzw3R+VM3dAe3nGuruq5C+9Ejjyjz1HveNrIk3LgkD5J+k2hiz/59DwDSUAvWuUrpB6uta87l5fYXiuY6/ohz0ae0J/+wFE50gjSxKB075CQfPAKBR49x+xvgkcGArQZutApwr6P4czA5nUULGl55513mqUsBnb18wZGvX/GXNbSp120OVrQZGDZLCmfivurv/qrPo9Xmg4CkT/9H97R/7m2rd/sZFN/D0Qg7aDPyvtIW9C1yHj6af2oeGg/diC5Wx/X54qnqo9vreBCE5RhOnHDtg3R9vnEZPQuTsdjF1fKgrVfFA9has9pl+B0kBRBHaSOVMeZDjWehKk8qVEU0UAhQ5+R3rkHdFMY451nSMGMEg5XikGF3RHAf3bhpWjBN5vTrMuJEsDjaNpvPHzwp9DPadfdLv34XV27iot+Y5vx2M3L/8g1b6BASYXLrruEd/GXn4jfYc1g3OQBjTGJHs8kpk7+MwS71ylB0iRqf0GfwNBmeGnXQxU65eKrzNRQ32P2N+HfrCX1Xz1hji58jOZtIfWSzrnvedtQyPsmfTuj9NiGqb0i1BFN2pTiy0CtsB8C6UfI+5UrVxpcD/nO835U1FNpB8Zoe8YOWSbH+i1ymXjqiLV18Pb5qdfr1Okvw/QILXhKAsDwi5cn62a9kHVcpiF7MeuspJsyUACVKbaVPPRQ0tA3pSdVR00J07HDJx08WtyLQjslRn3KQlfwg5dAaUe3QQi0H6N9+9A+xzThP9jBEJ/ydMYo6tIcfsGvBgUYMALMKfOenfPaKvVFOwMssthnbWlTyRU/kWsDIs4FBl08KUb0M4iCN6WBYTdScEWyaJpl6JTeNXGTBzSkhZ5914LChFw54gmypS5oP6RfiNziE+dT9zfrPCtwTZ+B50V8nD4muK47winvG+cMUNO7vTO1l80FbRKYWTvr8hn7ujZFC5rQaY+IYxvLY9d5zPwjn+k3YcoY2nXmxZg0LjnvvIf0TdpAn96esUOG+8x4OEWMTkkfP0V896G5DNN9UDvDZygWPKcUZ5vlULqde3m4HmXi2NBEYcuLzQtPp+tIaUK3DndoTyplrO15VFY8JKfQoXfp94KK53RO7Xts/tpWPv7a5Xul+MTINKOUQoB/rUUlT9okcVu5x7of+tV7n7Wl6+iOHDNshHW7hJNzZYs8oDmPgos+7YGX5Sl9MHV0TXDexwMaY9nRs4lNJit+5Ev+Y0ihR/9pbeIQ/YL8YaTeU/Y3MYQpsEN6VuAZIzbY+g8vn1Ozy32m+q6Ae7JLPNVoQRNDGY3orbAfAulH8DCdQv+XAY3CdT9Md3kq+J/ajJ1d6lhpTweBMkxPp62OSimFLqOXlASKSUbWoih4OUt3zBAPBzqi4KCHYUp5o0iN4UltK1Tyhw3DHU7HXPvVty269MdQgtec2rdvfaZOp5293OEFO+fxGPH+RS7iaXIfPxoAoIz5z8iglFnbO5eBnnU4pr54XFQv9Uwfse65bdeDj/xF/3krYQMjHke86t577713+3oMM/fdI+/oicHQNii1xb4e0G30d++35cp01PSZ6jLEd4NjmE7V38AW7WN5VtJ/B8esOWUI8lD6lunjjz+e20c7+izMzZs3G5p4S/WRaK2wGwLhp/Qj/q/qN3fLtVJvQyC4k2Wx3X+SQf3mKczY2VbPun+aCJRheprtdjSqKUJtDwAFxdpT03zn7FmLgkgppfyP5UkNPnNZ+7Uro4T+eHhOpX13refQ6b3ceY5E58GRrDhPoBBQAkwz5cljSOFHBp1dW523B1Ty3NyO3frG0IshuC+9wQdGPKDKcc15lCnYUWSvfvxdTNiK7rlGqaJQwZMnK3RlYMB9fUGi/0L3+r70r3su/JB+wQBGPLQwC33rnl93vZsv3MZca5p2n8qzoh8iE8qFmUFRBv6xAxreeOONRn5t0oTG9JnHpu2Uyg8/bes3T6lOp0BrcM+SB/0nHhaXuJb0FNqkaPwEgTJMP8GiznogEANP0igIRutFiqAOj6JFYZI2il+PrEdNgg7Kn9hW/If2pAafKOg6fMqiGExGreiBmYd+2bTbl9Ivwu8U6nEgDL0fj4ePAU9ZpzzDMC/58FqMqniaKARkBl/CkyE1x1131wFBzlMH9eWdZASuM7BSf8d2CH6ui+RR3mJ7DWg8p8HLf1iKwZiR7xz2vC5z+r5e5Cr9gv4ArwSzdbi1sVp13s0XhmP0N+kn9QHohrW2UJ8xPSvxmL711lvNZ9ZMnVU/3lObImW98SpsxrhmNowNmdCAFp9+w2flMd0N7ch9+k18RRYyqBSZ3i3XSr0NAf2DvtW7x0ZlGeTzDhLhP8QSg2101P1CYBMCZZhuQqfurUVAJ9b2nOroLl++3CgqPKcUQy+XfRWutQUPfCOKHToptEN5UuEDAwrMlGu/hoKn275eZkOujRuKzmPnE0MgL3r8Y8S56ymFH69APE3+kw/GqPQUApifSkA/pQZ/r6pvtx6pv/TtEIPHdZHCCodE8in4T54cYes5HmcKbdLESLKbp7SuJ7bLPOZ56oFf0i/odw5VxJMvDJPvkAqmfNt4o3kKz0q+Q8jw+/KXv9xM375+/XozpffrX/96c23K9mSUvvbaaxdoENCENt9dndpInrLeQ5fV7Tfl3+c7z0PTcW75pR8+dPfsc8Ot6jstAmWYTov3Ykqj8EWZ4lmjKBpJp3DxnFIwKYc8KdIaXZ9jQBejVEx90BmFWZ32WZMqX0aHfCl11h1mqhclEiZzDt32hYN6UChOqR5jYxy+ZyAJMY6y1jIj1O6L8TSRC/IhMkrbvNdkNNOf1IenQ138j3z7Dw/XEvUDgnsGNihGSe968vOctJHH7hRcaQU4Mbjk4xuXAr70rGcYTCJ85xhiQKqnvhIusHT9kH4h+coTn8H1kLXtaRc4i+nbXcevU3lW4CQyAO2ufOPGjYYWU3q9Z/RFDEI7xI8ZlOc9YMOjF1544eLNN99sykcT2tInjknDkvLGUwa2vBfJLnnFU/rNCsMh0JVjfWV7TwP96Sm+h4ZDqHKaIwLztBbmiFTRtBIBChFFMaPFXjR2wLTmVKBU6PwYaKcUYpihm6IbhdvRSzUd/Lrdfb1orRmEy//7WFGkMAqM+CE9GWNjmval+J1yPcbCCS/whFoDme+NetHjeTzE8HAfdtLipSk8TWPXl5EZA9OUW/8pPBQhspFIXgT9gPT4qd0f+J+1ls7Jm3SJnmuH5OEaOfrggw8abJUD2+DefmZO55GnGDJ4YoiZCMk3a1jhj8/2DeFrxoMIX9gyHsLnypwq3HPPPRff/OY3L3w/9Ec/+lHzftHHooFhaFOkMQOj1PRhntKf/vSnFzY/euaZZxqa0FZhNwTwJw+8QRlyvO07z7vlXqmDQFeO9c/6SfGU30OpXx2XicCn3/rLrGPVakQEKIoUFsHLmyJpmogOkUJjNJQyEyVC+lMI6kFJFlM/dFPQvFT7elK9eBklnoEJPA7xZEyNXdo3ir96q5MQ5ZpyeCrtOhR+4QMDDtoWv+Sbo85hpL3di8EGJwrBHAcm8CWlJdF/oXtdvWJou6fdPcMAF5yrN3ySh+vhI7IkkivBcZ+1oPJOGTylsHUUyJvQLqe5MIOf4IAUg1T4h0zBL4N7+8hT8lXntAneE3fJL+2HJoOMjnDWTlkH7aicKYO+5uGHH2685L/85S8bHrt27VpT18cee+ziK1/5yiie03hKrXFVnqjdYMpbiqb0g1Picaplres3DebBtMIwCESO9S+1lnQYTCuX6RAow3Q6rBddkpcKhdsnEBhelBoK7Kuvvtp8/sKI6BwV8l0bJQogRY2R4UXrJeDYNkTiSaVwUg6loTAzWg7xZOxK71DpKaLWDltPZRfmU/UAD4WHNjXiT3EX8IKIP3jA8L+BGe3ueqY+Op+jAobOGDK8v/hZiCKZe/gZnwvq0TVQXGt7QOEh4Hvnif6vut5c7PET/BnK+hVGqYEx18kZnOe8S3j6y3g4g6k6HNJPypeSD4d91pqiQ7+Nf8m49prDd3U///nPX/gsy6OPPnrx13/91817BY28mOGjMTyn8ZQySMk72UCDT9Y4ogltFfohELnFW/oOcqpvdJ6+ol9OlWoTApHjWku6CaW6N1cEyjCda8ucGF1eKl4uDDbKEcWTYkRxjOf0EI/AXOBQL3UU20p5FHiGCmXGfzG4OPeygIcNcOJtCl6O0kZhn0t9Qwf6sv7HNG2KhaheS2jX1HPbkQGnHeNRcs4QoGAJaV88z0AiC6L7YptnmgdG+sFfaE2M93Ld9dRLfdq74eY6g1Td3BcYgvghdcIfguM+HtDm4R4/+I1yi/ccyQtPNToYDTB3T/sYRBHSL/XIfrIk6RfQ5hyueMb5ITMqYpjCABbab1N+aV/lizFonYdv5/BdXUsJ7NALr0uXLl189rOfbTZC0uYvvvhiU0+G4v333z/Ibr36cBsdWVNq+i7DVFna5xvf+EYj82ipb5f2E5nwWbff1HeaTZX+o19ulaqLQPBdJ8d4FdZiBgK6edT/QmAuCJRhOpeWWAgdUbh0gAIjjPeQYisc6hFoMpnhT+rtBUtJpkDnZUHZ80LmiYCD3YuNvntZUO55SDI9bu4vaDTzRNl4RD3US1hqu3ZZzYtfO4pR3uPhMhDDuPB9TffwATngIacMUPSnCngP34kUavwoxLDLvVzHv+hL9F/wn2GTb6yql0CZtNZQHaXNgIqj/4lN4gF/0E12GF54UfmwdRQZxQIj+hS+rwxfPKK9GJJwO2RGhfzwYzyx8NqUX/gZ34rogKP+KG0O57kE/aMptOG3V1555eLnP//5xcsvv3zx5JNPXnzrW9+6GGK33uy+a6Mja0pN32X4MkrN/iETc++r59Jm6AifdftNvIpnKxyGQPDtyjFZJv9kGM6Jh5VWTxcC4yJQhum4+J5d7hQGL2yKa5QHHjYKEsXLvazJ0UlSxJYQUm/1aytyMQTgYZOMfC6EAkihFngDvFjg4XmYOLb/B8tjY4UuSit61ZOBYEqdMFfP6UcffdTQ95nPfKY57vMTT2M8ogxy7cRz6F7bo6jdYMPgEIcYoU75+Eb0X1h3XRptJK7ygOLL5CGf8K/6oF07C+qY7xMzcNWNsqNOMcibhCP/pD7rPC7oFtSDESG0PafqOkd5QlMMU22lnhk0cG/X/lF67Sc6X5dfF09YKVe7xxvOEy2fOYVM6UWTNvUd0bfffrvhcTvl6kttTIRu7xmbIvFq6pvuuOOOhj/SD+gX5GFDJQNrjHnP4h9Y8JTK0zVtYfqutmKUmsJbYTsC8MVr6TfpAPhL/5HB2O25VIp1CGyT46n76XV01vVCYBcEyjDdBa1K2xuBKEhe5ALFh0fJUfDyn1KxbQo9wk9woPBR6K3B9XKm+ER5tCbRyDzFlGLtupc2fPLyjqFwhCqsLBKN8ZzO2SNO+YxhqiJRSldWasPFKPj417odhp2RaEqW+ruvrbXxGCPUKR/fDOEBpWi3DR98h/5E/4UoPnjWaLz76je1p4NsrPJUd+lQJ9cy+BXPKRmbozyF3gzqqOc+a0O7rCtffS9+WZVf8MxaUs9rV/0NZdZAmjzmGvSHPKfamZf89ddfb/pVA38iw9HGRA899FAzvdf6U/WRPrzNaPIegoW1qqbt3rx58+KNN964ePfdd5uqG5Sx+66yeEz1e3Pri+faRuhKv5V+07X6XikUhgmnLsfDoFC5LA2BMkyX1qIzqY+Xvxd4PKeUAiPXFCXKohDl0T0K7xJDcIAFpcaLhPLnOqNG3b28hXix4mWlrEovjedh5Nj+HyVrauzQQPGl3PGIa1NKLnoY36F3bPqUH28HJZPXA54ffvhhhHcbygAAQABJREFU4wmxqyavimBdGo8KzwnPCzzxJD6MV2Udvdok3jpH5WZ6urp7jkK/6wi1fNCb6L/Qva58vCC2PaDhFbS45zn1Qo82wGNtZdq1XdaAkldGqSMatbv8xCmCMtUr2KND2WQogzZtOtQ9tOEHgVIs4g154Vv9UnBqPz/1eZtefKye6kiWDukfI5/qrf3UO/2Jc2UwWJ1Li0/maLiva494Tskt41GfQ64ZqIxM8hDvKY+qNHgfBq4L2XGXDJEpxmie1WcwZhmkPlPDyGXsKq9CfwTSb+JBgWzqI8luhd0RSH9Ibpcgx7sjUE+cAwJlmJ5DKx+xjlG8KAW8SRSlc97VNQqjo+hFbS2Xcy+dGCBRHLO7L0MjCvkcFMi0azziWUvMm2iqW+qm3ccMlHmKJ+OY8pNp4++8806zeQljhAIqUEgplnfddVejyMLTBjn40vHee+9tDLpV9FIC2h477WStIwPH85Stfb7vqM21tbjJE8rgDM84wl9IO6CD8h1DNGncF2NwO+aa47aQejNiUk95TxVSfjx7+Ilnb9s0UzS2Paee1+/wnAqRp7H5sy9OoReP4mP9pLDvzJLkh/+z5ll+2nzVWlL84xl49OELec0hxEBlcJJnhqU+gCwxTnlBX3vttaZfhYVpu5lBYfYEY1afoN7kh/H51a9+tRm80ScwTi3BMEigrAq7IRD51R76R/2kdqqwHwLBs7uWlKFPjzhVOd4PjXpqqQiUYbrUlp1JvSiAXvqiF5L/MSJ0sjwElDGKvvvSLTlQ/hhzjuoffPJCYYAwUuDC6IKL6Lqje/F8tBVJuLX/y3fM0KbbOfoo/erkpenaJs9U6oLGXdqdkckbSmF/7733/kQR5fXg/XBfunhLleM8z1JK5RUvmu8UrlJEKbLhU8YNo0GAdzCgFOQbpgxDxial2BEugqP/ibnuv/zFtic019P2KSuGZ1dO/N/FE9oQteEn9OI3RpL62J01vLvh0UFupXzeaIMe5EHAK308LowraQW8AEdtl/xc38Sf7k8ZQi8+0Mbwxm9wMNCTuvSlKfnJSx6pNz6Cg75CDO/umn9fOsZOl8EmxqW62pXXN03zjnGUhjFK3hPRZQYFY5PRySCFQXegKl7rseuxtPzTv+s79CH4Th8p4rsK/RBIP5j3BjkmvzB1LXJ+6nLcD41KdS4IjKu9nguKVc/eCHj5W5uoc2XI6GCd88bM+buDvSu4JaGXMk+O0fnsUOjIKHG9bXjAxAveC8iR0gov3qu5eFLzYmQsMFwYpWijEAoUEm3eNaTUg8dR2KXdGZaMT+vAXnrppdtT9yiZDDOKKeVnl6l7jJ51U/e0i/ZRJ0qWNtCG2kZ7KUvdM7CgrdRN3OQB1Z4C/OSX6L/gfzzPzuHnXiJc28H/3Ese7fu7nqceZFOUvxF5dUbP2CHlw7y9pnfX8tHqGYM5AmOvD3+OXb91+YdeAyY8vHDgId434AXypw1hiY/wLqNcvnh3ivbcl/5dn9POZj7ceeedFw8++ODBU/t3Lb/S/xGB9O8ZUMJzIl4con86F5zTD+Z9YsDKOwiW5Bee5DfxXHCpei4bgU9rN8uua9VuBghQjIzuORq91vFSmLzAjFYLqwyZGZA+CAlRFI2EMt7iGfGyiWcENiIcEjICDac5eVIZLGhlmPmMgnqpU9tDw2CVph3UN1MK1dt9L9d1SguDNBjYLTObnTAc0cDjIZ9dNzuxayc+ZOzywN64caOZ7kcRUCf5P//8843XTp3Uz+CBe47KVt8YmvhZ3UTP+i/kunTySAh+7QEJ9+AxpAc05fU9ohOvMWiE1LnNk82NkX5SPhqcw0O/kb6jb7GRN+nJDbwZuuE/bdEeWFjHf33LOzRd6omnbIiGb/CiuEk+Uq76hNc8o29VJ886d985xVacqj1D39hH7SvydOLZbmhvhmbWxL6boXXzrf9/RCC8R24NApEzgyBkbMnv9aHbPzh655Bbspz+K/JrwG1p8js0jpXfaSJQhulpttvJU61z1bFmqpQO+BS+OzgU8JRFhofPEXjxUEQ3eUaiYFNcKZSUdS8vRy9/L65jelLTnl3PFOMMvQy5dkA7mkUeLGu9Nr1o1ZMx+uKLL1785Cc/aYy+r33ta40xnN0y8dKmz0NEYTV9j0fVQIhPQJjqiQ4GL4XqRz/6UUOqjU8YxL6RmI1iYkBqDx7/7KasPkKMAHiI/gvO2x7QXEeT80T/he715uKEP3iKp/jYa0tTPoM0ym2w2wWO8KdNcrQDpVn9Xn311cbTb1BlE//tUtYhadWNsqmuBnT0CzAwVbUPfZErgz5mJOBr+YkZZDiEvlN/tm2Its9PvV5zoT/9BtlyHrnDu84r9EMgOFrGYCCNXOsTzNCBpXdq4dkPy0p1egiUYXp6bbYIiqOAqQzDQGCgMQwYDBnZZ4hJG4W9SbiAn9Sfwug8CiVF0gvHtXZQf1iInklgsHkGbsf0pKY+6EKH9qMIZ+Rcndp19eIVKd4GJdTBVNFuiKeUck7ZZkh4jhFqkxKj8V//+tebTUq6z3b/U0QZpVlX1r5v05R4T3myRQbpBx980NQDzuqoHqJ2UMduSDvFgJVOcDymB7RL57r/6oQX0y7OYSyq99gh/BwvATyjkBncCJ670hH+9Lx6yBdP4T18pd4ZVHG/K3+7lrdv+vCPujKWyRB+dzSYIqyiTztJFw+LOsFQfvIStal0x6rbvpgM/VwZpEMj+skaevyXNeH4jAEltt9Zw5d++jmm39X/RY69O8ksGc6MlcLz9Nu6arAdgTJMt2NUKUZEgJJlBLDrOeWNcp2nxEttX4V0RNIPyjqK8r6ekRSefODjpeXFRvnMC47BRwHnlfTC85KDJ1zHwDftadMgyjRFhSfc4IO1pMpGk4jObUE9eEop2v/6r//aPPO9733v4rHHHmu+K2hNqV12Dw3yYOBS/inx1q/+9Kc/vbApUpR5tIswV89T8oD2xUdd2+2T9sQrzscOyubpo5QJ5GOf3Y7X0Rl5YWgL2U2aAigYVFFX7XzMENzxY7xPjmYgrKKPbLsfD4v/6sDD0p6JAd8p2vGY2FXZ0yOQfsNgyCFrwqenfB4lBj/9HjnWH+mrvNNrLek82qiomA6BMkynw7pKWoFAFEW32p5TL7jsmEqJZCxIy7BaQlAPxqR68YyoL0OOQrmL5yb5yKutTDPoKKFedFN6UtOeXqiiF6y6efGaRsmQZKxeu3at+ZxLXshodZ5g3Sdvqeum7/KUus/reOnSpYsnnnii8ZLycg4RYO7TEAZIKO6mFvsMDUMAfoKyeFvxpRFuo9gMfPVcirKPb/CMNgpPqV+bt4bAu5uHtsX7ym6vTWNYZXCq+8w+/yMv5C59Ce84PiN/6pxBMm2Kn48RIkfKxoNkSCRP5Ch0BTftBTv31Uv94ulm3Av4OP2MuhpYkc8x69kQVj8nj0D6DXwl6C/wHdklUxVWI9CWX7JJhg0kk2H4iasGolbnVlcLgWUgsAwtfxltcda1oBzpgKMUUk7n/N3BoRor9WbsXL16tVHO5X2o5yaKLaWAYUFx8BJ0ZABQxMf0pKZ89aOs8HgKPJOUZ4q0429/+9vmnnRtzw6j1IZE1n1aU4pmnlJGKW8pIzIGfJPxQD8xUBlEgm8Y/uM//mPjOWWMmtorWPNHsV9agLMRe/yhfhQjbTN2SLnKdh650CeMUX74M55TSiF5cBQMks1BIQwO6R8ortolRrV26uthUZ/kA2Ph0H6myaR+zh6ByG++V8ogJVsMVLJWYTUCwS0zHbyfva/1u0POFFldel0tBOaJQBmm82yXs6MqiqKKUwoZUQwXHXfWgOmseQIoa0t52aXeeYFn5Jk3zuY7+waKK6NUbHu75E+ZpeBSSv0XGV25xziDO5w9j0bH9v8oxuvoS/meTVsqI/+VxSh1Dz2i8wQ84JMwpvHyGBmwYJAO7SlNeTn65iHPKM8ur6kpyejIdR5TWKgf/mTIoH1fnFLusY/aJu1k0MA5WRvb45FylUk5M4iB98n6kJ7SLr7hz3hO8bbBBm2JFiGDZMfsb7r9A/rIrvZJe/X1sOgH0s94Vl7iqrXdXbzqfyGwCoG8M9IPkiuDeiJe0y9W+AQBcufdmkj+yK93Cexgpu8beqbIJxTUWSEwfwTKMJ1/G50VhZRAI/tz3z1z6EZRbyPMXk5RGh2HDlF0KQxTelJTJ+WL24JPt1jnyVCx+66Njuy+O5antEtPPKfKfPLJJxvPKeXB9xG/8Y1vNFN6x/Q4d+kZ+3/ah6LkPHwSQ2as8lMuxdbaNOHZZ59tdqRV9tgh9Yw8oMNMDUdhTp5T/QO68J2p7dpKf7GLhyX9jKNYoRA4BAE82F4TjhfFsfuNQ2g+5rMMUjMcDLaL+r9gVmtJj9kyVfacECjDdE6tUbTcVogpihQnihdFjBcjntNM4XS/j5FzCrCqSwxTymcUdt6jIesJT9iKbcU/I9/7elJjUPOACQxKMYaO68owRfcPf/hDk8bxs5/9bNPGzq3p1M48V3bJjbfUGlzY8GIOtaa0IWDDTzykyvzWt77VeEx59HhR4cabxmihaGgrUR1F0yXVOwqa9oM3XoXTHIO20fbwD2/gPedjBDjBLHJt6r5rPJjxlo5RbjfPrjz4b81psJB+Tp5TfBW5wnt4EZ/19bCkn8GL8hFrrWmXK+r/NgTILv4jJ+014WQXT47Vb2yja673g5d3uwE4ugzZI48i3OawdGCu+BVd54XAPLWk82qDqu0KBOLJYJAIjAI7y/JaCUtbG+Xl5MUUJdhL387ENgGa4oUVvCkUFF2GipepI1ooxJs8hJ6zvkh6wUvXmlkvYs8nMD6SxnkMA+e8QAxCxiDjgHHqPq+lHXOH2H03dPQ9Zrde047xoDWm2gSNcMrnZOBjyrEjj5vofhSOTEudq8KmjaZcW4q3YEVBu3LlSsMj+NwgRHvApG87DZVO2XaP9smqOXpOU0/9RfiLpwWfubYtpJ+ptabbkKr7mxBIfzHVmvBNtJzCveDFKPVe9J/80m92kd9TqGvRWAgcikAZpociWM+PgkAMlqwBU8gcd88cqvIxDOXHE8egMxrNiOPRGFtZD94Mp3ZZymdAoGXTmlR0M1y9cAXPqINjO/CM8pp2A8Pv5s2bjVdR/d9///3Gm/oXf/EXDT2m8B4jZEovTNBiYAR9jNN4mvCoejLM4ZTR8Rhf8oCjPOIBh7M2h/sxgwEBdKoX76Vz9Rl7bSk8YBUegQevH0Wtj4E1FmboUHdBf2OABU+j1aBJ2lG6MUN4SNki/nIMfe6Lbbntw0vpZ/Cic3nIW6y1pmO26DLyTn+hrzBQRy7wESNLbL87llHj/WqxSn7zftS/wUlfJ8bLvF9J9VQhsDwEjqsVLQ/PqtHACESR0oELFFkdvKPASJjCo9gUNsFP16NBYWzvVjsBCZ8qIvhTiCkeFHMvXccozNqDAh8lXgZ5MX8qsxV/KDrJS36MO89+5jOfaT4Nw/iLF3nF45NdQsPDDz/cGCeMOHV98MEHGyOKkqHd4PP444837aUubXx4g2HJ6MOvc/GgwjqGifO0dwyXsQCGDW8L3oEbPKKgoeHYQf15TrWzmQswco5W12O8jkVn8OFRFrVNcGJAoufy5cvNkYxE2e1rMEufQQDnFQqBPgikv/D+re+VrkdsnfyS4VpLuh63ulMIQKAM0+KDWSMQj0A8p5SoOe6eORSIXcMgigBFVN2nVtqDP4WXsp7AmESTEfN4UhmZ0qHZi1mabSEeVB7SW7duNetP5ZFvnj700EOTrSvdRKu1rWjh2UUnb5rpkG182s938Yk3EmY8qPDRnonqrG0T+3i/2uXte45ObYi+tPGYa0vDG8pj4Ksng5S3lIyjYQ4BHYxPR95xdFPGYWWar0AehqY3+CjH2j1l4hnlaBc0wcp/EY4MV3zz3e9+tzc9+I5h6jkGt5gZAMfoZ+bQ5kXDdgTSX+BP53gQT0ZWtuew7BRd+SXDsIITudLXLWkgfdmtWbU7FgKf+78fh2MVXuUWAn0RsEkOJcp0SqOOOnreFkYCw+ijjz5qOn7XlxC89K1ZpLjzHlKOvdjmUr9ue/iMC8XYGkEvX3TyfvoWaZ+gfurMQNWenucZsiPvfffd1wxG9MlnrDSMbp+O0SY3btxo2oOB0DbW22V38eFtldZ1fPvCCy80axh5DeXJyKXUCPjcZ2mmCAwbaykZ2gwTdYp8jVE+Y1SdYai+jFHf6/MpIPw9lUHet27oQZeBCXyJP7WfXaO1p/5oyBB87EjNKDVwQ5F96qmnGvmy3ho9sMM36OHRdU7urH3uE1IvMpe1tPoZm3vNqZ/pU5dKMx0C6S9sTIdP0u/rM/Rb+rdzDl35JV/6Cd/f5inVv8Jtbv3cObdZ1X1+CJTHdH5tUhStQEBHzlgRdfT+U6aNRnpZMhwYp0Zu3ZfulIOXF48G5ZQ3g4dtTrsRd9sjWHsxx8tDUekbrDtlxFK4GYC8Unffffdkn4fZRmfWmqKJsoHXVq2VTT5dfDwTzxcDR3uqq2vw8l/eeJeS5xgDAY7yGzKQF+VrL/LjnJE4ludD/uoYT6BzdYy3xfkcA+xDm2UDgvZSDzwKx0PaKbjAQ8QPDF/n8uUlXTX1O/1D2jDtqA3d2yZ7qZe6OZePssVaazpHTjwuTeFTfQVe0x/NcabD1CgFl3XyS75E/Ry80pdMTWeVVwicEgLDajunVPOi9aQR0MG3d880nY0BZ0RyijVgY4NHuaSQntrumV7UPKVZK7orTvFKmjJrXScceHGOHdqeJG3Cw4vWviGGgAEThicvIX4VGSL4l3IjnfuUmFUGSd/ytqVrGyLOQx+5cj50UDee0kxP1a4MoHgQhi5v6Pwij1nvHM8Rb+Uh7RRctL+oLbQ/RRY+MTTxTbtdQk8Gq+SDjyxzQE9fBVg+tdZ0aG5ZXn7hUwMy+FD/pA/Dp3joXENwWSe/6U/J7znjdK78UfXeD4EyTPfDrZ46MgI6ei9FgeeUQuclEU+G614K0p1i6BoKPG7qxoPyyCOPzK5KbfyzrgbNpnYZXTdN0LTERB5HwU6npq0mui8vRh8MGAJDewv3AQ8NaGEIoI1hKqqHum0LnseLIr5kcIjOGRPui/Fk8lwpC4bSaHeKjefhIu0hIfzEwApNynA+ZEh9lGMXT4Y4+hlforqdQog8orXtOeU9NVCh72HgadM+7RN58fyq7xrq2xjt6/Bp08MDLx/YoiPGKn6RblOQptaabkLovO+FT7179Ov4C0/iT3Edfy4dtS4u5E+frf/Uj26T36XjU/UrBA5B4DDt5pCS69lCYAAEvBh5SBlrPDJeDlkztxTPKcWRIeJlqH6OcwsUFvjnO21e1K6h28uaAWrqayKjTmCQWqcn3nPPPU3d3njjjcbg84zn+xh+Y+OBBrSgiTGKfkZ0DOxdaYxhARsGGkNRuzrCTTvzgI21m2/aSznWlvKAjDGiH56NAaadnn322Wa95CkqtTDikYznlLKuv+E5FfCIem0z8IN/5MV/fEDWd/muYejZd2bFoc83la6fxSIQPj3VmQ5jNUwXF+WQWwapvjQzHcYqv/ItBJaMQBmmS27dM6gbBdDLwJFxkBdoPKeHrgE7NoQUxximlPso+vGgbfOIjE0/erykM6J+/fr1Zq0oT+m9997beGy0DS+Oa4kx5HgL24YpQ8nGMksPMdhh0zbQGKYwgCdPGE9j2hyGsMYTiZ7HA4ny3RTSXrxrIvmgREWGNj27y722p9Q0N3KZsihuyjvFkAEFtPOcai84xiPsOnntek6Du/YTM/CQ9sQDnhPh0+YJea4LoUd65/KDt3MDDtvy6T4fXkNfrTVdh/ryr7flN98rVWvvHby9ja+WhtA2+YXLIVP6l4ZX1acQOASBzVrMITnXs4XAhAhk5D+eDIpiPBmn/MLo1oviyTvDY7fLWrKxmgI97bWDFHWKC+9PjCbG0p133tlsZMRYFdNO3am8diO9du1aY8CqIwXJ8zFkx6rHtnx5RtGCJrS0DewhaYuhADsY2miEkYCfeVB/8Ytf3DZOGTEMPLsWUxRFz20KaS9t5pxClWeVPVSIgcNIunLlSlMWfrVr8xKU2shlps0yvLWNZQUCnm23R3DvrkXTxkN81xA9+AHuDGVtKd++Ic87ihXOG4HIb2Y66NfxExk+R/5YJ7/6301rwc+bi6r2hcB+CJRhuh9u9dTMEIhCj6wh1oDNpXrdelEUeNMoCn08IlPVI3TyfjKOEvPZE//7GFAUAN8wNeWXx1BbMmKTz1T16ZbDKEULmmyEhB5G9ZBGqTIZNMGOYaOdGaauKRs+baXR/11285WecYSPtJlBBMap/IcM6Manygn91kwynpag2IbfYaZdtJtpucEXv/B8wlZgLK5aSyrNEANMMI1h2uYR2LuH3k0hz0uHVlH/4n+f5zflXfdOD4HIb941+gdGmDh0XzFHdMivfhYO5MnAICzIk+uRf3hsWgs+x7oVTYXA3BEow3TuLVT07YQAJYqiF48cT0Y8pzLqejJ2yvyIiVOvrCXzgtzFIzIW6aHLGl8vbOsuYZzIsyj472WeuI4eRt9dd911e5okpYAReGzD1IZHaKGomH6Mv6bYLTgKEGWQd+3Q3XzVgWEa/hnLA6IcXlleXnRT4DJFVZ2WEsL/BlMYcvob9bY22Hd9Gf4CQ+/q1asND8GDEUl+YSKPQ0PoiAcX/rvs0pvn0794XmB0D2E4H1q/en5aBM5FftehmsE/xih5NnNFv0V2ya1BQzKTuC6ful4IFAK7I1CG6e6Y1RMzRiCKPBJ3WQM24yo1pKVeXojO8+Ls6xEZq36ha6j8GaCUfJ7I3/zmNxe//vWvG49gBhqGKmfXfCjoaEETI5FneApjmUGvPFHbM3RE57vs5isfPGPkn5IlULKG9oAog1KbcpTL+OJVQLd6LCmE/9WLkiowStW/vQsxXNKGjFIxhvoQeIQOeeHVeHcYypEd9Em3KuT5Vf1LrTVdhdgyr0V+DaSI/odflyi/3VZM/clvZicZ4Ek/RmZroKaLWv0vBIZFoAzTYfGs3GaCACXMCyQehG1rwGZC9lYy1IuiwCDdxSOyNeOZJIiCbC3nu+++e3Hr1q2LBx544OjU8SShBU2ZOrtOyR+T2ODDyGFY8uBSpjLlLHzR3c1Xet+WtT5ZHqaYej6GyFA0x9PCMFIORe4cvneYdlFfntIYpXCAset2IzYQQIYTh8I9+aTfM82cYUG5FgzS9VGo07+MRV/orOM8EYj8Zg16+AnvOF96SP3Jr6n3+lX95Ln0Y0tv36rfaSBQhulptFNRuSMCURQ9tmkNmFFgL1zpTyGglWFK4aR4epHG+D6leqzDmheQIcoQ5KH84he/ePH444+vSz7Z9d/+9rcXN2/ebGjiLUUjWqcOXQ9qyqdAMUoZQvjdiD+D1bXwh4GMTEnD90OuLY2nQfkGgfAlg4whJjpfcrAmTRuIzhNy3TGDAWPKafo9+CtPe2sP5fdZk57+RT76F7HWmqY1l3vEH+kvsi78HOQ3/RZ5ETOwR270tRlUMuPjHPqx5XJ41eyUECjD9JRaq2jdGQGKltHedWvA7BLax5Owc8EjPZD6LHUtmGmHRqgpCYwcnlPenmMHNPi+KoXlq1/9akNjpkgemzblxyCJJxWdlCwGKoM0RkampFG4hhyM0V68LIwgii0+NQWUQud86SH1736XFMbu5b4p6lP0N+1+whp7CnifNent57ImVtsZ7JiC7qXzyVzrF6M0/QQ68cvSN/aJXI61W/Zc27voKgTmjEAZpnNunaLtYATaCjuli2JOUY93yf0YGO4PqawfTPyKDFKfGBZerF6qrvfxiKzIclaX4jF96623mo2UTJ3VVrynNkWK928qoink77//fkMDWmzuZHfhY3lM19W760mNB1V603phSPlkuArhG9fxjuv439F/+fUJ8bRkTaXBBIG3jlcWny45xOMShR6ucFRvMxvgCeO0B8N9iv5GuTw8BiheeOGF294wtGzq57r9SwwWz9Va0+Vxclt+vUfIr2tk1/RVPLTEELk1iDbmbtlLxK7qVAiMjcDn/u/HYexCKv9C4NgI2B2W0mVqaBRwG9kwNhgfvlOZ68emtU/5FF30O1KKKRMUYQrFKYe0k6mzb775ZqNQM0YZSgzTKPVT1fG99967eO211xrjzhpTnvfvfe97F3YhRld2HZ6Knr7lBEf8YV0pPP+/jz3RviFLKcMzvrspus/wF2zoRE76buwkX0YLpfaHP/zhxdtvv9141sxEUB4DacmB4cdTDENGKYOcp+mZZ55p5PHRRx9tFHy8a0AMD03R36T9Ya887clbawZCn34u/QtekL49DXnJ7XludYv8vvjii833hvW5BiAuXbq0aPmN3P7sZz+7MDNAH6a/sj48nmJ833eA7tz4pupbCIyJQBmmY6Jbec8GAYpalG5KIgOVkuZ7mTxilHXXpPEymvsLiSFK0XT0UkWv0e28TOdO/zrGSDtpj3feeaeZxss4NHWZcqztpBHHDHgDDYyJ559/vpnGyxCFcaY0jk3DIfXj2cUbPJm//OUvm7pQNtHP2BDUT5rUwzlFlVHi6L+wCW+GqI1CGKa83NroySefbKYATrVzcUPkRD8wo9TClXeJx+X1119vMCN78GWU8zbBAgYGA8gjPobtFP2NNtOXOdoISfnKRr/29z9xFXTaXv8iqK/n1K/97Krn6tppIWBg9tq1a438mlmBZ8jvE088MdnO41Mgtk5uvTvdM8OB3IqZvkw+KhQChcD0CJRhOj3mVeIREaCoUa4ojEZIeXSm9GQMVXUvTYoi+imQ6rSLR2QoOsbKhwdbHa3tZPgwer7yla9c3HPPPY2ncuxviFJWeBFffvnli3/6p39qdrRl2FFcHnzwwWYQY6y6D5FvPCHot8aQofqDH/ygUToZTbzrvAPxjMCaHPAO8/7BW8hgjuOqcP369YvLly9f3LhxozHYn3766Sbv+++/v+FJ8rakEE8LTK9cudJMk1U/MxUMWMA2g0PtesOP8mvwa8r+Jv2E/sEMC15dR17U9B9tOnOe5xiz6soA17+Qu03P5fk6ngYCBli0r8EV7cog1S94N+KZpcjvOrlVz/YMB/9Xye9ptGZRWQgsA4EaElpGO1YteiJA4WLMiRRF/3/1q1813g8vaSHTRb2gvJznGNCFfoGSSXE0PZNBtYS1ptrg4YcfbrymPH4UaiP76v3YY481RioPJm/QkIGnFJ4MM+WJjGO8YPoumsIfQ5Y7dF4MCh49PCHw3jGeePTaQTpeA2nVmwzgIdfg6z4+iyyQG+c8atLgO0dyxNPAcJdeuiUFmOBBOGWDJ/VWT9hSaMXIZLfu0gV7/Y12SX54ODgPjVu7n2CQai+Rom5auvKk0X7tkOfUx3l4Qp1rrWkbqdM8Dz/jQ9F/g1VZDjI0Hx4LpdQTz9da0mO1QpVbCOyGQHlMd8OrUi8MgWN5MoaCkULJUKDYGvmmcEa5GKqMY+RjpF7bUNqd8/jZFZdi7Duid9555yieU4oMTynjw5pJa64YHN/5znca7yJPILrm7knoekIYjfiCEdUO6sHwyAwChjdjxPW2B5VHxXdQf/e73zX8ZgogfKyv9Lz8l+hpCVbxuLz00kuNYYcfeUifeuqppt7WkpLDroGX53NMf6MdDATgZx5q09bhrh3GCN1+wqePlJcBB3StCvoVBq02ljZGuPMKp4tA+Jn8Mky1J8+hPsL5Nj4+lZqnnrWW9FRarOgsBC4uyjAtLjhrBChklEEvYmvAGCa8QdaeUj5FadYpbscGD91Gt3lfsvsmz0yUi1NVMBhGpg0yTCnFpvbyNFGSszbY1EL31fHQejIStD9jzPRXkVGqbEbpN7/5zYuHHnro9hrXY7f7uvLxrmm8ptj++Mc/bgYqTM/LlN2uJwTOeNt1RgdZcO46T7G8yAQDBY9ZH+kaD4T8GVaMWWVkXaVnTz2oM6WWgd9eS8ogx2t4gXdYvQ1cpA/ZVu/0N6b0MvLhqQz4uibvMfob+bb7CfXIWvu0+Sraa63pKlRO91r6B4N8zz33XDPYhw/MQtHP4etD+9JjorNObvVT7hmMIbdirSU9ZktV2YXAegTKMF2PTd05IwQog15aU3syhoI4ng1KxZLWmjI8KdSmzzJUGUVG+RleDFTXKFaHTq9llFpfaaMja0opbgwOyholxrdL0YGeOQf4UMK6a0vVI4MVm+hnVDLGGSvqHw8qvuIxZZDayZcHwjm54Tmk2JIfxtUSQjwt3bWkFPe//Mu/bPgCPnCC167GODy1B7wMijBQDYrgQzjKd4yQfoKBkkEe9dDvrQqh03O11nQVQqd1Lf1DdtHWrtaeP/3x2nB8R55POayTWzxea0lPuWWL9nNC4NMLS86p5lXXQqCFAKODp9ExO7JSvHlLfLNS8OJ2f46BkmsaFppNzeLdskZQcI/yfIqBohQlnTLNg20nWEo1jyZDkbKlbRinFH3fQlV3RmsMdXXndZUHTxVjwE6/nuUZZMwxduXpGswef/zxBlNrdkPD3DGkaOJZPCAwOKwthU+fAC88LnpGfrBxncfaf3k74imRJ0IaQXmw87x7njuloC5khxxZk2ZKt7qpk7rpI+JpOaResEmb4D9hiv5GPfQT2kV58Qq7LqKrHUInWp2nrWFSa03bSJ3GOd5mlOJrfaG+wUyHrH8+jVr8KZWR23VrwNUxu6n/6dN1pRAoBOaEQHlM59QaRcvREaCwUdCm9mQcWvHQzWBYomcjnlMbtmR3XkoWQ/KVV165vU6Pks/wFDwDl3izKGLuW89n+qS1faY//+QnP7n493//9+Ybkwxa016tHXTkIWNkzd1TGv7pu7Y06bcd40E1IGAwgAIoMNQpez6FkkGCXXbz3Vbuse7H45I1aTyZPKS+S2oNbd+1pH3pj9xO1d90yyMTBmmydhivrwr6Fe3MONU/MtJ5oZxXOB0Eurto6+fIsVknpxwit4euAT9lDIr2QmApCJzWcPZSUK96zBaBeAgQ2PZk8C7YdIcxxHsQ7wJFbw4hdMezkZFx15ewS288p7yh2oGByiNqUx6bFVFM4j3lUZWGks3QjFGZHXejZFtnl2cZXl/+8pebnXetJzWFlfGlvFMIDAxGYzxgznnGspnJoXWQP9yEGCSO+J/3DL8p0znMpcWLc/egohntieg3pdb/GGAMUjiqzzrDbV98I7een6K/6ZYXL636btqlFxYwUH8Yhc/kl75wXwzqufERII/aTXs7kttsiKb9Ti30kVseUp7gMeT21PAqeguBU0JgHlr1KSFWtJ4FAl7WXmxZu+iF7nuNXnLW5IylqB4KbhRIL+7/9/GUS4qjtTVLCTFQGT/agmFpiqn1j5TlW7duNWtFKWKm6vIEmcIr5DuMjE0KNuOV8Wn96H333ddM2Wac+laqdj+l9VYxCimdzsO/ePgQxTP54n9TW+Ga3TsZpnCUhmGjbB5bht2rr77a8F6+7zlXBRHd1iyb3iiqi3qJ6plp0DAkS2OFtNdU/U3KIyNXr15tpn8bwHJ9lSKf9AZ59Cv4QWBM1xTJsbhiuHzJpl20tZv2xd88pc7H5OvhavDpnNbJrX7GFHNyi2f1T6dYv0/Xtv4VAueFQBmm59XeVdueCHiZeWkLlC8KeXbnZNDwIDFOvQClnYvn1MsYXTEWYlhQTNw79Zc0xZhhKfLG+XyLqb35NqSjNIxRHtJE7WhaKmOT8s8g1b7WD1PSHE1LjWEg/SmF8CfDkDIW5TM8vG9dki/edy5vyl/WWfovuIfH/Dc1FB3hPYMIFMm2oihd+//U8hP5iMHNKGVwoUmcek3a1P1NysMfzrUXDJzzEKddwzdJb/DHefjCue/7VpgnAuHzrL0kh94PeXd123metfiEqtSHrIr4Njw55BrwT0qss0KgEJgagTJMp0a8yjspBCipPAKUa8GmEXYlZQAJFGrK3Vxe8F16KSI8WAy5JXo2tAuD0ndNH3zwwcZLSnnxuR/eUoapaboCw5TRagowA5VSDRfGqGPauEl8Yj/xIDAOeb4YVnjh0JB88RADnlG6ytMSw4UcSEdZRAvF0bNkRl6RF/ngR8djyE/qxQvMY+g/uinsPKVD4bcr/l35Hbu/UZ46G2jTRtaRwsGA26qQdta+MNPG5K3CPBEIn5sV4Dz8RfaG6B+mrnXqwyh1ru/IUhUyG0/p1HRVeYVAITAcAmWYDodl5bRABKKIqRpPEMWaMuulyMNAoWu/EKU/ZujSyyPkJU55zAv8mPQNXbb2EBmXRsy7gee0PZXXdN4lBfynbRkK8VJSzhh8hwyWxAOKfxgfMMbnPKXy7+btvmsiZTHP+09uyAs6RTSLppHKmyHkGYqy9HhYfkOG4IQutMCKF8m5cpUfT5J6+n+M0JVfOLT7GzTF2zUETuouv/BQ+CgKvjLaQfvgLenxhqM2zFribvr2s3U+HQLhd3z+H//xH807QBvh7QwGTUfN/iXhLzKaiNcMdLmOd9XJMgzyKuLPCoVAIXDaCNSuvKfdfkX9RAhQEL0Ieee8AHnfjEL79iXFmyfO/bm8GEMvRdwuvRTOKLQTQTaLYmKIOuZ8FoQNRES+S8jIsisuw8BUTMqnc3y6T7h582azJs0ul4LNoOxO63ul+Hyb4ahc5ZsyzfBEjyODxxpefEl+RIqmnZKFeLKHXt8bnK5du9bIg52cKbemgvOQ2nWXfKCxT/0aYkf8ifx2+xtYoc8uqvA9FKeUo98iH/J0NNNgVX+W9NlFmAGk/9u2q++IUFXWKxAIvxs8tbaUvJ3i90q9t/QR3e8J60d4ffP9ZLx6SH+3AsK6VAgUAkdCYNhh6SNVoootBMZGwEsvI7JRXCmJRqTjOc1U0Lwkx6ZpU/6hF83O49kw4jwH+jbRPvS9JRqkwYjCySjFh4wL7c2LsO8ASTwU3TVpPKW7eFoYMGgITRRJEf/ZqEr+KSu8SX7UJ3XAp57Hv/LbJ6QM+PDwKZfcyo/3SJzjFPfIr/q3+xueo/Q3aIfpIfKccmDLwMwMC+Ws6s+SHq52xGY4mG6s3ZY4I2MfnpvDM+kXzJYRyFS8pc2Fmf7E04t+PEhuyax+A8+F/wwgiepVoRAoBJaFQHlMl9WeVZuREYgniMeAQug/TxUPEwPI+sUo1COT0it7L3jrxijimzwhvTKrRLNDgOLGm2DNM8OAAUlhY9DsE+Kh4KWg1OLl7MLrfF8DMXIjD8okDywPZbyU8mUwmoEw5PdQU5/nnnuu8RzduHGjqRNPyy4e4H2wHOKZ4Jb+Rp7aZuiZGvDXNvqLPt9BZjRoL0YDQ5nRcI4zMoZo4zHySL/w1ltvNbvUmkXBMJ3790rj6T2VmQ1jtF3lWQicOwL7DUOfO2pV/7NFgAJH6eepcC4y/IzoUgZ4D7KzK0XPCO8xAxoojBl1nht9x8TmlMuOZ4Hhhe8YBniSV3MfozT54eOsK2VAym8XT+k6TCM3XdoYQsrEnzx2qYtrPHYMIDzsObLk2P4v31Uh+TKu5Q0naeM52tUDvKqMKa4Ft/Q3yhxjpkY8UfBxDncGp/NVntBuevynzcQ59HtTtM0cywjfR4bxD14XtctcA/6Jh/SUZjbMFc+iqxA4ZQTKY3rKrVe0Hw2BeDKyoQSFzhRFihkF24Y7UaCPRuTHBVNM0GFnWp4oiv+c6DsmNqdcdjwLjK4h1pYmv+vXrzceOdjwlH7/+99vjLlD1zKuwzpylLWoPKlkyXUG2AsvvNB48H7+85839fTdWmHbWtSskfU8pXeua0nX4dK9HpziOfV/jJkaDBsDbY6MegMWqzyh6VcMFJiJwVCtGRndVpv+f/g+a8PNntB+Dz30UNNG+GaO4dRnNswR06KpEDhVBFYPN59qbYruQmAiBOLJoJhlnReFjqHA+BPm4DmNZ8OL33k8IRTOVZ6QieCrYg5EgOEQXsODjLl91pbGU4pnecjk6RqenmJNWluO1CEeH3UygIJfGZYiusRVu/nKRxrPe0Y9eF5cUw9xjmtJ+7JBcIrn1P8xZmoYxGLIwC3Yr/KEpl+RzgACrIN39St9W3W4dGkvfG9WjLbTjvieXJGnOYXQi04Rj+GjU53ZMCdsi5ZC4NQRKMP01Fuw6J8FAl7+dj184IEHbq/RQth///d/z0IhjiLJC0KBpODziFU4TQQoc9YaUugYAhTQfabqURDlwSi9cuVKY9hZe3ms7xyGTynSvD1owbNojCFmDaTofgxO6bOpkrowUMmk+/IwHXkffObGHcHHmkH1J8u+P+ooHNrfwEjbZ+MjfMZg2PYdZOng7lj9yvRck/5An+A87XgsOd6GQOjFM6J+CD+L+IfsqkPitvzqfiFQCCwHgTJMl9OWVZMjIkAxpvwKNqKhTHv5GsH2KZkoyscauQ59RqTb6/go/F7+FN4K80fAgAIlrt2OvGh4bx/ewpfxLuIFeVAO983vUATjGUQH5VTdRLTF8Iy3xREv+1SJkKn04Wn1OJW1pH1xa+MDF7I75EyNGL7o4bHGG/BctzY96bWVc20ifdqg+pW+LbtfuvQH5MD3SrUXzPG+qF3mFCK7BlJ8n5dR6l0ZAzQDTXOje04YFi2FwNIRqDWmS2/hqt+kCFj75qVqWiXFjoJmLZjvNLpuLd0xAoXWy5/CX2vCjtECw5SZtaAU0CHWllJoeR99+gN/PPHEE813UCm1FNxjr0nL2kq0kZ/ubr4ffvhh4zH82c9+dttryEPqu6S8io8++mhTL/y/xJD+xtpTns1bt24NsoY8/cW2telJV/3Kcbgr/QEDz/dK33777cbj/e1vf7sxTLXLnIIBNV5d8nr16tXm/aivIas8pdmkaanyOqe2KFoKgbkisMy39VzRLroWjwBFIN4mH6k3Qmx0mCFhmq9AwZ5aYWBkKFdgMKPJSDWP2Ze+9KWGHmlKIWggmu1PPJwMSjykTfdZWyofgyb4wFG781ZQDHnipubPdYCjCy2hJx4X9afkmpUguo5/43nxnPu57vkMzCyJz9WrPVNDPwMb4ZA17ukvYIu/YMlrykPXXkOadHCutabruHi86+kP9OWC/oAc5x3UXDziT+Q1cqqvwSf+Z7DJWtj2etgjkltFFwKFwAwQKMN0Bo1QJCwPAS9d63uiHMYzZZqvtahRJqeueeiygYwRa4osRTNKQgyAqemq8vohQKEbYm0pBZGHRfsLp7IWM/U3bdFUQP8p4xTb++67r6mLKb2vvvpqc4+B6j55I4+O/i+Nz9VpjDXu7f6CZ52hsWkNqfbgvXPclK5pqPo5GIHIA57PWmqygB8MGhw7hD48IeIfHlKx1pIeu3Wq/EJgngiUYTrPdimqThyBeBJUw4YkQttzyvNA6aMgS0uBniKEriguPCGMFDH0TEFHlbEbAvE88IyI+Idnc1fPSPJhkLZ375z7Wswu3ejnLcKz8bYwTF1juDt6xpFyLH7wwQcNn1OK8X/4fUr5263V+6fuek7xiDrD6ZA17slXP5FP77T7C9gJ3X4F9qvS9a9RpdyEQOQhMwe8P8iwiLePPfAS+rzzai3pppase4VAIdBFoNaYdhGp/4XAgAhQGCjA1oCZQvv+++83U5l4ToVt32MckJRPZUVht2mK8u24KVJo7rrrrk+lqz/zQIBhwOASGR3ayboshimjoO9a0G4+eJPngnHnfKoBkl1RDd2+z0jZtfaRB/Spp55qcODxxb/33ntv442BCwPUmu72Wu/XXnutkT9rvoVjyd+u9e+bPmtOh1rjnjW+yoej/Fd9rzT9HIOo1rD3ba3900Uebty40QzA+E4vGZ7L90pDX60l3b+N68lC4FwRKMP0XFu+6j0JAhQ2yhqF7qOPPmqUCBuU2KSCcWjzFkZrjIu+BsahxPO4USDRhQaKPjrQm3hoGfX8cAhkKjijTPvYBOjSpUsXFNI+PKO9bZTyxhtvXDz33HPNkXH72GOPXXznO99pFFr5ziXwuFBu1ZvXT71t0PTuu+829aeA2+DFZk0MUIYY/iVrzkVGqf88hsHIMfUMJuQQNv4L0iT9XPDoSwd5Vm9Y2K3YQBgM1THyLY3YJ8BBWkc4wk5e2kef5b/oHNaCAS/eWuVKl/bpU16l2YxA5IJMGKQhIwZkbPJlMEbbH4N3Q1dXXnnN3UMjeRXj1Y0cbq5x3S0ECoFzQ2A+msi5IV/1PSsEeKPaa05No7Rmy86qgpe0l3eUu7HBCT13331344WjSPLGUSrRiZYK80FA+1ijRdHj4dRG2rBvoBx6NlPrPPfss8823sY5tnX4sbs2jfL9f/7P/2mmMas/eWEUdYNrkSeGUYwpR3nDwiYs1qJKa1o0TOWf57p5ntL/yPdQa9yTX9/+IvzqWGtNh+OcyIX3B1nWLuSBsef8WCF0deWV7NVa0mO1SpVbCJwmAmWYnma7FdUnhkAUZWRbc5oR5ihwvDWmI+bbhKuU7SGrHHqUa1qxkfesOWzvujlkmZXX7gjgEzzCE6GNBMoeA6rPIIb2lYfnKY3a2DV8lt07d6dqvCdS3xjQaDZ1mdItqnc8LpuoMNADH7FteDNMGaU8Tqamxqvn2p/92Z81WKcsxxi+5EU8FS9P5BtGQ6xxb+dn8Er7iHiyvat30sHcufaErQhP1yrsjkBbjvO9UrmYGUCW2zy+e+77PxF5JU8xlrU1uUGbPqYGOvfHt54sBM4RgZrKe46tXnU+GgIUWwqatXCUCdOueCqtfaMomy4XhXgKIk3jjfL4i1/8opn6Z60SZafC8RGg+OOPV155pVHuTd19+umnm6l7lPxt0/byncMXX3zx4sqVK42XkKJobSalcW5rilPfsdamwQtupjwy8E2JjhzyoNrgx0yGzB6wezX5EDzXdwrs8TnnjxSkvzGNV/9y6Br35MfAh9PNmzcb/GJ0Kif9V601HY4LIscGaub0vdLI67q130v/jvBwLVw5FQKFQBAoj2mQqGMhMAEClFuKsBFlChxFj0Icj5aRcZ4bIcremGSFHjQ5j5FaHo4xUd+e9yoPSTwQ4Z/tuVw0U1izRjOeDB7HbHbUJ48x06SevMLoIwdjfueQvJE9EY7xoPrPcENHZIBH0H/TV6VlyDrG8CIv8ptziHyjse05VTdGt/plIKpPfZIfHJxrM/yFN4OpezDUjvGs+l8zMfbnFHwKZ9E5rM0e6DtzYv+SP/2kdsQzidq/La/4YElT4j9d+/pXCBQCUyBQHtMpUK4yCoEOAvHcxMPgv/WmPBA8DXfcccdtBbjz6KB/Q4dMKeY8Qsr//e9/P0n5g1ZmQZkN5SFh6PFs2TiIQWWzILv5MrIYFtr/mCH1ND3x8uXLFz//+c8bctBnbdozzzzTGE7+ZyBnSHrD//GgUvRTlimrDAHeU2tRKeCnuptvPJ3xnNp8Tb1M44crzzl+6OsRZhzBx8CCo/4CbgwTgeECL/jx8jFoYgAP2X7nktdc5DgeUn2KGRhmGAg2I/MdVRup4QPyNIf+5Vz4o+pZCCwJgTJMl9SaVZeTQYBCTAn08s50yrfeeqsZDU8lKJHSUCrH8syEDkfTiCma1vRRQIzKo2/M8lPXOn4aAbvPXrt27eLll1++8EkIbWH6LcOS0rfNgGAIaEOGgWnApmzbgZdxYHqdPLT5sULos0sww4VhylBCpynG6LSDp/N448aQgfA/fJUjwobsMbbIgx2rpUv5rjGoGWeO/gvSHBPTTW2JdnXEN3YHRzs5Z0CGZnWOMZFr6/JUZwNYAl6FkeUJ8lCW+zy08mdUucboz+BCsFyXf13/IwKRk2PJcXjdFHDtbODUAGreEfhFu+pbskN2+GwbD1UbFwKFQCGwCoEyTFehUtcKgYkQ8PL2cqfQUdq81HkgKAE8mJTIXB+TJIqiciisRsNNwZvScztm3U4x70M9JPFs5DuH1gzzaFAgYxwcE5fQ59M11szx6JoCyuPCU5pdRqc2YCKPjFOen3iYfZrHf/TwBFoTTkE3mCRkkGnbgMExMVd25Fw/Q74Z1qkHvujrOU0++i39FAPG0Sdq5JOYcvRxNRNj99aPnBxLjjOjgSGKT958881msMEAzhQzGnZHrJ4oBAqBU0egDNNTb8Gi/6QRoAhHqaUUUvR4aniOjFIbMXdNGsqgOEaQLyWSh8P0LGuH0KZs07Qo6hXGRyAeiuvXr1/8+Mc/bryejCPewz6ezraHpf2dQ55HRinjbywe2oRO6mXAhdHNA0TZdo7P8Rfj79jfOYw8kgXKt82m8D/cyKf7PIEUdliTU3VTB9NjGRIGd1wbU143Yb3pXuScoWi5AE8nmtVHUB9BPTfRn3z0SwbPPM/7LS/YiRkAMdAWzynMGPiwrbAegcgLD6X+GG/hwankOP1IZjQYqPyv//qvhj+0Ky/pFDMa1iNUdwqBQmCpCIyj5S4VrapXITASAhRFigeFjuJGEYjnUpGU4Sm23ad0mEZJ8aScMFAdK0yDQDDnoRC1g+8Uanttsy0wAEyJzacbPDOH7xymXgxS9DFg8DxeP4XvHHblE/1kg2HNg2pHa9hHfsjQFPK6jR/W3Ucn+nzqxaZE+EW7WEtrDTKjow/9ycdGSlevXm0wUCbvqecTYGPKtqP2rrAZgchLtx/ITILNTx9+N/2IKfb/9m//1rwDGMXK167kVttXKAQKgUJgaATKMB0a0cqvENgDgXggGKbxatmYhCJP+TWCzjNhpDoG7B7FbH0kijV6GMdRkHg43KOgVxgPAd42bU4hFeDe5zuF+ENb4ZU5fucQXfhJ3Rhy+IuiK/YxgBowjvjTlU/txDAlr4wwinxkRT21xwcffNDIKpmJB9HRf/kdM7QNbXKNHu2inRiQ6O+zO3jy0Sc5jwHqnMErb/dyPxjBrvqTP+WAthxrB/LiGvz69AN/mmO/KykXX2tDfKBsAzB4I/0Qg1RET4VCoBAoBMZAoKbyjoFq5VkIHIiAKXJe/qbSUhij0EfZHWtqLSWEwqjcVWvHKNYVxkOAQtjeRTefdtk29TFrwSizc/zOYdaSmr6Lv0wrntOa111b1FRXxlfWohoworCrm6mrpmLzoorW5v36179uisi0fcc5hNSDvKPdf/Tuujs4g0a9HQ2qMHR4jYOJfsMaU5jVWtP1LR85zneHrek04yFrnMfqf1OuDdf0PzZMM4hgKnutJV3fXnWnECgEhkegDNPhMa0cC4GDEaC4UnoZiu+9916zhs1ItjVglEjXpRlawZUv5Ue+7bVjFE5K5jYD6eCKn2kGFHnKYXdtaV+F1Bo0nlKGqQ15tNOTTz7ZTL3DR0PzybZmotTytjBSYuhYh8n4YWxbN3vMNa/b6N92nwEHU7ICaxHOZDNrxGGgXaUV0sZkSVv7L7ifNM2FCX9SDwbjIbuDqwuD05E3VD/CWIeLNve/1ppub1hrsBmH5Ni0ajxGjsnLGHIcOc1aUruA24jMe4aHlozWWtLt7VYpCoFCYDgEjjufaLh6VE6FwCIR4DX9wQ9+cPHII480a8AofUa0TfN1nfI3RqBMmmKZtWPKrbVhYyD9xzwpiDBmyIkU+V3WlnqWp5THVbvxVon4h9ExdTCIYs2iujg3qHEKa0n3xQnGsGaoqivjU5s6qr/2MfOBsSEtpV87jT01v299Qj+eEUxHRq+jsG2Ne/qLTP9VZ89/4QtfaOrZZPLxj+uMLsfqT4LKJ0e4kBvY4SP8Ybr7WHKc8rKWNAOQyjSjQfnatkIhUAgUAlMhUIbpVEhXOYXAHghQdCkHjjwS2dTG1N4HHnig8VBQHNynXDJohghRVKMQxXCiYCvP/QrDIUAh1KYMS20Jd4qp46bgOW3CgHDU/jySvByeldcUAX9QchNjiLmOX9TlFNaS7osV3GGdtuCQYhkAADhdSURBVEs+aR9ta2q89o0sMeLc106RKc/nPHlMcQz9DGbnaGBUakc0C3/+53/eHFfRl/5CAvXEjxmUUE/PiOoqbTCQ/6r8moLO6CfyAzPR/wwuaZOh5DjldOU0a0m1D6NUH5JBkzNqhqpqIVAIzACBmso7g0YoEgqBbQhEWczaT9MijarznAqmfFH4hp6ySXE2BU/5tTZsWyvtf5/yzxNuGi5PqZ1RKYiZXrkuZ2sBeUp5WbQ/hdKzDEH/p5oiSrFFgzpcuXKl+cQFmuMZVBcGCD46pwB/7WAapjZ5+OGHG+PMdfKb76GaPulzHPkO6FCGyK5Yd+lFBzpv3brVGJzbvqucfkq/gRcYqPoNRq7NkBg+/sOk+pNPWifyk1kGZIVHmXE6pNyknK6c4k3lPfPMM02Z/g9Z7ic1rbNCoBAoBDYjcF5awmYs6m4hMFsEKHKUOsG0OoHSJ5puawScEsMQkHYoA4ByIt+uB0T57imrwv4IWJPHi0FhjDeNEReFdF3O8XzwxPGip/3DA1MZNl068AkvmPKtL6TgiuHddfVZ6nVyCAsRBvGg+t/1oMaLlQ3OyJZ05MxxSLleh3eXXv/bu4N7ro/nVF3Rq06m7jo34IIXGLrpu/BPDNZ1NC35euSfzER2YMdbOaTHMnKqDJ9/0SY8s3hL1OcseUbDknmo6lYILA2B8pgurUWrPotGgKJIkYjn1KY3Rtkpj67zsFECh/KcpryuB+SOO+5oyqMwV9gfgeyGycC0SZC24/GklDpf5/GM52NsD8u2moWOl156qVGs//CHPzQK7lNPPdXU49FHH234BB9V+ONGR9q160GFD48pw2FOu/nqRxhK+ptdPKeZaeHIAGKAGTTRX8gHvzOOGEwZTDlH/oj82/SMLAs8l9///vcb3IfqxyOnP/vZzy6ufvy9WYawQQJ9jfLMtPD+KDk9Ry6sOhcC80KgtIV5tUdRUwhsRIBSS1EUeE4pdpSOeCZcj6In7aGKRspb5QE5Z08HnIcIFHdKOm8ppR3OPI3rDP54PuIppWB6ZmgPy7q6pfx495TP0PCfYov2OW3qs64ex7pOHrVt2lr7w9B/u/kK/sPZUfjc5z53ey1qdrmVfgj5bgrY8KMcvCUY/GJkamv816ZLunbAC/qh8Evqg2b30p/kurq67v45hfTbBiQY72a88F4G832xCO7r5BT+2kdUnv8VCoFCoBCYAwJlmM6hFYqGQmBHBChxDIAvfelLzVQ40zmNuDMSBAowZaOrMO5YzO3kbUWTckqBNNJe4TAEKI7ajWLO0KckwnpdSPpsgqV94/GYQrlM+bxd8XjxvFCkTdWkWKMfXedmZKxrs03XYRQ5hSNDNcYaDzq+cIw3PWt24Z3nNuU/1D1l2QWc7Icu52hetTt4+qfuLr3WleLzu+++uyENP+mzsnvvFDw8FCZD5KN9rRF3tAuuPn2T/Pctc52cai/9BZyVk9g330pXCBQChcDYCJRhOjbClX8hMAICbYWWcsEQjeeKwWD0nZETQ+FQI0EZqzwgFCr3Ds1/BIhmnWXWlvF2Z22ptmJwrBpMSHppfdqBx0qgYA7hYdkGVjww69aoodt0wHMzLLbhtu1+14Oa9OTqzjvvbNrZOUMjBmt7N9+pPKh4MrzJs4sWvIAP7Q4uaPvwbvon162llU498LHBtNxPPo7nNAMjnnIYwkVgNAbj5sIeP3DEK/A2eCU61y76aX1FrSXdA9h6pBAoBCZDoNaYTgZ1FVQIDI9AdtG0BoziIfDA2e2TQmi6netRGPelgAKdfGpXzX1R/OS5rC2jNMYbtmltadIbdOBhsbaYgumzMBTaQ9v3E8pWn9UatdW4jHU18vbQQw/dHnhg+HV387WLs2AtImNvqDWJ6+oVurLGPbuDv/fee41hau1sOyS9tcf43MCKfkl6BhSjLJ53A18GZ84hjLWbduQ0a74ZwPjm0qVLt2dW6Me1S4VCoBAoBOaIQPVOc2yVoqkQ6IkABYNRQqGLssFzSuFj9FBWN+2i2bOY2x4O6SmWRvpN5Ts3T0dfvLalozBqn75rS5Me5gJlM57SMYzSeF4YDzEg4pGn2Cq/1qg1TTHKTzyKyTweNm1N/uJlJ+c8qNooA0eela79P31D8tv32KarvTs4Xl71XeWkRx/vLsOJFw9tBlTwkTT4TV1E91xbYohcwQsOcIkc6cN3leXkJx8Rfl05hTFPrP7CeYVCoBAoBOaMQBmmc26doq0Q6IlAFEBKjsBwpKA4CpTIIaZwURrl4xM12d2x1po2EO/0Q4ncZ22pnVutRaNoauso9jsV3iNx6OPNikeLISHWGrUeAA6cJPLNcNEGDDxGCAOVnNvJV5sxQGOIkFN84v+uBs828tMPZNALHb6NySu6qtyk129I5z8+klZAu3osfa1p5IrsOw8ucHC+a0h+XTnV7tZ8p3/IQMWu+Vf6QqAQKASmRqAM06kRr/IKgREQ6HpOKTmUvCiviowS6d6+HokoyFF4zsXTMVSTZa0owyJer01rS+Mpy1o07WwtZ9ZzDm1wxAOjvPre4VCtfng+kW/tTfbCF/7zoPovRh6V2N41d+i1qOkHlNP2nOKbVd9VRidjCd+/8MILHmuCvsgAi5kAIvqXuNY0ck/mrRFXV22SWQ/adJcQOY3nNf0DnOUL6/QRu+RbaQuBQqAQODYCtcb02C1Q5RcCAyKQNaf5TiJFhSfi1q1bjQL70UcfNSPzrh8SKMG/+c1vGg+NNac2RKFkHprvITSdwrNZK0qh7LO2NGvRrBkTeMso8tYeMg7Wfed0XywYDrw59b3DfRGc5rmunD/xxBPNNykZOgakGC6866+//nrDZ2OtRWUwk/usOV33XWW8KgoMaWth9RvZpdd1nlT8h7+XttY0cs+zaY24/tNuxk8//XQz0LDr2uDIadaS1veDcVCFQqAQWAICZZguoRWrDoXA/yJAYaXkZOSc4mijEYqQjUoorJRIadwT9wk8AJRKR6P/FCVlUj4PyXcfWk7pmXfffffi2rVrF2+88UbjWbr//vubjUkc20amdoKptM8991xzHi+Io4GHdvp9MdB+lGZ08eYwmG/cuNEMZKCBJ8cGS2I8MPvyzL401nN/ikBXzvGPwQp8wVMa3oin7sMPP2xkVVvrCxzdE6RN+j8tafMVvEDu9ScGveStPzDFNHnqb8T0DejznLRo4OFzbkDEf/zN2F1SP8Jg5yllmBok0F5/+7d/28hUH6M0/UFklIfUoAO5hZO2J6MGKAxe4QPXKxQChUAhcGoIVM91ai1W9BYCOyDAsDAyb2MSHgkKjXDomlOKo3VRWWtKERV4Q1zfdWpa8/AZ/GRNmCnWm75bmnRDrUVbBy2FFy0MUmUxhhkQlNtaS7oOtflej1w+8sgjzSAUPsp0fjMnXn311aZ9eSTJKSOQrB460yHl5rulNvax7vVXv/pVAxYjSTlJ5zum4W1HfIjnhCWuNdUGPKUMS7gzInfpI9MfrFtLqj1hm8HBBsj6KQQKgULgBBEow/QEG61ILgT6IkBRoXwKlMR4Mxgi7TVouyqmjBeKleic4kRpcr7ENWJ98V6XLp4rhh/llCK+am1p0lFks24MxtowRsS6Mna5rnxthhbl4AcGAQPCdFCxBhh2QXQeaSOXoYYnEi+R7zF3822Xqxx8ZI1y+gV8jadiQDFCLQXAe6L7MdTwIv5s9yORC/VSliCN4P9cvYPBP7KMTjMPTFdmSK4Lqa/nI6dw0ZbqHbz1CZnJsC6vul4IFAKFwCkhUIbpKbVW0VoI7IkApY/nlGFqbSMFxzkF0fUYr7tmT7miZFGW5Edhql16/xRF+MC8q1jGsM8TSQdLUYDn0MonZZenyvRCBgQFGC8wHrLr7ybFuSGsfmaPQAwYhqn2NTCCBw1IGIgYejdfPGNA40tf+lJjWPKc4jOeWt/p5Sl0P+ky4wL/MUQFRhw62/1I5ML9GLDqkf+7Dqw1D07wg0aeUnVCd2SsK/ddUlJfxij8aiZDF6H6XwgUAktFoAzTpbZs1asQaCFAcWN8OtqoiOJDWaL4rPr+YF8PRNswZexEoaKQuUcxrvDHz2HwKMMcJjxH1tZFoY6HhMEgnXZxTTrG4r4DB13stY92iuFL4dXWFGXlMICVFeW/+3z9Py0EtC0eE7VpPHj+82xGZvEFfhMZi+SXEeUZciw9vt3WL7QNYc9JzwAOX8vfdF+85r78PYMOtAnS+J8ZGOhAH5lwPfm65lxE35xC5AzNu3yvNM/VTIY5tWbRUggUAlMiUJsfTYl2lVUIHBkBiiJFLrto2hCJ4pi1YDbioCj22ZBDVZIfxdBmSJ51rF16P93Q169fv7h8+XLjrfZ9wUuXLl1QuKNQZ9fOF1988eLKlSsXb775ZvMdwm66T+e6+z+GKA8Mrzkln3HMM/XMM880nm80RfHfPfd6Yu4I2JCIjGbXboMQ2twAyD333HN7EyI8ol945513mirt2i+kHP0MfvIfz9llWv9wxx13NNdlbkovY9RRDP+hQb+EPvetkU985ZVXGsP6zjvvbIzbu+66a1bQR87UwSCQOpGzTOFdZ+DnORue8bTaiMyzjz32WDOTwTH4zKrCRUwhUAgUAgMhUB7TgYCsbAqBU0CAUhpvWJ/vD65ToFLXdn48MDyCFDEj/+01Ykl/bsd4QGAiUrAZAfFeBw/eIt4V+PFWMVgp5N10Sd/3mPIZoaK8GRyuU3CVUWtJ+6J5+unIM94S9QN4UcQXPi+DB8Mzjq7zcOJP6Q1k4BvPk/11/UPKkXfSMDLlRw4877vKjryn0uB9ZSqHgea/4+OPP96k40E19VwemW1APsjUXAJa1IHHE63whBM5E9P3ht5g3ZVP9YaJ9DWTIWjVsRAoBM4BgTJMz6GVq46FQAcByiWDhHIomG7GG8GrIUQpojj2Cckva8Yoj+01Yn3yWGIaCmc8lBRUCnUUVP8Tko7R6D6Fm0JKMW2nS/q+x+RLqRcpwvKXt/Z3ru0qnCcCeAuP4QG8wAgkt11Dad/dfJM/T6HA2MTjjgI+N4BlTaqg32jzu/88h/oj/Os/Hp5rQBsa1S9rt+GZdbVdutfJp7bwXNpG+5ScdtGr/4VAIbBEBMowXWKrVp0KgS0IRGGUjOeUR4QnIyP9rlMmeTykpRhuCskvhlQUNEoahaqtbG7KZ2n3KJ4Uap4TRmmMzRj8cI8i6wjneEhgn3S74gJ/ZSvXoANFWf7yi3FM+dVeFc4XAfyGJ7p8Fr7EP4fs5pv84znVF3zhC19oeFFfw8PIIytd+hneQryKh9FBfgTX/J9zQB/M9KUC+SLP3ZkPkc8YsOromRigGTgq+WxgrJ9CoBA4IwQ2a5tnBERVtRA4RwQoQkbzt31/sKu4rsNKfgxaSiTPCCVU/ueqYMUwhccqz4nrPEKUWYFCOsSuuPHExCiVt/LjiWUoaKsKhcAqBDLQRO4NYMRYZEyS61138+3mxyAzQyMGmXKkibww0pwzXMmIwJibe4jcmRYdOdYf6v/ULyHpeFWvXr3a1BXO0pJT/UDJZ9CqYyFQCJwTAmWYnlNrV10LgQ4CURhd7vP9wbZy1cmq+RvDlKFFoWQYZbqwe9ueX5XnKV6LR4QiT6kXKJ7xnOQ+nGBEUaWU7rsrbvKTjwh7BoRzuPOSGiBQPiW570DDKWJfNB+OQDyd+AS/xIPq/767+Xo2+aHQsgHygf+FlMMojTHq+ty9pKERzZmZAD+ynM88+a8fWCef6k7+RUap/xUKgUKgEDhHBMowPcdWrzoXAh0EGC8Ml23fH9ymMCWfz33uc83UNIqaYLrwOXlOKaCb1pZSUt0XYzzCR4ThriHl8UCJDNUYwnYBjoeUYXAugwO7Yljp1yOQASz8g694A2NA2kmXUZYdc93PVNR1AyHpJz744IMmH3mJPKR4+dSC+rdnPsBA1F/CLvLelU9pai3pqbV20VsIFAJjIlCG6ZjoVt6FwIkg0FY8KY1G+HnceDQoU1kLpjrurzNukg9FzDklM8+fwy69cGIUws2unJRtyidFnXEIk+79rD2NEr8Ly8RTmrVqvE+UZG0kX3nGa7NLvpW2EGgj0PWg4mURr+2ym2/6DV5QsiI611+cYoj8dWc+xOsZT2nkU1+oTyCfYgz4bQN+p4hN0VwIFAKFwD4IlGG6D2r1TCGwUARiWJpSJjCurCeL4mgaXx/PZ/KhhFHKKKA8A0sPFFXKehRR9X322Wcvvvvd7zbek233d8UnntKsVYMzb1amBMZTumu+lb4Q2IRA5JtxZeCl726+McAM3OhXMmNgU1lzvhf5Sz3g0Z75kPuRT//hRT5rLemcW7ZoKwQKgWMhUIbpsZCvcguBGSIQzwiDxrmYqXpZD9Znzagpf7x1DFrPxSCLNy+ekxlCcBBJvD+8J6JzijgcKKMwgAWvCc8mIxLOvCbS9AnyoNwmwrO7lpQRTPFVtnaoUAgMjUD6iS5/4Xk8if9X7ebb7gusMZUWT08ZPvroo6a4z3zmM3sXS3Yjz+3vlZI5fRv5NCjXlU/3yWYGjvyvUAgUAoVAIfAJAmWYfoJFnRUChcD/IhCPCCOHUcUDyMPhKGxbMxrPQXb7pagxoJa+S6968p6oK9wYnbCgxFJSGaVXrlxpFFeelW9/+9uNAfm/sG89JH/5iPJVjsgDw9Cl7Cpzqcb/VpAqwdEQSL+RtagGpvA9gzRLA2KMHoM/GaUxTIG0r3Eaec7MCAY5+bNcQT31lavkM7JJPsUKhUAhUAgUAp9GoAzTT+NR/wqBQuBjBNoekUwH5TnlCaFkCps8p1FQpeM5ocDxIFDgbLBEcZVGOUsI8aBQutWVQh7PJQVUvWHnnjTqb+0nz0kfBZUizCiNIkzphWcU3FqrtgQuOv06tPsNRlg8qGT9nXfeub2m1HXX8DXZGSrIS3/zP//zP83gmaMyPvzww4vf/e53F7///e8v/vCHPzTFffazn72wSdsdd9xx8fnPf76hx8CZfs0x31ddRVvkOTMjUm9pyaUYOc8a8j5LIFaVVdcKgUKgEDgnBJahFZ5Ti1VdC4EjIEDJ/MEPfnDxwAMPNLtvMpCEvp5TCqLv9VHkeBUYVPLsTgU8QtUGKTIelCilFFW74VJG1dX1tifV1F3GJAwo6NtCPKW1Vm0bUnV/TgjgbTyeYFCKd789SEN2hgqM0rfffvviV7/6VSNzjgxERvH777/fGKyMU4FRygC96667msEydOrf0Od47733rh04izxmZoR+TNn+k3WBBzVynsG95kb9FAKFQCFQCKxFoAzTtdDUjUKgEAgCFK+sg4zSRzmjYFLweBBWGZpRTGOAZWofZZHBthTDNB6UKKW8JFFG4cTLrO4MVgYpb6n76+ofD6x88zysnceor7Vq4c46zhWBeBJjnOLdBx98sBmMwc/4+5DAyDToRbbee++9i1//+teNUWqnYNfefffdZo28ATRe03hLlencNfdM6U1eZOytt95qjNMvf/nLF/fcc0/jReVV5XV1H+3WiZP39G3qor5kXzQopc9c1S8eUud6thAoBAqBJSNQhumSW7fqVggMjAAli+eUQpbNS5zzMrge47VbLIWUIcVA41mgOHpmKYGy2vaIZm1prlNkGemu2zUXTjBZF+KB9Zx8KdmehxlPjHbwfOK6fOp6ITAHBDJAhV/xMAPPDIpDA8OS8Uk+XnrppYvXX3+9MU5N073vvvsu7r///mYQ6O67724GgUzPNZAmMET1RQxKyxTkw7Alc4xWRukjjzxy8c1vfvPi4YcfvviLv/iLJh15zHp7fZ9okEn/ZsCpvht8aKvW84VAIXDOCJRhes6tX3UvBHZEIJ5TR4odA8q0Xsqc6W/CKg8BhZTi5jneUsocxZGHwT2K6ymGeDYpxoxueKgnA9Q5XHhWGKhwYZDGi7Kqvp6RVl7B1fTAeFrlW2vVViFX1+aMQDyn5ByP6wdc2zfEu8mzychloOpTGJjyZURaMvDQQw81xikjUz9j/WjKJbu8peSNQXrr1q2LL37xi02/xkjlgb1x40aTvz6L8Sn/559//vau2um7MkOCbNd3g/dt1XquECgECoGP9zgpEAqBQqAQ2BUBChkDKRsgMaT+5V/+pZlGt8pzmvS8FRTIvmtUd6Vr6vSUbEqr6Dz1ZIQyKBmm6uo6Twql1fm6EA+rT1BYT8qbw8PU19O6Lt+6XgjMAYGuvOxLE0OU4fjqq68260cZvF/72teaXa4fffTRZhBI38TQzEZGNjlilGYnXufSmKLLo2pgzfdYGavk+fr16438/uhHP2rI5D1V7ssvv9x4WsklY9UAW2TU/03yvW9967lCoBAoBM4FgTJMz6Wlq56FwIAIZGqeLClyAgNMpOTFQ0hJkzbpXedd4GHMtzx5Nhhyq0I8ku7JI96OVWmPcY3hyPhkmPMCZX0ZutXPPSEelXX1lA9lmNHuGfioq/SMUgbtJk/rMepeZRYCfRFgkJL9zASwq7T/+wYGIhkxFVfkIf3qV7/azFb4+te/3kzD3ZY3A5VRKmaALc/woMZ7ak29yCBVD5srkctvfOMbzeAcw9R/UR9QoRAoBAqBQmB/BMow3R+7erIQOHsEGJ5tzynD9PLly42SxnNqWmtbYUt6G5bwsFL0rJlcF+Jhcb+dz7r0U1+nXFtzxqhkYPOYoJmBGY+n+sFokyfF8z/84Q+b5xjgPDC1lnTq1qzyxkIgcpKZAPoJPL9vIGPWqRsE+5u/+Zumn+EptabULruHBnkwcOVPpq1f/elPf9pM5bVb7xNPPHHx/e9/vxkwysCbY4VCoBAoBAqBwxAow/Qw/OrpQuCsEaCMMRgFntN4EOM55TlknFLupOVR4Pnj7XjhhRcaI46CyktI2Ux+jjFK5cV76Nm5eCTiyVUPXiC0qiPPqLr8/+2dC48URduGm00kxABCwEXkIAclQYPhZDSBmBBJ/An+VgwxnwkJBgETDksCspBFRREEAdGguN9e9X0Pb1HvzG7vTvf07M5VyWxPd9dUP3319GzdfdeBmMkDGxxPzjmPnfxU1uMVn2E7+XnZl3Ssb62hnnx8n1mSyvUymHJ/uV7m5z5hsLRoRcD3ngc13BO853s/X2LQonXr1qUsT548Sb8TOJWIUQYT416hHykuZxOJ41EeTipx0gwYpzRSNP9l+hvex4BKsd+lBCQgAQksjYDCdGnc/JQEJJARCCeUCh2JCigjV9IEjhTNUkN4Irw++eSTJFDpi0k+BCpCDqeVJesIPMqhAouLGCI4FdrhHyrSxMeL93FeVNBxgtlOZRlRHq4xeSJRGcdppUkjLwR9iNg6o/ZGOS4l0ASB+D7zPSSxxJGM9fIYbOc7HvvL9TI/9z/ff+4Pfit4gMP3nc/x/aes+RKilD7aJPp+8vnPPvusOn78eOoXioiM3575ylnsvhCoNKUnnTt3rvrqq6/S6L88kGJwJZoR04/VJAEJSEACgxNQmA7O0BIkMPYEQpgBgj5fVERpyooAo+JJhRQxiqtIxZTl0aNHk/C8PdfsldE1GQkT8cnUDLgi09PT1bVr11KerVu3pvkKRwU0FWpczuhbGs4P54s7xPlTmeUcqYCHW4oAIA+fDfeIstgfI3ral3RUrvLoxNHPkWxqe3wvWZJYMgJtrJckeuUnln4pfh/iPmDJfcH9w/0fwpRpXrh3cCB5jxuJC4rwpAkt/ULpX8pcqB999FHjTmkZP3FwfJoI45oyAjDO77Nnz6qZmZl0DohXhWlJznUJSEACSyOgMF0aNz8lAQn0IBDOKU3c6HOJ+MIZZPRMHFKEWvS3ZElf0/+Zm8+Q/VQAedGfi4oszghOKkKO8phbcFQSMeV9S6lM4+yynQo3AhshznvOJVJ8Di64wez74osvkiiFXbwiv0sJQAAhmDuUQYWHGr2cTbb3y99rO99DvnvxXS3X43ixJC/3d9383B/kZUmKdfqccv9HYjuiFaGHKMWNxJVkGw+8EIrMK8q9RTPetpzSiCeW4ZxyTFzaW7duJUGNWOUex8E1SUACEpDA4AQUpoMztAQJSOD/CVD5pKJGRZLKKxVNmurijIRzSiWPiiX7Q7jhtlCZxjlFpJJwFRFylIFLMgrCNByq6FtKfEwjQbo95/ywP5rv4goTO3nJxwtRAA/ec/4IWAQ7Lqlp+ROI7wdLUrlenmG5v1yP/KVDmW/v5WyGMOVzuSBkPWKLMliGIOS+JbGM+zhtKP6wnz6edfMXH3/Jhc9z7Ejx+0ELCRxSXhyHB1g4leRlShfuMVxMHmQNI+XO6ZEjR5JARlTfvHkzzYFKLPyu5ecyjLg8hgQkIIGVRuA//xFW2pl5PhKQQGcEooJJBZJEJQ5HEZFGwv0I55Q8NN2dmppKAjZlmPuDmKUiTeV1VIQp8SAuefGeF44Vifc4J5xXnBsCNO9LSh7EKEKUPnO8RwCYVgYBrm/uSPZzNONsQ0CyJJXrkY/7iQcZLPM03/Z46JMLyH75EVTsC2FVrufH5H25P9bLfP3Wg1PcR5GPe517A/GHM0pLCZjEwEmIP1xLRsxtYvTdOG7dZYzWS1NeftOYVoZWHSGkg1/d8swnAQlIQAKvElCYvsrDNQlIoAECVNCoZIZrSJFU4BCbNGMlUcmMijJN8mZnZ6uHDx+mfmTs5/2LFy94mxyTeJ82dPSHSjJOLi/eRwU7zpVKNS9EBKI0+pLSbJdKOPkQr+ShD6qidLgXsp8j2dR2vg9cd5Yklr0czTjrXvnrOJrxeb5PbTqbcZymlzyIQmzSJJbmsPQr575gGS0OeLjD7wj3Dn1LcUdp2sv58nvRReI3i2MTA7HwoI0HU/y2MUBTOR9qFzF6TAlIQALLmYDCdDlfPWOXwIgTQHhSievnnLKPinwknFEGQSLxHrGKAOTVq8IenxvWMhxQXFDeExOCE6HJvKMhNiNf9CUlPvaTLx8Ealhxe5z/I4AQzB3N4ML3a5T7aoYjWTpy/bbHeZX7Yz32d7XkHv/222/T4GYIvAMHDlTHjh1LbigPdeLFNbk910QeAYjzS7/WURB/xICIpokvsREjAzLZ17Srb5THlYAEVgoBhelKuZKehwRGkAAV4XAJcU+j3yiVuRCthB1N+nBF6U+WJwRq1015w1EjThwcXiTOLSrRLMmHGCVf3pc0mvgiTBHjfM7Un0DwZkkq18tPlvvL9chfOpT59l7O5nz5I7Yog2V83+P6spzverM/b2q7UP78WMvxfVwXHtzwghdNc3FHEaYMdJQnfgtwIxGy9ONk/7D6leZxlO+JgVho0vvTTz+lGMvfrfIzrktAAhKQwMIEFKYLMzKHBCQwIAEq+LgfvKKyz2BIiFNSbBvwMK19nPgQmzgj8eJgCE36iuLkIETpR8t5kZ/+o7EfUY5wRXjEObcW7AooOHjjZJL6OZpxquzn+uT58/XIB3uuQ3kN+m0nbz767ELlhCPJklSux+djWe6P9di/0pZxXR8/fpwGNkK0M+3Le++919NtjPw8NKA1AuJ0FKZmIQZiuXfvXnJ9cU6J1SQBCUhAAoMRUJgOxs9PS0ACNQhQ4UaUUdHnhWjANe3lOtUoblFZaA5Mop/aUhOCB7c3+ooSN5VqBCduKOv0mSMPwjXOE2EazXuXeuxR/Fw4X3H9yvUy5n77+22nko+jFpV9lr0czThOr/wRW+RhGd9Dvot56udUsj13NOMz/fLHfpfzE6A/Jg904Mgou9xLvRItJR48eFD98ccf1RtvvDG06WF6xZJvi76mxMRvA78xxGqSgAQkIIHBCChMB+PnpyUggRoEEGo012OCeoQboqOXo1WjqEVlocIYwpQPLlWcEi/9SqNvKRXpzz//PDmilIko/eabb1IlFaeUPrX0KY1pcRYV9DLIjBDMrx+V8159NONU2J/nX2h76WCW6/H5WPL9yp3NfvnDkWSZp6Vuz8vw/cIEuC7cO1wv7hO4875f4vcCdxXRh4glL4MldZ2IgViIiSa8dEEgVpMEJCABCQxG4NX/zoOV5aclIAEJJALhhCFgeCFMQoyyvthEeZTBi8ptCAu2M/UMlUNcFZaUT0WWiiIVxpj/dGJiIg1WQqVy9erVqRya5DGQCUtckCg34qMs4o7RdRHVJCqk5I3js8Q5xUGNUUURpf2coFRIi3+Ih9hZ5qnf9shT7i/XI19wYUniukQz7fz69Mufby9jZB9sYcyLxBKWsZ42Zn/YnjubC+XPPurbIRIor+t8h+aBUvQ55x7m/uReLe/R+cpoax8xEAsxxe8MsRLzUh9+tRWr5UpAAhJYTgQUpsvpahmrBJYJAQQLDhkvBAvCjr6XLNmG2AtRU+eU8vJygYIopZ8XA6QgGllSPs3/cFrCzeAY9ANDgDIXIfMjUs62bduSc8NycnLyvyq94ZTSd5RmvKyHw/P1118nMYoApckuDillsj9edc6tjTzBC8GYpxCQ5fbIw3b4xf5yPfKVjmQI2HDESgEJj9zR7FdObKfinwvccj3yxbLcH+ux3+XyIhAtHRCkCD4S9y/XdRSEHzEQCzGFgCZW3pNGIcYUiH8kIAEJLDMCCtNldsEMVwLLkQDCBZHDi/e4l7iWLFkPV7PfucXn6WeIU4HwYp7TmOAe8UufVUbvJA/uKa5pXi7v2cY+Ko7hxiA27969m0QqcxRu3LgxHYP42IegPn/+fJqDlfgRXcRDDAgunFLEKU2VEaaLSVEOS1K5XpZV7i/XI38ISmLMBR7r9tUMSi4lIAEJSEACEhglAgrTUboaxiKBFUIgnDOE2665vmS4ZbyYSoV+mjMzMy+FKiIKwVgnkQ/xyeu7776rbt68mcQpApemnIyUyWBDDEqCgKSpHa4GCSGKw8rxEGeUgbDFxUW0Ikr37t1bHTp0KM1RyPyKIUwRp7xHCOIoIkARo0ePHh2oLylCsXQoF9NXMwQoyzyFYI3rEA4m61wTlr1S6Wz2yx+OJMs8LXV7XobvJRCOYzS/5/7k/uV7zXcs9ndFCmeUWIiJWIiTF++7jq0rJh5XAhKQQBMEXq1VNFGiZUhAAmNPgMojYigEEYKHF+4ijmQIU8QeTifzAZIQamxjnYpfvBCU5ENEsg1RSdNdBCbHQkQifJlbEHGKyOR4eZ80PodbSvkIUuYfZD5CKpeUhwN748aN1GcMsUh/UQY1Qvxy7BBplMs+BDcCle0hMDkG71nmqd/2OF+WJJZNO5rEG9eBJTHHeh4j79luX82SiutdEEDgRfN7HkjxG8D9yz1Na4YuU/yWEFP0WSdWRWmXV8VjS0ACK4GAwnQlXEXPQQIjTgDxFoIIQRfCE5H4ww8/pP6gnAKCsJejSn/RqamplJd+pIhR5j7Esdy3b18qmworQjMGMqLCmLsrvI9KLY4q/UqZqoLKLse9fv16Er6nT59ONHFPOS59WCN++pLSZBeBTaWU+IkXAUvq52D22x5ilyWpXE8bsz+IzLyv5kL5OWfysCSV61nRPfdH/jKf6xIYBgHuYfqEc49yD3G/IUq7FqYMeEQsxBQDqBGrSQISkIAEBiOgMB2Mn5+WgARqEEDg4MaFYxcfKQUbAjF3VHE2Ea5UBGniiquJq4grunv37jQC7v79+5NDGmX2W+JmRKUWgZonjhPuKcKX16VLl5KARoASN2IWYRgOJE4rsRBzJNapsLLME+uli8r+nAvrwYdlr8R2Hc1eZNy2EglwvzJQGfcuLQm4T7kPy/t32OfObwKxEBP3JC02uhbLw2bg8SQgAQm0QUBh2gZVy5SABGoRwM3DSQ3RxvvcUb1z50517ty5NCIuApAK6bFjx5JriVOKQMVRGTRRBgKXSi/NdOm/eubMmdSElwonrgiOSDikIVCJP0+loxn7+jmb4UiyJJXr8flYlvtjPfa7lMBKIhC/D9Hcnub3tHToOjHaN7HQBYDfDH63yt+CrmP0+BKQgASWIwGF6XK8asYsgRVCAGFVuoNU8qiI0q+M/VevXk2VPqZzoRnrxx9/XH344YfJJcXlbCIxSBL9UhG+iEtEKE14cTpxRRCmVIhpwotQjcpoGXvpaEZsbOe8yvyx36UEJPDfBOK+QwhGqwaa33ed6IpAP3liwi3lt4FYTRKQgAQkMBgBhelg/Py0BCTQAoEYfffWrVvVxYsXkzj89NNPU5/S999/P4lIxGTTKQQqI/uSaEb45ZdfJoF88ODBNGIvFdF169a90ncz4ggHk2WeYnu+zfcSkMD8BHhQRAsKWiow8BkPrOhv2nUihunp6dSigi4FxNh18+KumXh8CUhAAk0QeLX21ESJliEBCUhgQAJR8WPkXfpzIQYRi007pWWYjKyJC0sTYVxT+rZSIcYhwRGhyS+DLuGcmiQggXYJhGPKPMNMGUPTWZr041RyL7bxcGq+M+K3iAHRiIFYiIk+3zqm81FznwQkIIH6BBSm9VmZUwISGBIBBjminyfCFCGIK0GfUprbDqMyGs4pxzx+/HiFc0ssiFWa5CpMh/RF8DBjTYD7kCb8CD/ufX4XGD2bh0d1Bz1rEiCi9Nq1aykGyiUmYiPGYfwuNXkuliUBCUhgFAkoTEfxqhiTBMaUAIMgxYiXzB9K/06mhKEZLS5mU31KF8KbO6dHjhxJ8ymeP38+zWmKW0MsVETLJrsLlet+CUigPgHuL14IQKZvYp7haNIbo/NyH3K/tploQszvEgMeXbhwIT2o4vjERGw2422TvmVLQALjRGBinE7Wc5WABEabAJU/Bh1iuhYEIAnXEnekidF3F3v2MVovMZCIidiIkVhNEpBA+wSYQurQoUOpLyfilBGzcU65H4dxH3IMjsUxOTYx0K+UmIjNJAEJSEACzRBQmDbD0VIkIIEGCDD6JsKPOUsnJiZS31KazuJKdNFUjmNybGKgnysxERsxEqtJAhJonwCO5J49e5JDiVNJH/Spqak01zD9T+kDjqvZdKJMyuYYzGvMMTl2uKXEpFvaNHXLk4AExpmATXnH+ep77hIYMQJU+m7P9eW8f/9+GlSE6WFGoeIXFWOaDBIbMe7YscO+piP2/TGclUmAKZp4METLhRMnTqQppK5cufKyVUU09226qX84pQjSU6dOpYdSxMCUNSyJidhMEpCABCTQDAGFaTMcLUUCEmiAQDimjHhJP86dO3cOrV/pfOFT4SUW3BP6memYzkfLfRJolgAPhBihl5YLhw8fTi0XGAiJ1gtMJ8V8wwhFfjOaGK0XQcpAR9zrNN9FmHKsNWvWVAcOHEh93onFuUubvc6WJgEJSEBh6ndAAhIYGQJUMJmKgUGPmB6GiuYoVP6IgVjoW8qonFSUidUkAQkMj8DatWtTc94YdOzy5cvV2bNnUzNbRs9moLImRuuN0XcZ6Ig+pbTkQPgiShmMjZYcxGKSgAQkIIFmCShMm+VpaRKQwAAEnj9/Xj148OBlP66u+paWpxB9Telb9vTp02p2drYiVpMEJDA8AtGklyMygjfziPKwiAdZTOnEAyNaNeBm0vyelg48VOL+ZaonBO2qVatSwNzDlMFcxTiktNbgs4hQHo7hlFIm2zZs2JCa7zI6OKKUJrwmCUhAAhJonoDCtHmmligBCSyRAJVE3ApEH44EFUIqlF0nYiAWYqICy6AoxGqSgASGTyCcU8Tnli1b0jRO9PtmSideCEcGJqL5PS0deMDF/Uv+cFsRpYjQR48epb6qNNudmZmppqenK7oSkHgQdfLkyeTS4pgieHVKh3+9PaIEJDA+BBSm43OtPVMJjDQBHAwEH8IPJwSXI69Idhk8lVliISYEKXHyIuZwYLqMz2NLYJwIhHOKG4p43LRpU3qAxdzHTOvCAGXhnuKokgdByf3LdhL3L04pLSBwXBGj8Vl+fxCzzFPKlDCIXMTuKHQrGKfr7LlKQALjR0BhOn7X3DOWwMgRQODxokJIhZFEBTJvetdl0IhPYiGmENDEynuS4rTLq+Oxx5VACFQEJ24mwjKmm0Kc4oLSJxzxyQMvHirl9ywtIRCbiFbEK+Jz9+7dyYXdtm1bEqfMU8pDKUffHddvmectAQkMk4DCdJi0PZYEJCABCUhAAo0Q4EERwpLX5s2bU7PdrVu3JnF6e65pLyI1f5gULR04OHMSIzYRnQhShC1idNeuXWk5OTmZ9jUSqIVIQAISkEAtAgrTWpjMJAEJtEkgHEcqi1QkwzmlH9gouKa4LMRCxZZYiZMX7yP2NvlYtgQksDABnFME5bp169I8w7ikjJ5Nn/Vogs9vCyl+a3BNEahMBYPARaiypCyTBCQgAQkMl4DCdLi8PZoEJNCHAAIvHBAqkvT/YnCSUWhGFwOlEFNUZIlVUdrnYrpZAh0Q4CEWL34zcFDLxAOmvCmv929JyHUJSEAC3RKY6PbwHl0CEpDAfwgg+tavX58cC/qFMWLmKIx+SwzEQky4KcRIrCYJSGD5EECI5q/lE7mRSkACEhgPAgrT8bjOnqUElgUBmtQxwiaDkTBSJoOZ4FJ2nYiBWIiJ2IjRwVC6vioeXwKLJxDCdPGf9BMSkIAEJNA2AYVp24QtXwISqE2Afl4MQsIImUzfwKia9BPrOhEDsRATsREjsZokIAEJSEACEpCABJohoDBthqOlSEACDRCgmSwjYzJKJg4lE94/e/asgZIHK4IYiIWYiI0YidUkAQlIQAISkIAEJNAMAQc/aoajpUhAAg0QYNCSXXPTNdCf8/vvv0+j4DIAUteJGKanpyvmRmSeQ2IkVpMEJCABCUhAAhKQQDMEdEyb4WgpEpBAAwTCMd2yZUuaMoamsz///HNnfU2jbykxEAtTTRCbjmkDF9siJCABCUhAAhKQQEZAYZrB8K0EJNAtgZiHEOH35ptvpmCuX79eXbt2rXr8+PHQg+OYHJsYSMREbMyV6DyHQ78cHlACEpCABCQggRVMwKa8K/jiemoSWG4EYh5CBODevXurGzduvGzSy6BDNJ9FEDKHaJvpxYsXaTRgBjy6cOFCdevWrTToETERm81426Rv2RKQgAQkIAEJjCMBhek4XnXPWQIjTmDjxo3VoUOH0hymp0+frn788cdq+/bt1YYNG5IwfP3111s9g2jCi1N65syZNADTyZMnU0zEZpKABCQgAQlIQAISaJaATXmb5WlpEpBAAwRwJPfs2ZNcU5xSBh+ampqqLl26VN29ezcJRVzNphNlMgIvx+BYHJNjEwNuKTHpljZN3fIkIAEJSEACEpBAVemY+i2QgARGjsDq1avTtCz79u2rTpw4UV29erW6cuVKGgSJYGnyS5Papp3TcEoRpKdOnap++eWXihg++OCDtGSqGGIzSUACEpCABCQgAQk0S0Bh2ixPS5OABBogQB9SRuh96623qsOHD1cTExPVw4cPk1C8ePFi9ddffyWh+Pbbb1fr168feCAiBCkDHdGnlOa7CFNE6Zo1a6oDBw5UBw8eTLE4d2kDF9ciJCABCUhAAhKQQA8CCtMeUNwkAQmMBoG1a9emJrQ4pKTLly9XZ8+eTc1sjx8/Xh05cqTav39/ck8HiThG32WgI/qU0nwXpxRRevTo0eqdd96piMUkAQlIQAISkIAEJNAOAYVpO1wtVQISaIBANOmlqH/++SfNI3rv3r3q999/TyPl4qzSJxRnlb6fNO3F1WTk3tdeey01+V21alWKZHZ2NpXx999/pxF3//zzz/RZRCjzlOKUMvou5THIEs13cUoRpTThNUlAAhKQgAQkIAEJtEdg1Vxlbba94i1ZAhKQwOAEnj9/Xj19+vSlgLx582Z1+/btJFApHeHIwEQ7d+6saN5L/1PEJWI13FaELSL00aNHqa8qzXZnZmaq6enp6rfffktBMsjRrl27kkuLY4rgxSm1X+ng19ASJCABCUhAAhKQwHwEdEzno+M+CUhgJAiEc4obinjctGlTckQRqL/++mt1//79NLcpbieOKnkQlPmcpzE3KQIXxxUxGp/9999/k5hl5F2mqUHkInbtUzoSl98gJCABCUhAAhIYAwI6pmNwkT1FCawUAohL3FOcTwZDQlgyxykDFSFOEZuITsQnTXVpthuNQmjSS/NexCaiFfGK+Ny8eXO1ZcuWatu2bUmcMk8pTitimKbCJglIQAISkIAEJCCB9gnomLbP2CNIQAINEYjRehGXCMrJyck0Ki+CkwGMnjx5Ut25cyeNrvvgwYMkUGO+Uz6LIMVtpbkvI/3SVHf79u3Vu+++W+3YsSOJ1YZCtRgJSEACEpCABCQggUUQ0DFdBCyzSkACEpCABCQgAQlIQAISkEDzBCaaL9ISJSABCUhAAhKQgAQkIAEJSEAC9QkoTOuzMqcEJCABCUhAAhKQgAQkIAEJtEBAYdoCVIuUgAQkIAEJSEACEpCABCQggfoEFKb1WZlTAhKQgAQkIAEJSEACEpCABFogoDBtAapFSkACEpCABCQgAQlIQAISkEB9AgrT+qzMKQEJSEACEpCABCQgAQlIQAItEFCYtgDVIiUgAQlIQAISkIAEJCABCUigPgGFaX1W5pSABCQgAQlIQAISkIAEJCCBFggoTFuAapESkIAEJCABCUhAAhKQgAQkUJ+AwrQ+K3NKQAISkIAEJCABCUhAAhKQQAsEFKYtQLVICUhAAhKQgAQkIAEJSEACEqhPQGFan5U5JSABCUhAAhKQgAQkIAEJSKAFAgrTFqBapAQkIAEJSEACEpCABCQgAQnUJ6Awrc/KnBKQgAQkIAEJSEACEpCABCTQAgGFaQtQLVICEpCABCQgAQlIQAISkIAE6hNQmNZnZU4JSEACEpCABCQgAQlIQAISaIGAwrQFqBYpAQlIQAISkIAEJCABCUhAAvUJKEzrszKnBCQgAQlIQAISkIAEJCABCbRAQGHaAlSLlIAEJCABCUhAAhKQgAQkIIH6BBSm9VmZUwISkIAEJCABCUhAAhKQgARaIKAwbQGqRUpAAhKQgAQkIAEJSEACEpBAfQIK0/qszCkBCUhAAhKQgAQkIAEJSEACLRBQmLYA1SIlIAEJSEACEpCABCQgAQlIoD4BhWl9VuaUgAQkIAEJSEACEpCABCQggRYIKExbgGqREpCABCQgAQlIQAISkIAEJFCfgMK0PitzSkACEpCABCQgAQlIQAISkEALBBSmLUC1SAlIQAISkIAEJCABCUhAAhKoT0BhWp+VOSUgAQlIQAISkIAEJCABCUigBQIK0xagWqQEJCABCUhAAhKQgAQkIAEJ1CegMK3PypwSkIAEJCABCUhAAhKQgAQk0AIBhWkLUC1SAhKQgAQkIAEJSEACEpCABOoT+F9HEBosW6AClwAAAABJRU5ErkJggg==;imageBackground=none;fontFamily=Times New Roman;fontSize=13;" vertex="1" parent="1">
          <mxGeometry x="33" y="584" width="370.62" height="230.15" as="geometry" />
        </mxCell>
        <mxCell id="YfHYK15kVr6HZqa1mmcm-2" value="" style="ellipse;whiteSpace=wrap;html=1;aspect=fixed;fontFamily=Times New Roman;fontSize=13;" vertex="1" parent="1">
          <mxGeometry x="599" y="729" width="17" height="17" as="geometry" />
        </mxCell>
        <mxCell id="YfHYK15kVr6HZqa1mmcm-3" value="" style="ellipse;whiteSpace=wrap;html=1;aspect=fixed;fontFamily=Times New Roman;fontSize=13;" vertex="1" parent="1">
          <mxGeometry x="496" y="657" width="17" height="17" as="geometry" />
        </mxCell>
        <mxCell id="YfHYK15kVr6HZqa1mmcm-4" value="" style="ellipse;whiteSpace=wrap;html=1;aspect=fixed;fontFamily=Times New Roman;fontSize=13;" vertex="1" parent="1">
          <mxGeometry x="496" y="712" width="17" height="17" as="geometry" />
        </mxCell>
        <mxCell id="YfHYK15kVr6HZqa1mmcm-5" value="" style="ellipse;whiteSpace=wrap;html=1;aspect=fixed;fontFamily=Times New Roman;fontSize=13;" vertex="1" parent="1">
          <mxGeometry x="599" y="590" width="17" height="17" as="geometry" />
        </mxCell>
        <mxCell id="YfHYK15kVr6HZqa1mmcm-7" value="" style="ellipse;whiteSpace=wrap;html=1;aspect=fixed;fontFamily=Times New Roman;fontSize=13;" vertex="1" parent="1">
          <mxGeometry x="599" y="637" width="17" height="17" as="geometry" />
        </mxCell>
        <mxCell id="YfHYK15kVr6HZqa1mmcm-8" value="" style="ellipse;whiteSpace=wrap;html=1;aspect=fixed;fontFamily=Times New Roman;fontSize=13;" vertex="1" parent="1">
          <mxGeometry x="599" y="684" width="17" height="17" as="geometry" />
        </mxCell>
        <mxCell id="YfHYK15kVr6HZqa1mmcm-11" value="" style="ellipse;whiteSpace=wrap;html=1;aspect=fixed;fontFamily=Times New Roman;fontSize=13;" vertex="1" parent="1">
          <mxGeometry x="599" y="774" width="17" height="17" as="geometry" />
        </mxCell>
        <mxCell id="YfHYK15kVr6HZqa1mmcm-18" value="" style="ellipse;whiteSpace=wrap;html=1;aspect=fixed;fontFamily=Times New Roman;fontSize=13;" vertex="1" parent="1">
          <mxGeometry x="700" y="607" width="17" height="17" as="geometry" />
        </mxCell>
        <mxCell id="YfHYK15kVr6HZqa1mmcm-19" value="" style="ellipse;whiteSpace=wrap;html=1;aspect=fixed;fontFamily=Times New Roman;fontSize=13;" vertex="1" parent="1">
          <mxGeometry x="700" y="654" width="17" height="17" as="geometry" />
        </mxCell>
        <mxCell id="YfHYK15kVr6HZqa1mmcm-20" value="" style="ellipse;whiteSpace=wrap;html=1;aspect=fixed;fontFamily=Times New Roman;fontSize=13;" vertex="1" parent="1">
          <mxGeometry x="700" y="701" width="17" height="17" as="geometry" />
        </mxCell>
        <mxCell id="YfHYK15kVr6HZqa1mmcm-21" value="" style="ellipse;whiteSpace=wrap;html=1;aspect=fixed;fontFamily=Times New Roman;fontSize=13;" vertex="1" parent="1">
          <mxGeometry x="700" y="750" width="17" height="17" as="geometry" />
        </mxCell>
        <mxCell id="YfHYK15kVr6HZqa1mmcm-28" value="" style="ellipse;whiteSpace=wrap;html=1;aspect=fixed;fontFamily=Times New Roman;fontSize=13;" vertex="1" parent="1">
          <mxGeometry x="790" y="647" width="17" height="17" as="geometry" />
        </mxCell>
        <mxCell id="YfHYK15kVr6HZqa1mmcm-29" value="" style="ellipse;whiteSpace=wrap;html=1;aspect=fixed;fontFamily=Times New Roman;fontSize=13;" vertex="1" parent="1">
          <mxGeometry x="790" y="712" width="17" height="17" as="geometry" />
        </mxCell>
        <mxCell id="YfHYK15kVr6HZqa1mmcm-32" value="" style="endArrow=none;html=1;rounded=0;exitX=0;exitY=1;exitDx=0;exitDy=0;entryX=1;entryY=0;entryDx=0;entryDy=0;fontFamily=Times New Roman;fontSize=13;" edge="1" parent="1" source="YfHYK15kVr6HZqa1mmcm-7" target="YfHYK15kVr6HZqa1mmcm-7">
          <mxGeometry width="50" height="50" relative="1" as="geometry">
            <mxPoint x="480" y="740" as="sourcePoint" />
            <mxPoint x="530" y="690" as="targetPoint" />
          </mxGeometry>
        </mxCell>
        <mxCell id="YfHYK15kVr6HZqa1mmcm-33" value="" style="endArrow=none;html=1;rounded=0;exitX=1;exitY=0;exitDx=0;exitDy=0;entryX=0;entryY=1;entryDx=0;entryDy=0;fontFamily=Times New Roman;fontSize=13;" edge="1" parent="1" source="YfHYK15kVr6HZqa1mmcm-11" target="YfHYK15kVr6HZqa1mmcm-11">
          <mxGeometry width="50" height="50" relative="1" as="geometry">
            <mxPoint x="480" y="740" as="sourcePoint" />
            <mxPoint x="530" y="690" as="targetPoint" />
          </mxGeometry>
        </mxCell>
        <mxCell id="YfHYK15kVr6HZqa1mmcm-34" value="" style="endArrow=none;html=1;rounded=0;entryX=1;entryY=0;entryDx=0;entryDy=0;exitX=0;exitY=1;exitDx=0;exitDy=0;fontFamily=Times New Roman;fontSize=13;" edge="1" parent="1" source="YfHYK15kVr6HZqa1mmcm-18" target="YfHYK15kVr6HZqa1mmcm-18">
          <mxGeometry width="50" height="50" relative="1" as="geometry">
            <mxPoint x="700" y="620" as="sourcePoint" />
            <mxPoint x="530" y="690" as="targetPoint" />
          </mxGeometry>
        </mxCell>
        <mxCell id="YfHYK15kVr6HZqa1mmcm-35" value="" style="endArrow=none;html=1;rounded=0;exitX=0;exitY=1;exitDx=0;exitDy=0;entryX=1;entryY=0;entryDx=0;entryDy=0;fontFamily=Times New Roman;fontSize=13;" edge="1" parent="1" source="YfHYK15kVr6HZqa1mmcm-19" target="YfHYK15kVr6HZqa1mmcm-19">
          <mxGeometry width="50" height="50" relative="1" as="geometry">
            <mxPoint x="480" y="740" as="sourcePoint" />
            <mxPoint x="720" y="660" as="targetPoint" />
          </mxGeometry>
        </mxCell>
        <mxCell id="YfHYK15kVr6HZqa1mmcm-36" value="" style="endArrow=classic;html=1;rounded=0;exitX=1;exitY=0.5;exitDx=0;exitDy=0;fontFamily=Times New Roman;fontSize=13;" edge="1" parent="1" source="YfHYK15kVr6HZqa1mmcm-3">
          <mxGeometry width="50" height="50" relative="1" as="geometry">
            <mxPoint x="480" y="740" as="sourcePoint" />
            <mxPoint x="600" y="600" as="targetPoint" />
          </mxGeometry>
        </mxCell>
        <mxCell id="YfHYK15kVr6HZqa1mmcm-37" value="" style="endArrow=classic;html=1;rounded=0;exitX=1;exitY=0.5;exitDx=0;exitDy=0;entryX=0;entryY=0.5;entryDx=0;entryDy=0;fontFamily=Times New Roman;fontSize=13;" edge="1" parent="1" source="YfHYK15kVr6HZqa1mmcm-3" target="YfHYK15kVr6HZqa1mmcm-8">
          <mxGeometry width="50" height="50" relative="1" as="geometry">
            <mxPoint x="520" y="670" as="sourcePoint" />
            <mxPoint x="530" y="690" as="targetPoint" />
          </mxGeometry>
        </mxCell>
        <mxCell id="YfHYK15kVr6HZqa1mmcm-38" value="" style="endArrow=classic;html=1;rounded=0;entryX=0;entryY=0.5;entryDx=0;entryDy=0;exitX=1;exitY=0.5;exitDx=0;exitDy=0;fontFamily=Times New Roman;fontSize=13;" edge="1" parent="1" source="YfHYK15kVr6HZqa1mmcm-3" target="YfHYK15kVr6HZqa1mmcm-2">
          <mxGeometry width="50" height="50" relative="1" as="geometry">
            <mxPoint x="520" y="670" as="sourcePoint" />
            <mxPoint x="530" y="690" as="targetPoint" />
          </mxGeometry>
        </mxCell>
        <mxCell id="YfHYK15kVr6HZqa1mmcm-39" value="" style="endArrow=classic;html=1;rounded=0;exitX=1;exitY=0.5;exitDx=0;exitDy=0;fontFamily=Times New Roman;fontSize=13;" edge="1" parent="1" source="YfHYK15kVr6HZqa1mmcm-4">
          <mxGeometry width="50" height="50" relative="1" as="geometry">
            <mxPoint x="480" y="740" as="sourcePoint" />
            <mxPoint x="600" y="599" as="targetPoint" />
          </mxGeometry>
        </mxCell>
        <mxCell id="YfHYK15kVr6HZqa1mmcm-40" value="" style="endArrow=classic;html=1;rounded=0;entryX=0;entryY=0.5;entryDx=0;entryDy=0;exitX=1;exitY=0.5;exitDx=0;exitDy=0;fontFamily=Times New Roman;fontSize=13;" edge="1" parent="1" source="YfHYK15kVr6HZqa1mmcm-4" target="YfHYK15kVr6HZqa1mmcm-8">
          <mxGeometry width="50" height="50" relative="1" as="geometry">
            <mxPoint x="520" y="720" as="sourcePoint" />
            <mxPoint x="530" y="690" as="targetPoint" />
          </mxGeometry>
        </mxCell>
        <mxCell id="YfHYK15kVr6HZqa1mmcm-41" value="" style="endArrow=classic;html=1;rounded=0;exitX=1;exitY=0.5;exitDx=0;exitDy=0;entryX=0;entryY=0.5;entryDx=0;entryDy=0;fontFamily=Times New Roman;fontSize=13;" edge="1" parent="1" source="YfHYK15kVr6HZqa1mmcm-4" target="YfHYK15kVr6HZqa1mmcm-2">
          <mxGeometry width="50" height="50" relative="1" as="geometry">
            <mxPoint x="520" y="720" as="sourcePoint" />
            <mxPoint x="600" y="740" as="targetPoint" />
          </mxGeometry>
        </mxCell>
        <mxCell id="YfHYK15kVr6HZqa1mmcm-42" value="" style="endArrow=classic;html=1;rounded=0;fontFamily=Times New Roman;fontSize=13;" edge="1" parent="1">
          <mxGeometry width="50" height="50" relative="1" as="geometry">
            <mxPoint x="616" y="600" as="sourcePoint" />
            <mxPoint x="700" y="710" as="targetPoint" />
          </mxGeometry>
        </mxCell>
        <mxCell id="YfHYK15kVr6HZqa1mmcm-43" value="" style="endArrow=classic;html=1;rounded=0;exitX=1;exitY=0.5;exitDx=0;exitDy=0;entryX=0;entryY=0.5;entryDx=0;entryDy=0;fontFamily=Times New Roman;fontSize=13;" edge="1" parent="1" source="YfHYK15kVr6HZqa1mmcm-5" target="YfHYK15kVr6HZqa1mmcm-21">
          <mxGeometry width="50" height="50" relative="1" as="geometry">
            <mxPoint x="480" y="740" as="sourcePoint" />
            <mxPoint x="530" y="690" as="targetPoint" />
          </mxGeometry>
        </mxCell>
        <mxCell id="YfHYK15kVr6HZqa1mmcm-44" value="" style="endArrow=classic;html=1;rounded=0;exitX=1;exitY=0.5;exitDx=0;exitDy=0;fontFamily=Times New Roman;fontSize=13;" edge="1" parent="1" source="YfHYK15kVr6HZqa1mmcm-8">
          <mxGeometry width="50" height="50" relative="1" as="geometry">
            <mxPoint x="480" y="740" as="sourcePoint" />
            <mxPoint x="700" y="710" as="targetPoint" />
          </mxGeometry>
        </mxCell>
        <mxCell id="YfHYK15kVr6HZqa1mmcm-45" value="" style="endArrow=classic;html=1;rounded=0;exitX=1;exitY=0.5;exitDx=0;exitDy=0;fontFamily=Times New Roman;fontSize=13;" edge="1" parent="1" source="YfHYK15kVr6HZqa1mmcm-8">
          <mxGeometry width="50" height="50" relative="1" as="geometry">
            <mxPoint x="480" y="740" as="sourcePoint" />
            <mxPoint x="700" y="760" as="targetPoint" />
          </mxGeometry>
        </mxCell>
        <mxCell id="YfHYK15kVr6HZqa1mmcm-46" value="" style="endArrow=classic;html=1;rounded=0;exitX=1;exitY=0.5;exitDx=0;exitDy=0;entryX=0;entryY=0.5;entryDx=0;entryDy=0;fontFamily=Times New Roman;fontSize=13;" edge="1" parent="1" source="YfHYK15kVr6HZqa1mmcm-2" target="YfHYK15kVr6HZqa1mmcm-20">
          <mxGeometry width="50" height="50" relative="1" as="geometry">
            <mxPoint x="480" y="740" as="sourcePoint" />
            <mxPoint x="530" y="690" as="targetPoint" />
          </mxGeometry>
        </mxCell>
        <mxCell id="YfHYK15kVr6HZqa1mmcm-47" value="" style="endArrow=classic;html=1;rounded=0;exitX=1;exitY=0.5;exitDx=0;exitDy=0;entryX=0;entryY=0.5;entryDx=0;entryDy=0;fontFamily=Times New Roman;fontSize=13;" edge="1" parent="1" source="YfHYK15kVr6HZqa1mmcm-2" target="YfHYK15kVr6HZqa1mmcm-21">
          <mxGeometry width="50" height="50" relative="1" as="geometry">
            <mxPoint x="480" y="740" as="sourcePoint" />
            <mxPoint x="530" y="690" as="targetPoint" />
          </mxGeometry>
        </mxCell>
        <mxCell id="YfHYK15kVr6HZqa1mmcm-48" value="" style="endArrow=classic;html=1;rounded=0;entryX=0;entryY=0.5;entryDx=0;entryDy=0;exitX=1;exitY=0.5;exitDx=0;exitDy=0;fontFamily=Times New Roman;fontSize=13;" edge="1" parent="1" source="YfHYK15kVr6HZqa1mmcm-20" target="YfHYK15kVr6HZqa1mmcm-28">
          <mxGeometry width="50" height="50" relative="1" as="geometry">
            <mxPoint x="720" y="710" as="sourcePoint" />
            <mxPoint x="530" y="690" as="targetPoint" />
          </mxGeometry>
        </mxCell>
        <mxCell id="YfHYK15kVr6HZqa1mmcm-49" value="" style="endArrow=classic;html=1;rounded=0;exitX=1;exitY=0.5;exitDx=0;exitDy=0;entryX=0;entryY=0.5;entryDx=0;entryDy=0;fontFamily=Times New Roman;fontSize=13;" edge="1" parent="1" source="YfHYK15kVr6HZqa1mmcm-20" target="YfHYK15kVr6HZqa1mmcm-29">
          <mxGeometry width="50" height="50" relative="1" as="geometry">
            <mxPoint x="480" y="740" as="sourcePoint" />
            <mxPoint x="530" y="690" as="targetPoint" />
          </mxGeometry>
        </mxCell>
        <mxCell id="YfHYK15kVr6HZqa1mmcm-50" value="" style="endArrow=classic;html=1;rounded=0;exitX=1;exitY=0.5;exitDx=0;exitDy=0;entryX=0;entryY=0.5;entryDx=0;entryDy=0;fontFamily=Times New Roman;fontSize=13;" edge="1" parent="1" source="YfHYK15kVr6HZqa1mmcm-21" target="YfHYK15kVr6HZqa1mmcm-28">
          <mxGeometry width="50" height="50" relative="1" as="geometry">
            <mxPoint x="480" y="740" as="sourcePoint" />
            <mxPoint x="530" y="690" as="targetPoint" />
          </mxGeometry>
        </mxCell>
        <mxCell id="YfHYK15kVr6HZqa1mmcm-51" value="" style="endArrow=classic;html=1;rounded=0;exitX=1;exitY=0.5;exitDx=0;exitDy=0;fontFamily=Times New Roman;fontSize=13;" edge="1" parent="1" source="YfHYK15kVr6HZqa1mmcm-21">
          <mxGeometry width="50" height="50" relative="1" as="geometry">
            <mxPoint x="480" y="740" as="sourcePoint" />
            <mxPoint x="790" y="720" as="targetPoint" />
          </mxGeometry>
        </mxCell>
        <mxCell id="YfHYK15kVr6HZqa1mmcm-52" value="" style="endArrow=classic;html=1;rounded=0;entryX=0;entryY=0.5;entryDx=0;entryDy=0;fontFamily=Times New Roman;fontSize=13;" edge="1" parent="1" target="YfHYK15kVr6HZqa1mmcm-3">
          <mxGeometry width="50" height="50" relative="1" as="geometry">
            <mxPoint x="470" y="666" as="sourcePoint" />
            <mxPoint x="530" y="690" as="targetPoint" />
          </mxGeometry>
        </mxCell>
        <mxCell id="YfHYK15kVr6HZqa1mmcm-53" value="" style="endArrow=classic;html=1;rounded=0;entryX=0;entryY=0.5;entryDx=0;entryDy=0;fontFamily=Times New Roman;fontSize=13;" edge="1" parent="1" target="YfHYK15kVr6HZqa1mmcm-4">
          <mxGeometry width="50" height="50" relative="1" as="geometry">
            <mxPoint x="470" y="721" as="sourcePoint" />
            <mxPoint x="506" y="676" as="targetPoint" />
          </mxGeometry>
        </mxCell>
        <mxCell id="YfHYK15kVr6HZqa1mmcm-54" value="" style="endArrow=classic;html=1;rounded=0;exitX=1;exitY=0.5;exitDx=0;exitDy=0;fontFamily=Times New Roman;fontSize=13;" edge="1" parent="1" source="YfHYK15kVr6HZqa1mmcm-28">
          <mxGeometry width="50" height="50" relative="1" as="geometry">
            <mxPoint x="490" y="686" as="sourcePoint" />
            <mxPoint x="830" y="656" as="targetPoint" />
          </mxGeometry>
        </mxCell>
        <mxCell id="YfHYK15kVr6HZqa1mmcm-55" value="" style="endArrow=classic;html=1;rounded=0;fontFamily=Times New Roman;fontSize=13;" edge="1" parent="1">
          <mxGeometry width="50" height="50" relative="1" as="geometry">
            <mxPoint x="807" y="720" as="sourcePoint" />
            <mxPoint x="830" y="720" as="targetPoint" />
          </mxGeometry>
        </mxCell>
        <mxCell id="YfHYK15kVr6HZqa1mmcm-58" value="After Applying Dropout" style="text;html=1;strokeColor=none;fillColor=none;align=center;verticalAlign=middle;whiteSpace=wrap;rounded=0;fontFamily=Times New Roman;fontSize=13;" vertex="1" parent="1">
          <mxGeometry x="588" y="814.15" width="155" height="30" as="geometry" />
        </mxCell>
        <mxCell id="YfHYK15kVr6HZqa1mmcm-59" value="Standard MLP" style="text;html=1;strokeColor=none;fillColor=none;align=center;verticalAlign=middle;whiteSpace=wrap;rounded=0;fontFamily=Times New Roman;fontSize=13;" vertex="1" parent="1">
          <mxGeometry x="140.81" y="814.15" width="155" height="30" as="geometry" />
        </mxCell>
      </root>
    </mxGraphModel>
  </diagram>
</mxfile>
